<?xml version="1.0" encoding="utf-8" standalone="no"?>
<!DOCTYPE svg PUBLIC "-//W3C//DTD SVG 1.1//EN"
  "http://www.w3.org/Graphics/SVG/1.1/DTD/svg11.dtd">
<svg xmlns:xlink="http://www.w3.org/1999/xlink" width="460.8pt" height="345.6pt" viewBox="0 0 460.8 345.6" xmlns="http://www.w3.org/2000/svg" version="1.1">
 <metadata>
  <rdf:RDF xmlns:dc="http://purl.org/dc/elements/1.1/" xmlns:cc="http://creativecommons.org/ns#" xmlns:rdf="http://www.w3.org/1999/02/22-rdf-syntax-ns#">
   <cc:Work>
    <dc:type rdf:resource="http://purl.org/dc/dcmitype/StillImage"/>
    <dc:date>2023-12-08T02:41:16.616755</dc:date>
    <dc:format>image/svg+xml</dc:format>
    <dc:creator>
     <cc:Agent>
      <dc:title>Matplotlib v3.7.3, https://matplotlib.org/</dc:title>
     </cc:Agent>
    </dc:creator>
   </cc:Work>
  </rdf:RDF>
 </metadata>
 <defs>
  <style type="text/css">*{stroke-linejoin: round; stroke-linecap: butt}</style>
 </defs>
 <g id="figure_1">
  <g id="patch_1">
   <path d="M 0 345.6 
L 460.8 345.6 
L 460.8 0 
L 0 0 
z
" style="fill: #ffffff"/>
  </g>
  <g id="axes_1">
   <g id="patch_2">
    <path d="M 57.6 307.584 
L 414.72 307.584 
L 414.72 41.472 
L 57.6 41.472 
z
" style="fill: #ffffff"/>
   </g>
   <g id="matplotlib.axis_1">
    <g id="xtick_1">
     <g id="line2d_1">
      <defs>
       <path id="m99207b196f" d="M 0 0 
L 0 3.5 
" style="stroke: #000000; stroke-width: 0.8"/>
      </defs>
      <g>
       <use xlink:href="#m99207b196f" x="73.832727" y="307.584" style="stroke: #000000; stroke-width: 0.8"/>
      </g>
     </g>
     <g id="text_1">
      <!-- 0 -->
      <g transform="translate(70.651477 322.182437) scale(0.1 -0.1)">
       <defs>
        <path id="DejaVuSans-30" d="M 2034 4250 
Q 1547 4250 1301 3770 
Q 1056 3291 1056 2328 
Q 1056 1369 1301 889 
Q 1547 409 2034 409 
Q 2525 409 2770 889 
Q 3016 1369 3016 2328 
Q 3016 3291 2770 3770 
Q 2525 4250 2034 4250 
z
M 2034 4750 
Q 2819 4750 3233 4129 
Q 3647 3509 3647 2328 
Q 3647 1150 3233 529 
Q 2819 -91 2034 -91 
Q 1250 -91 836 529 
Q 422 1150 422 2328 
Q 422 3509 836 4129 
Q 1250 4750 2034 4750 
z
" transform="scale(0.015625)"/>
       </defs>
       <use xlink:href="#DejaVuSans-30"/>
      </g>
     </g>
    </g>
    <g id="xtick_2">
     <g id="line2d_2">
      <g>
       <use xlink:href="#m99207b196f" x="128.122785" y="307.584" style="stroke: #000000; stroke-width: 0.8"/>
      </g>
     </g>
     <g id="text_2">
      <!-- 50 -->
      <g transform="translate(121.760285 322.182437) scale(0.1 -0.1)">
       <defs>
        <path id="DejaVuSans-35" d="M 691 4666 
L 3169 4666 
L 3169 4134 
L 1269 4134 
L 1269 2991 
Q 1406 3038 1543 3061 
Q 1681 3084 1819 3084 
Q 2600 3084 3056 2656 
Q 3513 2228 3513 1497 
Q 3513 744 3044 326 
Q 2575 -91 1722 -91 
Q 1428 -91 1123 -41 
Q 819 9 494 109 
L 494 744 
Q 775 591 1075 516 
Q 1375 441 1709 441 
Q 2250 441 2565 725 
Q 2881 1009 2881 1497 
Q 2881 1984 2565 2268 
Q 2250 2553 1709 2553 
Q 1456 2553 1204 2497 
Q 953 2441 691 2322 
L 691 4666 
z
" transform="scale(0.015625)"/>
       </defs>
       <use xlink:href="#DejaVuSans-35"/>
       <use xlink:href="#DejaVuSans-30" x="63.623047"/>
      </g>
     </g>
    </g>
    <g id="xtick_3">
     <g id="line2d_3">
      <g>
       <use xlink:href="#m99207b196f" x="182.412843" y="307.584" style="stroke: #000000; stroke-width: 0.8"/>
      </g>
     </g>
     <g id="text_3">
      <!-- 100 -->
      <g transform="translate(172.869093 322.182437) scale(0.1 -0.1)">
       <defs>
        <path id="DejaVuSans-31" d="M 794 531 
L 1825 531 
L 1825 4091 
L 703 3866 
L 703 4441 
L 1819 4666 
L 2450 4666 
L 2450 531 
L 3481 531 
L 3481 0 
L 794 0 
L 794 531 
z
" transform="scale(0.015625)"/>
       </defs>
       <use xlink:href="#DejaVuSans-31"/>
       <use xlink:href="#DejaVuSans-30" x="63.623047"/>
       <use xlink:href="#DejaVuSans-30" x="127.246094"/>
      </g>
     </g>
    </g>
    <g id="xtick_4">
     <g id="line2d_4">
      <g>
       <use xlink:href="#m99207b196f" x="236.702901" y="307.584" style="stroke: #000000; stroke-width: 0.8"/>
      </g>
     </g>
     <g id="text_4">
      <!-- 150 -->
      <g transform="translate(227.159151 322.182437) scale(0.1 -0.1)">
       <use xlink:href="#DejaVuSans-31"/>
       <use xlink:href="#DejaVuSans-35" x="63.623047"/>
       <use xlink:href="#DejaVuSans-30" x="127.246094"/>
      </g>
     </g>
    </g>
    <g id="xtick_5">
     <g id="line2d_5">
      <g>
       <use xlink:href="#m99207b196f" x="290.992958" y="307.584" style="stroke: #000000; stroke-width: 0.8"/>
      </g>
     </g>
     <g id="text_5">
      <!-- 200 -->
      <g transform="translate(281.449208 322.182437) scale(0.1 -0.1)">
       <defs>
        <path id="DejaVuSans-32" d="M 1228 531 
L 3431 531 
L 3431 0 
L 469 0 
L 469 531 
Q 828 903 1448 1529 
Q 2069 2156 2228 2338 
Q 2531 2678 2651 2914 
Q 2772 3150 2772 3378 
Q 2772 3750 2511 3984 
Q 2250 4219 1831 4219 
Q 1534 4219 1204 4116 
Q 875 4013 500 3803 
L 500 4441 
Q 881 4594 1212 4672 
Q 1544 4750 1819 4750 
Q 2544 4750 2975 4387 
Q 3406 4025 3406 3419 
Q 3406 3131 3298 2873 
Q 3191 2616 2906 2266 
Q 2828 2175 2409 1742 
Q 1991 1309 1228 531 
z
" transform="scale(0.015625)"/>
       </defs>
       <use xlink:href="#DejaVuSans-32"/>
       <use xlink:href="#DejaVuSans-30" x="63.623047"/>
       <use xlink:href="#DejaVuSans-30" x="127.246094"/>
      </g>
     </g>
    </g>
    <g id="xtick_6">
     <g id="line2d_6">
      <g>
       <use xlink:href="#m99207b196f" x="345.283016" y="307.584" style="stroke: #000000; stroke-width: 0.8"/>
      </g>
     </g>
     <g id="text_6">
      <!-- 250 -->
      <g transform="translate(335.739266 322.182437) scale(0.1 -0.1)">
       <use xlink:href="#DejaVuSans-32"/>
       <use xlink:href="#DejaVuSans-35" x="63.623047"/>
       <use xlink:href="#DejaVuSans-30" x="127.246094"/>
      </g>
     </g>
    </g>
    <g id="xtick_7">
     <g id="line2d_7">
      <g>
       <use xlink:href="#m99207b196f" x="399.573074" y="307.584" style="stroke: #000000; stroke-width: 0.8"/>
      </g>
     </g>
     <g id="text_7">
      <!-- 300 -->
      <g transform="translate(390.029324 322.182437) scale(0.1 -0.1)">
       <defs>
        <path id="DejaVuSans-33" d="M 2597 2516 
Q 3050 2419 3304 2112 
Q 3559 1806 3559 1356 
Q 3559 666 3084 287 
Q 2609 -91 1734 -91 
Q 1441 -91 1130 -33 
Q 819 25 488 141 
L 488 750 
Q 750 597 1062 519 
Q 1375 441 1716 441 
Q 2309 441 2620 675 
Q 2931 909 2931 1356 
Q 2931 1769 2642 2001 
Q 2353 2234 1838 2234 
L 1294 2234 
L 1294 2753 
L 1863 2753 
Q 2328 2753 2575 2939 
Q 2822 3125 2822 3475 
Q 2822 3834 2567 4026 
Q 2313 4219 1838 4219 
Q 1578 4219 1281 4162 
Q 984 4106 628 3988 
L 628 4550 
Q 988 4650 1302 4700 
Q 1616 4750 1894 4750 
Q 2613 4750 3031 4423 
Q 3450 4097 3450 3541 
Q 3450 3153 3228 2886 
Q 3006 2619 2597 2516 
z
" transform="scale(0.015625)"/>
       </defs>
       <use xlink:href="#DejaVuSans-33"/>
       <use xlink:href="#DejaVuSans-30" x="63.623047"/>
       <use xlink:href="#DejaVuSans-30" x="127.246094"/>
      </g>
     </g>
    </g>
   </g>
   <g id="matplotlib.axis_2">
    <g id="ytick_1">
     <g id="line2d_8">
      <defs>
       <path id="m28392c701f" d="M 0 0 
L -3.5 0 
" style="stroke: #000000; stroke-width: 0.8"/>
      </defs>
      <g>
       <use xlink:href="#m28392c701f" x="57.6" y="295.53035" style="stroke: #000000; stroke-width: 0.8"/>
      </g>
     </g>
     <g id="text_8">
      <!-- 0 -->
      <g transform="translate(44.2375 299.329569) scale(0.1 -0.1)">
       <use xlink:href="#DejaVuSans-30"/>
      </g>
     </g>
    </g>
    <g id="ytick_2">
     <g id="line2d_9">
      <g>
       <use xlink:href="#m28392c701f" x="57.6" y="263.923254" style="stroke: #000000; stroke-width: 0.8"/>
      </g>
     </g>
     <g id="text_9">
      <!-- 500 -->
      <g transform="translate(31.5125 267.722473) scale(0.1 -0.1)">
       <use xlink:href="#DejaVuSans-35"/>
       <use xlink:href="#DejaVuSans-30" x="63.623047"/>
       <use xlink:href="#DejaVuSans-30" x="127.246094"/>
      </g>
     </g>
    </g>
    <g id="ytick_3">
     <g id="line2d_10">
      <g>
       <use xlink:href="#m28392c701f" x="57.6" y="232.316158" style="stroke: #000000; stroke-width: 0.8"/>
      </g>
     </g>
     <g id="text_10">
      <!-- 1000 -->
      <g transform="translate(25.15 236.115377) scale(0.1 -0.1)">
       <use xlink:href="#DejaVuSans-31"/>
       <use xlink:href="#DejaVuSans-30" x="63.623047"/>
       <use xlink:href="#DejaVuSans-30" x="127.246094"/>
       <use xlink:href="#DejaVuSans-30" x="190.869141"/>
      </g>
     </g>
    </g>
    <g id="ytick_4">
     <g id="line2d_11">
      <g>
       <use xlink:href="#m28392c701f" x="57.6" y="200.709063" style="stroke: #000000; stroke-width: 0.8"/>
      </g>
     </g>
     <g id="text_11">
      <!-- 1500 -->
      <g transform="translate(25.15 204.508281) scale(0.1 -0.1)">
       <use xlink:href="#DejaVuSans-31"/>
       <use xlink:href="#DejaVuSans-35" x="63.623047"/>
       <use xlink:href="#DejaVuSans-30" x="127.246094"/>
       <use xlink:href="#DejaVuSans-30" x="190.869141"/>
      </g>
     </g>
    </g>
    <g id="ytick_5">
     <g id="line2d_12">
      <g>
       <use xlink:href="#m28392c701f" x="57.6" y="169.101967" style="stroke: #000000; stroke-width: 0.8"/>
      </g>
     </g>
     <g id="text_12">
      <!-- 2000 -->
      <g transform="translate(25.15 172.901185) scale(0.1 -0.1)">
       <use xlink:href="#DejaVuSans-32"/>
       <use xlink:href="#DejaVuSans-30" x="63.623047"/>
       <use xlink:href="#DejaVuSans-30" x="127.246094"/>
       <use xlink:href="#DejaVuSans-30" x="190.869141"/>
      </g>
     </g>
    </g>
    <g id="ytick_6">
     <g id="line2d_13">
      <g>
       <use xlink:href="#m28392c701f" x="57.6" y="137.494871" style="stroke: #000000; stroke-width: 0.8"/>
      </g>
     </g>
     <g id="text_13">
      <!-- 2500 -->
      <g transform="translate(25.15 141.29409) scale(0.1 -0.1)">
       <use xlink:href="#DejaVuSans-32"/>
       <use xlink:href="#DejaVuSans-35" x="63.623047"/>
       <use xlink:href="#DejaVuSans-30" x="127.246094"/>
       <use xlink:href="#DejaVuSans-30" x="190.869141"/>
      </g>
     </g>
    </g>
    <g id="ytick_7">
     <g id="line2d_14">
      <g>
       <use xlink:href="#m28392c701f" x="57.6" y="105.887775" style="stroke: #000000; stroke-width: 0.8"/>
      </g>
     </g>
     <g id="text_14">
      <!-- 3000 -->
      <g transform="translate(25.15 109.686994) scale(0.1 -0.1)">
       <use xlink:href="#DejaVuSans-33"/>
       <use xlink:href="#DejaVuSans-30" x="63.623047"/>
       <use xlink:href="#DejaVuSans-30" x="127.246094"/>
       <use xlink:href="#DejaVuSans-30" x="190.869141"/>
      </g>
     </g>
    </g>
    <g id="ytick_8">
     <g id="line2d_15">
      <g>
       <use xlink:href="#m28392c701f" x="57.6" y="74.280679" style="stroke: #000000; stroke-width: 0.8"/>
      </g>
     </g>
     <g id="text_15">
      <!-- 3500 -->
      <g transform="translate(25.15 78.079898) scale(0.1 -0.1)">
       <use xlink:href="#DejaVuSans-33"/>
       <use xlink:href="#DejaVuSans-35" x="63.623047"/>
       <use xlink:href="#DejaVuSans-30" x="127.246094"/>
       <use xlink:href="#DejaVuSans-30" x="190.869141"/>
      </g>
     </g>
    </g>
    <g id="ytick_9">
     <g id="line2d_16">
      <g>
       <use xlink:href="#m28392c701f" x="57.6" y="42.673583" style="stroke: #000000; stroke-width: 0.8"/>
      </g>
     </g>
     <g id="text_16">
      <!-- 4000 -->
      <g transform="translate(25.15 46.472802) scale(0.1 -0.1)">
       <defs>
        <path id="DejaVuSans-34" d="M 2419 4116 
L 825 1625 
L 2419 1625 
L 2419 4116 
z
M 2253 4666 
L 3047 4666 
L 3047 1625 
L 3713 1625 
L 3713 1100 
L 3047 1100 
L 3047 0 
L 2419 0 
L 2419 1100 
L 313 1100 
L 313 1709 
L 2253 4666 
z
" transform="scale(0.015625)"/>
       </defs>
       <use xlink:href="#DejaVuSans-34"/>
       <use xlink:href="#DejaVuSans-30" x="63.623047"/>
       <use xlink:href="#DejaVuSans-30" x="127.246094"/>
       <use xlink:href="#DejaVuSans-30" x="190.869141"/>
      </g>
     </g>
    </g>
   </g>
   <g id="line2d_17">
    <path d="M 73.832727 158.682101 
L 74.918528 114.911971 
L 76.00433 204.800851 
L 77.090131 231.534097 
L 78.175932 243.274439 
L 79.261733 246.007797 
L 80.347534 248.269149 
L 81.433335 248.74349 
L 82.519137 239.969761 
L 83.604938 245.969528 
L 84.690739 200.481571 
L 85.77654 236.811476 
L 86.862341 150.866992 
L 87.948142 141.145202 
L 89.033943 137.583114 
L 90.119745 119.887114 
L 91.205546 195.782103 
L 92.291347 207.059076 
L 94.462949 188.270143 
L 95.54875 216.677073 
L 96.634552 234.953375 
L 97.720353 235.265246 
L 98.806154 236.023573 
L 99.891955 242.962963 
L 100.977756 241.37632 
L 102.063557 238.082876 
L 103.149358 229.138764 
L 104.23516 231.588963 
L 105.320961 226.357823 
L 106.406762 234.223985 
L 107.492563 234.29346 
L 108.578364 237.482517 
L 109.664165 229.207433 
L 110.749967 242.917235 
L 111.835768 242.892978 
L 112.921569 249.425833 
L 114.00737 245.146456 
L 115.093171 245.214942 
L 116.178972 240.337158 
L 117.264773 233.57325 
L 118.350575 240.815483 
L 119.436376 234.087819 
L 120.522177 233.785343 
L 121.607978 245.725687 
L 122.693779 239.705657 
L 123.77958 242.308056 
L 124.865382 242.132276 
L 125.951183 251.332994 
L 127.036984 251.744903 
L 128.122785 244.024601 
L 129.208586 244.157452 
L 130.294387 245.685165 
L 131.380189 238.959954 
L 132.46599 245.99894 
L 133.551791 243.284917 
L 134.637592 249.321173 
L 135.723393 243.175374 
L 136.809194 247.536457 
L 137.894995 245.121404 
L 138.980797 257.649315 
L 140.066598 259.28518 
L 141.152399 257.672552 
L 142.2382 256.335903 
L 143.324001 253.956523 
L 145.495604 244.848339 
L 146.581405 242.851713 
L 147.667206 231.299777 
L 148.753007 210.907475 
L 149.838808 228.581118 
L 150.924609 183.771742 
L 152.01041 221.631719 
L 153.096212 245.139927 
L 154.182013 245.895291 
L 155.267814 245.145493 
L 156.353615 249.627129 
L 157.439416 246.144339 
L 158.525217 241.699432 
L 159.611019 241.770832 
L 160.69682 221.692255 
L 161.782621 231.415543 
L 162.868422 233.999065 
L 163.954223 238.705161 
L 165.040024 247.822215 
L 166.125825 250.923482 
L 167.211627 258.25496 
L 168.297428 256.336242 
L 169.383229 255.567946 
L 170.46903 256.60693 
L 171.554831 260.164525 
L 172.640632 255.200974 
L 173.726434 257.265755 
L 174.812235 256.538212 
L 175.898036 260.325956 
L 176.983837 262.909689 
L 178.069638 259.345037 
L 179.155439 265.166565 
L 180.24124 265.137542 
L 181.327042 262.339078 
L 182.412843 267.344714 
L 183.498644 268.124968 
L 184.584445 270.766283 
L 185.670246 268.61078 
L 186.756047 268.66133 
L 187.841849 265.064378 
L 188.92765 260.83835 
L 190.013451 264.260998 
L 191.099252 271.098383 
L 192.185053 267.700682 
L 193.270854 271.170086 
L 194.356656 266.899945 
L 195.442457 268.70871 
L 196.528258 271.435966 
L 197.614059 264.104991 
L 198.69986 245.653107 
L 199.785661 242.442459 
L 200.871462 264.287434 
L 201.957264 273.892214 
L 203.043065 273.943466 
L 204.128866 274.592449 
L 205.214667 271.945916 
L 206.300468 271.59115 
L 207.386269 275.212864 
L 208.472071 274.019629 
L 209.557872 274.702928 
L 210.643673 273.06669 
L 211.729474 272.94522 
L 212.815275 259.106524 
L 213.901076 242.625625 
L 214.986877 271.584636 
L 216.072679 274.424242 
L 217.15848 271.738914 
L 218.244281 275.75675 
L 219.330082 274.73016 
L 220.415883 272.09728 
L 221.501684 279.634739 
L 222.587486 278.095365 
L 224.759088 274.361072 
L 225.844889 278.227598 
L 226.93069 272.513145 
L 228.016491 277.178879 
L 229.102292 275.160307 
L 230.188094 279.749266 
L 231.273895 281.004817 
L 232.359696 281.565219 
L 233.445497 280.8242 
L 234.531298 274.636842 
L 235.617099 266.77251 
L 236.702901 268.468977 
L 237.788702 262.316774 
L 238.874503 273.290662 
L 239.960304 274.229802 
L 241.046105 276.092893 
L 242.131906 275.795356 
L 243.217708 273.719291 
L 244.303509 273.991169 
L 245.38931 276.427903 
L 246.475111 274.739903 
L 247.560912 277.002591 
L 248.646713 275.409992 
L 249.732514 276.044872 
L 250.818316 273.716481 
L 251.904117 270.792734 
L 252.989918 278.336718 
L 254.075719 275.500731 
L 255.16152 278.655524 
L 256.247321 279.073146 
L 257.333123 277.661297 
L 258.418924 278.410798 
L 259.504725 272.540946 
L 260.590526 271.900255 
L 261.676327 259.638321 
L 262.762128 279.230101 
L 263.847929 275.759339 
L 264.933731 278.191734 
L 266.019532 280.24092 
L 267.105333 279.554239 
L 268.191134 276.616325 
L 269.276935 276.189808 
L 270.362736 272.051932 
L 271.448538 268.505805 
L 272.534339 279.594765 
L 273.62014 280.438289 
L 274.705941 279.791966 
L 275.791742 280.26034 
L 276.877543 271.517401 
L 277.963344 277.258337 
L 279.049146 268.687659 
L 280.134947 277.588053 
L 281.220748 275.290551 
L 282.306549 280.811933 
L 283.39235 281.236328 
L 284.478151 280.857223 
L 285.563953 278.871738 
L 286.649754 259.140609 
L 287.735555 197.188525 
L 288.821356 215.454092 
L 289.907157 242.301728 
L 290.992958 256.202492 
L 292.07876 252.0311 
L 293.164561 271.567072 
L 294.250362 277.400455 
L 295.336163 281.390952 
L 296.421964 277.825227 
L 297.507765 278.096466 
L 298.593566 281.760627 
L 299.679368 275.689243 
L 300.765169 275.160345 
L 301.85097 282.839201 
L 302.936771 276.55194 
L 304.022572 275.760968 
L 305.108373 281.438645 
L 306.194175 271.611094 
L 307.279976 283.529225 
L 308.365777 281.542723 
L 309.451578 278.741005 
L 310.537379 283.651062 
L 311.62318 282.597066 
L 312.708981 282.341466 
L 313.794783 265.929735 
L 314.880584 270.862797 
L 315.966385 229.974145 
L 317.052186 262.016713 
L 318.137987 278.41978 
L 319.223788 280.025515 
L 320.30959 283.139714 
L 321.395391 280.736368 
L 322.481192 283.867213 
L 323.566993 284.722699 
L 324.652794 280.801924 
L 325.738595 279.467059 
L 326.824396 281.535696 
L 327.910198 283.126637 
L 328.995999 275.067269 
L 330.0818 278.710188 
L 331.167601 283.766197 
L 332.253402 284.625595 
L 333.339203 284.826391 
L 334.425005 281.510063 
L 335.510806 279.994794 
L 336.596607 281.887527 
L 337.682408 281.24048 
L 338.768209 278.964767 
L 339.85401 285.153705 
L 340.939811 284.026966 
L 343.111414 284.933192 
L 344.197215 284.167343 
L 345.283016 282.501442 
L 346.368817 273.340549 
L 347.454618 248.331755 
L 348.54042 257.582708 
L 349.626221 183.598885 
L 350.712022 200.061962 
L 351.797823 185.024655 
L 352.883624 136.196504 
L 353.969425 155.381472 
L 355.055227 177.760549 
L 356.141028 232.590601 
L 357.226829 264.336464 
L 358.31263 265.783024 
L 359.398431 272.289852 
L 360.484232 271.774485 
L 361.570033 276.267035 
L 362.655835 274.508487 
L 363.741636 276.730956 
L 364.827437 272.04053 
L 365.913238 276.566288 
L 368.08484 278.563836 
L 369.170642 278.545648 
L 370.256443 276.663107 
L 371.342244 278.138251 
L 372.428045 274.628983 
L 373.513846 280.189013 
L 374.599647 281.975709 
L 375.685448 282.080287 
L 376.77125 280.890342 
L 377.857051 282.899894 
L 378.942852 283.237666 
L 380.028653 279.522409 
L 381.114454 274.479436 
L 382.200255 282.351409 
L 383.286057 278.536246 
L 384.371858 283.096951 
L 385.457659 283.478098 
L 386.54346 281.678603 
L 387.629261 283.287881 
L 388.715062 278.78163 
L 389.800863 255.182606 
L 391.972466 281.111851 
L 393.058267 279.804658 
L 394.144068 283.130512 
L 395.229869 283.742428 
L 396.31567 283.346671 
L 397.401472 277.85361 
L 398.487273 281.892051 
L 398.487273 281.892051 
" clip-path="url(#pcb1f4097a2)" style="fill: none; stroke: #1f77b4; stroke-width: 1.5; stroke-linecap: square"/>
   </g>
   <g id="line2d_18">
    <path d="M 73.832727 262.041112 
L 74.918528 110.880739 
L 76.00433 294.440103 
L 77.090131 284.249492 
L 78.175932 277.574472 
L 79.261733 281.574923 
L 81.433335 286.090262 
L 82.519137 291.678431 
L 83.604938 295.115288 
L 84.690739 268.703183 
L 85.77654 294.403839 
L 86.862341 101.9701 
L 87.948142 271.506117 
L 89.033943 58.494139 
L 90.119745 217.547527 
L 91.205546 188.930072 
L 92.291347 287.848117 
L 93.377148 159.772071 
L 94.462949 280.50108 
L 95.54875 186.201452 
L 96.634552 295.34209 
L 97.720353 251.665554 
L 98.806154 295.398144 
L 99.891955 256.666671 
L 100.977756 295.178592 
L 102.063557 254.602587 
L 103.149358 295.488 
L 104.23516 249.617363 
L 105.320961 295.446281 
L 106.406762 245.746983 
L 107.492563 295.013868 
L 108.578364 243.324691 
L 109.664165 295.277158 
L 110.749967 249.679635 
L 111.835768 295.404552 
L 112.921569 262.792116 
L 114.00737 295.439666 
L 115.093171 257.796883 
L 116.178972 295.30934 
L 117.264773 259.629103 
L 118.350575 295.339338 
L 119.436376 241.674135 
L 120.522177 294.651273 
L 121.607978 236.436887 
L 122.693779 294.482129 
L 123.77958 250.031091 
L 124.865382 295.382069 
L 125.951183 257.906694 
L 127.036984 295.049202 
L 128.122785 260.106103 
L 129.208586 295.306434 
L 130.294387 243.651739 
L 131.380189 295.06766 
L 132.46599 243.358502 
L 133.551791 295.30242 
L 134.637592 254.258953 
L 135.723393 295.162119 
L 136.809194 242.223949 
L 137.894995 295.316142 
L 138.980797 291.534894 
L 140.066598 273.600099 
L 141.152399 294.451093 
L 142.2382 262.112486 
L 143.324001 295.130886 
L 144.409802 242.203454 
L 145.495604 293.593482 
L 146.581405 228.977952 
L 147.667206 289.624284 
L 148.753007 220.345465 
L 149.838808 292.18431 
L 150.924609 221.364022 
L 152.01041 294.651323 
L 153.096212 242.80336 
L 154.182013 293.807915 
L 155.267814 261.496657 
L 156.353615 293.703325 
L 157.439416 244.512307 
L 158.525217 294.395474 
L 159.611019 222.701798 
L 160.69682 292.730197 
L 161.782621 209.852603 
L 162.868422 294.561442 
L 163.954223 239.656922 
L 165.040024 294.584233 
L 166.125825 254.327067 
L 167.211627 287.485884 
L 168.297428 293.23671 
L 169.383229 262.300026 
L 170.46903 291.911976 
L 171.554831 272.544207 
L 172.640632 293.804265 
L 173.726434 255.981478 
L 174.812235 293.70012 
L 175.898036 266.334997 
L 176.983837 294.472423 
L 178.069638 282.321839 
L 179.155439 288.037361 
L 180.24124 289.596207 
L 181.327042 284.255283 
L 182.412843 288.525556 
L 183.498644 286.463043 
L 184.584445 282.685109 
L 186.756047 288.442962 
L 187.841849 294.378837 
L 188.92765 294.913754 
L 190.013451 272.288899 
L 191.099252 286.033585 
L 192.185053 275.40278 
L 193.270854 291.866267 
L 194.356656 285.010937 
L 195.442457 288.049091 
L 196.528258 281.869198 
L 197.614059 293.767798 
L 198.69986 292.595467 
L 199.785661 226.760525 
L 200.871462 295.312253 
L 201.957264 278.016917 
L 203.043065 288.314396 
L 204.128866 286.092985 
L 205.214667 294.119505 
L 206.300468 287.236578 
L 207.386269 289.477459 
L 208.472071 280.058095 
L 209.557872 291.526362 
L 210.643673 291.91734 
L 211.729474 294.374607 
L 212.815275 291.86657 
L 213.901076 233.577556 
L 214.986877 295.209679 
L 216.072679 275.176451 
L 217.15848 292.873726 
L 218.244281 282.590206 
L 219.330082 292.041718 
L 220.415883 272.981693 
L 221.501684 280.960539 
L 222.587486 271.072812 
L 223.673287 279.71899 
L 224.759088 267.598993 
L 225.844889 281.105662 
L 226.93069 281.298074 
L 228.016491 288.556188 
L 229.102292 280.664156 
L 230.188094 283.86327 
L 231.273895 280.562853 
L 232.359696 283.181526 
L 234.531298 272.113906 
L 235.617099 236.681997 
L 236.702901 268.123591 
L 237.788702 292.123571 
L 238.874503 292.56954 
L 239.960304 282.219742 
L 241.046105 287.312377 
L 242.131906 291.17479 
L 243.217708 292.380154 
L 244.303509 293.153215 
L 245.38931 294.34758 
L 246.475111 293.789027 
L 247.560912 291.64167 
L 248.646713 290.381088 
L 249.732514 290.840952 
L 251.904117 294.173788 
L 252.989918 294.06975 
L 254.075719 291.067415 
L 255.16152 287.233462 
L 256.247321 288.617186 
L 257.333123 292.49582 
L 258.418924 293.834904 
L 259.504725 293.728719 
L 260.590526 294.61542 
L 261.676327 258.616156 
L 262.762128 289.121114 
L 263.847929 292.190876 
L 264.933731 293.188054 
L 266.019532 292.847224 
L 267.105333 291.319802 
L 268.191134 293.317707 
L 269.276935 294.61688 
L 270.362736 294.353163 
L 271.448538 283.202184 
L 272.534339 285.227401 
L 273.62014 290.193952 
L 274.705941 292.826195 
L 275.791742 293.943832 
L 276.877543 294.85409 
L 277.963344 293.166372 
L 279.049146 286.240788 
L 280.134947 280.04197 
L 281.220748 289.408464 
L 282.306549 290.126082 
L 283.39235 291.86723 
L 285.563953 294.793471 
L 286.649754 282.214129 
L 288.821356 178.485979 
L 289.907157 280.124287 
L 290.992958 230.048295 
L 292.07876 289.384022 
L 293.164561 266.291375 
L 294.250362 294.430974 
L 295.336163 285.429671 
L 296.421964 290.533584 
L 297.507765 289.800493 
L 298.593566 291.6111 
L 299.679368 292.07338 
L 300.765169 290.818256 
L 301.85097 292.65628 
L 302.936771 294.962438 
L 304.022572 290.650913 
L 305.108373 293.4684 
L 306.194175 270.566507 
L 307.279976 288.48474 
L 309.451578 293.284977 
L 310.537379 292.313753 
L 312.708981 295.168385 
L 313.794783 283.923186 
L 314.880584 287.350308 
L 315.966385 206.161032 
L 317.052186 288.630793 
L 318.137987 290.836344 
L 319.223788 284.206071 
L 320.30959 292.051812 
L 321.395391 291.961729 
L 322.481192 294.275714 
L 323.566993 293.104348 
L 324.652794 293.058334 
L 325.738595 294.288442 
L 326.824396 295.276348 
L 327.910198 294.804655 
L 328.995999 294.628722 
L 330.0818 288.196502 
L 332.253402 292.918167 
L 333.339203 294.897683 
L 334.425005 295.004192 
L 335.510806 293.29396 
L 337.682408 291.15807 
L 338.768209 284.670551 
L 339.85401 291.178044 
L 340.939811 292.558753 
L 342.025613 288.692454 
L 343.111414 289.308636 
L 344.197215 286.839765 
L 345.283016 281.634695 
L 346.368817 266.087094 
L 347.454618 202.666434 
L 348.54042 210.924467 
L 349.626221 240.049472 
L 350.712022 163.368582 
L 351.797823 219.585258 
L 352.883624 53.568 
L 353.969425 203.878569 
L 355.055227 109.171765 
L 356.141028 269.396564 
L 357.226829 242.037408 
L 358.31263 295.377516 
L 359.398431 274.889558 
L 360.484232 295.067246 
L 361.570033 277.815217 
L 362.655835 295.332588 
L 363.741636 275.69564 
L 364.827437 294.306139 
L 365.913238 276.071782 
L 366.999039 292.614143 
L 368.08484 272.506992 
L 369.170642 293.924653 
L 370.256443 295.43769 
L 371.342244 295.382995 
L 372.428045 277.803955 
L 373.513846 294.27937 
L 374.599647 289.094275 
L 375.685448 291.591482 
L 376.77125 291.697691 
L 377.857051 293.22276 
L 378.942852 293.592126 
L 380.028653 294.86331 
L 381.114454 293.801974 
L 382.200255 295.16476 
L 383.286057 284.218873 
L 384.371858 289.382341 
L 385.457659 292.876134 
L 386.54346 293.086475 
L 387.629261 294.565749 
L 388.715062 293.01334 
L 389.800863 272.257376 
L 390.886665 276.513867 
L 391.972466 282.644564 
L 393.058267 294.913601 
L 394.144068 291.271256 
L 395.229869 291.343825 
L 396.31567 291.731402 
L 397.401472 293.723684 
L 398.487273 295.045358 
L 398.487273 295.045358 
" clip-path="url(#pcb1f4097a2)" style="fill: none; stroke: #ff7f0e; stroke-opacity: 0.5; stroke-width: 1.5; stroke-linecap: square"/>
   </g>
   <g id="patch_3">
    <path d="M 57.6 307.584 
L 57.6 41.472 
" style="fill: none; stroke: #000000; stroke-width: 0.8; stroke-linejoin: miter; stroke-linecap: square"/>
   </g>
   <g id="patch_4">
    <path d="M 414.72 307.584 
L 414.72 41.472 
" style="fill: none; stroke: #000000; stroke-width: 0.8; stroke-linejoin: miter; stroke-linecap: square"/>
   </g>
   <g id="patch_5">
    <path d="M 57.6 307.584 
L 414.72 307.584 
" style="fill: none; stroke: #000000; stroke-width: 0.8; stroke-linejoin: miter; stroke-linecap: square"/>
   </g>
   <g id="patch_6">
    <path d="M 57.6 41.472 
L 414.72 41.472 
" style="fill: none; stroke: #000000; stroke-width: 0.8; stroke-linejoin: miter; stroke-linecap: square"/>
   </g>
   <g id="legend_1">
    <g id="patch_7">
     <path d="M 208.184219 78.82825 
L 264.135781 78.82825 
Q 266.135781 78.82825 266.135781 76.82825 
L 266.135781 48.472 
Q 266.135781 46.472 264.135781 46.472 
L 208.184219 46.472 
Q 206.184219 46.472 206.184219 48.472 
L 206.184219 76.82825 
Q 206.184219 78.82825 208.184219 78.82825 
z
" style="fill: #ffffff; opacity: 0.8; stroke: #cccccc; stroke-linejoin: miter"/>
    </g>
    <g id="line2d_19">
     <path d="M 210.184219 54.570437 
L 220.184219 54.570437 
L 230.184219 54.570437 
" style="fill: none; stroke: #1f77b4; stroke-width: 1.5; stroke-linecap: square"/>
    </g>
    <g id="text_17">
     <!-- train -->
     <g transform="translate(238.184219 58.070437) scale(0.1 -0.1)">
      <defs>
       <path id="DejaVuSans-74" d="M 1172 4494 
L 1172 3500 
L 2356 3500 
L 2356 3053 
L 1172 3053 
L 1172 1153 
Q 1172 725 1289 603 
Q 1406 481 1766 481 
L 2356 481 
L 2356 0 
L 1766 0 
Q 1100 0 847 248 
Q 594 497 594 1153 
L 594 3053 
L 172 3053 
L 172 3500 
L 594 3500 
L 594 4494 
L 1172 4494 
z
" transform="scale(0.015625)"/>
       <path id="DejaVuSans-72" d="M 2631 2963 
Q 2534 3019 2420 3045 
Q 2306 3072 2169 3072 
Q 1681 3072 1420 2755 
Q 1159 2438 1159 1844 
L 1159 0 
L 581 0 
L 581 3500 
L 1159 3500 
L 1159 2956 
Q 1341 3275 1631 3429 
Q 1922 3584 2338 3584 
Q 2397 3584 2469 3576 
Q 2541 3569 2628 3553 
L 2631 2963 
z
" transform="scale(0.015625)"/>
       <path id="DejaVuSans-61" d="M 2194 1759 
Q 1497 1759 1228 1600 
Q 959 1441 959 1056 
Q 959 750 1161 570 
Q 1363 391 1709 391 
Q 2188 391 2477 730 
Q 2766 1069 2766 1631 
L 2766 1759 
L 2194 1759 
z
M 3341 1997 
L 3341 0 
L 2766 0 
L 2766 531 
Q 2569 213 2275 61 
Q 1981 -91 1556 -91 
Q 1019 -91 701 211 
Q 384 513 384 1019 
Q 384 1609 779 1909 
Q 1175 2209 1959 2209 
L 2766 2209 
L 2766 2266 
Q 2766 2663 2505 2880 
Q 2244 3097 1772 3097 
Q 1472 3097 1187 3025 
Q 903 2953 641 2809 
L 641 3341 
Q 956 3463 1253 3523 
Q 1550 3584 1831 3584 
Q 2591 3584 2966 3190 
Q 3341 2797 3341 1997 
z
" transform="scale(0.015625)"/>
       <path id="DejaVuSans-69" d="M 603 3500 
L 1178 3500 
L 1178 0 
L 603 0 
L 603 3500 
z
M 603 4863 
L 1178 4863 
L 1178 4134 
L 603 4134 
L 603 4863 
z
" transform="scale(0.015625)"/>
       <path id="DejaVuSans-6e" d="M 3513 2113 
L 3513 0 
L 2938 0 
L 2938 2094 
Q 2938 2591 2744 2837 
Q 2550 3084 2163 3084 
Q 1697 3084 1428 2787 
Q 1159 2491 1159 1978 
L 1159 0 
L 581 0 
L 581 3500 
L 1159 3500 
L 1159 2956 
Q 1366 3272 1645 3428 
Q 1925 3584 2291 3584 
Q 2894 3584 3203 3211 
Q 3513 2838 3513 2113 
z
" transform="scale(0.015625)"/>
      </defs>
      <use xlink:href="#DejaVuSans-74"/>
      <use xlink:href="#DejaVuSans-72" x="39.208984"/>
      <use xlink:href="#DejaVuSans-61" x="80.322266"/>
      <use xlink:href="#DejaVuSans-69" x="141.601562"/>
      <use xlink:href="#DejaVuSans-6e" x="169.384766"/>
     </g>
    </g>
    <g id="line2d_20">
     <path d="M 210.184219 69.248562 
L 220.184219 69.248562 
L 230.184219 69.248562 
" style="fill: none; stroke: #ff7f0e; stroke-opacity: 0.5; stroke-width: 1.5; stroke-linecap: square"/>
    </g>
    <g id="text_18">
     <!-- valid -->
     <g transform="translate(238.184219 72.748562) scale(0.1 -0.1)">
      <defs>
       <path id="DejaVuSans-76" d="M 191 3500 
L 800 3500 
L 1894 563 
L 2988 3500 
L 3597 3500 
L 2284 0 
L 1503 0 
L 191 3500 
z
" transform="scale(0.015625)"/>
       <path id="DejaVuSans-6c" d="M 603 4863 
L 1178 4863 
L 1178 0 
L 603 0 
L 603 4863 
z
" transform="scale(0.015625)"/>
       <path id="DejaVuSans-64" d="M 2906 2969 
L 2906 4863 
L 3481 4863 
L 3481 0 
L 2906 0 
L 2906 525 
Q 2725 213 2448 61 
Q 2172 -91 1784 -91 
Q 1150 -91 751 415 
Q 353 922 353 1747 
Q 353 2572 751 3078 
Q 1150 3584 1784 3584 
Q 2172 3584 2448 3432 
Q 2725 3281 2906 2969 
z
M 947 1747 
Q 947 1113 1208 752 
Q 1469 391 1925 391 
Q 2381 391 2643 752 
Q 2906 1113 2906 1747 
Q 2906 2381 2643 2742 
Q 2381 3103 1925 3103 
Q 1469 3103 1208 2742 
Q 947 2381 947 1747 
z
" transform="scale(0.015625)"/>
      </defs>
      <use xlink:href="#DejaVuSans-76"/>
      <use xlink:href="#DejaVuSans-61" x="59.179688"/>
      <use xlink:href="#DejaVuSans-6c" x="120.458984"/>
      <use xlink:href="#DejaVuSans-69" x="148.242188"/>
      <use xlink:href="#DejaVuSans-64" x="176.025391"/>
     </g>
    </g>
   </g>
  </g>
 </g>
 <defs>
  <clipPath id="pcb1f4097a2">
   <rect x="57.6" y="41.472" width="357.12" height="266.112"/>
  </clipPath>
 </defs>
</svg>
