<?xml version="1.0" encoding="utf-8" standalone="no"?>
<!DOCTYPE svg PUBLIC "-//W3C//DTD SVG 1.1//EN"
  "http://www.w3.org/Graphics/SVG/1.1/DTD/svg11.dtd">
<svg xmlns:xlink="http://www.w3.org/1999/xlink" width="460.8pt" height="345.6pt" viewBox="0 0 460.8 345.6" xmlns="http://www.w3.org/2000/svg" version="1.1">
 <metadata>
  <rdf:RDF xmlns:dc="http://purl.org/dc/elements/1.1/" xmlns:cc="http://creativecommons.org/ns#" xmlns:rdf="http://www.w3.org/1999/02/22-rdf-syntax-ns#">
   <cc:Work>
    <dc:type rdf:resource="http://purl.org/dc/dcmitype/StillImage"/>
    <dc:date>2023-12-05T03:34:58.053581</dc:date>
    <dc:format>image/svg+xml</dc:format>
    <dc:creator>
     <cc:Agent>
      <dc:title>Matplotlib v3.7.3, https://matplotlib.org/</dc:title>
     </cc:Agent>
    </dc:creator>
   </cc:Work>
  </rdf:RDF>
 </metadata>
 <defs>
  <style type="text/css">*{stroke-linejoin: round; stroke-linecap: butt}</style>
 </defs>
 <g id="figure_1">
  <g id="patch_1">
   <path d="M 0 345.6 
L 460.8 345.6 
L 460.8 0 
L 0 0 
z
" style="fill: #ffffff"/>
  </g>
  <g id="axes_1">
   <g id="patch_2">
    <path d="M 57.6 307.584 
L 414.72 307.584 
L 414.72 41.472 
L 57.6 41.472 
z
" style="fill: #ffffff"/>
   </g>
   <g id="matplotlib.axis_1">
    <g id="xtick_1">
     <g id="line2d_1">
      <defs>
       <path id="m9cd3addbcc" d="M 0 0 
L 0 3.5 
" style="stroke: #000000; stroke-width: 0.8"/>
      </defs>
      <g>
       <use xlink:href="#m9cd3addbcc" x="73.832727" y="307.584" style="stroke: #000000; stroke-width: 0.8"/>
      </g>
     </g>
     <g id="text_1">
      <!-- 0 -->
      <g transform="translate(70.651477 322.182437) scale(0.1 -0.1)">
       <defs>
        <path id="DejaVuSans-30" d="M 2034 4250 
Q 1547 4250 1301 3770 
Q 1056 3291 1056 2328 
Q 1056 1369 1301 889 
Q 1547 409 2034 409 
Q 2525 409 2770 889 
Q 3016 1369 3016 2328 
Q 3016 3291 2770 3770 
Q 2525 4250 2034 4250 
z
M 2034 4750 
Q 2819 4750 3233 4129 
Q 3647 3509 3647 2328 
Q 3647 1150 3233 529 
Q 2819 -91 2034 -91 
Q 1250 -91 836 529 
Q 422 1150 422 2328 
Q 422 3509 836 4129 
Q 1250 4750 2034 4750 
z
" transform="scale(0.015625)"/>
       </defs>
       <use xlink:href="#DejaVuSans-30"/>
      </g>
     </g>
    </g>
    <g id="xtick_2">
     <g id="line2d_2">
      <g>
       <use xlink:href="#m9cd3addbcc" x="128.122785" y="307.584" style="stroke: #000000; stroke-width: 0.8"/>
      </g>
     </g>
     <g id="text_2">
      <!-- 50 -->
      <g transform="translate(121.760285 322.182437) scale(0.1 -0.1)">
       <defs>
        <path id="DejaVuSans-35" d="M 691 4666 
L 3169 4666 
L 3169 4134 
L 1269 4134 
L 1269 2991 
Q 1406 3038 1543 3061 
Q 1681 3084 1819 3084 
Q 2600 3084 3056 2656 
Q 3513 2228 3513 1497 
Q 3513 744 3044 326 
Q 2575 -91 1722 -91 
Q 1428 -91 1123 -41 
Q 819 9 494 109 
L 494 744 
Q 775 591 1075 516 
Q 1375 441 1709 441 
Q 2250 441 2565 725 
Q 2881 1009 2881 1497 
Q 2881 1984 2565 2268 
Q 2250 2553 1709 2553 
Q 1456 2553 1204 2497 
Q 953 2441 691 2322 
L 691 4666 
z
" transform="scale(0.015625)"/>
       </defs>
       <use xlink:href="#DejaVuSans-35"/>
       <use xlink:href="#DejaVuSans-30" x="63.623047"/>
      </g>
     </g>
    </g>
    <g id="xtick_3">
     <g id="line2d_3">
      <g>
       <use xlink:href="#m9cd3addbcc" x="182.412843" y="307.584" style="stroke: #000000; stroke-width: 0.8"/>
      </g>
     </g>
     <g id="text_3">
      <!-- 100 -->
      <g transform="translate(172.869093 322.182437) scale(0.1 -0.1)">
       <defs>
        <path id="DejaVuSans-31" d="M 794 531 
L 1825 531 
L 1825 4091 
L 703 3866 
L 703 4441 
L 1819 4666 
L 2450 4666 
L 2450 531 
L 3481 531 
L 3481 0 
L 794 0 
L 794 531 
z
" transform="scale(0.015625)"/>
       </defs>
       <use xlink:href="#DejaVuSans-31"/>
       <use xlink:href="#DejaVuSans-30" x="63.623047"/>
       <use xlink:href="#DejaVuSans-30" x="127.246094"/>
      </g>
     </g>
    </g>
    <g id="xtick_4">
     <g id="line2d_4">
      <g>
       <use xlink:href="#m9cd3addbcc" x="236.702901" y="307.584" style="stroke: #000000; stroke-width: 0.8"/>
      </g>
     </g>
     <g id="text_4">
      <!-- 150 -->
      <g transform="translate(227.159151 322.182437) scale(0.1 -0.1)">
       <use xlink:href="#DejaVuSans-31"/>
       <use xlink:href="#DejaVuSans-35" x="63.623047"/>
       <use xlink:href="#DejaVuSans-30" x="127.246094"/>
      </g>
     </g>
    </g>
    <g id="xtick_5">
     <g id="line2d_5">
      <g>
       <use xlink:href="#m9cd3addbcc" x="290.992958" y="307.584" style="stroke: #000000; stroke-width: 0.8"/>
      </g>
     </g>
     <g id="text_5">
      <!-- 200 -->
      <g transform="translate(281.449208 322.182437) scale(0.1 -0.1)">
       <defs>
        <path id="DejaVuSans-32" d="M 1228 531 
L 3431 531 
L 3431 0 
L 469 0 
L 469 531 
Q 828 903 1448 1529 
Q 2069 2156 2228 2338 
Q 2531 2678 2651 2914 
Q 2772 3150 2772 3378 
Q 2772 3750 2511 3984 
Q 2250 4219 1831 4219 
Q 1534 4219 1204 4116 
Q 875 4013 500 3803 
L 500 4441 
Q 881 4594 1212 4672 
Q 1544 4750 1819 4750 
Q 2544 4750 2975 4387 
Q 3406 4025 3406 3419 
Q 3406 3131 3298 2873 
Q 3191 2616 2906 2266 
Q 2828 2175 2409 1742 
Q 1991 1309 1228 531 
z
" transform="scale(0.015625)"/>
       </defs>
       <use xlink:href="#DejaVuSans-32"/>
       <use xlink:href="#DejaVuSans-30" x="63.623047"/>
       <use xlink:href="#DejaVuSans-30" x="127.246094"/>
      </g>
     </g>
    </g>
    <g id="xtick_6">
     <g id="line2d_6">
      <g>
       <use xlink:href="#m9cd3addbcc" x="345.283016" y="307.584" style="stroke: #000000; stroke-width: 0.8"/>
      </g>
     </g>
     <g id="text_6">
      <!-- 250 -->
      <g transform="translate(335.739266 322.182437) scale(0.1 -0.1)">
       <use xlink:href="#DejaVuSans-32"/>
       <use xlink:href="#DejaVuSans-35" x="63.623047"/>
       <use xlink:href="#DejaVuSans-30" x="127.246094"/>
      </g>
     </g>
    </g>
    <g id="xtick_7">
     <g id="line2d_7">
      <g>
       <use xlink:href="#m9cd3addbcc" x="399.573074" y="307.584" style="stroke: #000000; stroke-width: 0.8"/>
      </g>
     </g>
     <g id="text_7">
      <!-- 300 -->
      <g transform="translate(390.029324 322.182437) scale(0.1 -0.1)">
       <defs>
        <path id="DejaVuSans-33" d="M 2597 2516 
Q 3050 2419 3304 2112 
Q 3559 1806 3559 1356 
Q 3559 666 3084 287 
Q 2609 -91 1734 -91 
Q 1441 -91 1130 -33 
Q 819 25 488 141 
L 488 750 
Q 750 597 1062 519 
Q 1375 441 1716 441 
Q 2309 441 2620 675 
Q 2931 909 2931 1356 
Q 2931 1769 2642 2001 
Q 2353 2234 1838 2234 
L 1294 2234 
L 1294 2753 
L 1863 2753 
Q 2328 2753 2575 2939 
Q 2822 3125 2822 3475 
Q 2822 3834 2567 4026 
Q 2313 4219 1838 4219 
Q 1578 4219 1281 4162 
Q 984 4106 628 3988 
L 628 4550 
Q 988 4650 1302 4700 
Q 1616 4750 1894 4750 
Q 2613 4750 3031 4423 
Q 3450 4097 3450 3541 
Q 3450 3153 3228 2886 
Q 3006 2619 2597 2516 
z
" transform="scale(0.015625)"/>
       </defs>
       <use xlink:href="#DejaVuSans-33"/>
       <use xlink:href="#DejaVuSans-30" x="63.623047"/>
       <use xlink:href="#DejaVuSans-30" x="127.246094"/>
      </g>
     </g>
    </g>
   </g>
   <g id="matplotlib.axis_2">
    <g id="ytick_1">
     <g id="line2d_8">
      <defs>
       <path id="m09ba0c8fb4" d="M 0 0 
L -3.5 0 
" style="stroke: #000000; stroke-width: 0.8"/>
      </defs>
      <g>
       <use xlink:href="#m09ba0c8fb4" x="57.6" y="295.488999" style="stroke: #000000; stroke-width: 0.8"/>
      </g>
     </g>
     <g id="text_8">
      <!-- 0 -->
      <g transform="translate(44.2375 299.288217) scale(0.1 -0.1)">
       <use xlink:href="#DejaVuSans-30"/>
      </g>
     </g>
    </g>
    <g id="ytick_2">
     <g id="line2d_9">
      <g>
       <use xlink:href="#m09ba0c8fb4" x="57.6" y="264.301305" style="stroke: #000000; stroke-width: 0.8"/>
      </g>
     </g>
     <g id="text_9">
      <!-- 200 -->
      <g transform="translate(31.5125 268.100524) scale(0.1 -0.1)">
       <use xlink:href="#DejaVuSans-32"/>
       <use xlink:href="#DejaVuSans-30" x="63.623047"/>
       <use xlink:href="#DejaVuSans-30" x="127.246094"/>
      </g>
     </g>
    </g>
    <g id="ytick_3">
     <g id="line2d_10">
      <g>
       <use xlink:href="#m09ba0c8fb4" x="57.6" y="233.113612" style="stroke: #000000; stroke-width: 0.8"/>
      </g>
     </g>
     <g id="text_10">
      <!-- 400 -->
      <g transform="translate(31.5125 236.912831) scale(0.1 -0.1)">
       <defs>
        <path id="DejaVuSans-34" d="M 2419 4116 
L 825 1625 
L 2419 1625 
L 2419 4116 
z
M 2253 4666 
L 3047 4666 
L 3047 1625 
L 3713 1625 
L 3713 1100 
L 3047 1100 
L 3047 0 
L 2419 0 
L 2419 1100 
L 313 1100 
L 313 1709 
L 2253 4666 
z
" transform="scale(0.015625)"/>
       </defs>
       <use xlink:href="#DejaVuSans-34"/>
       <use xlink:href="#DejaVuSans-30" x="63.623047"/>
       <use xlink:href="#DejaVuSans-30" x="127.246094"/>
      </g>
     </g>
    </g>
    <g id="ytick_4">
     <g id="line2d_11">
      <g>
       <use xlink:href="#m09ba0c8fb4" x="57.6" y="201.925919" style="stroke: #000000; stroke-width: 0.8"/>
      </g>
     </g>
     <g id="text_11">
      <!-- 600 -->
      <g transform="translate(31.5125 205.725138) scale(0.1 -0.1)">
       <defs>
        <path id="DejaVuSans-36" d="M 2113 2584 
Q 1688 2584 1439 2293 
Q 1191 2003 1191 1497 
Q 1191 994 1439 701 
Q 1688 409 2113 409 
Q 2538 409 2786 701 
Q 3034 994 3034 1497 
Q 3034 2003 2786 2293 
Q 2538 2584 2113 2584 
z
M 3366 4563 
L 3366 3988 
Q 3128 4100 2886 4159 
Q 2644 4219 2406 4219 
Q 1781 4219 1451 3797 
Q 1122 3375 1075 2522 
Q 1259 2794 1537 2939 
Q 1816 3084 2150 3084 
Q 2853 3084 3261 2657 
Q 3669 2231 3669 1497 
Q 3669 778 3244 343 
Q 2819 -91 2113 -91 
Q 1303 -91 875 529 
Q 447 1150 447 2328 
Q 447 3434 972 4092 
Q 1497 4750 2381 4750 
Q 2619 4750 2861 4703 
Q 3103 4656 3366 4563 
z
" transform="scale(0.015625)"/>
       </defs>
       <use xlink:href="#DejaVuSans-36"/>
       <use xlink:href="#DejaVuSans-30" x="63.623047"/>
       <use xlink:href="#DejaVuSans-30" x="127.246094"/>
      </g>
     </g>
    </g>
    <g id="ytick_5">
     <g id="line2d_12">
      <g>
       <use xlink:href="#m09ba0c8fb4" x="57.6" y="170.738226" style="stroke: #000000; stroke-width: 0.8"/>
      </g>
     </g>
     <g id="text_12">
      <!-- 800 -->
      <g transform="translate(31.5125 174.537444) scale(0.1 -0.1)">
       <defs>
        <path id="DejaVuSans-38" d="M 2034 2216 
Q 1584 2216 1326 1975 
Q 1069 1734 1069 1313 
Q 1069 891 1326 650 
Q 1584 409 2034 409 
Q 2484 409 2743 651 
Q 3003 894 3003 1313 
Q 3003 1734 2745 1975 
Q 2488 2216 2034 2216 
z
M 1403 2484 
Q 997 2584 770 2862 
Q 544 3141 544 3541 
Q 544 4100 942 4425 
Q 1341 4750 2034 4750 
Q 2731 4750 3128 4425 
Q 3525 4100 3525 3541 
Q 3525 3141 3298 2862 
Q 3072 2584 2669 2484 
Q 3125 2378 3379 2068 
Q 3634 1759 3634 1313 
Q 3634 634 3220 271 
Q 2806 -91 2034 -91 
Q 1263 -91 848 271 
Q 434 634 434 1313 
Q 434 1759 690 2068 
Q 947 2378 1403 2484 
z
M 1172 3481 
Q 1172 3119 1398 2916 
Q 1625 2713 2034 2713 
Q 2441 2713 2670 2916 
Q 2900 3119 2900 3481 
Q 2900 3844 2670 4047 
Q 2441 4250 2034 4250 
Q 1625 4250 1398 4047 
Q 1172 3844 1172 3481 
z
" transform="scale(0.015625)"/>
       </defs>
       <use xlink:href="#DejaVuSans-38"/>
       <use xlink:href="#DejaVuSans-30" x="63.623047"/>
       <use xlink:href="#DejaVuSans-30" x="127.246094"/>
      </g>
     </g>
    </g>
    <g id="ytick_6">
     <g id="line2d_13">
      <g>
       <use xlink:href="#m09ba0c8fb4" x="57.6" y="139.550532" style="stroke: #000000; stroke-width: 0.8"/>
      </g>
     </g>
     <g id="text_13">
      <!-- 1000 -->
      <g transform="translate(25.15 143.349751) scale(0.1 -0.1)">
       <use xlink:href="#DejaVuSans-31"/>
       <use xlink:href="#DejaVuSans-30" x="63.623047"/>
       <use xlink:href="#DejaVuSans-30" x="127.246094"/>
       <use xlink:href="#DejaVuSans-30" x="190.869141"/>
      </g>
     </g>
    </g>
    <g id="ytick_7">
     <g id="line2d_14">
      <g>
       <use xlink:href="#m09ba0c8fb4" x="57.6" y="108.362839" style="stroke: #000000; stroke-width: 0.8"/>
      </g>
     </g>
     <g id="text_14">
      <!-- 1200 -->
      <g transform="translate(25.15 112.162058) scale(0.1 -0.1)">
       <use xlink:href="#DejaVuSans-31"/>
       <use xlink:href="#DejaVuSans-32" x="63.623047"/>
       <use xlink:href="#DejaVuSans-30" x="127.246094"/>
       <use xlink:href="#DejaVuSans-30" x="190.869141"/>
      </g>
     </g>
    </g>
    <g id="ytick_8">
     <g id="line2d_15">
      <g>
       <use xlink:href="#m09ba0c8fb4" x="57.6" y="77.175146" style="stroke: #000000; stroke-width: 0.8"/>
      </g>
     </g>
     <g id="text_15">
      <!-- 1400 -->
      <g transform="translate(25.15 80.974365) scale(0.1 -0.1)">
       <use xlink:href="#DejaVuSans-31"/>
       <use xlink:href="#DejaVuSans-34" x="63.623047"/>
       <use xlink:href="#DejaVuSans-30" x="127.246094"/>
       <use xlink:href="#DejaVuSans-30" x="190.869141"/>
      </g>
     </g>
    </g>
    <g id="ytick_9">
     <g id="line2d_16">
      <g>
       <use xlink:href="#m09ba0c8fb4" x="57.6" y="45.987453" style="stroke: #000000; stroke-width: 0.8"/>
      </g>
     </g>
     <g id="text_16">
      <!-- 1600 -->
      <g transform="translate(25.15 49.786671) scale(0.1 -0.1)">
       <use xlink:href="#DejaVuSans-31"/>
       <use xlink:href="#DejaVuSans-36" x="63.623047"/>
       <use xlink:href="#DejaVuSans-30" x="127.246094"/>
       <use xlink:href="#DejaVuSans-30" x="190.869141"/>
      </g>
     </g>
    </g>
   </g>
   <g id="line2d_17">
    <path d="M 73.832727 127.852931 
L 74.918528 208.100646 
L 76.00433 247.21129 
L 77.090131 262.80006 
L 78.175932 275.044572 
L 79.261733 273.348193 
L 80.347534 269.133244 
L 81.433335 224.42204 
L 82.519137 254.98572 
L 83.604938 260.315161 
L 84.690739 227.711211 
L 85.77654 282.017945 
L 86.862341 280.560823 
L 87.948142 277.043923 
L 89.033943 268.851227 
L 90.119745 269.278732 
L 91.205546 283.566483 
L 92.291347 291.22557 
L 93.377148 287.769558 
L 94.462949 285.699124 
L 95.54875 272.617196 
L 96.634552 218.288359 
L 97.720353 275.862486 
L 98.806154 236.372389 
L 100.977756 286.575344 
L 102.063557 287.830367 
L 103.149358 292.89056 
L 104.23516 290.739536 
L 105.320961 292.848827 
L 106.406762 290.125743 
L 107.492563 277.93563 
L 108.578364 284.825583 
L 109.664165 270.478788 
L 110.749967 290.027014 
L 111.835768 292.946274 
L 112.921569 291.526984 
L 114.00737 292.816757 
L 116.178972 278.941084 
L 117.264773 270.757889 
L 118.350575 222.360814 
L 119.436376 229.181374 
L 120.522177 164.764604 
L 121.607978 256.377667 
L 122.693779 274.301576 
L 123.77958 273.335353 
L 124.865382 280.103237 
L 125.951183 287.879807 
L 127.036984 288.992781 
L 128.122785 292.854453 
L 130.294387 292.357819 
L 131.380189 294.162776 
L 132.46599 292.447769 
L 133.551791 286.526165 
L 134.637592 284.740201 
L 135.723393 267.259151 
L 136.809194 288.650853 
L 137.894995 293.103584 
L 138.980797 293.023815 
L 140.066598 293.442837 
L 141.152399 293.173272 
L 142.2382 291.958931 
L 143.324001 292.388757 
L 144.409802 286.11693 
L 145.495604 292.453956 
L 146.581405 292.435461 
L 147.667206 292.198223 
L 148.753007 290.4631 
L 149.838808 290.958357 
L 150.924609 290.523969 
L 152.01041 293.637279 
L 153.096212 293.872115 
L 154.182013 294.511225 
L 155.267814 294.946436 
L 156.353615 293.936654 
L 157.439416 293.675549 
L 159.611019 287.660789 
L 160.69682 293.356934 
L 161.782621 294.562286 
L 162.868422 294.804451 
L 163.954223 294.65403 
L 165.040024 294.715496 
L 166.125825 291.038096 
L 167.211627 284.693239 
L 168.297428 292.029458 
L 169.383229 289.66536 
L 170.46903 286.875003 
L 171.554831 288.1521 
L 172.640632 294.053734 
L 173.726434 294.99281 
L 175.898036 295.156743 
L 176.983837 294.098357 
L 178.069638 291.382036 
L 179.155439 291.151378 
L 180.24124 285.639243 
L 181.327042 293.578689 
L 183.498644 294.962769 
L 184.584445 295.098753 
L 185.670246 293.060205 
L 186.756047 287.935148 
L 187.841849 284.339984 
L 188.92765 281.2914 
L 190.013451 293.017094 
L 191.099252 294.412922 
L 192.185053 294.154244 
L 193.270854 294.861057 
L 194.356656 295.308299 
L 195.442457 294.673604 
L 196.528258 294.37598 
L 197.614059 291.388534 
L 198.69986 294.171407 
L 199.785661 287.622319 
L 200.871462 293.996568 
L 201.957264 295.169235 
L 203.043065 295.102215 
L 204.128866 294.683251 
L 205.214667 294.531649 
L 206.300468 289.386669 
L 207.386269 256.106062 
L 208.472071 275.646868 
L 209.557872 273.602104 
L 210.643673 290.635333 
L 211.729474 294.884127 
L 212.815275 294.426917 
L 213.901076 295.039369 
L 214.986877 294.633846 
L 216.072679 295.125009 
L 217.15848 295.138624 
L 218.244281 295.294256 
L 219.330082 295.151623 
L 220.415883 295.370702 
L 221.501684 295.081954 
L 222.587486 294.410199 
L 223.673287 288.272368 
L 224.759088 289.349321 
L 225.844889 291.779397 
L 226.93069 292.63474 
L 228.016491 283.472373 
L 229.102292 295.090296 
L 230.188094 294.702092 
L 231.273895 295.1953 
L 234.531298 295.292966 
L 235.617099 294.969398 
L 236.702901 293.841326 
L 237.788702 294.605701 
L 238.874503 292.068404 
L 239.960304 294.477398 
L 241.046105 294.689758 
L 242.131906 294.692099 
L 243.217708 295.073773 
L 244.303509 294.809533 
L 245.38931 294.383952 
L 247.560912 292.842482 
L 248.646713 292.521727 
L 249.732514 294.304553 
L 250.818316 294.819975 
L 251.904117 294.640034 
L 252.989918 295.179376 
L 255.16152 295.359767 
L 256.247321 295.26511 
L 257.333123 294.295624 
L 258.418924 287.23572 
L 259.504725 278.840717 
L 260.590526 276.853837 
L 261.676327 289.503567 
L 262.762128 292.144888 
L 263.847929 288.526472 
L 264.933731 294.518931 
L 266.019532 294.381693 
L 267.105333 295.116053 
L 268.191134 294.964161 
L 269.276935 295.296108 
L 270.362736 295.268314 
L 271.448538 294.951573 
L 272.534339 294.090181 
L 273.62014 292.83957 
L 274.705941 293.09422 
L 275.791742 292.797309 
L 276.877543 295.128053 
L 279.049146 295.376235 
L 280.134947 295.096739 
L 281.220748 294.341273 
L 282.306549 293.298196 
L 283.39235 294.870028 
L 284.478151 294.146206 
L 285.563953 294.970691 
L 286.649754 295.349499 
L 287.735555 295.12883 
L 288.821356 295.185873 
L 289.907157 294.575253 
L 290.992958 291.699732 
L 292.07876 283.280539 
L 293.164561 285.605636 
L 294.250362 279.995565 
L 295.336163 293.904724 
L 296.421964 294.524005 
L 297.507765 294.374684 
L 298.593566 294.943333 
L 299.679368 294.970023 
L 300.765169 295.181628 
L 302.936771 295.225338 
L 304.022572 295.054558 
L 305.108373 295.197068 
L 306.194175 293.996669 
L 307.279976 294.769803 
L 308.365777 294.010438 
L 309.451578 294.805445 
L 310.537379 295.305206 
L 312.708981 295.289752 
L 313.794783 294.979766 
L 314.880584 293.693012 
L 315.966385 293.226083 
L 317.052186 285.375008 
L 318.137987 295.008742 
L 319.223788 295.343598 
L 321.395391 295.316487 
L 322.481192 295.38401 
L 324.652794 295.041515 
L 325.738595 293.550191 
L 326.824396 291.739816 
L 327.910198 289.232776 
L 328.995999 291.450023 
L 330.0818 292.620639 
L 331.167601 295.142484 
L 332.253402 295.294703 
L 338.768209 295.343291 
L 339.85401 295.290935 
L 340.939811 293.109262 
L 342.025613 292.34116 
L 343.111414 288.819063 
L 344.197215 293.124076 
L 346.368817 295.309387 
L 347.454618 295.38693 
L 348.54042 295.312658 
L 350.712022 295.455947 
L 351.797823 295.214044 
L 352.883624 294.176034 
L 353.969425 289.159944 
L 355.055227 292.919025 
L 356.141028 293.295649 
L 357.226829 293.795186 
L 359.398431 295.294069 
L 361.570033 295.320437 
L 362.655835 295.318022 
L 363.741636 295.117874 
L 364.827437 294.339906 
L 366.999039 291.508791 
L 368.08484 292.338233 
L 369.170642 294.518078 
L 370.256443 295.238593 
L 374.599647 295.356754 
L 375.685448 295.267975 
L 376.77125 294.445645 
L 377.857051 292.98503 
L 378.942852 294.272723 
L 381.114454 294.954945 
L 382.200255 295.369878 
L 383.286057 295.127894 
L 384.371858 294.245697 
L 385.457659 293.698126 
L 386.54346 292.939055 
L 387.629261 294.553113 
L 388.715062 293.868721 
L 389.800863 294.914547 
L 390.886665 295.255714 
L 393.058267 295.411026 
L 397.401472 295.370633 
L 398.487273 295.103639 
L 398.487273 295.103639 
" clip-path="url(#pae7ce8de2e)" style="fill: none; stroke: #1f77b4; stroke-width: 1.5; stroke-linecap: square"/>
   </g>
   <g id="line2d_18">
    <path d="M 73.832727 263.628311 
L 74.918528 293.983338 
L 76.00433 290.313629 
L 77.090131 290.66433 
L 78.175932 294.440315 
L 79.261733 292.278399 
L 80.347534 283.371364 
L 81.433335 293.682246 
L 82.519137 276.152281 
L 83.604938 254.746124 
L 84.690739 258.180159 
L 85.77654 291.942995 
L 86.862341 295.410541 
L 87.948142 273.39806 
L 90.119745 294.803882 
L 91.205546 294.783664 
L 92.291347 288.213003 
L 93.377148 295.186963 
L 94.462949 292.545556 
L 95.54875 284.159656 
L 96.634552 281.362369 
L 97.720353 291.79974 
L 98.806154 270.165202 
L 99.891955 286.996071 
L 100.977756 293.808967 
L 102.063557 292.865189 
L 104.23516 294.60861 
L 105.320961 294.64538 
L 106.406762 295.016146 
L 107.492563 293.451419 
L 108.578364 293.794401 
L 109.664165 287.490653 
L 110.749967 292.957163 
L 111.835768 292.525854 
L 112.921569 295.363901 
L 114.00737 286.417051 
L 115.093171 293.114966 
L 116.178972 234.525329 
L 117.264773 293.746375 
L 118.350575 53.568 
L 119.436376 269.011199 
L 120.522177 260.036145 
L 121.607978 281.556715 
L 122.693779 290.721119 
L 123.77958 286.515282 
L 124.865382 289.092633 
L 125.951183 293.746541 
L 127.036984 293.72414 
L 128.122785 295.298811 
L 129.208586 294.99333 
L 130.294387 295.35327 
L 131.380189 294.299261 
L 132.46599 294.564936 
L 133.551791 294.961393 
L 134.637592 273.79509 
L 135.723393 285.783634 
L 136.809194 295.4554 
L 140.066598 295.128354 
L 141.152399 294.206081 
L 142.2382 294.236011 
L 143.324001 292.606876 
L 144.409802 292.419933 
L 145.495604 292.072629 
L 146.581405 294.82301 
L 147.667206 291.325338 
L 148.753007 294.904619 
L 149.838808 286.107631 
L 150.924609 293.850393 
L 152.01041 293.55243 
L 153.096212 294.839835 
L 154.182013 295.194398 
L 155.267814 294.590154 
L 156.353615 294.465415 
L 157.439416 295.220033 
L 158.525217 283.175573 
L 159.611019 292.910094 
L 162.868422 295.122534 
L 163.954223 295.163377 
L 165.040024 294.113952 
L 166.125825 295.35345 
L 167.211627 283.896871 
L 168.297428 294.077975 
L 169.383229 292.323721 
L 170.46903 295.299788 
L 171.554831 295.118538 
L 173.726434 295.060523 
L 174.812235 295.337813 
L 176.983837 295.457733 
L 178.069638 286.081114 
L 179.155439 295.475272 
L 180.24124 294.017173 
L 181.327042 294.253668 
L 182.412843 295.054792 
L 183.498644 295.210114 
L 184.584445 295.094182 
L 185.670246 295.408551 
L 186.756047 284.43433 
L 187.841849 293.373573 
L 188.92765 293.520115 
L 190.013451 295.469662 
L 191.099252 295.416317 
L 192.185053 295.190351 
L 193.270854 295.45271 
L 194.356656 295.050743 
L 195.442457 295.3883 
L 196.528258 295.365183 
L 197.614059 291.09661 
L 198.69986 294.439503 
L 199.785661 294.945651 
L 201.957264 295.459048 
L 203.043065 294.361566 
L 204.128866 295.348893 
L 205.214667 292.06325 
L 206.300468 294.525949 
L 207.386269 275.758176 
L 208.472071 293.170399 
L 209.557872 295.174965 
L 210.643673 294.895484 
L 211.729474 295.424486 
L 212.815275 295.160042 
L 216.072679 295.368291 
L 218.244281 295.370487 
L 219.330082 295.257772 
L 221.501684 295.466752 
L 223.673287 293.970918 
L 224.759088 291.879445 
L 225.844889 295.162713 
L 226.93069 293.095054 
L 228.016491 293.471123 
L 229.102292 294.918585 
L 230.188094 295.44975 
L 235.617099 295.437376 
L 236.702901 294.359005 
L 237.788702 294.966075 
L 238.874503 294.997515 
L 239.960304 294.077573 
L 241.046105 294.906898 
L 243.217708 295.272598 
L 244.303509 295.323687 
L 245.38931 293.885111 
L 246.475111 295.478638 
L 247.560912 292.468584 
L 248.646713 293.478596 
L 249.732514 295.107448 
L 250.818316 295.175905 
L 251.904117 295.414728 
L 252.989918 295.296472 
L 254.075719 295.480764 
L 255.16152 295.191768 
L 256.247321 295.453804 
L 257.333123 295.474233 
L 258.418924 289.759604 
L 259.504725 285.191764 
L 260.590526 276.856948 
L 261.676327 295.370674 
L 262.762128 291.281351 
L 263.847929 293.063276 
L 264.933731 295.399382 
L 267.105333 295.398766 
L 271.448538 295.325635 
L 272.534339 294.846737 
L 273.62014 291.943858 
L 274.705941 295.390156 
L 275.791742 294.471691 
L 276.877543 295.045894 
L 277.963344 295.213205 
L 279.049146 295.108881 
L 280.134947 294.540336 
L 281.220748 293.523384 
L 284.478151 295.395873 
L 286.649754 295.471985 
L 287.735555 295.251021 
L 288.821356 295.27226 
L 289.907157 295.453473 
L 290.992958 291.54639 
L 292.07876 288.649246 
L 293.164561 243.116564 
L 294.250362 292.201751 
L 295.336163 295.451847 
L 305.108373 295.375689 
L 306.194175 294.292166 
L 307.279976 295.002485 
L 308.365777 295.420674 
L 309.451578 295.380005 
L 310.537379 295.476538 
L 313.794783 295.383677 
L 314.880584 293.864404 
L 315.966385 293.57575 
L 317.052186 294.700524 
L 318.137987 294.713347 
L 319.223788 295.416909 
L 320.30959 294.990773 
L 321.395391 295.432001 
L 322.481192 295.018058 
L 323.566993 295.437799 
L 324.652794 294.51074 
L 325.738595 294.90757 
L 326.824396 291.429789 
L 327.910198 291.71384 
L 328.995999 295.433784 
L 330.0818 295.273176 
L 331.167601 295.260653 
L 333.339203 295.472553 
L 334.425005 295.28596 
L 335.510806 295.449014 
L 336.596607 295.405185 
L 337.682408 295.482938 
L 339.85401 295.389238 
L 340.939811 294.639487 
L 342.025613 292.356375 
L 343.111414 295.062052 
L 344.197215 294.771465 
L 345.283016 295.418834 
L 346.368817 294.984192 
L 347.454618 295.470524 
L 348.54042 295.380389 
L 349.626221 295.488 
L 350.712022 295.383286 
L 352.883624 295.336922 
L 353.969425 291.532745 
L 356.141028 295.247736 
L 358.31263 294.546157 
L 359.398431 295.458316 
L 360.484232 295.238294 
L 361.570033 295.406435 
L 363.741636 295.084994 
L 364.827437 295.429315 
L 365.913238 291.868681 
L 366.999039 294.350547 
L 368.08484 294.816665 
L 369.170642 294.721486 
L 370.256443 295.457442 
L 371.342244 295.347085 
L 372.428045 295.472347 
L 373.513846 295.352029 
L 374.599647 295.482471 
L 375.685448 295.458982 
L 376.77125 294.905737 
L 377.857051 294.611057 
L 378.942852 295.339121 
L 381.114454 295.461417 
L 382.200255 295.230418 
L 383.286057 295.473786 
L 384.371858 293.563039 
L 385.457659 295.221669 
L 386.54346 289.006531 
L 387.629261 294.175122 
L 388.715062 295.037231 
L 389.800863 295.444161 
L 398.487273 295.476263 
L 398.487273 295.476263 
" clip-path="url(#pae7ce8de2e)" style="fill: none; stroke: #ff7f0e; stroke-opacity: 0.5; stroke-width: 1.5; stroke-linecap: square"/>
   </g>
   <g id="patch_3">
    <path d="M 57.6 307.584 
L 57.6 41.472 
" style="fill: none; stroke: #000000; stroke-width: 0.8; stroke-linejoin: miter; stroke-linecap: square"/>
   </g>
   <g id="patch_4">
    <path d="M 414.72 307.584 
L 414.72 41.472 
" style="fill: none; stroke: #000000; stroke-width: 0.8; stroke-linejoin: miter; stroke-linecap: square"/>
   </g>
   <g id="patch_5">
    <path d="M 57.6 307.584 
L 414.72 307.584 
" style="fill: none; stroke: #000000; stroke-width: 0.8; stroke-linejoin: miter; stroke-linecap: square"/>
   </g>
   <g id="patch_6">
    <path d="M 57.6 41.472 
L 414.72 41.472 
" style="fill: none; stroke: #000000; stroke-width: 0.8; stroke-linejoin: miter; stroke-linecap: square"/>
   </g>
   <g id="legend_1">
    <g id="patch_7">
     <path d="M 351.768438 78.82825 
L 407.72 78.82825 
Q 409.72 78.82825 409.72 76.82825 
L 409.72 48.472 
Q 409.72 46.472 407.72 46.472 
L 351.768438 46.472 
Q 349.768438 46.472 349.768438 48.472 
L 349.768438 76.82825 
Q 349.768438 78.82825 351.768438 78.82825 
z
" style="fill: #ffffff; opacity: 0.8; stroke: #cccccc; stroke-linejoin: miter"/>
    </g>
    <g id="line2d_19">
     <path d="M 353.768438 54.570437 
L 363.768438 54.570437 
L 373.768438 54.570437 
" style="fill: none; stroke: #1f77b4; stroke-width: 1.5; stroke-linecap: square"/>
    </g>
    <g id="text_17">
     <!-- train -->
     <g transform="translate(381.768438 58.070437) scale(0.1 -0.1)">
      <defs>
       <path id="DejaVuSans-74" d="M 1172 4494 
L 1172 3500 
L 2356 3500 
L 2356 3053 
L 1172 3053 
L 1172 1153 
Q 1172 725 1289 603 
Q 1406 481 1766 481 
L 2356 481 
L 2356 0 
L 1766 0 
Q 1100 0 847 248 
Q 594 497 594 1153 
L 594 3053 
L 172 3053 
L 172 3500 
L 594 3500 
L 594 4494 
L 1172 4494 
z
" transform="scale(0.015625)"/>
       <path id="DejaVuSans-72" d="M 2631 2963 
Q 2534 3019 2420 3045 
Q 2306 3072 2169 3072 
Q 1681 3072 1420 2755 
Q 1159 2438 1159 1844 
L 1159 0 
L 581 0 
L 581 3500 
L 1159 3500 
L 1159 2956 
Q 1341 3275 1631 3429 
Q 1922 3584 2338 3584 
Q 2397 3584 2469 3576 
Q 2541 3569 2628 3553 
L 2631 2963 
z
" transform="scale(0.015625)"/>
       <path id="DejaVuSans-61" d="M 2194 1759 
Q 1497 1759 1228 1600 
Q 959 1441 959 1056 
Q 959 750 1161 570 
Q 1363 391 1709 391 
Q 2188 391 2477 730 
Q 2766 1069 2766 1631 
L 2766 1759 
L 2194 1759 
z
M 3341 1997 
L 3341 0 
L 2766 0 
L 2766 531 
Q 2569 213 2275 61 
Q 1981 -91 1556 -91 
Q 1019 -91 701 211 
Q 384 513 384 1019 
Q 384 1609 779 1909 
Q 1175 2209 1959 2209 
L 2766 2209 
L 2766 2266 
Q 2766 2663 2505 2880 
Q 2244 3097 1772 3097 
Q 1472 3097 1187 3025 
Q 903 2953 641 2809 
L 641 3341 
Q 956 3463 1253 3523 
Q 1550 3584 1831 3584 
Q 2591 3584 2966 3190 
Q 3341 2797 3341 1997 
z
" transform="scale(0.015625)"/>
       <path id="DejaVuSans-69" d="M 603 3500 
L 1178 3500 
L 1178 0 
L 603 0 
L 603 3500 
z
M 603 4863 
L 1178 4863 
L 1178 4134 
L 603 4134 
L 603 4863 
z
" transform="scale(0.015625)"/>
       <path id="DejaVuSans-6e" d="M 3513 2113 
L 3513 0 
L 2938 0 
L 2938 2094 
Q 2938 2591 2744 2837 
Q 2550 3084 2163 3084 
Q 1697 3084 1428 2787 
Q 1159 2491 1159 1978 
L 1159 0 
L 581 0 
L 581 3500 
L 1159 3500 
L 1159 2956 
Q 1366 3272 1645 3428 
Q 1925 3584 2291 3584 
Q 2894 3584 3203 3211 
Q 3513 2838 3513 2113 
z
" transform="scale(0.015625)"/>
      </defs>
      <use xlink:href="#DejaVuSans-74"/>
      <use xlink:href="#DejaVuSans-72" x="39.208984"/>
      <use xlink:href="#DejaVuSans-61" x="80.322266"/>
      <use xlink:href="#DejaVuSans-69" x="141.601562"/>
      <use xlink:href="#DejaVuSans-6e" x="169.384766"/>
     </g>
    </g>
    <g id="line2d_20">
     <path d="M 353.768438 69.248562 
L 363.768438 69.248562 
L 373.768438 69.248562 
" style="fill: none; stroke: #ff7f0e; stroke-opacity: 0.5; stroke-width: 1.5; stroke-linecap: square"/>
    </g>
    <g id="text_18">
     <!-- valid -->
     <g transform="translate(381.768438 72.748562) scale(0.1 -0.1)">
      <defs>
       <path id="DejaVuSans-76" d="M 191 3500 
L 800 3500 
L 1894 563 
L 2988 3500 
L 3597 3500 
L 2284 0 
L 1503 0 
L 191 3500 
z
" transform="scale(0.015625)"/>
       <path id="DejaVuSans-6c" d="M 603 4863 
L 1178 4863 
L 1178 0 
L 603 0 
L 603 4863 
z
" transform="scale(0.015625)"/>
       <path id="DejaVuSans-64" d="M 2906 2969 
L 2906 4863 
L 3481 4863 
L 3481 0 
L 2906 0 
L 2906 525 
Q 2725 213 2448 61 
Q 2172 -91 1784 -91 
Q 1150 -91 751 415 
Q 353 922 353 1747 
Q 353 2572 751 3078 
Q 1150 3584 1784 3584 
Q 2172 3584 2448 3432 
Q 2725 3281 2906 2969 
z
M 947 1747 
Q 947 1113 1208 752 
Q 1469 391 1925 391 
Q 2381 391 2643 752 
Q 2906 1113 2906 1747 
Q 2906 2381 2643 2742 
Q 2381 3103 1925 3103 
Q 1469 3103 1208 2742 
Q 947 2381 947 1747 
z
" transform="scale(0.015625)"/>
      </defs>
      <use xlink:href="#DejaVuSans-76"/>
      <use xlink:href="#DejaVuSans-61" x="59.179688"/>
      <use xlink:href="#DejaVuSans-6c" x="120.458984"/>
      <use xlink:href="#DejaVuSans-69" x="148.242188"/>
      <use xlink:href="#DejaVuSans-64" x="176.025391"/>
     </g>
    </g>
   </g>
  </g>
 </g>
 <defs>
  <clipPath id="pae7ce8de2e">
   <rect x="57.6" y="41.472" width="357.12" height="266.112"/>
  </clipPath>
 </defs>
</svg>
