<?xml version="1.0" encoding="utf-8" standalone="no"?>
<!DOCTYPE svg PUBLIC "-//W3C//DTD SVG 1.1//EN"
  "http://www.w3.org/Graphics/SVG/1.1/DTD/svg11.dtd">
<svg xmlns:xlink="http://www.w3.org/1999/xlink" width="460.8pt" height="345.6pt" viewBox="0 0 460.8 345.6" xmlns="http://www.w3.org/2000/svg" version="1.1">
 <metadata>
  <rdf:RDF xmlns:dc="http://purl.org/dc/elements/1.1/" xmlns:cc="http://creativecommons.org/ns#" xmlns:rdf="http://www.w3.org/1999/02/22-rdf-syntax-ns#">
   <cc:Work>
    <dc:type rdf:resource="http://purl.org/dc/dcmitype/StillImage"/>
    <dc:date>2023-12-11T06:40:41.350912</dc:date>
    <dc:format>image/svg+xml</dc:format>
    <dc:creator>
     <cc:Agent>
      <dc:title>Matplotlib v3.7.3, https://matplotlib.org/</dc:title>
     </cc:Agent>
    </dc:creator>
   </cc:Work>
  </rdf:RDF>
 </metadata>
 <defs>
  <style type="text/css">*{stroke-linejoin: round; stroke-linecap: butt}</style>
 </defs>
 <g id="figure_1">
  <g id="patch_1">
   <path d="M 0 345.6 
L 460.8 345.6 
L 460.8 0 
L 0 0 
z
" style="fill: #ffffff"/>
  </g>
  <g id="axes_1">
   <g id="patch_2">
    <path d="M 57.6 307.584 
L 414.72 307.584 
L 414.72 41.472 
L 57.6 41.472 
z
" style="fill: #ffffff"/>
   </g>
   <g id="matplotlib.axis_1">
    <g id="xtick_1">
     <g id="line2d_1">
      <defs>
       <path id="m40e80f67f6" d="M 0 0 
L 0 3.5 
" style="stroke: #000000; stroke-width: 0.8"/>
      </defs>
      <g>
       <use xlink:href="#m40e80f67f6" x="73.832727" y="307.584" style="stroke: #000000; stroke-width: 0.8"/>
      </g>
     </g>
     <g id="text_1">
      <!-- 0 -->
      <g transform="translate(70.651477 322.182437) scale(0.1 -0.1)">
       <defs>
        <path id="DejaVuSans-30" d="M 2034 4250 
Q 1547 4250 1301 3770 
Q 1056 3291 1056 2328 
Q 1056 1369 1301 889 
Q 1547 409 2034 409 
Q 2525 409 2770 889 
Q 3016 1369 3016 2328 
Q 3016 3291 2770 3770 
Q 2525 4250 2034 4250 
z
M 2034 4750 
Q 2819 4750 3233 4129 
Q 3647 3509 3647 2328 
Q 3647 1150 3233 529 
Q 2819 -91 2034 -91 
Q 1250 -91 836 529 
Q 422 1150 422 2328 
Q 422 3509 836 4129 
Q 1250 4750 2034 4750 
z
" transform="scale(0.015625)"/>
       </defs>
       <use xlink:href="#DejaVuSans-30"/>
      </g>
     </g>
    </g>
    <g id="xtick_2">
     <g id="line2d_2">
      <g>
       <use xlink:href="#m40e80f67f6" x="128.122785" y="307.584" style="stroke: #000000; stroke-width: 0.8"/>
      </g>
     </g>
     <g id="text_2">
      <!-- 50 -->
      <g transform="translate(121.760285 322.182437) scale(0.1 -0.1)">
       <defs>
        <path id="DejaVuSans-35" d="M 691 4666 
L 3169 4666 
L 3169 4134 
L 1269 4134 
L 1269 2991 
Q 1406 3038 1543 3061 
Q 1681 3084 1819 3084 
Q 2600 3084 3056 2656 
Q 3513 2228 3513 1497 
Q 3513 744 3044 326 
Q 2575 -91 1722 -91 
Q 1428 -91 1123 -41 
Q 819 9 494 109 
L 494 744 
Q 775 591 1075 516 
Q 1375 441 1709 441 
Q 2250 441 2565 725 
Q 2881 1009 2881 1497 
Q 2881 1984 2565 2268 
Q 2250 2553 1709 2553 
Q 1456 2553 1204 2497 
Q 953 2441 691 2322 
L 691 4666 
z
" transform="scale(0.015625)"/>
       </defs>
       <use xlink:href="#DejaVuSans-35"/>
       <use xlink:href="#DejaVuSans-30" x="63.623047"/>
      </g>
     </g>
    </g>
    <g id="xtick_3">
     <g id="line2d_3">
      <g>
       <use xlink:href="#m40e80f67f6" x="182.412843" y="307.584" style="stroke: #000000; stroke-width: 0.8"/>
      </g>
     </g>
     <g id="text_3">
      <!-- 100 -->
      <g transform="translate(172.869093 322.182437) scale(0.1 -0.1)">
       <defs>
        <path id="DejaVuSans-31" d="M 794 531 
L 1825 531 
L 1825 4091 
L 703 3866 
L 703 4441 
L 1819 4666 
L 2450 4666 
L 2450 531 
L 3481 531 
L 3481 0 
L 794 0 
L 794 531 
z
" transform="scale(0.015625)"/>
       </defs>
       <use xlink:href="#DejaVuSans-31"/>
       <use xlink:href="#DejaVuSans-30" x="63.623047"/>
       <use xlink:href="#DejaVuSans-30" x="127.246094"/>
      </g>
     </g>
    </g>
    <g id="xtick_4">
     <g id="line2d_4">
      <g>
       <use xlink:href="#m40e80f67f6" x="236.702901" y="307.584" style="stroke: #000000; stroke-width: 0.8"/>
      </g>
     </g>
     <g id="text_4">
      <!-- 150 -->
      <g transform="translate(227.159151 322.182437) scale(0.1 -0.1)">
       <use xlink:href="#DejaVuSans-31"/>
       <use xlink:href="#DejaVuSans-35" x="63.623047"/>
       <use xlink:href="#DejaVuSans-30" x="127.246094"/>
      </g>
     </g>
    </g>
    <g id="xtick_5">
     <g id="line2d_5">
      <g>
       <use xlink:href="#m40e80f67f6" x="290.992958" y="307.584" style="stroke: #000000; stroke-width: 0.8"/>
      </g>
     </g>
     <g id="text_5">
      <!-- 200 -->
      <g transform="translate(281.449208 322.182437) scale(0.1 -0.1)">
       <defs>
        <path id="DejaVuSans-32" d="M 1228 531 
L 3431 531 
L 3431 0 
L 469 0 
L 469 531 
Q 828 903 1448 1529 
Q 2069 2156 2228 2338 
Q 2531 2678 2651 2914 
Q 2772 3150 2772 3378 
Q 2772 3750 2511 3984 
Q 2250 4219 1831 4219 
Q 1534 4219 1204 4116 
Q 875 4013 500 3803 
L 500 4441 
Q 881 4594 1212 4672 
Q 1544 4750 1819 4750 
Q 2544 4750 2975 4387 
Q 3406 4025 3406 3419 
Q 3406 3131 3298 2873 
Q 3191 2616 2906 2266 
Q 2828 2175 2409 1742 
Q 1991 1309 1228 531 
z
" transform="scale(0.015625)"/>
       </defs>
       <use xlink:href="#DejaVuSans-32"/>
       <use xlink:href="#DejaVuSans-30" x="63.623047"/>
       <use xlink:href="#DejaVuSans-30" x="127.246094"/>
      </g>
     </g>
    </g>
    <g id="xtick_6">
     <g id="line2d_6">
      <g>
       <use xlink:href="#m40e80f67f6" x="345.283016" y="307.584" style="stroke: #000000; stroke-width: 0.8"/>
      </g>
     </g>
     <g id="text_6">
      <!-- 250 -->
      <g transform="translate(335.739266 322.182437) scale(0.1 -0.1)">
       <use xlink:href="#DejaVuSans-32"/>
       <use xlink:href="#DejaVuSans-35" x="63.623047"/>
       <use xlink:href="#DejaVuSans-30" x="127.246094"/>
      </g>
     </g>
    </g>
    <g id="xtick_7">
     <g id="line2d_7">
      <g>
       <use xlink:href="#m40e80f67f6" x="399.573074" y="307.584" style="stroke: #000000; stroke-width: 0.8"/>
      </g>
     </g>
     <g id="text_7">
      <!-- 300 -->
      <g transform="translate(390.029324 322.182437) scale(0.1 -0.1)">
       <defs>
        <path id="DejaVuSans-33" d="M 2597 2516 
Q 3050 2419 3304 2112 
Q 3559 1806 3559 1356 
Q 3559 666 3084 287 
Q 2609 -91 1734 -91 
Q 1441 -91 1130 -33 
Q 819 25 488 141 
L 488 750 
Q 750 597 1062 519 
Q 1375 441 1716 441 
Q 2309 441 2620 675 
Q 2931 909 2931 1356 
Q 2931 1769 2642 2001 
Q 2353 2234 1838 2234 
L 1294 2234 
L 1294 2753 
L 1863 2753 
Q 2328 2753 2575 2939 
Q 2822 3125 2822 3475 
Q 2822 3834 2567 4026 
Q 2313 4219 1838 4219 
Q 1578 4219 1281 4162 
Q 984 4106 628 3988 
L 628 4550 
Q 988 4650 1302 4700 
Q 1616 4750 1894 4750 
Q 2613 4750 3031 4423 
Q 3450 4097 3450 3541 
Q 3450 3153 3228 2886 
Q 3006 2619 2597 2516 
z
" transform="scale(0.015625)"/>
       </defs>
       <use xlink:href="#DejaVuSans-33"/>
       <use xlink:href="#DejaVuSans-30" x="63.623047"/>
       <use xlink:href="#DejaVuSans-30" x="127.246094"/>
      </g>
     </g>
    </g>
   </g>
   <g id="matplotlib.axis_2">
    <g id="ytick_1">
     <g id="line2d_8">
      <defs>
       <path id="m04ae1d3468" d="M 0 0 
L -3.5 0 
" style="stroke: #000000; stroke-width: 0.8"/>
      </defs>
      <g>
       <use xlink:href="#m04ae1d3468" x="57.6" y="295.488026" style="stroke: #000000; stroke-width: 0.8"/>
      </g>
     </g>
     <g id="text_8">
      <!-- 0 -->
      <g transform="translate(44.2375 299.287244) scale(0.1 -0.1)">
       <use xlink:href="#DejaVuSans-30"/>
      </g>
     </g>
    </g>
    <g id="ytick_2">
     <g id="line2d_9">
      <g>
       <use xlink:href="#m04ae1d3468" x="57.6" y="243.576299" style="stroke: #000000; stroke-width: 0.8"/>
      </g>
     </g>
     <g id="text_9">
      <!-- 500 -->
      <g transform="translate(31.5125 247.375518) scale(0.1 -0.1)">
       <use xlink:href="#DejaVuSans-35"/>
       <use xlink:href="#DejaVuSans-30" x="63.623047"/>
       <use xlink:href="#DejaVuSans-30" x="127.246094"/>
      </g>
     </g>
    </g>
    <g id="ytick_3">
     <g id="line2d_10">
      <g>
       <use xlink:href="#m04ae1d3468" x="57.6" y="191.664572" style="stroke: #000000; stroke-width: 0.8"/>
      </g>
     </g>
     <g id="text_10">
      <!-- 1000 -->
      <g transform="translate(25.15 195.463791) scale(0.1 -0.1)">
       <use xlink:href="#DejaVuSans-31"/>
       <use xlink:href="#DejaVuSans-30" x="63.623047"/>
       <use xlink:href="#DejaVuSans-30" x="127.246094"/>
       <use xlink:href="#DejaVuSans-30" x="190.869141"/>
      </g>
     </g>
    </g>
    <g id="ytick_4">
     <g id="line2d_11">
      <g>
       <use xlink:href="#m04ae1d3468" x="57.6" y="139.752846" style="stroke: #000000; stroke-width: 0.8"/>
      </g>
     </g>
     <g id="text_11">
      <!-- 1500 -->
      <g transform="translate(25.15 143.552064) scale(0.1 -0.1)">
       <use xlink:href="#DejaVuSans-31"/>
       <use xlink:href="#DejaVuSans-35" x="63.623047"/>
       <use xlink:href="#DejaVuSans-30" x="127.246094"/>
       <use xlink:href="#DejaVuSans-30" x="190.869141"/>
      </g>
     </g>
    </g>
    <g id="ytick_5">
     <g id="line2d_12">
      <g>
       <use xlink:href="#m04ae1d3468" x="57.6" y="87.841119" style="stroke: #000000; stroke-width: 0.8"/>
      </g>
     </g>
     <g id="text_12">
      <!-- 2000 -->
      <g transform="translate(25.15 91.640338) scale(0.1 -0.1)">
       <use xlink:href="#DejaVuSans-32"/>
       <use xlink:href="#DejaVuSans-30" x="63.623047"/>
       <use xlink:href="#DejaVuSans-30" x="127.246094"/>
       <use xlink:href="#DejaVuSans-30" x="190.869141"/>
      </g>
     </g>
    </g>
   </g>
   <g id="line2d_13">
    <path d="M 73.832727 53.568 
L 74.918528 249.24467 
L 76.00433 265.248646 
L 77.090131 286.391438 
L 78.175932 288.372587 
L 79.261733 245.945688 
L 80.347534 287.300115 
L 81.433335 293.821993 
L 82.519137 287.28246 
L 83.604938 256.832338 
L 84.690739 272.864406 
L 85.77654 233.777081 
L 86.862341 235.374584 
L 87.948142 262.742451 
L 89.033943 285.451505 
L 90.119745 283.820292 
L 91.205546 283.82547 
L 92.291347 286.193157 
L 93.377148 295.35269 
L 94.462949 295.265362 
L 95.54875 295.472776 
L 98.806154 295.468206 
L 99.891955 295.359074 
L 100.977756 293.794625 
L 102.063557 279.386909 
L 103.149358 217.443248 
L 104.23516 280.26192 
L 105.320961 280.443378 
L 106.406762 292.846971 
L 107.492563 287.777185 
L 108.578364 289.928891 
L 109.664165 294.340893 
L 110.749967 295.446907 
L 117.264773 295.486676 
L 119.436376 295.431202 
L 120.522177 295.11491 
L 121.607978 291.124801 
L 122.693779 273.057214 
L 123.77958 245.07714 
L 124.865382 265.479841 
L 125.951183 269.923928 
L 127.036984 255.985036 
L 128.122785 268.362457 
L 129.208586 289.683166 
L 130.294387 290.151454 
L 131.380189 294.659822 
L 132.46599 295.291336 
L 134.637592 295.277617 
L 137.894995 294.51688 
L 138.980797 291.37425 
L 140.066598 293.482851 
L 141.152399 289.940934 
L 142.2382 293.645366 
L 143.324001 293.416728 
L 144.409802 292.363989 
L 145.495604 293.884471 
L 146.581405 290.329385 
L 147.667206 290.242905 
L 148.753007 291.591477 
L 149.838808 283.03783 
L 150.924609 295.169571 
L 152.01041 294.96508 
L 153.096212 295.38784 
L 157.439416 295.16234 
L 158.525217 295.398338 
L 159.611019 295.36733 
L 160.69682 295.026848 
L 161.782621 292.71174 
L 162.868422 286.653704 
L 163.954223 288.901256 
L 165.040024 285.265025 
L 166.125825 289.389355 
L 167.211627 287.395311 
L 169.383229 290.60356 
L 170.46903 294.928002 
L 171.554831 295.243995 
L 173.726434 294.98106 
L 175.898036 295.037328 
L 176.983837 293.796496 
L 178.069638 293.47657 
L 179.155439 294.347317 
L 180.24124 293.728663 
L 181.327042 295.101312 
L 182.412843 295.379992 
L 183.498644 295.413885 
L 184.584445 295.094603 
L 185.670246 293.881578 
L 186.756047 288.188702 
L 187.841849 263.243268 
L 188.92765 282.559458 
L 190.013451 281.953011 
L 191.099252 289.773707 
L 192.185053 293.160107 
L 193.270854 294.026328 
L 194.356656 295.249971 
L 196.528258 295.389319 
L 200.871462 295.31834 
L 203.043065 295.104366 
L 204.128866 293.271172 
L 205.214667 290.738732 
L 206.300468 294.541598 
L 207.386269 290.414885 
L 208.472071 293.89087 
L 209.557872 293.585077 
L 211.729474 294.166851 
L 212.815275 294.892695 
L 213.901076 294.079988 
L 214.986877 294.712116 
L 216.072679 294.102501 
L 217.15848 295.386408 
L 219.330082 295.46324 
L 220.415883 295.321733 
L 221.501684 294.804079 
L 222.587486 292.07859 
L 223.673287 294.178638 
L 224.759088 294.067165 
L 225.844889 295.229206 
L 226.93069 295.415572 
L 229.102292 295.404729 
L 230.188094 295.170988 
L 231.273895 293.913515 
L 232.359696 289.600154 
L 233.445497 291.181782 
L 234.531298 290.690504 
L 235.617099 293.057172 
L 236.702901 293.546622 
L 237.788702 293.019477 
L 238.874503 294.953122 
L 242.131906 295.267166 
L 244.303509 295.239447 
L 246.475111 295.009989 
L 247.560912 294.02704 
L 248.646713 293.840338 
L 249.732514 294.003934 
L 250.818316 293.19556 
L 251.904117 294.547081 
L 252.989918 294.185037 
L 254.075719 294.293177 
L 255.16152 294.926094 
L 257.333123 294.631029 
L 259.504725 295.032119 
L 261.676327 295.305308 
L 264.933731 295.075699 
L 266.019532 294.410345 
L 267.105333 295.030745 
L 268.191134 294.406905 
L 269.276935 293.392163 
L 270.362736 294.854539 
L 271.448538 293.187325 
L 272.534339 294.404919 
L 273.62014 294.934176 
L 274.705941 294.707031 
L 275.791742 294.810804 
L 276.877543 294.70298 
L 277.963344 294.717095 
L 279.049146 294.342613 
L 280.134947 295.106964 
L 281.220748 293.862714 
L 282.306549 291.18913 
L 283.39235 284.728489 
L 284.478151 291.718804 
L 285.563953 290.107947 
L 286.649754 283.085851 
L 287.735555 283.94793 
L 288.821356 282.932829 
L 289.907157 282.872551 
L 290.992958 275.888357 
L 292.07876 273.804288 
L 293.164561 277.886189 
L 295.336163 284.878811 
L 296.421964 290.256576 
L 297.507765 290.071202 
L 298.593566 286.884185 
L 299.679368 280.676649 
L 300.765169 271.302061 
L 301.85097 263.659687 
L 302.936771 263.039037 
L 304.022572 266.53129 
L 305.108373 290.356312 
L 306.194175 294.068624 
L 308.365777 294.973862 
L 310.537379 294.845508 
L 312.708981 294.560285 
L 313.794783 294.739043 
L 314.880584 294.766228 
L 318.137987 295.315764 
L 321.395391 295.226686 
L 323.566993 295.19288 
L 324.652794 295.021077 
L 325.738595 294.611199 
L 326.824396 294.35753 
L 327.910198 293.978435 
L 328.995999 294.227836 
L 330.0818 295.018255 
L 331.167601 294.553245 
L 332.253402 295.205422 
L 333.339203 295.215921 
L 334.425005 295.37214 
L 335.510806 295.213673 
L 336.596607 295.277133 
L 337.682408 294.28922 
L 338.768209 292.04568 
L 340.939811 293.492992 
L 342.025613 294.804345 
L 343.111414 295.341005 
L 349.626221 294.992518 
L 350.712022 294.741676 
L 351.797823 294.249735 
L 352.883624 292.051848 
L 353.969425 293.703223 
L 355.055227 293.497349 
L 356.141028 294.999882 
L 357.226829 295.39002 
L 359.398431 295.422896 
L 362.655835 295.284925 
L 363.741636 294.835806 
L 364.827437 293.389247 
L 365.913238 288.915576 
L 366.999039 295.059405 
L 368.08484 294.406152 
L 369.170642 294.344738 
L 370.256443 295.266018 
L 372.428045 295.278529 
L 378.942852 294.873583 
L 381.114454 293.309289 
L 382.200255 294.584981 
L 383.286057 294.947649 
L 384.371858 295.154873 
L 385.457659 295.239031 
L 388.715062 295.077989 
L 389.800863 294.657409 
L 390.886665 293.63192 
L 391.972466 293.078897 
L 393.058267 293.157244 
L 394.144068 294.692984 
L 395.229869 294.903514 
L 396.31567 295.347767 
L 397.401472 295.482297 
L 398.487273 295.481236 
L 398.487273 295.481236 
" clip-path="url(#pa247c23afb)" style="fill: none; stroke: #1f77b4; stroke-width: 1.5; stroke-linecap: square"/>
   </g>
   <g id="line2d_14">
    <path d="M 73.832727 229.938926 
L 74.918528 276.366613 
L 76.00433 274.015363 
L 77.090131 289.026624 
L 78.175932 291.691726 
L 79.261733 258.492309 
L 80.347534 292.532228 
L 81.433335 294.675077 
L 82.519137 277.06911 
L 83.604938 285.208165 
L 84.690739 285.465628 
L 85.77654 270.608276 
L 86.862341 248.558443 
L 87.948142 277.094781 
L 89.033943 285.585453 
L 90.119745 290.932191 
L 91.205546 295.240072 
L 92.291347 292.397882 
L 93.377148 295.426491 
L 95.54875 295.467566 
L 98.806154 295.459828 
L 99.891955 295.319295 
L 100.977756 294.370255 
L 102.063557 288.215572 
L 103.149358 264.610396 
L 104.23516 277.132839 
L 105.320961 294.993527 
L 106.406762 286.498753 
L 107.492563 292.984326 
L 108.578364 295.359572 
L 109.664165 295.01552 
L 110.749967 295.418146 
L 112.921569 295.482305 
L 119.436376 295.48032 
L 120.522177 295.245182 
L 121.607978 293.522237 
L 122.693779 276.977587 
L 123.77958 288.043622 
L 124.865382 270.132164 
L 125.951183 294.778334 
L 127.036984 294.898155 
L 128.122785 238.160484 
L 129.208586 288.638422 
L 130.294387 294.186505 
L 131.380189 294.177915 
L 132.46599 295.323441 
L 134.637592 294.495724 
L 135.723393 293.935526 
L 136.809194 294.614491 
L 137.894995 291.652721 
L 138.980797 293.59199 
L 140.066598 289.545434 
L 141.152399 289.528482 
L 142.2382 292.549601 
L 143.324001 287.938363 
L 144.409802 288.011114 
L 145.495604 285.402767 
L 146.581405 293.668826 
L 147.667206 290.622112 
L 148.753007 295.448116 
L 150.924609 294.993101 
L 153.096212 295.466592 
L 156.353615 295.440349 
L 157.439416 295.368539 
L 159.611019 295.481725 
L 160.69682 295.226839 
L 161.782621 293.895422 
L 162.868422 285.165775 
L 163.954223 294.419109 
L 165.040024 267.128846 
L 166.125825 277.919683 
L 167.211627 266.860448 
L 168.297428 272.795973 
L 169.383229 281.121196 
L 170.46903 294.424756 
L 171.554831 293.888267 
L 172.640632 294.884581 
L 173.726434 294.656384 
L 174.812235 295.07121 
L 175.898036 294.33638 
L 176.983837 294.613867 
L 178.069638 292.482708 
L 179.155439 295.176976 
L 180.24124 295.402484 
L 181.327042 295.140625 
L 182.412843 295.294967 
L 183.498644 294.873203 
L 184.584445 295.206015 
L 185.670246 293.079609 
L 186.756047 295.348617 
L 187.841849 283.336388 
L 188.92765 285.244464 
L 190.013451 294.868659 
L 191.099252 292.535073 
L 192.185053 292.891571 
L 193.270854 294.29609 
L 194.356656 295.10802 
L 195.442457 295.344831 
L 199.785661 295.214534 
L 201.957264 294.788763 
L 203.043065 294.284839 
L 204.128866 295.185098 
L 205.214667 287.237976 
L 206.300468 291.830776 
L 207.386269 292.449868 
L 208.472071 286.338528 
L 209.557872 289.572975 
L 210.643673 294.241244 
L 211.729474 292.182235 
L 212.815275 294.950885 
L 213.901076 293.585921 
L 214.986877 295.214902 
L 216.072679 295.194423 
L 217.15848 295.486921 
L 220.415883 295.354824 
L 221.501684 295.30588 
L 222.587486 293.386332 
L 225.844889 295.476624 
L 226.93069 295.417105 
L 228.016491 295.48154 
L 229.102292 295.383252 
L 230.188094 295.421543 
L 232.359696 293.604652 
L 233.445497 293.138338 
L 234.531298 289.028284 
L 235.617099 286.347434 
L 236.702901 291.108527 
L 237.788702 288.252032 
L 238.874503 292.081348 
L 239.960304 294.208481 
L 241.046105 294.841653 
L 242.131906 294.660274 
L 243.217708 294.862152 
L 244.303509 294.707686 
L 245.38931 294.747398 
L 246.475111 293.537438 
L 247.560912 295.132954 
L 248.646713 287.807977 
L 249.732514 291.205329 
L 250.818316 291.713218 
L 251.904117 293.502888 
L 252.989918 292.625352 
L 254.075719 295.135159 
L 255.16152 294.355327 
L 256.247321 295.437599 
L 257.333123 295.208266 
L 258.418924 295.257419 
L 259.504725 295.004339 
L 260.590526 295.431129 
L 261.676327 295.265736 
L 262.762128 295.357622 
L 264.933731 295.260737 
L 266.019532 294.834136 
L 267.105333 294.062612 
L 268.191134 294.54736 
L 269.276935 289.480428 
L 270.362736 294.366248 
L 271.448538 291.814746 
L 272.534339 293.314692 
L 273.62014 291.099901 
L 275.791742 293.164007 
L 276.877543 291.639569 
L 280.134947 294.329597 
L 281.220748 294.282845 
L 282.306549 290.159127 
L 283.39235 295.01704 
L 284.478151 281.254013 
L 285.563953 294.558287 
L 286.649754 294.373621 
L 287.735555 294.497218 
L 288.821356 292.129534 
L 289.907157 292.114389 
L 290.992958 288.704339 
L 292.07876 290.164682 
L 293.164561 294.541581 
L 294.250362 294.416865 
L 295.336163 293.809508 
L 296.421964 295.217661 
L 297.507765 294.470094 
L 298.593566 292.944105 
L 299.679368 290.153025 
L 300.765169 288.421362 
L 301.85097 284.744709 
L 302.936771 289.416879 
L 304.022572 289.257343 
L 305.108373 289.568101 
L 306.194175 292.67305 
L 307.279976 293.247539 
L 308.365777 294.900906 
L 309.451578 295.423628 
L 312.708981 295.406949 
L 314.880584 295.25394 
L 315.966385 295.221095 
L 319.223788 294.82413 
L 321.395391 294.764868 
L 322.481192 294.275811 
L 323.566993 294.440548 
L 324.652794 293.291123 
L 325.738595 294.021544 
L 326.824396 291.481322 
L 327.910198 294.378591 
L 328.995999 288.247713 
L 330.0818 293.002264 
L 331.167601 293.736394 
L 332.253402 294.939296 
L 333.339203 295.306835 
L 334.425005 295.324148 
L 335.510806 295.455419 
L 337.682408 295.259162 
L 338.768209 293.610234 
L 339.85401 295.080197 
L 340.939811 295.093462 
L 342.025613 294.282421 
L 343.111414 295.277729 
L 344.197215 295.121354 
L 345.283016 294.745152 
L 347.454618 294.34332 
L 348.54042 293.859473 
L 349.626221 293.981913 
L 350.712022 293.033128 
L 351.797823 293.681722 
L 352.883624 280.696186 
L 353.969425 293.693858 
L 355.055227 294.798182 
L 357.226829 295.45985 
L 361.570033 295.297125 
L 362.655835 295.216759 
L 363.741636 294.983991 
L 364.827437 294.164656 
L 365.913238 294.944027 
L 366.999039 293.523077 
L 368.08484 293.360521 
L 369.170642 295.127034 
L 370.256443 294.395883 
L 371.342244 294.083388 
L 373.513846 294.21833 
L 374.599647 294.566335 
L 376.77125 294.221249 
L 377.857051 294.776194 
L 378.942852 292.57219 
L 380.028653 294.3616 
L 381.114454 286.444818 
L 382.200255 292.828252 
L 383.286057 294.953245 
L 384.371858 295.068424 
L 385.457659 295.009177 
L 386.54346 295.249717 
L 387.629261 295.211045 
L 388.715062 295.40227 
L 389.800863 294.61172 
L 390.886665 294.194364 
L 391.972466 294.647174 
L 393.058267 286.572864 
L 394.144068 293.799011 
L 395.229869 295.354328 
L 397.401472 295.486489 
L 398.487273 295.486675 
L 398.487273 295.486675 
" clip-path="url(#pa247c23afb)" style="fill: none; stroke: #ff7f0e; stroke-opacity: 0.5; stroke-width: 1.5; stroke-linecap: square"/>
   </g>
   <g id="patch_3">
    <path d="M 57.6 307.584 
L 57.6 41.472 
" style="fill: none; stroke: #000000; stroke-width: 0.8; stroke-linejoin: miter; stroke-linecap: square"/>
   </g>
   <g id="patch_4">
    <path d="M 414.72 307.584 
L 414.72 41.472 
" style="fill: none; stroke: #000000; stroke-width: 0.8; stroke-linejoin: miter; stroke-linecap: square"/>
   </g>
   <g id="patch_5">
    <path d="M 57.6 307.584 
L 414.72 307.584 
" style="fill: none; stroke: #000000; stroke-width: 0.8; stroke-linejoin: miter; stroke-linecap: square"/>
   </g>
   <g id="patch_6">
    <path d="M 57.6 41.472 
L 414.72 41.472 
" style="fill: none; stroke: #000000; stroke-width: 0.8; stroke-linejoin: miter; stroke-linecap: square"/>
   </g>
   <g id="legend_1">
    <g id="patch_7">
     <path d="M 351.768438 78.82825 
L 407.72 78.82825 
Q 409.72 78.82825 409.72 76.82825 
L 409.72 48.472 
Q 409.72 46.472 407.72 46.472 
L 351.768438 46.472 
Q 349.768438 46.472 349.768438 48.472 
L 349.768438 76.82825 
Q 349.768438 78.82825 351.768438 78.82825 
z
" style="fill: #ffffff; opacity: 0.8; stroke: #cccccc; stroke-linejoin: miter"/>
    </g>
    <g id="line2d_15">
     <path d="M 353.768438 54.570437 
L 363.768438 54.570437 
L 373.768438 54.570437 
" style="fill: none; stroke: #1f77b4; stroke-width: 1.5; stroke-linecap: square"/>
    </g>
    <g id="text_13">
     <!-- train -->
     <g transform="translate(381.768438 58.070437) scale(0.1 -0.1)">
      <defs>
       <path id="DejaVuSans-74" d="M 1172 4494 
L 1172 3500 
L 2356 3500 
L 2356 3053 
L 1172 3053 
L 1172 1153 
Q 1172 725 1289 603 
Q 1406 481 1766 481 
L 2356 481 
L 2356 0 
L 1766 0 
Q 1100 0 847 248 
Q 594 497 594 1153 
L 594 3053 
L 172 3053 
L 172 3500 
L 594 3500 
L 594 4494 
L 1172 4494 
z
" transform="scale(0.015625)"/>
       <path id="DejaVuSans-72" d="M 2631 2963 
Q 2534 3019 2420 3045 
Q 2306 3072 2169 3072 
Q 1681 3072 1420 2755 
Q 1159 2438 1159 1844 
L 1159 0 
L 581 0 
L 581 3500 
L 1159 3500 
L 1159 2956 
Q 1341 3275 1631 3429 
Q 1922 3584 2338 3584 
Q 2397 3584 2469 3576 
Q 2541 3569 2628 3553 
L 2631 2963 
z
" transform="scale(0.015625)"/>
       <path id="DejaVuSans-61" d="M 2194 1759 
Q 1497 1759 1228 1600 
Q 959 1441 959 1056 
Q 959 750 1161 570 
Q 1363 391 1709 391 
Q 2188 391 2477 730 
Q 2766 1069 2766 1631 
L 2766 1759 
L 2194 1759 
z
M 3341 1997 
L 3341 0 
L 2766 0 
L 2766 531 
Q 2569 213 2275 61 
Q 1981 -91 1556 -91 
Q 1019 -91 701 211 
Q 384 513 384 1019 
Q 384 1609 779 1909 
Q 1175 2209 1959 2209 
L 2766 2209 
L 2766 2266 
Q 2766 2663 2505 2880 
Q 2244 3097 1772 3097 
Q 1472 3097 1187 3025 
Q 903 2953 641 2809 
L 641 3341 
Q 956 3463 1253 3523 
Q 1550 3584 1831 3584 
Q 2591 3584 2966 3190 
Q 3341 2797 3341 1997 
z
" transform="scale(0.015625)"/>
       <path id="DejaVuSans-69" d="M 603 3500 
L 1178 3500 
L 1178 0 
L 603 0 
L 603 3500 
z
M 603 4863 
L 1178 4863 
L 1178 4134 
L 603 4134 
L 603 4863 
z
" transform="scale(0.015625)"/>
       <path id="DejaVuSans-6e" d="M 3513 2113 
L 3513 0 
L 2938 0 
L 2938 2094 
Q 2938 2591 2744 2837 
Q 2550 3084 2163 3084 
Q 1697 3084 1428 2787 
Q 1159 2491 1159 1978 
L 1159 0 
L 581 0 
L 581 3500 
L 1159 3500 
L 1159 2956 
Q 1366 3272 1645 3428 
Q 1925 3584 2291 3584 
Q 2894 3584 3203 3211 
Q 3513 2838 3513 2113 
z
" transform="scale(0.015625)"/>
      </defs>
      <use xlink:href="#DejaVuSans-74"/>
      <use xlink:href="#DejaVuSans-72" x="39.208984"/>
      <use xlink:href="#DejaVuSans-61" x="80.322266"/>
      <use xlink:href="#DejaVuSans-69" x="141.601562"/>
      <use xlink:href="#DejaVuSans-6e" x="169.384766"/>
     </g>
    </g>
    <g id="line2d_16">
     <path d="M 353.768438 69.248562 
L 363.768438 69.248562 
L 373.768438 69.248562 
" style="fill: none; stroke: #ff7f0e; stroke-opacity: 0.5; stroke-width: 1.5; stroke-linecap: square"/>
    </g>
    <g id="text_14">
     <!-- valid -->
     <g transform="translate(381.768438 72.748562) scale(0.1 -0.1)">
      <defs>
       <path id="DejaVuSans-76" d="M 191 3500 
L 800 3500 
L 1894 563 
L 2988 3500 
L 3597 3500 
L 2284 0 
L 1503 0 
L 191 3500 
z
" transform="scale(0.015625)"/>
       <path id="DejaVuSans-6c" d="M 603 4863 
L 1178 4863 
L 1178 0 
L 603 0 
L 603 4863 
z
" transform="scale(0.015625)"/>
       <path id="DejaVuSans-64" d="M 2906 2969 
L 2906 4863 
L 3481 4863 
L 3481 0 
L 2906 0 
L 2906 525 
Q 2725 213 2448 61 
Q 2172 -91 1784 -91 
Q 1150 -91 751 415 
Q 353 922 353 1747 
Q 353 2572 751 3078 
Q 1150 3584 1784 3584 
Q 2172 3584 2448 3432 
Q 2725 3281 2906 2969 
z
M 947 1747 
Q 947 1113 1208 752 
Q 1469 391 1925 391 
Q 2381 391 2643 752 
Q 2906 1113 2906 1747 
Q 2906 2381 2643 2742 
Q 2381 3103 1925 3103 
Q 1469 3103 1208 2742 
Q 947 2381 947 1747 
z
" transform="scale(0.015625)"/>
      </defs>
      <use xlink:href="#DejaVuSans-76"/>
      <use xlink:href="#DejaVuSans-61" x="59.179688"/>
      <use xlink:href="#DejaVuSans-6c" x="120.458984"/>
      <use xlink:href="#DejaVuSans-69" x="148.242188"/>
      <use xlink:href="#DejaVuSans-64" x="176.025391"/>
     </g>
    </g>
   </g>
  </g>
 </g>
 <defs>
  <clipPath id="pa247c23afb">
   <rect x="57.6" y="41.472" width="357.12" height="266.112"/>
  </clipPath>
 </defs>
</svg>
