<?xml version="1.0" encoding="utf-8" standalone="no"?>
<!DOCTYPE svg PUBLIC "-//W3C//DTD SVG 1.1//EN"
  "http://www.w3.org/Graphics/SVG/1.1/DTD/svg11.dtd">
<svg xmlns:xlink="http://www.w3.org/1999/xlink" width="460.8pt" height="345.6pt" viewBox="0 0 460.8 345.6" xmlns="http://www.w3.org/2000/svg" version="1.1">
 <metadata>
  <rdf:RDF xmlns:dc="http://purl.org/dc/elements/1.1/" xmlns:cc="http://creativecommons.org/ns#" xmlns:rdf="http://www.w3.org/1999/02/22-rdf-syntax-ns#">
   <cc:Work>
    <dc:type rdf:resource="http://purl.org/dc/dcmitype/StillImage"/>
    <dc:date>2023-12-05T02:33:24.878985</dc:date>
    <dc:format>image/svg+xml</dc:format>
    <dc:creator>
     <cc:Agent>
      <dc:title>Matplotlib v3.7.3, https://matplotlib.org/</dc:title>
     </cc:Agent>
    </dc:creator>
   </cc:Work>
  </rdf:RDF>
 </metadata>
 <defs>
  <style type="text/css">*{stroke-linejoin: round; stroke-linecap: butt}</style>
 </defs>
 <g id="figure_1">
  <g id="patch_1">
   <path d="M 0 345.6 
L 460.8 345.6 
L 460.8 0 
L 0 0 
z
" style="fill: #ffffff"/>
  </g>
  <g id="axes_1">
   <g id="patch_2">
    <path d="M 57.6 307.584 
L 414.72 307.584 
L 414.72 41.472 
L 57.6 41.472 
z
" style="fill: #ffffff"/>
   </g>
   <g id="matplotlib.axis_1">
    <g id="xtick_1">
     <g id="line2d_1">
      <defs>
       <path id="m6518b834a1" d="M 0 0 
L 0 3.5 
" style="stroke: #000000; stroke-width: 0.8"/>
      </defs>
      <g>
       <use xlink:href="#m6518b834a1" x="73.832727" y="307.584" style="stroke: #000000; stroke-width: 0.8"/>
      </g>
     </g>
     <g id="text_1">
      <!-- 0 -->
      <g transform="translate(70.651477 322.182437) scale(0.1 -0.1)">
       <defs>
        <path id="DejaVuSans-30" d="M 2034 4250 
Q 1547 4250 1301 3770 
Q 1056 3291 1056 2328 
Q 1056 1369 1301 889 
Q 1547 409 2034 409 
Q 2525 409 2770 889 
Q 3016 1369 3016 2328 
Q 3016 3291 2770 3770 
Q 2525 4250 2034 4250 
z
M 2034 4750 
Q 2819 4750 3233 4129 
Q 3647 3509 3647 2328 
Q 3647 1150 3233 529 
Q 2819 -91 2034 -91 
Q 1250 -91 836 529 
Q 422 1150 422 2328 
Q 422 3509 836 4129 
Q 1250 4750 2034 4750 
z
" transform="scale(0.015625)"/>
       </defs>
       <use xlink:href="#DejaVuSans-30"/>
      </g>
     </g>
    </g>
    <g id="xtick_2">
     <g id="line2d_2">
      <g>
       <use xlink:href="#m6518b834a1" x="128.122785" y="307.584" style="stroke: #000000; stroke-width: 0.8"/>
      </g>
     </g>
     <g id="text_2">
      <!-- 50 -->
      <g transform="translate(121.760285 322.182437) scale(0.1 -0.1)">
       <defs>
        <path id="DejaVuSans-35" d="M 691 4666 
L 3169 4666 
L 3169 4134 
L 1269 4134 
L 1269 2991 
Q 1406 3038 1543 3061 
Q 1681 3084 1819 3084 
Q 2600 3084 3056 2656 
Q 3513 2228 3513 1497 
Q 3513 744 3044 326 
Q 2575 -91 1722 -91 
Q 1428 -91 1123 -41 
Q 819 9 494 109 
L 494 744 
Q 775 591 1075 516 
Q 1375 441 1709 441 
Q 2250 441 2565 725 
Q 2881 1009 2881 1497 
Q 2881 1984 2565 2268 
Q 2250 2553 1709 2553 
Q 1456 2553 1204 2497 
Q 953 2441 691 2322 
L 691 4666 
z
" transform="scale(0.015625)"/>
       </defs>
       <use xlink:href="#DejaVuSans-35"/>
       <use xlink:href="#DejaVuSans-30" x="63.623047"/>
      </g>
     </g>
    </g>
    <g id="xtick_3">
     <g id="line2d_3">
      <g>
       <use xlink:href="#m6518b834a1" x="182.412843" y="307.584" style="stroke: #000000; stroke-width: 0.8"/>
      </g>
     </g>
     <g id="text_3">
      <!-- 100 -->
      <g transform="translate(172.869093 322.182437) scale(0.1 -0.1)">
       <defs>
        <path id="DejaVuSans-31" d="M 794 531 
L 1825 531 
L 1825 4091 
L 703 3866 
L 703 4441 
L 1819 4666 
L 2450 4666 
L 2450 531 
L 3481 531 
L 3481 0 
L 794 0 
L 794 531 
z
" transform="scale(0.015625)"/>
       </defs>
       <use xlink:href="#DejaVuSans-31"/>
       <use xlink:href="#DejaVuSans-30" x="63.623047"/>
       <use xlink:href="#DejaVuSans-30" x="127.246094"/>
      </g>
     </g>
    </g>
    <g id="xtick_4">
     <g id="line2d_4">
      <g>
       <use xlink:href="#m6518b834a1" x="236.702901" y="307.584" style="stroke: #000000; stroke-width: 0.8"/>
      </g>
     </g>
     <g id="text_4">
      <!-- 150 -->
      <g transform="translate(227.159151 322.182437) scale(0.1 -0.1)">
       <use xlink:href="#DejaVuSans-31"/>
       <use xlink:href="#DejaVuSans-35" x="63.623047"/>
       <use xlink:href="#DejaVuSans-30" x="127.246094"/>
      </g>
     </g>
    </g>
    <g id="xtick_5">
     <g id="line2d_5">
      <g>
       <use xlink:href="#m6518b834a1" x="290.992958" y="307.584" style="stroke: #000000; stroke-width: 0.8"/>
      </g>
     </g>
     <g id="text_5">
      <!-- 200 -->
      <g transform="translate(281.449208 322.182437) scale(0.1 -0.1)">
       <defs>
        <path id="DejaVuSans-32" d="M 1228 531 
L 3431 531 
L 3431 0 
L 469 0 
L 469 531 
Q 828 903 1448 1529 
Q 2069 2156 2228 2338 
Q 2531 2678 2651 2914 
Q 2772 3150 2772 3378 
Q 2772 3750 2511 3984 
Q 2250 4219 1831 4219 
Q 1534 4219 1204 4116 
Q 875 4013 500 3803 
L 500 4441 
Q 881 4594 1212 4672 
Q 1544 4750 1819 4750 
Q 2544 4750 2975 4387 
Q 3406 4025 3406 3419 
Q 3406 3131 3298 2873 
Q 3191 2616 2906 2266 
Q 2828 2175 2409 1742 
Q 1991 1309 1228 531 
z
" transform="scale(0.015625)"/>
       </defs>
       <use xlink:href="#DejaVuSans-32"/>
       <use xlink:href="#DejaVuSans-30" x="63.623047"/>
       <use xlink:href="#DejaVuSans-30" x="127.246094"/>
      </g>
     </g>
    </g>
    <g id="xtick_6">
     <g id="line2d_6">
      <g>
       <use xlink:href="#m6518b834a1" x="345.283016" y="307.584" style="stroke: #000000; stroke-width: 0.8"/>
      </g>
     </g>
     <g id="text_6">
      <!-- 250 -->
      <g transform="translate(335.739266 322.182437) scale(0.1 -0.1)">
       <use xlink:href="#DejaVuSans-32"/>
       <use xlink:href="#DejaVuSans-35" x="63.623047"/>
       <use xlink:href="#DejaVuSans-30" x="127.246094"/>
      </g>
     </g>
    </g>
    <g id="xtick_7">
     <g id="line2d_7">
      <g>
       <use xlink:href="#m6518b834a1" x="399.573074" y="307.584" style="stroke: #000000; stroke-width: 0.8"/>
      </g>
     </g>
     <g id="text_7">
      <!-- 300 -->
      <g transform="translate(390.029324 322.182437) scale(0.1 -0.1)">
       <defs>
        <path id="DejaVuSans-33" d="M 2597 2516 
Q 3050 2419 3304 2112 
Q 3559 1806 3559 1356 
Q 3559 666 3084 287 
Q 2609 -91 1734 -91 
Q 1441 -91 1130 -33 
Q 819 25 488 141 
L 488 750 
Q 750 597 1062 519 
Q 1375 441 1716 441 
Q 2309 441 2620 675 
Q 2931 909 2931 1356 
Q 2931 1769 2642 2001 
Q 2353 2234 1838 2234 
L 1294 2234 
L 1294 2753 
L 1863 2753 
Q 2328 2753 2575 2939 
Q 2822 3125 2822 3475 
Q 2822 3834 2567 4026 
Q 2313 4219 1838 4219 
Q 1578 4219 1281 4162 
Q 984 4106 628 3988 
L 628 4550 
Q 988 4650 1302 4700 
Q 1616 4750 1894 4750 
Q 2613 4750 3031 4423 
Q 3450 4097 3450 3541 
Q 3450 3153 3228 2886 
Q 3006 2619 2597 2516 
z
" transform="scale(0.015625)"/>
       </defs>
       <use xlink:href="#DejaVuSans-33"/>
       <use xlink:href="#DejaVuSans-30" x="63.623047"/>
       <use xlink:href="#DejaVuSans-30" x="127.246094"/>
      </g>
     </g>
    </g>
   </g>
   <g id="matplotlib.axis_2">
    <g id="ytick_1">
     <g id="line2d_8">
      <defs>
       <path id="ma2b379596a" d="M 0 0 
L -3.5 0 
" style="stroke: #000000; stroke-width: 0.8"/>
      </defs>
      <g>
       <use xlink:href="#ma2b379596a" x="57.6" y="295.496489" style="stroke: #000000; stroke-width: 0.8"/>
      </g>
     </g>
     <g id="text_8">
      <!-- 0 -->
      <g transform="translate(44.2375 299.295707) scale(0.1 -0.1)">
       <use xlink:href="#DejaVuSans-30"/>
      </g>
     </g>
    </g>
    <g id="ytick_2">
     <g id="line2d_9">
      <g>
       <use xlink:href="#ma2b379596a" x="57.6" y="238.473855" style="stroke: #000000; stroke-width: 0.8"/>
      </g>
     </g>
     <g id="text_9">
      <!-- 200 -->
      <g transform="translate(31.5125 242.273074) scale(0.1 -0.1)">
       <use xlink:href="#DejaVuSans-32"/>
       <use xlink:href="#DejaVuSans-30" x="63.623047"/>
       <use xlink:href="#DejaVuSans-30" x="127.246094"/>
      </g>
     </g>
    </g>
    <g id="ytick_3">
     <g id="line2d_10">
      <g>
       <use xlink:href="#ma2b379596a" x="57.6" y="181.451222" style="stroke: #000000; stroke-width: 0.8"/>
      </g>
     </g>
     <g id="text_10">
      <!-- 400 -->
      <g transform="translate(31.5125 185.250441) scale(0.1 -0.1)">
       <defs>
        <path id="DejaVuSans-34" d="M 2419 4116 
L 825 1625 
L 2419 1625 
L 2419 4116 
z
M 2253 4666 
L 3047 4666 
L 3047 1625 
L 3713 1625 
L 3713 1100 
L 3047 1100 
L 3047 0 
L 2419 0 
L 2419 1100 
L 313 1100 
L 313 1709 
L 2253 4666 
z
" transform="scale(0.015625)"/>
       </defs>
       <use xlink:href="#DejaVuSans-34"/>
       <use xlink:href="#DejaVuSans-30" x="63.623047"/>
       <use xlink:href="#DejaVuSans-30" x="127.246094"/>
      </g>
     </g>
    </g>
    <g id="ytick_4">
     <g id="line2d_11">
      <g>
       <use xlink:href="#ma2b379596a" x="57.6" y="124.428589" style="stroke: #000000; stroke-width: 0.8"/>
      </g>
     </g>
     <g id="text_11">
      <!-- 600 -->
      <g transform="translate(31.5125 128.227808) scale(0.1 -0.1)">
       <defs>
        <path id="DejaVuSans-36" d="M 2113 2584 
Q 1688 2584 1439 2293 
Q 1191 2003 1191 1497 
Q 1191 994 1439 701 
Q 1688 409 2113 409 
Q 2538 409 2786 701 
Q 3034 994 3034 1497 
Q 3034 2003 2786 2293 
Q 2538 2584 2113 2584 
z
M 3366 4563 
L 3366 3988 
Q 3128 4100 2886 4159 
Q 2644 4219 2406 4219 
Q 1781 4219 1451 3797 
Q 1122 3375 1075 2522 
Q 1259 2794 1537 2939 
Q 1816 3084 2150 3084 
Q 2853 3084 3261 2657 
Q 3669 2231 3669 1497 
Q 3669 778 3244 343 
Q 2819 -91 2113 -91 
Q 1303 -91 875 529 
Q 447 1150 447 2328 
Q 447 3434 972 4092 
Q 1497 4750 2381 4750 
Q 2619 4750 2861 4703 
Q 3103 4656 3366 4563 
z
" transform="scale(0.015625)"/>
       </defs>
       <use xlink:href="#DejaVuSans-36"/>
       <use xlink:href="#DejaVuSans-30" x="63.623047"/>
       <use xlink:href="#DejaVuSans-30" x="127.246094"/>
      </g>
     </g>
    </g>
    <g id="ytick_5">
     <g id="line2d_12">
      <g>
       <use xlink:href="#ma2b379596a" x="57.6" y="67.405956" style="stroke: #000000; stroke-width: 0.8"/>
      </g>
     </g>
     <g id="text_12">
      <!-- 800 -->
      <g transform="translate(31.5125 71.205174) scale(0.1 -0.1)">
       <defs>
        <path id="DejaVuSans-38" d="M 2034 2216 
Q 1584 2216 1326 1975 
Q 1069 1734 1069 1313 
Q 1069 891 1326 650 
Q 1584 409 2034 409 
Q 2484 409 2743 651 
Q 3003 894 3003 1313 
Q 3003 1734 2745 1975 
Q 2488 2216 2034 2216 
z
M 1403 2484 
Q 997 2584 770 2862 
Q 544 3141 544 3541 
Q 544 4100 942 4425 
Q 1341 4750 2034 4750 
Q 2731 4750 3128 4425 
Q 3525 4100 3525 3541 
Q 3525 3141 3298 2862 
Q 3072 2584 2669 2484 
Q 3125 2378 3379 2068 
Q 3634 1759 3634 1313 
Q 3634 634 3220 271 
Q 2806 -91 2034 -91 
Q 1263 -91 848 271 
Q 434 634 434 1313 
Q 434 1759 690 2068 
Q 947 2378 1403 2484 
z
M 1172 3481 
Q 1172 3119 1398 2916 
Q 1625 2713 2034 2713 
Q 2441 2713 2670 2916 
Q 2900 3119 2900 3481 
Q 2900 3844 2670 4047 
Q 2441 4250 2034 4250 
Q 1625 4250 1398 4047 
Q 1172 3844 1172 3481 
z
" transform="scale(0.015625)"/>
       </defs>
       <use xlink:href="#DejaVuSans-38"/>
       <use xlink:href="#DejaVuSans-30" x="63.623047"/>
       <use xlink:href="#DejaVuSans-30" x="127.246094"/>
      </g>
     </g>
    </g>
   </g>
   <g id="line2d_13">
    <path d="M 73.832727 53.568 
L 74.918528 120.449934 
L 76.00433 232.497989 
L 77.090131 219.366484 
L 78.175932 226.736455 
L 79.261733 138.921772 
L 80.347534 183.18638 
L 81.433335 136.233313 
L 82.519137 248.06702 
L 83.604938 264.094417 
L 84.690739 259.670288 
L 85.77654 268.590724 
L 86.862341 275.601757 
L 87.948142 237.217225 
L 89.033943 264.670584 
L 90.119745 240.947397 
L 91.205546 196.789315 
L 92.291347 257.780553 
L 93.377148 227.073685 
L 94.462949 281.796628 
L 95.54875 284.817855 
L 96.634552 261.124131 
L 97.720353 279.961087 
L 98.806154 283.216405 
L 99.891955 279.241997 
L 102.063557 259.742893 
L 103.149358 260.129548 
L 104.23516 251.635844 
L 105.320961 253.39385 
L 106.406762 275.777315 
L 107.492563 282.011883 
L 108.578364 280.949055 
L 109.664165 287.340444 
L 110.749967 285.232897 
L 111.835768 287.033445 
L 112.921569 272.130424 
L 114.00737 273.02541 
L 115.093171 255.827932 
L 116.178972 251.106527 
L 117.264773 267.731428 
L 118.350575 281.63221 
L 119.436376 286.631635 
L 120.522177 289.419996 
L 121.607978 275.156647 
L 122.693779 258.335067 
L 123.77958 280.491371 
L 124.865382 261.574964 
L 125.951183 287.003999 
L 127.036984 286.130475 
L 128.122785 283.049064 
L 129.208586 283.995489 
L 130.294387 290.089957 
L 131.380189 277.846945 
L 132.46599 281.637278 
L 133.551791 282.85482 
L 134.637592 278.07289 
L 135.723393 255.497547 
L 136.809194 257.359865 
L 137.894995 278.201269 
L 138.980797 286.569115 
L 140.066598 291.157285 
L 141.152399 292.734858 
L 142.2382 292.133043 
L 143.324001 288.838362 
L 144.409802 284.422491 
L 145.495604 268.919219 
L 146.581405 287.789051 
L 147.667206 284.637216 
L 148.753007 292.320562 
L 149.838808 288.112193 
L 150.924609 292.476248 
L 152.01041 292.932597 
L 153.096212 291.594265 
L 154.182013 280.686213 
L 155.267814 273.522814 
L 156.353615 274.25576 
L 157.439416 275.384712 
L 158.525217 290.447635 
L 159.611019 286.276575 
L 160.69682 291.522159 
L 161.782621 292.149612 
L 162.868422 292.583063 
L 163.954223 290.947076 
L 165.040024 291.293218 
L 166.125825 283.771199 
L 167.211627 279.756331 
L 168.297428 284.353071 
L 169.383229 272.674723 
L 170.46903 285.835664 
L 171.554831 292.798714 
L 172.640632 290.408918 
L 173.726434 287.499076 
L 174.812235 290.517734 
L 175.898036 288.683374 
L 176.983837 279.256163 
L 178.069638 283.349551 
L 179.155439 286.495179 
L 180.24124 282.627144 
L 181.327042 288.996936 
L 182.412843 280.270308 
L 183.498644 289.821716 
L 184.584445 290.441208 
L 186.756047 293.640971 
L 187.841849 291.76869 
L 188.92765 291.970976 
L 190.013451 290.914921 
L 191.099252 288.324363 
L 192.185053 285.016437 
L 193.270854 291.286971 
L 194.356656 290.193887 
L 195.442457 291.557558 
L 196.528258 289.902964 
L 197.614059 289.89237 
L 198.69986 283.461572 
L 199.785661 281.649419 
L 200.871462 289.256533 
L 201.957264 271.529236 
L 203.043065 293.575043 
L 204.128866 290.550209 
L 205.214667 291.518134 
L 206.300468 290.566061 
L 207.386269 292.479691 
L 208.472071 289.707438 
L 209.557872 290.112587 
L 210.643673 291.652577 
L 211.729474 291.711453 
L 212.815275 291.222527 
L 213.901076 292.456364 
L 214.986877 292.718866 
L 216.072679 291.045227 
L 217.15848 290.421362 
L 218.244281 292.852622 
L 219.330082 290.023756 
L 220.415883 291.557535 
L 221.501684 285.343667 
L 222.587486 277.327457 
L 223.673287 289.900482 
L 224.759088 277.145542 
L 225.844889 289.798186 
L 226.93069 292.626765 
L 228.016491 293.211638 
L 229.102292 293.166778 
L 230.188094 294.506241 
L 231.273895 293.747031 
L 232.359696 292.420183 
L 233.445497 292.669109 
L 234.531298 288.178067 
L 235.617099 288.6891 
L 236.702901 286.804275 
L 237.788702 289.495596 
L 238.874503 290.394783 
L 239.960304 291.705309 
L 242.131906 292.936938 
L 243.217708 293.541986 
L 244.303509 289.410706 
L 245.38931 289.293118 
L 246.475111 292.808769 
L 247.560912 289.820875 
L 248.646713 287.288969 
L 249.732514 290.281228 
L 250.818316 291.992415 
L 251.904117 294.004618 
L 252.989918 291.736175 
L 254.075719 293.026164 
L 256.247321 292.649057 
L 257.333123 291.413351 
L 258.418924 292.117942 
L 260.590526 293.182026 
L 261.676327 293.07569 
L 262.762128 292.778222 
L 263.847929 292.910272 
L 266.019532 291.276776 
L 267.105333 292.05074 
L 268.191134 292.594991 
L 269.276935 292.378445 
L 270.362736 293.033964 
L 271.448538 294.174364 
L 272.534339 293.590914 
L 273.62014 292.815568 
L 274.705941 292.428121 
L 275.791742 284.939462 
L 276.877543 288.007408 
L 277.963344 288.719711 
L 279.049146 291.964378 
L 280.134947 293.69233 
L 281.220748 293.400334 
L 282.306549 292.924062 
L 283.39235 291.806359 
L 284.478151 291.529333 
L 285.563953 291.509425 
L 286.649754 291.35401 
L 287.735555 290.122156 
L 288.821356 284.869012 
L 289.907157 292.318305 
L 290.992958 288.420399 
L 292.07876 293.832173 
L 293.164561 294.53953 
L 294.250362 293.954876 
L 295.336163 294.511437 
L 298.593566 293.758374 
L 299.679368 291.462892 
L 300.765169 276.561672 
L 301.85097 292.147561 
L 302.936771 280.365826 
L 304.022572 292.981608 
L 306.194175 293.712397 
L 307.279976 294.18084 
L 308.365777 294.040552 
L 309.451578 294.133163 
L 310.537379 293.582707 
L 312.708981 293.564842 
L 313.794783 293.821284 
L 314.880584 291.458931 
L 315.966385 284.401862 
L 317.052186 275.276348 
L 318.137987 289.83365 
L 319.223788 289.419223 
L 320.30959 291.413552 
L 321.395391 293.924149 
L 322.481192 294.252798 
L 324.652794 293.326017 
L 325.738595 293.453695 
L 326.824396 291.973026 
L 327.910198 292.099181 
L 328.995999 291.598083 
L 330.0818 292.384122 
L 331.167601 291.35943 
L 332.253402 290.829782 
L 333.339203 289.514003 
L 334.425005 274.780956 
L 335.510806 272.37977 
L 336.596607 293.34971 
L 337.682408 294.130528 
L 338.768209 294.555699 
L 339.85401 294.701956 
L 340.939811 294.676216 
L 342.025613 294.792822 
L 343.111414 294.465177 
L 344.197215 293.435708 
L 345.283016 291.021811 
L 346.368817 281.924769 
L 347.454618 266.27093 
L 348.54042 292.031096 
L 349.626221 286.783234 
L 350.712022 293.707691 
L 351.797823 294.042302 
L 352.883624 293.985759 
L 353.969425 293.795828 
L 356.141028 293.652661 
L 357.226829 294.194499 
L 358.31263 294.184062 
L 359.398431 293.961608 
L 360.484232 293.141103 
L 361.570033 293.105234 
L 362.655835 286.08925 
L 363.741636 266.63494 
L 364.827437 274.870132 
L 365.913238 293.190019 
L 366.999039 292.415115 
L 368.08484 293.073375 
L 369.170642 294.177971 
L 370.256443 294.49374 
L 371.342244 294.114011 
L 372.428045 292.237322 
L 373.513846 293.473645 
L 374.599647 291.621329 
L 375.685448 293.341631 
L 376.77125 291.34872 
L 377.857051 291.440559 
L 378.942852 292.740307 
L 380.028653 290.220211 
L 381.114454 294.041383 
L 383.286057 293.551295 
L 384.371858 293.838512 
L 385.457659 292.529181 
L 386.54346 291.953028 
L 387.629261 292.401137 
L 388.715062 291.239889 
L 389.800863 294.051987 
L 390.886665 293.789247 
L 391.972466 294.670032 
L 393.058267 294.537959 
L 394.144068 293.498924 
L 395.229869 294.194002 
L 396.31567 293.075656 
L 397.401472 290.905851 
L 398.487273 289.854329 
L 398.487273 289.854329 
" clip-path="url(#p4b2e9429e8)" style="fill: none; stroke: #1f77b4; stroke-width: 1.5; stroke-linecap: square"/>
   </g>
   <g id="line2d_14">
    <path d="M 73.832727 217.648082 
L 74.918528 282.807209 
L 76.00433 291.477976 
L 77.090131 282.415914 
L 78.175932 271.403104 
L 79.261733 230.327191 
L 80.347534 174.32281 
L 81.433335 262.453395 
L 82.519137 284.452986 
L 83.604938 292.175695 
L 84.690739 292.272302 
L 85.77654 284.362385 
L 86.862341 287.814236 
L 87.948142 293.751342 
L 90.119745 283.975723 
L 91.205546 240.979111 
L 92.291347 275.989157 
L 93.377148 281.394674 
L 94.462949 287.504447 
L 95.54875 287.851986 
L 96.634552 289.802471 
L 97.720353 293.597522 
L 98.806154 285.445959 
L 99.891955 294.04884 
L 100.977756 284.662657 
L 102.063557 280.200146 
L 103.149358 291.510452 
L 104.23516 284.765646 
L 105.320961 282.465735 
L 106.406762 294.127698 
L 107.492563 293.995854 
L 108.578364 295.202326 
L 109.664165 287.447421 
L 110.749967 294.995126 
L 111.835768 291.246451 
L 112.921569 283.610716 
L 114.00737 280.344448 
L 115.093171 290.261492 
L 116.178972 281.751382 
L 117.264773 287.454245 
L 118.350575 281.829291 
L 119.436376 295.019339 
L 120.522177 293.039103 
L 121.607978 286.730687 
L 122.693779 269.017189 
L 123.77958 288.979358 
L 124.865382 293.787216 
L 127.036984 294.575889 
L 128.122785 285.868836 
L 129.208586 294.039787 
L 130.294387 288.605283 
L 131.380189 291.933948 
L 132.46599 291.741958 
L 133.551791 290.92736 
L 134.637592 294.089316 
L 135.723393 270.975721 
L 136.809194 293.63471 
L 137.894995 290.676354 
L 138.980797 293.234125 
L 140.066598 295.160486 
L 141.152399 294.365657 
L 142.2382 294.848503 
L 143.324001 292.392959 
L 144.409802 289.442503 
L 145.495604 282.673454 
L 146.581405 292.975513 
L 147.667206 294.033163 
L 148.753007 295.44716 
L 149.838808 294.90998 
L 150.924609 295.037488 
L 152.01041 294.056323 
L 153.096212 293.898425 
L 154.182013 290.989641 
L 155.267814 272.600356 
L 156.353615 291.157379 
L 157.439416 293.340869 
L 158.525217 295.168764 
L 159.611019 294.084693 
L 160.69682 293.863098 
L 161.782621 295.357201 
L 162.868422 293.187082 
L 163.954223 295.06655 
L 165.040024 290.605227 
L 166.125825 292.891573 
L 167.211627 274.505254 
L 168.297428 294.619241 
L 169.383229 294.011135 
L 170.46903 295.35421 
L 171.554831 295.022772 
L 172.640632 294.26935 
L 173.726434 293.359858 
L 174.812235 291.976499 
L 175.898036 289.669178 
L 178.069638 292.193855 
L 179.155439 286.167635 
L 180.24124 295.029879 
L 181.327042 287.547594 
L 182.412843 294.435747 
L 183.498644 294.237844 
L 184.584445 295.324359 
L 185.670246 295.018491 
L 186.756047 295.283556 
L 187.841849 294.942627 
L 188.92765 295.15749 
L 190.013451 293.36458 
L 191.099252 294.665954 
L 192.185053 295.330431 
L 193.270854 293.020504 
L 194.356656 294.870797 
L 195.442457 291.536125 
L 196.528258 294.822904 
L 197.614059 283.13502 
L 198.69986 294.76597 
L 199.785661 274.161918 
L 200.871462 292.150263 
L 201.957264 292.747748 
L 203.043065 295.263988 
L 204.128866 293.660042 
L 205.214667 295.005968 
L 206.300468 295.228404 
L 208.472071 295.069027 
L 209.557872 294.71148 
L 210.643673 294.162939 
L 211.729474 294.939634 
L 212.815275 294.788892 
L 213.901076 294.132609 
L 214.986877 294.049044 
L 216.072679 294.514152 
L 217.15848 295.403859 
L 218.244281 293.583696 
L 219.330082 295.215777 
L 220.415883 291.196797 
L 221.501684 293.376487 
L 222.587486 264.976631 
L 223.673287 291.513581 
L 224.759088 293.626473 
L 225.844889 293.884086 
L 226.93069 294.35679 
L 228.016491 295.347842 
L 229.102292 294.666455 
L 230.188094 295.338423 
L 231.273895 293.516619 
L 232.359696 295.437816 
L 233.445497 290.612739 
L 234.531298 288.548959 
L 235.617099 284.083816 
L 236.702901 294.041759 
L 237.788702 295.032077 
L 238.874503 294.906827 
L 239.960304 290.835561 
L 241.046105 294.562481 
L 242.131906 293.102362 
L 243.217708 294.790788 
L 244.303509 294.172982 
L 245.38931 291.294019 
L 246.475111 295.331642 
L 247.560912 294.663504 
L 248.646713 294.320779 
L 249.732514 292.540034 
L 250.818316 294.32504 
L 251.904117 293.724528 
L 255.16152 294.556074 
L 256.247321 294.096251 
L 257.333123 294.587403 
L 258.418924 293.125697 
L 259.504725 294.284045 
L 260.590526 294.547535 
L 262.762128 295.287426 
L 263.847929 295.090386 
L 264.933731 293.946778 
L 266.019532 294.043382 
L 267.105333 294.023691 
L 268.191134 294.517641 
L 269.276935 294.88437 
L 270.362736 293.761883 
L 271.448538 295.351587 
L 272.534339 294.522183 
L 273.62014 295.449034 
L 274.705941 294.699426 
L 275.791742 291.097867 
L 276.877543 287.977766 
L 277.963344 295.379745 
L 279.049146 291.660366 
L 280.134947 294.809865 
L 281.220748 293.707491 
L 282.306549 294.248002 
L 283.39235 291.125574 
L 284.478151 293.356565 
L 285.563953 293.403135 
L 286.649754 295.159181 
L 287.735555 287.147065 
L 288.821356 292.922161 
L 289.907157 294.293044 
L 290.992958 293.543178 
L 292.07876 295.376372 
L 293.164561 295.48399 
L 294.250362 295.249786 
L 295.336163 295.364054 
L 296.421964 294.932236 
L 297.507765 295.208897 
L 298.593566 294.361663 
L 299.679368 293.892695 
L 300.765169 284.342031 
L 301.85097 292.554906 
L 302.936771 294.656291 
L 304.022572 294.590844 
L 305.108373 293.086588 
L 306.194175 294.813072 
L 307.279976 295.1017 
L 308.365777 295.129922 
L 309.451578 294.731687 
L 310.537379 295.423165 
L 311.62318 293.855529 
L 312.708981 295.350374 
L 313.794783 293.177926 
L 314.880584 294.152786 
L 315.966385 281.119287 
L 318.137987 294.357576 
L 319.223788 295.296918 
L 320.30959 295.067059 
L 321.395391 294.618032 
L 322.481192 295.271785 
L 323.566993 294.400653 
L 324.652794 295.189835 
L 325.738595 292.618407 
L 326.824396 294.359717 
L 327.910198 291.499394 
L 328.995999 292.11821 
L 330.0818 295.351904 
L 332.253402 294.825196 
L 333.339203 291.869835 
L 334.425005 283.246209 
L 336.596607 295.33081 
L 338.768209 295.451372 
L 339.85401 294.779955 
L 340.939811 294.558253 
L 342.025613 295.283157 
L 343.111414 293.975526 
L 344.197215 294.957332 
L 345.283016 292.558474 
L 346.368817 289.105673 
L 347.454618 292.438718 
L 348.54042 294.785261 
L 349.626221 293.418883 
L 350.712022 295.39552 
L 351.797823 294.416993 
L 352.883624 295.325426 
L 353.969425 295.28673 
L 355.055227 295.488 
L 356.141028 295.102153 
L 357.226829 295.224693 
L 359.398431 295.264489 
L 360.484232 294.710378 
L 361.570033 293.097819 
L 362.655835 293.762602 
L 363.741636 262.48573 
L 364.827437 291.993515 
L 365.913238 293.07526 
L 366.999039 294.892277 
L 368.08484 295.213524 
L 369.170642 294.601479 
L 370.256443 294.944456 
L 371.342244 294.913389 
L 372.428045 294.039398 
L 373.513846 294.062971 
L 374.599647 293.530226 
L 375.685448 293.326607 
L 376.77125 289.919344 
L 377.857051 294.763031 
L 378.942852 294.18892 
L 380.028653 288.638908 
L 381.114454 295.375346 
L 382.200255 293.004882 
L 383.286057 295.198799 
L 384.371858 292.177647 
L 385.457659 295.416233 
L 386.54346 291.339142 
L 387.629261 294.175308 
L 388.715062 295.301558 
L 389.800863 295.171067 
L 390.886665 294.695938 
L 391.972466 295.335957 
L 393.058267 294.974353 
L 394.144068 295.183605 
L 395.229869 294.713405 
L 396.31567 292.694356 
L 397.401472 295.42001 
L 398.487273 284.732059 
L 398.487273 284.732059 
" clip-path="url(#p4b2e9429e8)" style="fill: none; stroke: #ff7f0e; stroke-opacity: 0.5; stroke-width: 1.5; stroke-linecap: square"/>
   </g>
   <g id="patch_3">
    <path d="M 57.6 307.584 
L 57.6 41.472 
" style="fill: none; stroke: #000000; stroke-width: 0.8; stroke-linejoin: miter; stroke-linecap: square"/>
   </g>
   <g id="patch_4">
    <path d="M 414.72 307.584 
L 414.72 41.472 
" style="fill: none; stroke: #000000; stroke-width: 0.8; stroke-linejoin: miter; stroke-linecap: square"/>
   </g>
   <g id="patch_5">
    <path d="M 57.6 307.584 
L 414.72 307.584 
" style="fill: none; stroke: #000000; stroke-width: 0.8; stroke-linejoin: miter; stroke-linecap: square"/>
   </g>
   <g id="patch_6">
    <path d="M 57.6 41.472 
L 414.72 41.472 
" style="fill: none; stroke: #000000; stroke-width: 0.8; stroke-linejoin: miter; stroke-linecap: square"/>
   </g>
   <g id="legend_1">
    <g id="patch_7">
     <path d="M 351.768438 78.82825 
L 407.72 78.82825 
Q 409.72 78.82825 409.72 76.82825 
L 409.72 48.472 
Q 409.72 46.472 407.72 46.472 
L 351.768438 46.472 
Q 349.768438 46.472 349.768438 48.472 
L 349.768438 76.82825 
Q 349.768438 78.82825 351.768438 78.82825 
z
" style="fill: #ffffff; opacity: 0.8; stroke: #cccccc; stroke-linejoin: miter"/>
    </g>
    <g id="line2d_15">
     <path d="M 353.768438 54.570437 
L 363.768438 54.570437 
L 373.768438 54.570437 
" style="fill: none; stroke: #1f77b4; stroke-width: 1.5; stroke-linecap: square"/>
    </g>
    <g id="text_13">
     <!-- train -->
     <g transform="translate(381.768438 58.070437) scale(0.1 -0.1)">
      <defs>
       <path id="DejaVuSans-74" d="M 1172 4494 
L 1172 3500 
L 2356 3500 
L 2356 3053 
L 1172 3053 
L 1172 1153 
Q 1172 725 1289 603 
Q 1406 481 1766 481 
L 2356 481 
L 2356 0 
L 1766 0 
Q 1100 0 847 248 
Q 594 497 594 1153 
L 594 3053 
L 172 3053 
L 172 3500 
L 594 3500 
L 594 4494 
L 1172 4494 
z
" transform="scale(0.015625)"/>
       <path id="DejaVuSans-72" d="M 2631 2963 
Q 2534 3019 2420 3045 
Q 2306 3072 2169 3072 
Q 1681 3072 1420 2755 
Q 1159 2438 1159 1844 
L 1159 0 
L 581 0 
L 581 3500 
L 1159 3500 
L 1159 2956 
Q 1341 3275 1631 3429 
Q 1922 3584 2338 3584 
Q 2397 3584 2469 3576 
Q 2541 3569 2628 3553 
L 2631 2963 
z
" transform="scale(0.015625)"/>
       <path id="DejaVuSans-61" d="M 2194 1759 
Q 1497 1759 1228 1600 
Q 959 1441 959 1056 
Q 959 750 1161 570 
Q 1363 391 1709 391 
Q 2188 391 2477 730 
Q 2766 1069 2766 1631 
L 2766 1759 
L 2194 1759 
z
M 3341 1997 
L 3341 0 
L 2766 0 
L 2766 531 
Q 2569 213 2275 61 
Q 1981 -91 1556 -91 
Q 1019 -91 701 211 
Q 384 513 384 1019 
Q 384 1609 779 1909 
Q 1175 2209 1959 2209 
L 2766 2209 
L 2766 2266 
Q 2766 2663 2505 2880 
Q 2244 3097 1772 3097 
Q 1472 3097 1187 3025 
Q 903 2953 641 2809 
L 641 3341 
Q 956 3463 1253 3523 
Q 1550 3584 1831 3584 
Q 2591 3584 2966 3190 
Q 3341 2797 3341 1997 
z
" transform="scale(0.015625)"/>
       <path id="DejaVuSans-69" d="M 603 3500 
L 1178 3500 
L 1178 0 
L 603 0 
L 603 3500 
z
M 603 4863 
L 1178 4863 
L 1178 4134 
L 603 4134 
L 603 4863 
z
" transform="scale(0.015625)"/>
       <path id="DejaVuSans-6e" d="M 3513 2113 
L 3513 0 
L 2938 0 
L 2938 2094 
Q 2938 2591 2744 2837 
Q 2550 3084 2163 3084 
Q 1697 3084 1428 2787 
Q 1159 2491 1159 1978 
L 1159 0 
L 581 0 
L 581 3500 
L 1159 3500 
L 1159 2956 
Q 1366 3272 1645 3428 
Q 1925 3584 2291 3584 
Q 2894 3584 3203 3211 
Q 3513 2838 3513 2113 
z
" transform="scale(0.015625)"/>
      </defs>
      <use xlink:href="#DejaVuSans-74"/>
      <use xlink:href="#DejaVuSans-72" x="39.208984"/>
      <use xlink:href="#DejaVuSans-61" x="80.322266"/>
      <use xlink:href="#DejaVuSans-69" x="141.601562"/>
      <use xlink:href="#DejaVuSans-6e" x="169.384766"/>
     </g>
    </g>
    <g id="line2d_16">
     <path d="M 353.768438 69.248562 
L 363.768438 69.248562 
L 373.768438 69.248562 
" style="fill: none; stroke: #ff7f0e; stroke-opacity: 0.5; stroke-width: 1.5; stroke-linecap: square"/>
    </g>
    <g id="text_14">
     <!-- valid -->
     <g transform="translate(381.768438 72.748562) scale(0.1 -0.1)">
      <defs>
       <path id="DejaVuSans-76" d="M 191 3500 
L 800 3500 
L 1894 563 
L 2988 3500 
L 3597 3500 
L 2284 0 
L 1503 0 
L 191 3500 
z
" transform="scale(0.015625)"/>
       <path id="DejaVuSans-6c" d="M 603 4863 
L 1178 4863 
L 1178 0 
L 603 0 
L 603 4863 
z
" transform="scale(0.015625)"/>
       <path id="DejaVuSans-64" d="M 2906 2969 
L 2906 4863 
L 3481 4863 
L 3481 0 
L 2906 0 
L 2906 525 
Q 2725 213 2448 61 
Q 2172 -91 1784 -91 
Q 1150 -91 751 415 
Q 353 922 353 1747 
Q 353 2572 751 3078 
Q 1150 3584 1784 3584 
Q 2172 3584 2448 3432 
Q 2725 3281 2906 2969 
z
M 947 1747 
Q 947 1113 1208 752 
Q 1469 391 1925 391 
Q 2381 391 2643 752 
Q 2906 1113 2906 1747 
Q 2906 2381 2643 2742 
Q 2381 3103 1925 3103 
Q 1469 3103 1208 2742 
Q 947 2381 947 1747 
z
" transform="scale(0.015625)"/>
      </defs>
      <use xlink:href="#DejaVuSans-76"/>
      <use xlink:href="#DejaVuSans-61" x="59.179688"/>
      <use xlink:href="#DejaVuSans-6c" x="120.458984"/>
      <use xlink:href="#DejaVuSans-69" x="148.242188"/>
      <use xlink:href="#DejaVuSans-64" x="176.025391"/>
     </g>
    </g>
   </g>
  </g>
 </g>
 <defs>
  <clipPath id="p4b2e9429e8">
   <rect x="57.6" y="41.472" width="357.12" height="266.112"/>
  </clipPath>
 </defs>
</svg>
