<?xml version="1.0" encoding="utf-8" standalone="no"?>
<!DOCTYPE svg PUBLIC "-//W3C//DTD SVG 1.1//EN"
  "http://www.w3.org/Graphics/SVG/1.1/DTD/svg11.dtd">
<svg xmlns:xlink="http://www.w3.org/1999/xlink" width="460.8pt" height="345.6pt" viewBox="0 0 460.8 345.6" xmlns="http://www.w3.org/2000/svg" version="1.1">
 <metadata>
  <rdf:RDF xmlns:dc="http://purl.org/dc/elements/1.1/" xmlns:cc="http://creativecommons.org/ns#" xmlns:rdf="http://www.w3.org/1999/02/22-rdf-syntax-ns#">
   <cc:Work>
    <dc:type rdf:resource="http://purl.org/dc/dcmitype/StillImage"/>
    <dc:date>2023-12-04T23:40:38.650332</dc:date>
    <dc:format>image/svg+xml</dc:format>
    <dc:creator>
     <cc:Agent>
      <dc:title>Matplotlib v3.7.3, https://matplotlib.org/</dc:title>
     </cc:Agent>
    </dc:creator>
   </cc:Work>
  </rdf:RDF>
 </metadata>
 <defs>
  <style type="text/css">*{stroke-linejoin: round; stroke-linecap: butt}</style>
 </defs>
 <g id="figure_1">
  <g id="patch_1">
   <path d="M 0 345.6 
L 460.8 345.6 
L 460.8 0 
L 0 0 
z
" style="fill: #ffffff"/>
  </g>
  <g id="axes_1">
   <g id="patch_2">
    <path d="M 57.6 307.584 
L 414.72 307.584 
L 414.72 41.472 
L 57.6 41.472 
z
" style="fill: #ffffff"/>
   </g>
   <g id="matplotlib.axis_1">
    <g id="xtick_1">
     <g id="line2d_1">
      <defs>
       <path id="mdc2e3c98d0" d="M 0 0 
L 0 3.5 
" style="stroke: #000000; stroke-width: 0.8"/>
      </defs>
      <g>
       <use xlink:href="#mdc2e3c98d0" x="73.832727" y="307.584" style="stroke: #000000; stroke-width: 0.8"/>
      </g>
     </g>
     <g id="text_1">
      <!-- 0 -->
      <g transform="translate(70.651477 322.182437) scale(0.1 -0.1)">
       <defs>
        <path id="DejaVuSans-30" d="M 2034 4250 
Q 1547 4250 1301 3770 
Q 1056 3291 1056 2328 
Q 1056 1369 1301 889 
Q 1547 409 2034 409 
Q 2525 409 2770 889 
Q 3016 1369 3016 2328 
Q 3016 3291 2770 3770 
Q 2525 4250 2034 4250 
z
M 2034 4750 
Q 2819 4750 3233 4129 
Q 3647 3509 3647 2328 
Q 3647 1150 3233 529 
Q 2819 -91 2034 -91 
Q 1250 -91 836 529 
Q 422 1150 422 2328 
Q 422 3509 836 4129 
Q 1250 4750 2034 4750 
z
" transform="scale(0.015625)"/>
       </defs>
       <use xlink:href="#DejaVuSans-30"/>
      </g>
     </g>
    </g>
    <g id="xtick_2">
     <g id="line2d_2">
      <g>
       <use xlink:href="#mdc2e3c98d0" x="128.122785" y="307.584" style="stroke: #000000; stroke-width: 0.8"/>
      </g>
     </g>
     <g id="text_2">
      <!-- 50 -->
      <g transform="translate(121.760285 322.182437) scale(0.1 -0.1)">
       <defs>
        <path id="DejaVuSans-35" d="M 691 4666 
L 3169 4666 
L 3169 4134 
L 1269 4134 
L 1269 2991 
Q 1406 3038 1543 3061 
Q 1681 3084 1819 3084 
Q 2600 3084 3056 2656 
Q 3513 2228 3513 1497 
Q 3513 744 3044 326 
Q 2575 -91 1722 -91 
Q 1428 -91 1123 -41 
Q 819 9 494 109 
L 494 744 
Q 775 591 1075 516 
Q 1375 441 1709 441 
Q 2250 441 2565 725 
Q 2881 1009 2881 1497 
Q 2881 1984 2565 2268 
Q 2250 2553 1709 2553 
Q 1456 2553 1204 2497 
Q 953 2441 691 2322 
L 691 4666 
z
" transform="scale(0.015625)"/>
       </defs>
       <use xlink:href="#DejaVuSans-35"/>
       <use xlink:href="#DejaVuSans-30" x="63.623047"/>
      </g>
     </g>
    </g>
    <g id="xtick_3">
     <g id="line2d_3">
      <g>
       <use xlink:href="#mdc2e3c98d0" x="182.412843" y="307.584" style="stroke: #000000; stroke-width: 0.8"/>
      </g>
     </g>
     <g id="text_3">
      <!-- 100 -->
      <g transform="translate(172.869093 322.182437) scale(0.1 -0.1)">
       <defs>
        <path id="DejaVuSans-31" d="M 794 531 
L 1825 531 
L 1825 4091 
L 703 3866 
L 703 4441 
L 1819 4666 
L 2450 4666 
L 2450 531 
L 3481 531 
L 3481 0 
L 794 0 
L 794 531 
z
" transform="scale(0.015625)"/>
       </defs>
       <use xlink:href="#DejaVuSans-31"/>
       <use xlink:href="#DejaVuSans-30" x="63.623047"/>
       <use xlink:href="#DejaVuSans-30" x="127.246094"/>
      </g>
     </g>
    </g>
    <g id="xtick_4">
     <g id="line2d_4">
      <g>
       <use xlink:href="#mdc2e3c98d0" x="236.702901" y="307.584" style="stroke: #000000; stroke-width: 0.8"/>
      </g>
     </g>
     <g id="text_4">
      <!-- 150 -->
      <g transform="translate(227.159151 322.182437) scale(0.1 -0.1)">
       <use xlink:href="#DejaVuSans-31"/>
       <use xlink:href="#DejaVuSans-35" x="63.623047"/>
       <use xlink:href="#DejaVuSans-30" x="127.246094"/>
      </g>
     </g>
    </g>
    <g id="xtick_5">
     <g id="line2d_5">
      <g>
       <use xlink:href="#mdc2e3c98d0" x="290.992958" y="307.584" style="stroke: #000000; stroke-width: 0.8"/>
      </g>
     </g>
     <g id="text_5">
      <!-- 200 -->
      <g transform="translate(281.449208 322.182437) scale(0.1 -0.1)">
       <defs>
        <path id="DejaVuSans-32" d="M 1228 531 
L 3431 531 
L 3431 0 
L 469 0 
L 469 531 
Q 828 903 1448 1529 
Q 2069 2156 2228 2338 
Q 2531 2678 2651 2914 
Q 2772 3150 2772 3378 
Q 2772 3750 2511 3984 
Q 2250 4219 1831 4219 
Q 1534 4219 1204 4116 
Q 875 4013 500 3803 
L 500 4441 
Q 881 4594 1212 4672 
Q 1544 4750 1819 4750 
Q 2544 4750 2975 4387 
Q 3406 4025 3406 3419 
Q 3406 3131 3298 2873 
Q 3191 2616 2906 2266 
Q 2828 2175 2409 1742 
Q 1991 1309 1228 531 
z
" transform="scale(0.015625)"/>
       </defs>
       <use xlink:href="#DejaVuSans-32"/>
       <use xlink:href="#DejaVuSans-30" x="63.623047"/>
       <use xlink:href="#DejaVuSans-30" x="127.246094"/>
      </g>
     </g>
    </g>
    <g id="xtick_6">
     <g id="line2d_6">
      <g>
       <use xlink:href="#mdc2e3c98d0" x="345.283016" y="307.584" style="stroke: #000000; stroke-width: 0.8"/>
      </g>
     </g>
     <g id="text_6">
      <!-- 250 -->
      <g transform="translate(335.739266 322.182437) scale(0.1 -0.1)">
       <use xlink:href="#DejaVuSans-32"/>
       <use xlink:href="#DejaVuSans-35" x="63.623047"/>
       <use xlink:href="#DejaVuSans-30" x="127.246094"/>
      </g>
     </g>
    </g>
    <g id="xtick_7">
     <g id="line2d_7">
      <g>
       <use xlink:href="#mdc2e3c98d0" x="399.573074" y="307.584" style="stroke: #000000; stroke-width: 0.8"/>
      </g>
     </g>
     <g id="text_7">
      <!-- 300 -->
      <g transform="translate(390.029324 322.182437) scale(0.1 -0.1)">
       <defs>
        <path id="DejaVuSans-33" d="M 2597 2516 
Q 3050 2419 3304 2112 
Q 3559 1806 3559 1356 
Q 3559 666 3084 287 
Q 2609 -91 1734 -91 
Q 1441 -91 1130 -33 
Q 819 25 488 141 
L 488 750 
Q 750 597 1062 519 
Q 1375 441 1716 441 
Q 2309 441 2620 675 
Q 2931 909 2931 1356 
Q 2931 1769 2642 2001 
Q 2353 2234 1838 2234 
L 1294 2234 
L 1294 2753 
L 1863 2753 
Q 2328 2753 2575 2939 
Q 2822 3125 2822 3475 
Q 2822 3834 2567 4026 
Q 2313 4219 1838 4219 
Q 1578 4219 1281 4162 
Q 984 4106 628 3988 
L 628 4550 
Q 988 4650 1302 4700 
Q 1616 4750 1894 4750 
Q 2613 4750 3031 4423 
Q 3450 4097 3450 3541 
Q 3450 3153 3228 2886 
Q 3006 2619 2597 2516 
z
" transform="scale(0.015625)"/>
       </defs>
       <use xlink:href="#DejaVuSans-33"/>
       <use xlink:href="#DejaVuSans-30" x="63.623047"/>
       <use xlink:href="#DejaVuSans-30" x="127.246094"/>
      </g>
     </g>
    </g>
   </g>
   <g id="matplotlib.axis_2">
    <g id="ytick_1">
     <g id="line2d_8">
      <defs>
       <path id="mbb9b28ec3b" d="M 0 0 
L -3.5 0 
" style="stroke: #000000; stroke-width: 0.8"/>
      </defs>
      <g>
       <use xlink:href="#mbb9b28ec3b" x="57.6" y="295.500493" style="stroke: #000000; stroke-width: 0.8"/>
      </g>
     </g>
     <g id="text_8">
      <!-- 0 -->
      <g transform="translate(44.2375 299.299712) scale(0.1 -0.1)">
       <use xlink:href="#DejaVuSans-30"/>
      </g>
     </g>
    </g>
    <g id="ytick_2">
     <g id="line2d_9">
      <g>
       <use xlink:href="#mbb9b28ec3b" x="57.6" y="263.415239" style="stroke: #000000; stroke-width: 0.8"/>
      </g>
     </g>
     <g id="text_9">
      <!-- 200 -->
      <g transform="translate(31.5125 267.214458) scale(0.1 -0.1)">
       <use xlink:href="#DejaVuSans-32"/>
       <use xlink:href="#DejaVuSans-30" x="63.623047"/>
       <use xlink:href="#DejaVuSans-30" x="127.246094"/>
      </g>
     </g>
    </g>
    <g id="ytick_3">
     <g id="line2d_10">
      <g>
       <use xlink:href="#mbb9b28ec3b" x="57.6" y="231.329984" style="stroke: #000000; stroke-width: 0.8"/>
      </g>
     </g>
     <g id="text_10">
      <!-- 400 -->
      <g transform="translate(31.5125 235.129203) scale(0.1 -0.1)">
       <defs>
        <path id="DejaVuSans-34" d="M 2419 4116 
L 825 1625 
L 2419 1625 
L 2419 4116 
z
M 2253 4666 
L 3047 4666 
L 3047 1625 
L 3713 1625 
L 3713 1100 
L 3047 1100 
L 3047 0 
L 2419 0 
L 2419 1100 
L 313 1100 
L 313 1709 
L 2253 4666 
z
" transform="scale(0.015625)"/>
       </defs>
       <use xlink:href="#DejaVuSans-34"/>
       <use xlink:href="#DejaVuSans-30" x="63.623047"/>
       <use xlink:href="#DejaVuSans-30" x="127.246094"/>
      </g>
     </g>
    </g>
    <g id="ytick_4">
     <g id="line2d_11">
      <g>
       <use xlink:href="#mbb9b28ec3b" x="57.6" y="199.24473" style="stroke: #000000; stroke-width: 0.8"/>
      </g>
     </g>
     <g id="text_11">
      <!-- 600 -->
      <g transform="translate(31.5125 203.043949) scale(0.1 -0.1)">
       <defs>
        <path id="DejaVuSans-36" d="M 2113 2584 
Q 1688 2584 1439 2293 
Q 1191 2003 1191 1497 
Q 1191 994 1439 701 
Q 1688 409 2113 409 
Q 2538 409 2786 701 
Q 3034 994 3034 1497 
Q 3034 2003 2786 2293 
Q 2538 2584 2113 2584 
z
M 3366 4563 
L 3366 3988 
Q 3128 4100 2886 4159 
Q 2644 4219 2406 4219 
Q 1781 4219 1451 3797 
Q 1122 3375 1075 2522 
Q 1259 2794 1537 2939 
Q 1816 3084 2150 3084 
Q 2853 3084 3261 2657 
Q 3669 2231 3669 1497 
Q 3669 778 3244 343 
Q 2819 -91 2113 -91 
Q 1303 -91 875 529 
Q 447 1150 447 2328 
Q 447 3434 972 4092 
Q 1497 4750 2381 4750 
Q 2619 4750 2861 4703 
Q 3103 4656 3366 4563 
z
" transform="scale(0.015625)"/>
       </defs>
       <use xlink:href="#DejaVuSans-36"/>
       <use xlink:href="#DejaVuSans-30" x="63.623047"/>
       <use xlink:href="#DejaVuSans-30" x="127.246094"/>
      </g>
     </g>
    </g>
    <g id="ytick_5">
     <g id="line2d_12">
      <g>
       <use xlink:href="#mbb9b28ec3b" x="57.6" y="167.159475" style="stroke: #000000; stroke-width: 0.8"/>
      </g>
     </g>
     <g id="text_12">
      <!-- 800 -->
      <g transform="translate(31.5125 170.958694) scale(0.1 -0.1)">
       <defs>
        <path id="DejaVuSans-38" d="M 2034 2216 
Q 1584 2216 1326 1975 
Q 1069 1734 1069 1313 
Q 1069 891 1326 650 
Q 1584 409 2034 409 
Q 2484 409 2743 651 
Q 3003 894 3003 1313 
Q 3003 1734 2745 1975 
Q 2488 2216 2034 2216 
z
M 1403 2484 
Q 997 2584 770 2862 
Q 544 3141 544 3541 
Q 544 4100 942 4425 
Q 1341 4750 2034 4750 
Q 2731 4750 3128 4425 
Q 3525 4100 3525 3541 
Q 3525 3141 3298 2862 
Q 3072 2584 2669 2484 
Q 3125 2378 3379 2068 
Q 3634 1759 3634 1313 
Q 3634 634 3220 271 
Q 2806 -91 2034 -91 
Q 1263 -91 848 271 
Q 434 634 434 1313 
Q 434 1759 690 2068 
Q 947 2378 1403 2484 
z
M 1172 3481 
Q 1172 3119 1398 2916 
Q 1625 2713 2034 2713 
Q 2441 2713 2670 2916 
Q 2900 3119 2900 3481 
Q 2900 3844 2670 4047 
Q 2441 4250 2034 4250 
Q 1625 4250 1398 4047 
Q 1172 3844 1172 3481 
z
" transform="scale(0.015625)"/>
       </defs>
       <use xlink:href="#DejaVuSans-38"/>
       <use xlink:href="#DejaVuSans-30" x="63.623047"/>
       <use xlink:href="#DejaVuSans-30" x="127.246094"/>
      </g>
     </g>
    </g>
    <g id="ytick_6">
     <g id="line2d_13">
      <g>
       <use xlink:href="#mbb9b28ec3b" x="57.6" y="135.074221" style="stroke: #000000; stroke-width: 0.8"/>
      </g>
     </g>
     <g id="text_13">
      <!-- 1000 -->
      <g transform="translate(25.15 138.873439) scale(0.1 -0.1)">
       <use xlink:href="#DejaVuSans-31"/>
       <use xlink:href="#DejaVuSans-30" x="63.623047"/>
       <use xlink:href="#DejaVuSans-30" x="127.246094"/>
       <use xlink:href="#DejaVuSans-30" x="190.869141"/>
      </g>
     </g>
    </g>
    <g id="ytick_7">
     <g id="line2d_14">
      <g>
       <use xlink:href="#mbb9b28ec3b" x="57.6" y="102.988966" style="stroke: #000000; stroke-width: 0.8"/>
      </g>
     </g>
     <g id="text_14">
      <!-- 1200 -->
      <g transform="translate(25.15 106.788185) scale(0.1 -0.1)">
       <use xlink:href="#DejaVuSans-31"/>
       <use xlink:href="#DejaVuSans-32" x="63.623047"/>
       <use xlink:href="#DejaVuSans-30" x="127.246094"/>
       <use xlink:href="#DejaVuSans-30" x="190.869141"/>
      </g>
     </g>
    </g>
    <g id="ytick_8">
     <g id="line2d_15">
      <g>
       <use xlink:href="#mbb9b28ec3b" x="57.6" y="70.903712" style="stroke: #000000; stroke-width: 0.8"/>
      </g>
     </g>
     <g id="text_15">
      <!-- 1400 -->
      <g transform="translate(25.15 74.70293) scale(0.1 -0.1)">
       <use xlink:href="#DejaVuSans-31"/>
       <use xlink:href="#DejaVuSans-34" x="63.623047"/>
       <use xlink:href="#DejaVuSans-30" x="127.246094"/>
       <use xlink:href="#DejaVuSans-30" x="190.869141"/>
      </g>
     </g>
    </g>
   </g>
   <g id="line2d_16">
    <path d="M 73.832727 53.568 
L 74.918528 167.693503 
L 76.00433 228.760945 
L 77.090131 235.308638 
L 78.175932 240.167108 
L 79.261733 242.020397 
L 80.347534 230.867165 
L 81.433335 218.521132 
L 82.519137 228.183136 
L 83.604938 264.677472 
L 84.690739 245.864419 
L 85.77654 238.667144 
L 87.948142 257.384544 
L 89.033943 248.89009 
L 90.119745 226.57834 
L 91.205546 259.106127 
L 92.291347 247.28824 
L 93.377148 254.277554 
L 94.462949 234.216302 
L 95.54875 256.437272 
L 96.634552 249.79261 
L 97.720353 256.294901 
L 98.806154 245.283739 
L 99.891955 252.119946 
L 100.977756 254.403643 
L 102.063557 241.177422 
L 103.149358 221.507083 
L 104.23516 244.639759 
L 105.320961 257.988741 
L 106.406762 265.087296 
L 107.492563 239.538697 
L 108.578364 220.698598 
L 109.664165 255.811075 
L 110.749967 262.858984 
L 111.835768 254.344357 
L 112.921569 256.840907 
L 114.00737 254.561762 
L 115.093171 237.874876 
L 116.178972 249.268829 
L 117.264773 262.127985 
L 118.350575 271.903635 
L 119.436376 275.23263 
L 120.522177 244.102639 
L 121.607978 248.798321 
L 122.693779 271.723004 
L 123.77958 278.256303 
L 124.865382 206.798779 
L 125.951183 244.777368 
L 127.036984 233.14763 
L 128.122785 275.522487 
L 129.208586 274.187884 
L 130.294387 268.064316 
L 131.380189 246.166188 
L 132.46599 210.343086 
L 133.551791 231.452376 
L 134.637592 242.182392 
L 135.723393 276.433668 
L 136.809194 276.691653 
L 137.894995 279.757595 
L 138.980797 282.179952 
L 140.066598 287.440867 
L 141.152399 281.724505 
L 142.2382 274.587713 
L 143.324001 148.72172 
L 144.409802 265.220924 
L 145.495604 262.374041 
L 146.581405 273.034642 
L 147.667206 271.984366 
L 148.753007 282.815225 
L 149.838808 283.175909 
L 150.924609 281.802579 
L 152.01041 222.150111 
L 153.096212 251.358675 
L 154.182013 228.987713 
L 155.267814 267.548004 
L 156.353615 288.039464 
L 157.439416 288.441305 
L 158.525217 288.453773 
L 159.611019 253.948695 
L 160.69682 269.733698 
L 161.782621 234.695863 
L 162.868422 245.191385 
L 163.954223 248.772008 
L 165.040024 267.81005 
L 166.125825 271.823995 
L 167.211627 284.632319 
L 168.297428 291.307107 
L 169.383229 290.198489 
L 170.46903 293.58838 
L 171.554831 290.028588 
L 172.640632 285.33958 
L 173.726434 287.587748 
L 174.812235 276.901237 
L 175.898036 291.616545 
L 176.983837 292.82378 
L 178.069638 291.392696 
L 179.155439 293.312083 
L 180.24124 290.458563 
L 181.327042 293.191158 
L 182.412843 293.455747 
L 183.498644 291.93969 
L 184.584445 292.100838 
L 185.670246 291.768107 
L 186.756047 285.296872 
L 187.841849 272.371548 
L 188.92765 257.465261 
L 190.013451 246.462726 
L 191.099252 254.023489 
L 192.185053 254.117786 
L 193.270854 272.095364 
L 194.356656 280.086501 
L 195.442457 283.801773 
L 196.528258 289.543324 
L 197.614059 292.466883 
L 198.69986 293.906718 
L 199.785661 291.572199 
L 200.871462 293.276653 
L 201.957264 293.077964 
L 203.043065 290.804462 
L 204.128866 285.671747 
L 205.214667 290.094285 
L 206.300468 289.261047 
L 207.386269 293.070127 
L 208.472071 291.56542 
L 209.557872 292.63476 
L 210.643673 291.191706 
L 211.729474 290.21318 
L 212.815275 279.461427 
L 213.901076 291.121167 
L 216.072679 267.056866 
L 217.15848 293.466109 
L 218.244281 293.021998 
L 219.330082 294.575948 
L 220.415883 293.642807 
L 221.501684 293.301132 
L 222.587486 294.246709 
L 223.673287 293.208472 
L 224.759088 288.92095 
L 225.844889 291.589263 
L 226.93069 290.368831 
L 228.016491 291.666103 
L 230.188094 293.248846 
L 231.273895 289.928647 
L 232.359696 294.491927 
L 233.445497 294.547705 
L 234.531298 292.824147 
L 235.617099 293.06847 
L 236.702901 293.802489 
L 237.788702 291.269348 
L 238.874503 293.57569 
L 239.960304 283.839814 
L 241.046105 286.100358 
L 242.131906 261.498601 
L 243.217708 258.310129 
L 244.303509 290.867319 
L 245.38931 294.266684 
L 246.475111 293.546073 
L 247.560912 294.487231 
L 248.646713 294.617729 
L 249.732514 294.067138 
L 250.818316 294.116883 
L 251.904117 294.517195 
L 252.989918 294.003977 
L 254.075719 290.761553 
L 255.16152 284.697555 
L 256.247321 289.040227 
L 257.333123 288.329815 
L 258.418924 292.154181 
L 259.504725 293.743972 
L 260.590526 290.822195 
L 261.676327 293.77344 
L 262.762128 291.281476 
L 263.847929 294.355033 
L 266.019532 294.599657 
L 267.105333 292.334581 
L 268.191134 293.197177 
L 269.276935 293.495186 
L 270.362736 293.261884 
L 271.448538 294.350413 
L 272.534339 293.665372 
L 273.62014 294.508083 
L 274.705941 294.15654 
L 275.791742 288.956612 
L 276.877543 292.31191 
L 277.963344 285.770986 
L 279.049146 277.268253 
L 280.134947 276.914733 
L 281.220748 292.881366 
L 282.306549 294.664862 
L 283.39235 294.116424 
L 284.478151 295.064861 
L 285.563953 294.524713 
L 286.649754 294.752498 
L 287.735555 294.435164 
L 288.821356 294.66054 
L 289.907157 293.906278 
L 290.992958 294.593438 
L 292.07876 293.716846 
L 293.164561 294.371844 
L 294.250362 294.636688 
L 295.336163 294.432081 
L 296.421964 293.020404 
L 297.507765 290.61586 
L 298.593566 292.492502 
L 299.679368 291.015428 
L 300.765169 293.86865 
L 301.85097 294.400537 
L 302.936771 294.223352 
L 304.022572 294.675288 
L 305.108373 294.37591 
L 306.194175 294.742681 
L 307.279976 294.311442 
L 308.365777 294.716242 
L 309.451578 294.262622 
L 310.537379 294.329677 
L 311.62318 293.745749 
L 312.708981 283.469708 
L 313.794783 278.17667 
L 314.880584 279.554792 
L 315.966385 293.655408 
L 317.052186 291.895723 
L 319.223788 293.103456 
L 320.30959 291.315633 
L 321.395391 294.224566 
L 322.481192 291.603099 
L 323.566993 293.181085 
L 324.652794 292.852821 
L 325.738595 292.389697 
L 326.824396 294.505624 
L 327.910198 294.720144 
L 328.995999 294.644137 
L 330.0818 293.60774 
L 332.253402 294.238838 
L 333.339203 288.736893 
L 334.425005 290.841147 
L 335.510806 286.448359 
L 336.596607 293.943212 
L 337.682408 286.264306 
L 338.768209 289.69867 
L 339.85401 291.849397 
L 340.939811 291.929525 
L 342.025613 293.249858 
L 343.111414 292.870522 
L 344.197215 293.548891 
L 345.283016 293.700989 
L 346.368817 294.629188 
L 347.454618 294.003595 
L 348.54042 294.63696 
L 349.626221 294.89544 
L 350.712022 294.783566 
L 351.797823 294.083864 
L 352.883624 294.540843 
L 353.969425 294.516769 
L 355.055227 294.694238 
L 356.141028 293.777703 
L 357.226829 292.624586 
L 358.31263 284.451935 
L 359.398431 277.663309 
L 360.484232 289.622073 
L 361.570033 286.260065 
L 362.655835 287.436283 
L 363.741636 290.417363 
L 364.827437 292.01156 
L 365.913238 293.822853 
L 366.999039 294.056037 
L 368.08484 294.858516 
L 369.170642 294.594719 
L 370.256443 295.113997 
L 372.428045 294.902698 
L 373.513846 294.488291 
L 375.685448 294.052259 
L 376.77125 292.975211 
L 377.857051 294.058483 
L 378.942852 294.190446 
L 380.028653 293.328823 
L 381.114454 293.858961 
L 382.200255 292.896269 
L 384.371858 282.104979 
L 385.457659 290.176271 
L 386.54346 291.112962 
L 387.629261 290.770047 
L 388.715062 293.130114 
L 389.800863 294.682276 
L 390.886665 294.806133 
L 391.972466 295.107124 
L 394.144068 295.211277 
L 395.229869 294.840024 
L 396.31567 294.960964 
L 397.401472 294.354261 
L 398.487273 292.498758 
L 398.487273 292.498758 
" clip-path="url(#pbf90c2844c)" style="fill: none; stroke: #1f77b4; stroke-width: 1.5; stroke-linecap: square"/>
   </g>
   <g id="line2d_17">
    <path d="M 73.832727 247.245173 
L 74.918528 270.91798 
L 76.00433 288.937906 
L 77.090131 272.215316 
L 78.175932 258.313225 
L 79.261733 225.13231 
L 80.347534 262.282106 
L 81.433335 275.242909 
L 82.519137 294.286945 
L 83.604938 241.35364 
L 84.690739 271.46547 
L 85.77654 201.892586 
L 86.862341 256.882784 
L 87.948142 209.296262 
L 89.033943 269.351158 
L 90.119745 276.426757 
L 91.205546 273.104556 
L 92.291347 262.528454 
L 93.377148 281.721084 
L 94.462949 233.176336 
L 95.54875 267.285312 
L 96.634552 248.131944 
L 97.720353 279.088521 
L 98.806154 239.11132 
L 99.891955 257.424937 
L 100.977756 241.933256 
L 102.063557 248.291939 
L 103.149358 162.291012 
L 104.23516 282.655228 
L 105.320961 260.593567 
L 106.406762 267.8611 
L 107.492563 218.224439 
L 108.578364 210.563144 
L 109.664165 269.065683 
L 110.749967 277.59269 
L 111.835768 274.708011 
L 112.921569 291.822529 
L 114.00737 287.256444 
L 115.093171 239.860375 
L 116.178972 243.541587 
L 117.264773 259.251191 
L 118.350575 263.961855 
L 119.436376 226.011678 
L 120.522177 225.48924 
L 121.607978 282.170993 
L 122.693779 275.875764 
L 123.77958 260.650985 
L 124.865382 290.161168 
L 125.951183 291.891306 
L 127.036984 228.438963 
L 128.122785 259.251889 
L 129.208586 264.006696 
L 130.294387 254.909342 
L 131.380189 196.247136 
L 132.46599 294.503558 
L 133.551791 203.016382 
L 134.637592 283.654796 
L 135.723393 215.382214 
L 136.809194 261.820592 
L 137.894995 275.63381 
L 138.980797 277.786363 
L 140.066598 278.594801 
L 141.152399 284.748538 
L 142.2382 288.201907 
L 143.324001 260.02901 
L 144.409802 273.772716 
L 145.495604 230.90397 
L 146.581405 261.318202 
L 147.667206 281.178534 
L 148.753007 282.884797 
L 149.838808 292.174824 
L 150.924609 288.980373 
L 152.01041 245.521962 
L 153.096212 291.81457 
L 154.182013 260.741499 
L 155.267814 280.898561 
L 156.353615 289.3249 
L 157.439416 293.961672 
L 158.525217 293.834263 
L 159.611019 286.772353 
L 160.69682 291.734331 
L 161.782621 245.159035 
L 162.868422 291.624888 
L 163.954223 244.48842 
L 165.040024 294.269555 
L 166.125825 286.494582 
L 167.211627 293.471342 
L 168.297428 293.964627 
L 169.383229 293.857389 
L 170.46903 294.064728 
L 171.554831 292.710747 
L 172.640632 287.749859 
L 173.726434 291.283524 
L 174.812235 291.681632 
L 175.898036 294.754873 
L 176.983837 294.326418 
L 178.069638 294.810829 
L 179.155439 294.196847 
L 180.24124 294.250844 
L 181.327042 293.114044 
L 182.412843 294.784088 
L 183.498644 294.680266 
L 184.584445 293.75193 
L 185.670246 292.041357 
L 186.756047 289.654481 
L 187.841849 260.15224 
L 188.92765 294.347395 
L 190.013451 253.784453 
L 191.099252 290.825219 
L 192.185053 276.438709 
L 193.270854 290.691978 
L 194.356656 284.389652 
L 195.442457 292.737354 
L 196.528258 294.158465 
L 197.614059 295.053727 
L 198.69986 294.893054 
L 199.785661 295.236992 
L 200.871462 294.2365 
L 201.957264 295.183753 
L 203.043065 291.337323 
L 204.128866 291.636854 
L 205.214667 294.806338 
L 206.300468 292.372309 
L 207.386269 295.432011 
L 208.472071 295.042259 
L 209.557872 291.419801 
L 210.643673 293.056941 
L 211.729474 287.039485 
L 212.815275 291.830875 
L 213.901076 289.521041 
L 214.986877 282.502926 
L 216.072679 281.605075 
L 217.15848 294.298486 
L 218.244281 295.48331 
L 219.330082 295.484861 
L 220.415883 294.628553 
L 221.501684 294.411033 
L 222.587486 295.228355 
L 223.673287 292.532924 
L 224.759088 290.308225 
L 225.844889 290.912749 
L 226.93069 295.300525 
L 228.016491 294.750105 
L 229.102292 294.757782 
L 230.188094 295.358613 
L 231.273895 292.033194 
L 232.359696 295.066153 
L 233.445497 294.863996 
L 234.531298 294.939292 
L 235.617099 295.312859 
L 236.702901 294.755894 
L 237.788702 294.492055 
L 238.874503 289.541635 
L 239.960304 290.048824 
L 241.046105 279.255283 
L 242.131906 266.180399 
L 243.217708 286.106751 
L 244.303509 295.061276 
L 245.38931 295.345715 
L 246.475111 294.989598 
L 247.560912 295.363614 
L 248.646713 294.620435 
L 249.732514 292.029467 
L 250.818316 291.915964 
L 251.904117 293.77098 
L 252.989918 292.692848 
L 254.075719 288.683724 
L 255.16152 282.432422 
L 256.247321 294.463759 
L 257.333123 295.448763 
L 258.418924 295.424344 
L 259.504725 294.002118 
L 260.590526 291.883674 
L 261.676327 292.47659 
L 262.762128 292.340349 
L 263.847929 294.607209 
L 264.933731 293.541531 
L 266.019532 292.99595 
L 267.105333 292.629741 
L 269.276935 295.292732 
L 270.362736 293.481184 
L 271.448538 295.328519 
L 272.534339 289.733672 
L 273.62014 293.947212 
L 274.705941 295.488 
L 275.791742 294.198393 
L 276.877543 292.346009 
L 277.963344 292.473587 
L 279.049146 276.677056 
L 280.134947 289.818414 
L 281.220748 293.798384 
L 282.306549 295.147345 
L 283.39235 292.468824 
L 284.478151 295.102637 
L 285.563953 291.817933 
L 286.649754 295.387371 
L 287.735555 293.102627 
L 288.821356 295.248759 
L 290.992958 295.478321 
L 292.07876 295.144066 
L 293.164561 295.308759 
L 294.250362 294.083327 
L 295.336163 294.375635 
L 296.421964 292.081283 
L 297.507765 293.096034 
L 298.593566 287.085395 
L 299.679368 295.192005 
L 300.765169 291.673036 
L 302.936771 295.302999 
L 304.022572 292.776177 
L 305.108373 295.110353 
L 306.194175 295.454747 
L 307.279976 295.421955 
L 308.365777 289.776875 
L 309.451578 293.47086 
L 310.537379 293.319801 
L 311.62318 294.35372 
L 312.708981 286.830431 
L 313.794783 290.107711 
L 314.880584 288.652619 
L 315.966385 292.166274 
L 317.052186 294.058583 
L 318.137987 292.940209 
L 319.223788 292.447177 
L 320.30959 286.179976 
L 321.395391 292.581566 
L 322.481192 293.658046 
L 323.566993 290.803354 
L 324.652794 294.847683 
L 325.738595 294.880249 
L 326.824396 290.436288 
L 327.910198 292.070624 
L 328.995999 294.523976 
L 330.0818 288.541657 
L 331.167601 288.862198 
L 332.253402 293.436665 
L 333.339203 292.097881 
L 334.425005 284.107871 
L 335.510806 278.977787 
L 336.596607 292.171656 
L 337.682408 292.304875 
L 338.768209 293.006346 
L 339.85401 295.469327 
L 340.939811 295.053296 
L 342.025613 295.106271 
L 343.111414 293.886765 
L 344.197215 294.631069 
L 345.283016 295.202155 
L 346.368817 291.522977 
L 347.454618 294.235105 
L 348.54042 294.445333 
L 349.626221 295.059693 
L 350.712022 294.330307 
L 351.797823 294.908432 
L 352.883624 294.285679 
L 355.055227 288.031568 
L 356.141028 292.727772 
L 357.226829 284.609907 
L 358.31263 289.579453 
L 359.398431 273.423316 
L 360.484232 293.700168 
L 361.570033 294.263718 
L 362.655835 288.076285 
L 363.741636 293.235799 
L 364.827437 290.757383 
L 365.913238 292.169602 
L 366.999039 294.042458 
L 368.08484 293.647146 
L 369.170642 293.583733 
L 370.256443 295.364972 
L 371.342244 295.437195 
L 372.428045 294.203816 
L 373.513846 293.972606 
L 374.599647 295.348589 
L 375.685448 293.507827 
L 376.77125 292.311622 
L 377.857051 294.039889 
L 378.942852 288.444746 
L 380.028653 289.882076 
L 381.114454 289.844012 
L 382.200255 291.469272 
L 383.286057 286.874275 
L 384.371858 278.654672 
L 385.457659 278.612468 
L 386.54346 294.875323 
L 387.629261 295.468209 
L 388.715062 292.170098 
L 389.800863 293.399714 
L 390.886665 286.565778 
L 391.972466 295.008063 
L 393.058267 291.747578 
L 394.144068 289.874344 
L 395.229869 293.932674 
L 396.31567 294.876432 
L 397.401472 287.268132 
L 398.487273 287.669939 
L 398.487273 287.669939 
" clip-path="url(#pbf90c2844c)" style="fill: none; stroke: #ff7f0e; stroke-opacity: 0.5; stroke-width: 1.5; stroke-linecap: square"/>
   </g>
   <g id="patch_3">
    <path d="M 57.6 307.584 
L 57.6 41.472 
" style="fill: none; stroke: #000000; stroke-width: 0.8; stroke-linejoin: miter; stroke-linecap: square"/>
   </g>
   <g id="patch_4">
    <path d="M 414.72 307.584 
L 414.72 41.472 
" style="fill: none; stroke: #000000; stroke-width: 0.8; stroke-linejoin: miter; stroke-linecap: square"/>
   </g>
   <g id="patch_5">
    <path d="M 57.6 307.584 
L 414.72 307.584 
" style="fill: none; stroke: #000000; stroke-width: 0.8; stroke-linejoin: miter; stroke-linecap: square"/>
   </g>
   <g id="patch_6">
    <path d="M 57.6 41.472 
L 414.72 41.472 
" style="fill: none; stroke: #000000; stroke-width: 0.8; stroke-linejoin: miter; stroke-linecap: square"/>
   </g>
   <g id="legend_1">
    <g id="patch_7">
     <path d="M 351.768438 78.82825 
L 407.72 78.82825 
Q 409.72 78.82825 409.72 76.82825 
L 409.72 48.472 
Q 409.72 46.472 407.72 46.472 
L 351.768438 46.472 
Q 349.768438 46.472 349.768438 48.472 
L 349.768438 76.82825 
Q 349.768438 78.82825 351.768438 78.82825 
z
" style="fill: #ffffff; opacity: 0.8; stroke: #cccccc; stroke-linejoin: miter"/>
    </g>
    <g id="line2d_18">
     <path d="M 353.768438 54.570437 
L 363.768438 54.570437 
L 373.768438 54.570437 
" style="fill: none; stroke: #1f77b4; stroke-width: 1.5; stroke-linecap: square"/>
    </g>
    <g id="text_16">
     <!-- train -->
     <g transform="translate(381.768438 58.070437) scale(0.1 -0.1)">
      <defs>
       <path id="DejaVuSans-74" d="M 1172 4494 
L 1172 3500 
L 2356 3500 
L 2356 3053 
L 1172 3053 
L 1172 1153 
Q 1172 725 1289 603 
Q 1406 481 1766 481 
L 2356 481 
L 2356 0 
L 1766 0 
Q 1100 0 847 248 
Q 594 497 594 1153 
L 594 3053 
L 172 3053 
L 172 3500 
L 594 3500 
L 594 4494 
L 1172 4494 
z
" transform="scale(0.015625)"/>
       <path id="DejaVuSans-72" d="M 2631 2963 
Q 2534 3019 2420 3045 
Q 2306 3072 2169 3072 
Q 1681 3072 1420 2755 
Q 1159 2438 1159 1844 
L 1159 0 
L 581 0 
L 581 3500 
L 1159 3500 
L 1159 2956 
Q 1341 3275 1631 3429 
Q 1922 3584 2338 3584 
Q 2397 3584 2469 3576 
Q 2541 3569 2628 3553 
L 2631 2963 
z
" transform="scale(0.015625)"/>
       <path id="DejaVuSans-61" d="M 2194 1759 
Q 1497 1759 1228 1600 
Q 959 1441 959 1056 
Q 959 750 1161 570 
Q 1363 391 1709 391 
Q 2188 391 2477 730 
Q 2766 1069 2766 1631 
L 2766 1759 
L 2194 1759 
z
M 3341 1997 
L 3341 0 
L 2766 0 
L 2766 531 
Q 2569 213 2275 61 
Q 1981 -91 1556 -91 
Q 1019 -91 701 211 
Q 384 513 384 1019 
Q 384 1609 779 1909 
Q 1175 2209 1959 2209 
L 2766 2209 
L 2766 2266 
Q 2766 2663 2505 2880 
Q 2244 3097 1772 3097 
Q 1472 3097 1187 3025 
Q 903 2953 641 2809 
L 641 3341 
Q 956 3463 1253 3523 
Q 1550 3584 1831 3584 
Q 2591 3584 2966 3190 
Q 3341 2797 3341 1997 
z
" transform="scale(0.015625)"/>
       <path id="DejaVuSans-69" d="M 603 3500 
L 1178 3500 
L 1178 0 
L 603 0 
L 603 3500 
z
M 603 4863 
L 1178 4863 
L 1178 4134 
L 603 4134 
L 603 4863 
z
" transform="scale(0.015625)"/>
       <path id="DejaVuSans-6e" d="M 3513 2113 
L 3513 0 
L 2938 0 
L 2938 2094 
Q 2938 2591 2744 2837 
Q 2550 3084 2163 3084 
Q 1697 3084 1428 2787 
Q 1159 2491 1159 1978 
L 1159 0 
L 581 0 
L 581 3500 
L 1159 3500 
L 1159 2956 
Q 1366 3272 1645 3428 
Q 1925 3584 2291 3584 
Q 2894 3584 3203 3211 
Q 3513 2838 3513 2113 
z
" transform="scale(0.015625)"/>
      </defs>
      <use xlink:href="#DejaVuSans-74"/>
      <use xlink:href="#DejaVuSans-72" x="39.208984"/>
      <use xlink:href="#DejaVuSans-61" x="80.322266"/>
      <use xlink:href="#DejaVuSans-69" x="141.601562"/>
      <use xlink:href="#DejaVuSans-6e" x="169.384766"/>
     </g>
    </g>
    <g id="line2d_19">
     <path d="M 353.768438 69.248562 
L 363.768438 69.248562 
L 373.768438 69.248562 
" style="fill: none; stroke: #ff7f0e; stroke-opacity: 0.5; stroke-width: 1.5; stroke-linecap: square"/>
    </g>
    <g id="text_17">
     <!-- valid -->
     <g transform="translate(381.768438 72.748562) scale(0.1 -0.1)">
      <defs>
       <path id="DejaVuSans-76" d="M 191 3500 
L 800 3500 
L 1894 563 
L 2988 3500 
L 3597 3500 
L 2284 0 
L 1503 0 
L 191 3500 
z
" transform="scale(0.015625)"/>
       <path id="DejaVuSans-6c" d="M 603 4863 
L 1178 4863 
L 1178 0 
L 603 0 
L 603 4863 
z
" transform="scale(0.015625)"/>
       <path id="DejaVuSans-64" d="M 2906 2969 
L 2906 4863 
L 3481 4863 
L 3481 0 
L 2906 0 
L 2906 525 
Q 2725 213 2448 61 
Q 2172 -91 1784 -91 
Q 1150 -91 751 415 
Q 353 922 353 1747 
Q 353 2572 751 3078 
Q 1150 3584 1784 3584 
Q 2172 3584 2448 3432 
Q 2725 3281 2906 2969 
z
M 947 1747 
Q 947 1113 1208 752 
Q 1469 391 1925 391 
Q 2381 391 2643 752 
Q 2906 1113 2906 1747 
Q 2906 2381 2643 2742 
Q 2381 3103 1925 3103 
Q 1469 3103 1208 2742 
Q 947 2381 947 1747 
z
" transform="scale(0.015625)"/>
      </defs>
      <use xlink:href="#DejaVuSans-76"/>
      <use xlink:href="#DejaVuSans-61" x="59.179688"/>
      <use xlink:href="#DejaVuSans-6c" x="120.458984"/>
      <use xlink:href="#DejaVuSans-69" x="148.242188"/>
      <use xlink:href="#DejaVuSans-64" x="176.025391"/>
     </g>
    </g>
   </g>
  </g>
 </g>
 <defs>
  <clipPath id="pbf90c2844c">
   <rect x="57.6" y="41.472" width="357.12" height="266.112"/>
  </clipPath>
 </defs>
</svg>
