<?xml version="1.0" encoding="utf-8" standalone="no"?>
<!DOCTYPE svg PUBLIC "-//W3C//DTD SVG 1.1//EN"
  "http://www.w3.org/Graphics/SVG/1.1/DTD/svg11.dtd">
<svg xmlns:xlink="http://www.w3.org/1999/xlink" width="460.8pt" height="345.6pt" viewBox="0 0 460.8 345.6" xmlns="http://www.w3.org/2000/svg" version="1.1">
 <metadata>
  <rdf:RDF xmlns:dc="http://purl.org/dc/elements/1.1/" xmlns:cc="http://creativecommons.org/ns#" xmlns:rdf="http://www.w3.org/1999/02/22-rdf-syntax-ns#">
   <cc:Work>
    <dc:type rdf:resource="http://purl.org/dc/dcmitype/StillImage"/>
    <dc:date>2023-12-22T13:07:51.302529</dc:date>
    <dc:format>image/svg+xml</dc:format>
    <dc:creator>
     <cc:Agent>
      <dc:title>Matplotlib v3.7.3, https://matplotlib.org/</dc:title>
     </cc:Agent>
    </dc:creator>
   </cc:Work>
  </rdf:RDF>
 </metadata>
 <defs>
  <style type="text/css">*{stroke-linejoin: round; stroke-linecap: butt}</style>
 </defs>
 <g id="figure_1">
  <g id="patch_1">
   <path d="M 0 345.6 
L 460.8 345.6 
L 460.8 0 
L 0 0 
z
" style="fill: #ffffff"/>
  </g>
  <g id="axes_1">
   <g id="patch_2">
    <path d="M 57.6 307.584 
L 414.72 307.584 
L 414.72 41.472 
L 57.6 41.472 
z
" style="fill: #ffffff"/>
   </g>
   <g id="matplotlib.axis_1">
    <g id="xtick_1">
     <g id="line2d_1">
      <defs>
       <path id="mbbcfb0a482" d="M 0 0 
L 0 3.5 
" style="stroke: #000000; stroke-width: 0.8"/>
      </defs>
      <g>
       <use xlink:href="#mbbcfb0a482" x="73.832727" y="307.584" style="stroke: #000000; stroke-width: 0.8"/>
      </g>
     </g>
     <g id="text_1">
      <!-- 0 -->
      <g transform="translate(70.651477 322.182437) scale(0.1 -0.1)">
       <defs>
        <path id="DejaVuSans-30" d="M 2034 4250 
Q 1547 4250 1301 3770 
Q 1056 3291 1056 2328 
Q 1056 1369 1301 889 
Q 1547 409 2034 409 
Q 2525 409 2770 889 
Q 3016 1369 3016 2328 
Q 3016 3291 2770 3770 
Q 2525 4250 2034 4250 
z
M 2034 4750 
Q 2819 4750 3233 4129 
Q 3647 3509 3647 2328 
Q 3647 1150 3233 529 
Q 2819 -91 2034 -91 
Q 1250 -91 836 529 
Q 422 1150 422 2328 
Q 422 3509 836 4129 
Q 1250 4750 2034 4750 
z
" transform="scale(0.015625)"/>
       </defs>
       <use xlink:href="#DejaVuSans-30"/>
      </g>
     </g>
    </g>
    <g id="xtick_2">
     <g id="line2d_2">
      <g>
       <use xlink:href="#mbbcfb0a482" x="128.122785" y="307.584" style="stroke: #000000; stroke-width: 0.8"/>
      </g>
     </g>
     <g id="text_2">
      <!-- 50 -->
      <g transform="translate(121.760285 322.182437) scale(0.1 -0.1)">
       <defs>
        <path id="DejaVuSans-35" d="M 691 4666 
L 3169 4666 
L 3169 4134 
L 1269 4134 
L 1269 2991 
Q 1406 3038 1543 3061 
Q 1681 3084 1819 3084 
Q 2600 3084 3056 2656 
Q 3513 2228 3513 1497 
Q 3513 744 3044 326 
Q 2575 -91 1722 -91 
Q 1428 -91 1123 -41 
Q 819 9 494 109 
L 494 744 
Q 775 591 1075 516 
Q 1375 441 1709 441 
Q 2250 441 2565 725 
Q 2881 1009 2881 1497 
Q 2881 1984 2565 2268 
Q 2250 2553 1709 2553 
Q 1456 2553 1204 2497 
Q 953 2441 691 2322 
L 691 4666 
z
" transform="scale(0.015625)"/>
       </defs>
       <use xlink:href="#DejaVuSans-35"/>
       <use xlink:href="#DejaVuSans-30" x="63.623047"/>
      </g>
     </g>
    </g>
    <g id="xtick_3">
     <g id="line2d_3">
      <g>
       <use xlink:href="#mbbcfb0a482" x="182.412843" y="307.584" style="stroke: #000000; stroke-width: 0.8"/>
      </g>
     </g>
     <g id="text_3">
      <!-- 100 -->
      <g transform="translate(172.869093 322.182437) scale(0.1 -0.1)">
       <defs>
        <path id="DejaVuSans-31" d="M 794 531 
L 1825 531 
L 1825 4091 
L 703 3866 
L 703 4441 
L 1819 4666 
L 2450 4666 
L 2450 531 
L 3481 531 
L 3481 0 
L 794 0 
L 794 531 
z
" transform="scale(0.015625)"/>
       </defs>
       <use xlink:href="#DejaVuSans-31"/>
       <use xlink:href="#DejaVuSans-30" x="63.623047"/>
       <use xlink:href="#DejaVuSans-30" x="127.246094"/>
      </g>
     </g>
    </g>
    <g id="xtick_4">
     <g id="line2d_4">
      <g>
       <use xlink:href="#mbbcfb0a482" x="236.702901" y="307.584" style="stroke: #000000; stroke-width: 0.8"/>
      </g>
     </g>
     <g id="text_4">
      <!-- 150 -->
      <g transform="translate(227.159151 322.182437) scale(0.1 -0.1)">
       <use xlink:href="#DejaVuSans-31"/>
       <use xlink:href="#DejaVuSans-35" x="63.623047"/>
       <use xlink:href="#DejaVuSans-30" x="127.246094"/>
      </g>
     </g>
    </g>
    <g id="xtick_5">
     <g id="line2d_5">
      <g>
       <use xlink:href="#mbbcfb0a482" x="290.992958" y="307.584" style="stroke: #000000; stroke-width: 0.8"/>
      </g>
     </g>
     <g id="text_5">
      <!-- 200 -->
      <g transform="translate(281.449208 322.182437) scale(0.1 -0.1)">
       <defs>
        <path id="DejaVuSans-32" d="M 1228 531 
L 3431 531 
L 3431 0 
L 469 0 
L 469 531 
Q 828 903 1448 1529 
Q 2069 2156 2228 2338 
Q 2531 2678 2651 2914 
Q 2772 3150 2772 3378 
Q 2772 3750 2511 3984 
Q 2250 4219 1831 4219 
Q 1534 4219 1204 4116 
Q 875 4013 500 3803 
L 500 4441 
Q 881 4594 1212 4672 
Q 1544 4750 1819 4750 
Q 2544 4750 2975 4387 
Q 3406 4025 3406 3419 
Q 3406 3131 3298 2873 
Q 3191 2616 2906 2266 
Q 2828 2175 2409 1742 
Q 1991 1309 1228 531 
z
" transform="scale(0.015625)"/>
       </defs>
       <use xlink:href="#DejaVuSans-32"/>
       <use xlink:href="#DejaVuSans-30" x="63.623047"/>
       <use xlink:href="#DejaVuSans-30" x="127.246094"/>
      </g>
     </g>
    </g>
    <g id="xtick_6">
     <g id="line2d_6">
      <g>
       <use xlink:href="#mbbcfb0a482" x="345.283016" y="307.584" style="stroke: #000000; stroke-width: 0.8"/>
      </g>
     </g>
     <g id="text_6">
      <!-- 250 -->
      <g transform="translate(335.739266 322.182437) scale(0.1 -0.1)">
       <use xlink:href="#DejaVuSans-32"/>
       <use xlink:href="#DejaVuSans-35" x="63.623047"/>
       <use xlink:href="#DejaVuSans-30" x="127.246094"/>
      </g>
     </g>
    </g>
    <g id="xtick_7">
     <g id="line2d_7">
      <g>
       <use xlink:href="#mbbcfb0a482" x="399.573074" y="307.584" style="stroke: #000000; stroke-width: 0.8"/>
      </g>
     </g>
     <g id="text_7">
      <!-- 300 -->
      <g transform="translate(390.029324 322.182437) scale(0.1 -0.1)">
       <defs>
        <path id="DejaVuSans-33" d="M 2597 2516 
Q 3050 2419 3304 2112 
Q 3559 1806 3559 1356 
Q 3559 666 3084 287 
Q 2609 -91 1734 -91 
Q 1441 -91 1130 -33 
Q 819 25 488 141 
L 488 750 
Q 750 597 1062 519 
Q 1375 441 1716 441 
Q 2309 441 2620 675 
Q 2931 909 2931 1356 
Q 2931 1769 2642 2001 
Q 2353 2234 1838 2234 
L 1294 2234 
L 1294 2753 
L 1863 2753 
Q 2328 2753 2575 2939 
Q 2822 3125 2822 3475 
Q 2822 3834 2567 4026 
Q 2313 4219 1838 4219 
Q 1578 4219 1281 4162 
Q 984 4106 628 3988 
L 628 4550 
Q 988 4650 1302 4700 
Q 1616 4750 1894 4750 
Q 2613 4750 3031 4423 
Q 3450 4097 3450 3541 
Q 3450 3153 3228 2886 
Q 3006 2619 2597 2516 
z
" transform="scale(0.015625)"/>
       </defs>
       <use xlink:href="#DejaVuSans-33"/>
       <use xlink:href="#DejaVuSans-30" x="63.623047"/>
       <use xlink:href="#DejaVuSans-30" x="127.246094"/>
      </g>
     </g>
    </g>
   </g>
   <g id="matplotlib.axis_2">
    <g id="ytick_1">
     <g id="line2d_8">
      <defs>
       <path id="mec2383df67" d="M 0 0 
L -3.5 0 
" style="stroke: #000000; stroke-width: 0.8"/>
      </defs>
      <g>
       <use xlink:href="#mec2383df67" x="57.6" y="295.561748" style="stroke: #000000; stroke-width: 0.8"/>
      </g>
     </g>
     <g id="text_8">
      <!-- 0 -->
      <g transform="translate(44.2375 299.360967) scale(0.1 -0.1)">
       <use xlink:href="#DejaVuSans-30"/>
      </g>
     </g>
    </g>
    <g id="ytick_2">
     <g id="line2d_9">
      <g>
       <use xlink:href="#mec2383df67" x="57.6" y="256.079606" style="stroke: #000000; stroke-width: 0.8"/>
      </g>
     </g>
     <g id="text_9">
      <!-- 500 -->
      <g transform="translate(31.5125 259.878825) scale(0.1 -0.1)">
       <use xlink:href="#DejaVuSans-35"/>
       <use xlink:href="#DejaVuSans-30" x="63.623047"/>
       <use xlink:href="#DejaVuSans-30" x="127.246094"/>
      </g>
     </g>
    </g>
    <g id="ytick_3">
     <g id="line2d_10">
      <g>
       <use xlink:href="#mec2383df67" x="57.6" y="216.597464" style="stroke: #000000; stroke-width: 0.8"/>
      </g>
     </g>
     <g id="text_10">
      <!-- 1000 -->
      <g transform="translate(25.15 220.396683) scale(0.1 -0.1)">
       <use xlink:href="#DejaVuSans-31"/>
       <use xlink:href="#DejaVuSans-30" x="63.623047"/>
       <use xlink:href="#DejaVuSans-30" x="127.246094"/>
       <use xlink:href="#DejaVuSans-30" x="190.869141"/>
      </g>
     </g>
    </g>
    <g id="ytick_4">
     <g id="line2d_11">
      <g>
       <use xlink:href="#mec2383df67" x="57.6" y="177.115322" style="stroke: #000000; stroke-width: 0.8"/>
      </g>
     </g>
     <g id="text_11">
      <!-- 1500 -->
      <g transform="translate(25.15 180.91454) scale(0.1 -0.1)">
       <use xlink:href="#DejaVuSans-31"/>
       <use xlink:href="#DejaVuSans-35" x="63.623047"/>
       <use xlink:href="#DejaVuSans-30" x="127.246094"/>
       <use xlink:href="#DejaVuSans-30" x="190.869141"/>
      </g>
     </g>
    </g>
    <g id="ytick_5">
     <g id="line2d_12">
      <g>
       <use xlink:href="#mec2383df67" x="57.6" y="137.63318" style="stroke: #000000; stroke-width: 0.8"/>
      </g>
     </g>
     <g id="text_12">
      <!-- 2000 -->
      <g transform="translate(25.15 141.432398) scale(0.1 -0.1)">
       <use xlink:href="#DejaVuSans-32"/>
       <use xlink:href="#DejaVuSans-30" x="63.623047"/>
       <use xlink:href="#DejaVuSans-30" x="127.246094"/>
       <use xlink:href="#DejaVuSans-30" x="190.869141"/>
      </g>
     </g>
    </g>
    <g id="ytick_6">
     <g id="line2d_13">
      <g>
       <use xlink:href="#mec2383df67" x="57.6" y="98.151037" style="stroke: #000000; stroke-width: 0.8"/>
      </g>
     </g>
     <g id="text_13">
      <!-- 2500 -->
      <g transform="translate(25.15 101.950256) scale(0.1 -0.1)">
       <use xlink:href="#DejaVuSans-32"/>
       <use xlink:href="#DejaVuSans-35" x="63.623047"/>
       <use xlink:href="#DejaVuSans-30" x="127.246094"/>
       <use xlink:href="#DejaVuSans-30" x="190.869141"/>
      </g>
     </g>
    </g>
    <g id="ytick_7">
     <g id="line2d_14">
      <g>
       <use xlink:href="#mec2383df67" x="57.6" y="58.668895" style="stroke: #000000; stroke-width: 0.8"/>
      </g>
     </g>
     <g id="text_14">
      <!-- 3000 -->
      <g transform="translate(25.15 62.468114) scale(0.1 -0.1)">
       <use xlink:href="#DejaVuSans-33"/>
       <use xlink:href="#DejaVuSans-30" x="63.623047"/>
       <use xlink:href="#DejaVuSans-30" x="127.246094"/>
       <use xlink:href="#DejaVuSans-30" x="190.869141"/>
      </g>
     </g>
    </g>
   </g>
   <g id="line2d_15">
    <path d="M 73.832727 53.568 
L 74.918528 53.582477 
L 77.090131 55.997624 
L 78.175932 57.407482 
L 79.261733 59.501639 
L 80.347534 60.854053 
L 81.433335 63.267954 
L 82.519137 66.735156 
L 83.604938 70.889561 
L 84.690739 70.035523 
L 85.77654 75.681309 
L 86.862341 73.563375 
L 87.948142 81.659783 
L 89.033943 80.928104 
L 90.119745 89.08509 
L 91.205546 85.799266 
L 92.291347 85.263917 
L 94.462949 102.773796 
L 95.54875 109.427951 
L 96.634552 111.681933 
L 97.720353 116.921069 
L 98.806154 106.539853 
L 99.891955 123.173413 
L 100.977756 111.136951 
L 102.063557 113.905121 
L 103.149358 133.778555 
L 104.23516 149.794408 
L 105.320961 134.437885 
L 106.406762 145.58157 
L 107.492563 146.360567 
L 108.578364 139.640987 
L 109.664165 141.634583 
L 110.749967 155.608022 
L 111.835768 152.719476 
L 112.921569 151.823679 
L 114.00737 165.681301 
L 115.093171 174.892235 
L 116.178972 170.618756 
L 117.264773 175.105777 
L 118.350575 172.396318 
L 119.436376 180.959685 
L 120.522177 170.756302 
L 121.607978 178.993026 
L 122.693779 167.376483 
L 123.77958 176.986134 
L 124.865382 183.684247 
L 125.951183 191.467193 
L 127.036984 187.380079 
L 128.122785 202.497529 
L 129.208586 215.139895 
L 130.294387 198.945169 
L 131.380189 203.051039 
L 132.46599 193.775783 
L 133.551791 194.139581 
L 134.637592 192.312352 
L 135.723393 214.944453 
L 137.894995 207.602439 
L 138.980797 221.398154 
L 140.066598 205.208113 
L 141.152399 208.628284 
L 142.2382 222.37185 
L 143.324001 213.599609 
L 144.409802 216.256377 
L 145.495604 225.215681 
L 146.581405 228.842808 
L 147.667206 225.816618 
L 148.753007 223.957073 
L 149.838808 209.620898 
L 150.924609 233.622604 
L 153.096212 235.64872 
L 154.182013 229.049642 
L 155.267814 229.292312 
L 156.353615 226.074766 
L 157.439416 226.621494 
L 158.525217 233.006505 
L 159.611019 237.622208 
L 160.69682 241.539061 
L 161.782621 229.552066 
L 162.868422 241.701168 
L 163.954223 226.691168 
L 165.040024 227.630767 
L 166.125825 228.289742 
L 167.211627 236.280079 
L 168.297428 223.832841 
L 169.383229 224.887708 
L 170.46903 239.968082 
L 171.554831 232.227868 
L 172.640632 250.481327 
L 173.726434 249.00632 
L 174.812235 256.063683 
L 175.898036 238.726426 
L 176.983837 228.137047 
L 178.069638 237.50528 
L 179.155439 236.834604 
L 180.24124 230.46944 
L 181.327042 244.465196 
L 182.412843 234.256273 
L 183.498644 237.7069 
L 184.584445 238.590551 
L 185.670246 225.141442 
L 186.756047 234.239515 
L 187.841849 202.056807 
L 188.92765 237.724371 
L 190.013451 235.375336 
L 191.099252 229.917368 
L 192.185053 230.836041 
L 193.270854 240.647497 
L 194.356656 237.49061 
L 195.442457 251.89498 
L 196.528258 230.531988 
L 197.614059 246.093089 
L 198.69986 235.858387 
L 199.785661 239.815504 
L 200.871462 240.011368 
L 201.957264 244.407068 
L 203.043065 238.890841 
L 204.128866 242.340737 
L 205.214667 254.417459 
L 206.300468 257.958312 
L 207.386269 240.62742 
L 208.472071 249.374858 
L 209.557872 242.804065 
L 210.643673 240.60901 
L 211.729474 237.886209 
L 212.815275 253.706905 
L 213.901076 251.196456 
L 214.986877 261.782223 
L 216.072679 253.786907 
L 217.15848 252.787405 
L 218.244281 244.765228 
L 219.330082 244.781751 
L 220.415883 257.832483 
L 221.501684 262.307454 
L 222.587486 260.872404 
L 223.673287 246.335117 
L 224.759088 249.314525 
L 225.844889 247.585704 
L 226.93069 249.042713 
L 228.016491 233.895655 
L 229.102292 244.817746 
L 230.188094 238.089589 
L 231.273895 248.568635 
L 232.359696 246.91505 
L 233.445497 263.731936 
L 234.531298 253.92627 
L 235.617099 254.990037 
L 236.702901 270.74011 
L 237.788702 246.552295 
L 238.874503 259.477181 
L 239.960304 262.314154 
L 241.046105 252.795649 
L 243.217708 261.610135 
L 244.303509 258.402703 
L 245.38931 269.815645 
L 246.475111 265.965714 
L 247.560912 272.811996 
L 248.646713 254.336258 
L 249.732514 267.253093 
L 250.818316 246.708891 
L 251.904117 272.868788 
L 252.989918 273.562123 
L 254.075719 251.6349 
L 255.16152 270.413917 
L 256.247321 271.747001 
L 257.333123 268.217448 
L 258.418924 251.364941 
L 259.504725 268.136833 
L 260.590526 272.526543 
L 261.676327 268.813365 
L 262.762128 273.97809 
L 263.847929 267.99252 
L 264.933731 253.601969 
L 266.019532 267.800626 
L 267.105333 262.289333 
L 268.191134 260.91776 
L 269.276935 250.122088 
L 270.362736 262.628805 
L 271.448538 285.812453 
L 273.62014 236.143077 
L 274.705941 252.722604 
L 275.791742 274.713679 
L 276.877543 263.162592 
L 277.963344 268.539142 
L 279.049146 269.789238 
L 280.134947 272.142699 
L 281.220748 260.822888 
L 282.306549 268.843189 
L 283.39235 265.295026 
L 284.478151 285.651657 
L 285.563953 279.885967 
L 286.649754 265.675612 
L 287.735555 277.597809 
L 288.821356 266.353424 
L 289.907157 276.924178 
L 292.07876 274.940103 
L 293.164561 270.685369 
L 294.250362 276.81491 
L 295.336163 285.009997 
L 297.507765 278.008731 
L 298.593566 279.823632 
L 299.679368 253.294982 
L 300.765169 272.891248 
L 301.85097 269.388052 
L 302.936771 283.380087 
L 304.022572 286.143496 
L 305.108373 277.132428 
L 306.194175 282.221935 
L 307.279976 276.122108 
L 308.365777 279.430673 
L 309.451578 282.064787 
L 310.537379 282.956792 
L 311.62318 282.966151 
L 312.708981 287.269342 
L 313.794783 279.905339 
L 314.880584 281.817855 
L 315.966385 286.881941 
L 317.052186 283.63406 
L 318.137987 283.272808 
L 319.223788 284.737622 
L 320.30959 282.278654 
L 321.395391 284.307512 
L 322.481192 284.535799 
L 323.566993 286.853522 
L 324.652794 284.543956 
L 325.738595 288.756745 
L 326.824396 281.955432 
L 327.910198 278.642552 
L 328.995999 284.660087 
L 330.0818 286.484996 
L 331.167601 279.579318 
L 332.253402 286.593936 
L 333.339203 273.977006 
L 334.425005 279.939992 
L 335.510806 284.111896 
L 336.596607 269.650918 
L 337.682408 271.72047 
L 338.768209 281.002143 
L 339.85401 276.371971 
L 340.939811 284.233636 
L 342.025613 288.230968 
L 343.111414 287.939799 
L 344.197215 280.592224 
L 345.283016 269.579134 
L 346.368817 277.752689 
L 347.454618 262.384014 
L 348.54042 270.536471 
L 349.626221 281.213804 
L 350.712022 278.405301 
L 351.797823 281.310078 
L 352.883624 281.455395 
L 353.969425 279.594307 
L 355.055227 281.045443 
L 356.141028 272.164853 
L 357.226829 285.421587 
L 358.31263 272.092496 
L 359.398431 283.295319 
L 360.484232 286.386607 
L 361.570033 283.130155 
L 362.655835 286.071972 
L 363.741636 275.092527 
L 364.827437 271.954013 
L 365.913238 281.978726 
L 366.999039 274.249924 
L 368.08484 286.079393 
L 369.170642 282.970223 
L 370.256443 280.242812 
L 371.342244 279.930422 
L 372.428045 286.256977 
L 373.513846 284.986414 
L 374.599647 285.028495 
L 375.685448 285.417679 
L 376.77125 280.305774 
L 377.857051 282.347074 
L 378.942852 286.546376 
L 380.028653 286.184487 
L 381.114454 286.123241 
L 382.200255 282.871962 
L 383.286057 284.047997 
L 384.371858 283.621313 
L 385.457659 286.837789 
L 386.54346 288.047775 
L 387.629261 282.06202 
L 388.715062 287.916687 
L 389.800863 287.037359 
L 390.886665 274.669668 
L 391.972466 286.42157 
L 393.058267 218.607915 
L 394.144068 262.279004 
L 395.229869 268.566129 
L 396.31567 282.493205 
L 397.401472 281.214338 
L 398.487273 281.193921 
L 398.487273 281.193921 
" clip-path="url(#p50bd6f4e64)" style="fill: none; stroke: #1f77b4; stroke-width: 1.5; stroke-linecap: square"/>
   </g>
   <g id="line2d_16">
    <path d="M 73.832727 224.659532 
L 74.918528 224.655561 
L 76.00433 225.62898 
L 77.090131 225.266353 
L 78.175932 226.319016 
L 79.261733 227.832485 
L 80.347534 228.415444 
L 81.433335 229.277251 
L 82.519137 231.5409 
L 83.604938 231.384167 
L 84.690739 231.668384 
L 85.77654 235.73435 
L 86.862341 234.438828 
L 89.033943 241.888089 
L 90.119745 239.615615 
L 91.205546 242.662121 
L 92.291347 241.5377 
L 93.377148 248.704109 
L 94.462949 248.115684 
L 95.54875 251.672947 
L 96.634552 247.804073 
L 97.720353 254.629389 
L 98.806154 255.20909 
L 99.891955 253.884217 
L 100.977756 259.289214 
L 102.063557 256.795082 
L 103.149358 262.901594 
L 104.23516 260.858063 
L 105.320961 260.617582 
L 106.406762 262.084094 
L 107.492563 259.38472 
L 108.578364 267.859762 
L 109.664165 267.367477 
L 110.749967 267.522605 
L 111.835768 269.803347 
L 112.921569 277.401977 
L 114.00737 278.175561 
L 115.093171 273.073632 
L 116.178972 276.051783 
L 117.264773 279.388561 
L 118.350575 277.580793 
L 119.436376 282.179284 
L 120.522177 282.745666 
L 121.607978 284.878595 
L 122.693779 283.725469 
L 123.77958 281.328572 
L 124.865382 284.221731 
L 125.951183 292.564887 
L 127.036984 290.300415 
L 128.122785 288.932538 
L 129.208586 293.366273 
L 130.294387 286.661542 
L 132.46599 290.674532 
L 133.551791 281.775344 
L 134.637592 287.539366 
L 135.723393 294.671939 
L 136.809194 291.180238 
L 137.894995 288.945106 
L 138.980797 291.242379 
L 140.066598 289.822488 
L 141.152399 276.705767 
L 142.2382 293.501796 
L 143.324001 292.504655 
L 144.409802 288.833764 
L 145.495604 293.956613 
L 146.581405 291.887691 
L 147.667206 284.767793 
L 148.753007 290.836761 
L 149.838808 291.558788 
L 150.924609 293.505187 
L 152.01041 291.558825 
L 153.096212 292.180179 
L 154.182013 285.248046 
L 155.267814 287.235422 
L 156.353615 286.920888 
L 157.439416 294.87738 
L 158.525217 281.270667 
L 159.611019 277.560276 
L 160.69682 266.521505 
L 161.782621 294.157803 
L 162.868422 287.039294 
L 163.954223 293.118081 
L 165.040024 290.024265 
L 166.125825 291.569537 
L 167.211627 260.85861 
L 168.297428 293.7873 
L 169.383229 281.830075 
L 170.46903 288.366104 
L 171.554831 205.403342 
L 173.726434 265.653305 
L 174.812235 269.512858 
L 175.898036 171.884121 
L 176.983837 270.515397 
L 178.069638 256.765386 
L 179.155439 292.449813 
L 180.24124 287.176776 
L 181.327042 285.075668 
L 182.412843 295.420846 
L 183.498644 281.054795 
L 184.584445 286.8583 
L 185.670246 293.366796 
L 186.756047 285.571094 
L 187.841849 256.488125 
L 188.92765 279.733419 
L 190.013451 290.234169 
L 191.099252 256.792579 
L 192.185053 288.851373 
L 193.270854 275.973806 
L 194.356656 226.61012 
L 195.442457 279.377988 
L 196.528258 256.203578 
L 197.614059 271.296126 
L 198.69986 275.678456 
L 199.785661 267.264328 
L 200.871462 294.027672 
L 201.957264 245.869954 
L 203.043065 287.441837 
L 204.128866 254.665401 
L 205.214667 284.765702 
L 206.300468 253.217339 
L 207.386269 281.155412 
L 208.472071 283.524482 
L 209.557872 278.683813 
L 210.643673 267.740689 
L 211.729474 286.375324 
L 213.901076 247.636732 
L 214.986877 274.447109 
L 216.072679 264.084989 
L 217.15848 293.515989 
L 218.244281 278.301964 
L 219.330082 276.552698 
L 220.415883 295.276242 
L 221.501684 282.98053 
L 222.587486 289.219343 
L 223.673287 267.364445 
L 224.759088 294.112024 
L 225.844889 288.57304 
L 226.93069 292.846323 
L 228.016491 209.603592 
L 229.102292 271.919367 
L 230.188094 291.062116 
L 231.273895 294.395258 
L 232.359696 266.310002 
L 234.531298 292.539808 
L 235.617099 268.725046 
L 236.702901 294.592697 
L 237.788702 291.392881 
L 238.874503 290.118569 
L 239.960304 262.666665 
L 241.046105 273.312951 
L 242.131906 278.236788 
L 243.217708 276.073148 
L 244.303509 279.486122 
L 245.38931 266.069284 
L 246.475111 284.814934 
L 247.560912 273.612566 
L 248.646713 268.854 
L 249.732514 247.721181 
L 250.818316 259.278932 
L 251.904117 289.863365 
L 252.989918 280.819818 
L 254.075719 262.486588 
L 255.16152 281.837299 
L 256.247321 292.952063 
L 257.333123 259.633165 
L 258.418924 282.915873 
L 259.504725 274.441282 
L 260.590526 283.384244 
L 261.676327 294.862793 
L 262.762128 258.316567 
L 263.847929 288.364747 
L 264.933731 255.199085 
L 267.105333 284.880362 
L 268.191134 282.987477 
L 269.276935 277.090204 
L 270.362736 288.989941 
L 271.448538 278.72523 
L 272.534339 255.91218 
L 273.62014 243.119559 
L 274.705941 292.189803 
L 275.791742 265.899596 
L 276.877543 266.00595 
L 277.963344 266.981678 
L 279.049146 288.621807 
L 280.134947 295.488 
L 281.220748 285.678648 
L 282.306549 263.962301 
L 283.39235 278.165859 
L 284.478151 288.358229 
L 285.563953 291.622003 
L 286.649754 248.817827 
L 287.735555 294.147528 
L 288.821356 251.014334 
L 289.907157 281.289719 
L 290.992958 243.814425 
L 292.07876 293.42042 
L 293.164561 266.984603 
L 294.250362 269.825515 
L 295.336163 270.873001 
L 296.421964 290.127851 
L 297.507765 248.185693 
L 298.593566 293.042501 
L 299.679368 239.856494 
L 300.765169 293.749663 
L 301.85097 250.475932 
L 302.936771 259.142576 
L 304.022572 245.803183 
L 305.108373 274.691973 
L 306.194175 238.75124 
L 307.279976 274.811024 
L 308.365777 251.053137 
L 309.451578 293.550815 
L 310.537379 276.97449 
L 311.62318 293.219651 
L 312.708981 255.123321 
L 313.794783 287.017874 
L 314.880584 287.239188 
L 317.052186 270.341932 
L 318.137987 259.004776 
L 319.223788 258.643682 
L 320.30959 267.221583 
L 321.395391 266.857997 
L 322.481192 249.230756 
L 323.566993 268.931506 
L 324.652794 246.154922 
L 325.738595 269.88013 
L 326.824396 236.985677 
L 327.910198 273.829169 
L 328.995999 277.405916 
L 330.0818 270.758208 
L 331.167601 286.636328 
L 332.253402 277.843854 
L 333.339203 278.606234 
L 334.425005 245.535021 
L 335.510806 262.01823 
L 336.596607 258.708188 
L 337.682408 284.85107 
L 338.768209 242.660897 
L 339.85401 282.754358 
L 340.939811 253.643646 
L 342.025613 257.578086 
L 343.111414 263.322186 
L 344.197215 279.240985 
L 345.283016 279.964037 
L 346.368817 275.372007 
L 347.454618 251.900229 
L 348.54042 292.050413 
L 349.626221 275.981115 
L 350.712022 278.71326 
L 351.797823 289.408234 
L 352.883624 277.334932 
L 353.969425 266.833065 
L 355.055227 239.204499 
L 356.141028 270.340706 
L 357.226829 262.276656 
L 358.31263 250.167449 
L 359.398431 289.782548 
L 360.484232 284.710703 
L 361.570033 294.919828 
L 362.655835 262.303289 
L 363.741636 283.106118 
L 364.827437 284.893734 
L 365.913238 252.598661 
L 366.999039 278.026921 
L 368.08484 269.73527 
L 369.170642 243.388059 
L 370.256443 271.37054 
L 371.342244 267.125564 
L 372.428045 287.359739 
L 373.513846 274.90123 
L 374.599647 273.432586 
L 375.685448 260.623221 
L 376.77125 268.566997 
L 377.857051 279.219526 
L 378.942852 282.953697 
L 380.028653 270.672858 
L 381.114454 269.006212 
L 382.200255 270.877199 
L 383.286057 261.92578 
L 384.371858 266.823474 
L 385.457659 276.170928 
L 386.54346 268.278212 
L 387.629261 247.801687 
L 388.715062 265.857844 
L 389.800863 281.731177 
L 390.886665 254.133462 
L 391.972466 258.477257 
L 393.058267 260.445159 
L 394.144068 293.909884 
L 395.229869 274.055061 
L 396.31567 277.21465 
L 397.401472 252.342105 
L 398.487273 287.222878 
L 398.487273 287.222878 
" clip-path="url(#p50bd6f4e64)" style="fill: none; stroke: #ff7f0e; stroke-opacity: 0.5; stroke-width: 1.5; stroke-linecap: square"/>
   </g>
   <g id="patch_3">
    <path d="M 57.6 307.584 
L 57.6 41.472 
" style="fill: none; stroke: #000000; stroke-width: 0.8; stroke-linejoin: miter; stroke-linecap: square"/>
   </g>
   <g id="patch_4">
    <path d="M 414.72 307.584 
L 414.72 41.472 
" style="fill: none; stroke: #000000; stroke-width: 0.8; stroke-linejoin: miter; stroke-linecap: square"/>
   </g>
   <g id="patch_5">
    <path d="M 57.6 307.584 
L 414.72 307.584 
" style="fill: none; stroke: #000000; stroke-width: 0.8; stroke-linejoin: miter; stroke-linecap: square"/>
   </g>
   <g id="patch_6">
    <path d="M 57.6 41.472 
L 414.72 41.472 
" style="fill: none; stroke: #000000; stroke-width: 0.8; stroke-linejoin: miter; stroke-linecap: square"/>
   </g>
   <g id="legend_1">
    <g id="patch_7">
     <path d="M 351.768438 78.82825 
L 407.72 78.82825 
Q 409.72 78.82825 409.72 76.82825 
L 409.72 48.472 
Q 409.72 46.472 407.72 46.472 
L 351.768438 46.472 
Q 349.768438 46.472 349.768438 48.472 
L 349.768438 76.82825 
Q 349.768438 78.82825 351.768438 78.82825 
z
" style="fill: #ffffff; opacity: 0.8; stroke: #cccccc; stroke-linejoin: miter"/>
    </g>
    <g id="line2d_17">
     <path d="M 353.768438 54.570437 
L 363.768438 54.570437 
L 373.768438 54.570437 
" style="fill: none; stroke: #1f77b4; stroke-width: 1.5; stroke-linecap: square"/>
    </g>
    <g id="text_15">
     <!-- train -->
     <g transform="translate(381.768438 58.070437) scale(0.1 -0.1)">
      <defs>
       <path id="DejaVuSans-74" d="M 1172 4494 
L 1172 3500 
L 2356 3500 
L 2356 3053 
L 1172 3053 
L 1172 1153 
Q 1172 725 1289 603 
Q 1406 481 1766 481 
L 2356 481 
L 2356 0 
L 1766 0 
Q 1100 0 847 248 
Q 594 497 594 1153 
L 594 3053 
L 172 3053 
L 172 3500 
L 594 3500 
L 594 4494 
L 1172 4494 
z
" transform="scale(0.015625)"/>
       <path id="DejaVuSans-72" d="M 2631 2963 
Q 2534 3019 2420 3045 
Q 2306 3072 2169 3072 
Q 1681 3072 1420 2755 
Q 1159 2438 1159 1844 
L 1159 0 
L 581 0 
L 581 3500 
L 1159 3500 
L 1159 2956 
Q 1341 3275 1631 3429 
Q 1922 3584 2338 3584 
Q 2397 3584 2469 3576 
Q 2541 3569 2628 3553 
L 2631 2963 
z
" transform="scale(0.015625)"/>
       <path id="DejaVuSans-61" d="M 2194 1759 
Q 1497 1759 1228 1600 
Q 959 1441 959 1056 
Q 959 750 1161 570 
Q 1363 391 1709 391 
Q 2188 391 2477 730 
Q 2766 1069 2766 1631 
L 2766 1759 
L 2194 1759 
z
M 3341 1997 
L 3341 0 
L 2766 0 
L 2766 531 
Q 2569 213 2275 61 
Q 1981 -91 1556 -91 
Q 1019 -91 701 211 
Q 384 513 384 1019 
Q 384 1609 779 1909 
Q 1175 2209 1959 2209 
L 2766 2209 
L 2766 2266 
Q 2766 2663 2505 2880 
Q 2244 3097 1772 3097 
Q 1472 3097 1187 3025 
Q 903 2953 641 2809 
L 641 3341 
Q 956 3463 1253 3523 
Q 1550 3584 1831 3584 
Q 2591 3584 2966 3190 
Q 3341 2797 3341 1997 
z
" transform="scale(0.015625)"/>
       <path id="DejaVuSans-69" d="M 603 3500 
L 1178 3500 
L 1178 0 
L 603 0 
L 603 3500 
z
M 603 4863 
L 1178 4863 
L 1178 4134 
L 603 4134 
L 603 4863 
z
" transform="scale(0.015625)"/>
       <path id="DejaVuSans-6e" d="M 3513 2113 
L 3513 0 
L 2938 0 
L 2938 2094 
Q 2938 2591 2744 2837 
Q 2550 3084 2163 3084 
Q 1697 3084 1428 2787 
Q 1159 2491 1159 1978 
L 1159 0 
L 581 0 
L 581 3500 
L 1159 3500 
L 1159 2956 
Q 1366 3272 1645 3428 
Q 1925 3584 2291 3584 
Q 2894 3584 3203 3211 
Q 3513 2838 3513 2113 
z
" transform="scale(0.015625)"/>
      </defs>
      <use xlink:href="#DejaVuSans-74"/>
      <use xlink:href="#DejaVuSans-72" x="39.208984"/>
      <use xlink:href="#DejaVuSans-61" x="80.322266"/>
      <use xlink:href="#DejaVuSans-69" x="141.601562"/>
      <use xlink:href="#DejaVuSans-6e" x="169.384766"/>
     </g>
    </g>
    <g id="line2d_18">
     <path d="M 353.768438 69.248562 
L 363.768438 69.248562 
L 373.768438 69.248562 
" style="fill: none; stroke: #ff7f0e; stroke-opacity: 0.5; stroke-width: 1.5; stroke-linecap: square"/>
    </g>
    <g id="text_16">
     <!-- valid -->
     <g transform="translate(381.768438 72.748562) scale(0.1 -0.1)">
      <defs>
       <path id="DejaVuSans-76" d="M 191 3500 
L 800 3500 
L 1894 563 
L 2988 3500 
L 3597 3500 
L 2284 0 
L 1503 0 
L 191 3500 
z
" transform="scale(0.015625)"/>
       <path id="DejaVuSans-6c" d="M 603 4863 
L 1178 4863 
L 1178 0 
L 603 0 
L 603 4863 
z
" transform="scale(0.015625)"/>
       <path id="DejaVuSans-64" d="M 2906 2969 
L 2906 4863 
L 3481 4863 
L 3481 0 
L 2906 0 
L 2906 525 
Q 2725 213 2448 61 
Q 2172 -91 1784 -91 
Q 1150 -91 751 415 
Q 353 922 353 1747 
Q 353 2572 751 3078 
Q 1150 3584 1784 3584 
Q 2172 3584 2448 3432 
Q 2725 3281 2906 2969 
z
M 947 1747 
Q 947 1113 1208 752 
Q 1469 391 1925 391 
Q 2381 391 2643 752 
Q 2906 1113 2906 1747 
Q 2906 2381 2643 2742 
Q 2381 3103 1925 3103 
Q 1469 3103 1208 2742 
Q 947 2381 947 1747 
z
" transform="scale(0.015625)"/>
      </defs>
      <use xlink:href="#DejaVuSans-76"/>
      <use xlink:href="#DejaVuSans-61" x="59.179688"/>
      <use xlink:href="#DejaVuSans-6c" x="120.458984"/>
      <use xlink:href="#DejaVuSans-69" x="148.242188"/>
      <use xlink:href="#DejaVuSans-64" x="176.025391"/>
     </g>
    </g>
   </g>
  </g>
 </g>
 <defs>
  <clipPath id="p50bd6f4e64">
   <rect x="57.6" y="41.472" width="357.12" height="266.112"/>
  </clipPath>
 </defs>
</svg>
