<?xml version="1.0" encoding="utf-8" standalone="no"?>
<!DOCTYPE svg PUBLIC "-//W3C//DTD SVG 1.1//EN"
  "http://www.w3.org/Graphics/SVG/1.1/DTD/svg11.dtd">
<svg xmlns:xlink="http://www.w3.org/1999/xlink" width="460.8pt" height="345.6pt" viewBox="0 0 460.8 345.6" xmlns="http://www.w3.org/2000/svg" version="1.1">
 <metadata>
  <rdf:RDF xmlns:dc="http://purl.org/dc/elements/1.1/" xmlns:cc="http://creativecommons.org/ns#" xmlns:rdf="http://www.w3.org/1999/02/22-rdf-syntax-ns#">
   <cc:Work>
    <dc:type rdf:resource="http://purl.org/dc/dcmitype/StillImage"/>
    <dc:date>2023-12-22T01:19:19.932463</dc:date>
    <dc:format>image/svg+xml</dc:format>
    <dc:creator>
     <cc:Agent>
      <dc:title>Matplotlib v3.7.3, https://matplotlib.org/</dc:title>
     </cc:Agent>
    </dc:creator>
   </cc:Work>
  </rdf:RDF>
 </metadata>
 <defs>
  <style type="text/css">*{stroke-linejoin: round; stroke-linecap: butt}</style>
 </defs>
 <g id="figure_1">
  <g id="patch_1">
   <path d="M 0 345.6 
L 460.8 345.6 
L 460.8 0 
L 0 0 
z
" style="fill: #ffffff"/>
  </g>
  <g id="axes_1">
   <g id="patch_2">
    <path d="M 57.6 307.584 
L 414.72 307.584 
L 414.72 41.472 
L 57.6 41.472 
z
" style="fill: #ffffff"/>
   </g>
   <g id="matplotlib.axis_1">
    <g id="xtick_1">
     <g id="line2d_1">
      <defs>
       <path id="m50c0f8756a" d="M 0 0 
L 0 3.5 
" style="stroke: #000000; stroke-width: 0.8"/>
      </defs>
      <g>
       <use xlink:href="#m50c0f8756a" x="73.832727" y="307.584" style="stroke: #000000; stroke-width: 0.8"/>
      </g>
     </g>
     <g id="text_1">
      <!-- 0 -->
      <g transform="translate(70.651477 322.182437) scale(0.1 -0.1)">
       <defs>
        <path id="DejaVuSans-30" d="M 2034 4250 
Q 1547 4250 1301 3770 
Q 1056 3291 1056 2328 
Q 1056 1369 1301 889 
Q 1547 409 2034 409 
Q 2525 409 2770 889 
Q 3016 1369 3016 2328 
Q 3016 3291 2770 3770 
Q 2525 4250 2034 4250 
z
M 2034 4750 
Q 2819 4750 3233 4129 
Q 3647 3509 3647 2328 
Q 3647 1150 3233 529 
Q 2819 -91 2034 -91 
Q 1250 -91 836 529 
Q 422 1150 422 2328 
Q 422 3509 836 4129 
Q 1250 4750 2034 4750 
z
" transform="scale(0.015625)"/>
       </defs>
       <use xlink:href="#DejaVuSans-30"/>
      </g>
     </g>
    </g>
    <g id="xtick_2">
     <g id="line2d_2">
      <g>
       <use xlink:href="#m50c0f8756a" x="128.122785" y="307.584" style="stroke: #000000; stroke-width: 0.8"/>
      </g>
     </g>
     <g id="text_2">
      <!-- 50 -->
      <g transform="translate(121.760285 322.182437) scale(0.1 -0.1)">
       <defs>
        <path id="DejaVuSans-35" d="M 691 4666 
L 3169 4666 
L 3169 4134 
L 1269 4134 
L 1269 2991 
Q 1406 3038 1543 3061 
Q 1681 3084 1819 3084 
Q 2600 3084 3056 2656 
Q 3513 2228 3513 1497 
Q 3513 744 3044 326 
Q 2575 -91 1722 -91 
Q 1428 -91 1123 -41 
Q 819 9 494 109 
L 494 744 
Q 775 591 1075 516 
Q 1375 441 1709 441 
Q 2250 441 2565 725 
Q 2881 1009 2881 1497 
Q 2881 1984 2565 2268 
Q 2250 2553 1709 2553 
Q 1456 2553 1204 2497 
Q 953 2441 691 2322 
L 691 4666 
z
" transform="scale(0.015625)"/>
       </defs>
       <use xlink:href="#DejaVuSans-35"/>
       <use xlink:href="#DejaVuSans-30" x="63.623047"/>
      </g>
     </g>
    </g>
    <g id="xtick_3">
     <g id="line2d_3">
      <g>
       <use xlink:href="#m50c0f8756a" x="182.412843" y="307.584" style="stroke: #000000; stroke-width: 0.8"/>
      </g>
     </g>
     <g id="text_3">
      <!-- 100 -->
      <g transform="translate(172.869093 322.182437) scale(0.1 -0.1)">
       <defs>
        <path id="DejaVuSans-31" d="M 794 531 
L 1825 531 
L 1825 4091 
L 703 3866 
L 703 4441 
L 1819 4666 
L 2450 4666 
L 2450 531 
L 3481 531 
L 3481 0 
L 794 0 
L 794 531 
z
" transform="scale(0.015625)"/>
       </defs>
       <use xlink:href="#DejaVuSans-31"/>
       <use xlink:href="#DejaVuSans-30" x="63.623047"/>
       <use xlink:href="#DejaVuSans-30" x="127.246094"/>
      </g>
     </g>
    </g>
    <g id="xtick_4">
     <g id="line2d_4">
      <g>
       <use xlink:href="#m50c0f8756a" x="236.702901" y="307.584" style="stroke: #000000; stroke-width: 0.8"/>
      </g>
     </g>
     <g id="text_4">
      <!-- 150 -->
      <g transform="translate(227.159151 322.182437) scale(0.1 -0.1)">
       <use xlink:href="#DejaVuSans-31"/>
       <use xlink:href="#DejaVuSans-35" x="63.623047"/>
       <use xlink:href="#DejaVuSans-30" x="127.246094"/>
      </g>
     </g>
    </g>
    <g id="xtick_5">
     <g id="line2d_5">
      <g>
       <use xlink:href="#m50c0f8756a" x="290.992958" y="307.584" style="stroke: #000000; stroke-width: 0.8"/>
      </g>
     </g>
     <g id="text_5">
      <!-- 200 -->
      <g transform="translate(281.449208 322.182437) scale(0.1 -0.1)">
       <defs>
        <path id="DejaVuSans-32" d="M 1228 531 
L 3431 531 
L 3431 0 
L 469 0 
L 469 531 
Q 828 903 1448 1529 
Q 2069 2156 2228 2338 
Q 2531 2678 2651 2914 
Q 2772 3150 2772 3378 
Q 2772 3750 2511 3984 
Q 2250 4219 1831 4219 
Q 1534 4219 1204 4116 
Q 875 4013 500 3803 
L 500 4441 
Q 881 4594 1212 4672 
Q 1544 4750 1819 4750 
Q 2544 4750 2975 4387 
Q 3406 4025 3406 3419 
Q 3406 3131 3298 2873 
Q 3191 2616 2906 2266 
Q 2828 2175 2409 1742 
Q 1991 1309 1228 531 
z
" transform="scale(0.015625)"/>
       </defs>
       <use xlink:href="#DejaVuSans-32"/>
       <use xlink:href="#DejaVuSans-30" x="63.623047"/>
       <use xlink:href="#DejaVuSans-30" x="127.246094"/>
      </g>
     </g>
    </g>
    <g id="xtick_6">
     <g id="line2d_6">
      <g>
       <use xlink:href="#m50c0f8756a" x="345.283016" y="307.584" style="stroke: #000000; stroke-width: 0.8"/>
      </g>
     </g>
     <g id="text_6">
      <!-- 250 -->
      <g transform="translate(335.739266 322.182437) scale(0.1 -0.1)">
       <use xlink:href="#DejaVuSans-32"/>
       <use xlink:href="#DejaVuSans-35" x="63.623047"/>
       <use xlink:href="#DejaVuSans-30" x="127.246094"/>
      </g>
     </g>
    </g>
    <g id="xtick_7">
     <g id="line2d_7">
      <g>
       <use xlink:href="#m50c0f8756a" x="399.573074" y="307.584" style="stroke: #000000; stroke-width: 0.8"/>
      </g>
     </g>
     <g id="text_7">
      <!-- 300 -->
      <g transform="translate(390.029324 322.182437) scale(0.1 -0.1)">
       <defs>
        <path id="DejaVuSans-33" d="M 2597 2516 
Q 3050 2419 3304 2112 
Q 3559 1806 3559 1356 
Q 3559 666 3084 287 
Q 2609 -91 1734 -91 
Q 1441 -91 1130 -33 
Q 819 25 488 141 
L 488 750 
Q 750 597 1062 519 
Q 1375 441 1716 441 
Q 2309 441 2620 675 
Q 2931 909 2931 1356 
Q 2931 1769 2642 2001 
Q 2353 2234 1838 2234 
L 1294 2234 
L 1294 2753 
L 1863 2753 
Q 2328 2753 2575 2939 
Q 2822 3125 2822 3475 
Q 2822 3834 2567 4026 
Q 2313 4219 1838 4219 
Q 1578 4219 1281 4162 
Q 984 4106 628 3988 
L 628 4550 
Q 988 4650 1302 4700 
Q 1616 4750 1894 4750 
Q 2613 4750 3031 4423 
Q 3450 4097 3450 3541 
Q 3450 3153 3228 2886 
Q 3006 2619 2597 2516 
z
" transform="scale(0.015625)"/>
       </defs>
       <use xlink:href="#DejaVuSans-33"/>
       <use xlink:href="#DejaVuSans-30" x="63.623047"/>
       <use xlink:href="#DejaVuSans-30" x="127.246094"/>
      </g>
     </g>
    </g>
   </g>
   <g id="matplotlib.axis_2">
    <g id="ytick_1">
     <g id="line2d_8">
      <defs>
       <path id="m82eb6d122a" d="M 0 0 
L -3.5 0 
" style="stroke: #000000; stroke-width: 0.8"/>
      </defs>
      <g>
       <use xlink:href="#m82eb6d122a" x="57.6" y="295.489001" style="stroke: #000000; stroke-width: 0.8"/>
      </g>
     </g>
     <g id="text_8">
      <!-- 0 -->
      <g transform="translate(44.2375 299.28822) scale(0.1 -0.1)">
       <use xlink:href="#DejaVuSans-30"/>
      </g>
     </g>
    </g>
    <g id="ytick_2">
     <g id="line2d_9">
      <g>
       <use xlink:href="#m82eb6d122a" x="57.6" y="259.037426" style="stroke: #000000; stroke-width: 0.8"/>
      </g>
     </g>
     <g id="text_9">
      <!-- 500 -->
      <g transform="translate(31.5125 262.836645) scale(0.1 -0.1)">
       <use xlink:href="#DejaVuSans-35"/>
       <use xlink:href="#DejaVuSans-30" x="63.623047"/>
       <use xlink:href="#DejaVuSans-30" x="127.246094"/>
      </g>
     </g>
    </g>
    <g id="ytick_3">
     <g id="line2d_10">
      <g>
       <use xlink:href="#m82eb6d122a" x="57.6" y="222.58585" style="stroke: #000000; stroke-width: 0.8"/>
      </g>
     </g>
     <g id="text_10">
      <!-- 1000 -->
      <g transform="translate(25.15 226.385069) scale(0.1 -0.1)">
       <use xlink:href="#DejaVuSans-31"/>
       <use xlink:href="#DejaVuSans-30" x="63.623047"/>
       <use xlink:href="#DejaVuSans-30" x="127.246094"/>
       <use xlink:href="#DejaVuSans-30" x="190.869141"/>
      </g>
     </g>
    </g>
    <g id="ytick_4">
     <g id="line2d_11">
      <g>
       <use xlink:href="#m82eb6d122a" x="57.6" y="186.134275" style="stroke: #000000; stroke-width: 0.8"/>
      </g>
     </g>
     <g id="text_11">
      <!-- 1500 -->
      <g transform="translate(25.15 189.933494) scale(0.1 -0.1)">
       <use xlink:href="#DejaVuSans-31"/>
       <use xlink:href="#DejaVuSans-35" x="63.623047"/>
       <use xlink:href="#DejaVuSans-30" x="127.246094"/>
       <use xlink:href="#DejaVuSans-30" x="190.869141"/>
      </g>
     </g>
    </g>
    <g id="ytick_5">
     <g id="line2d_12">
      <g>
       <use xlink:href="#m82eb6d122a" x="57.6" y="149.682699" style="stroke: #000000; stroke-width: 0.8"/>
      </g>
     </g>
     <g id="text_12">
      <!-- 2000 -->
      <g transform="translate(25.15 153.481918) scale(0.1 -0.1)">
       <use xlink:href="#DejaVuSans-32"/>
       <use xlink:href="#DejaVuSans-30" x="63.623047"/>
       <use xlink:href="#DejaVuSans-30" x="127.246094"/>
       <use xlink:href="#DejaVuSans-30" x="190.869141"/>
      </g>
     </g>
    </g>
    <g id="ytick_6">
     <g id="line2d_13">
      <g>
       <use xlink:href="#m82eb6d122a" x="57.6" y="113.231124" style="stroke: #000000; stroke-width: 0.8"/>
      </g>
     </g>
     <g id="text_13">
      <!-- 2500 -->
      <g transform="translate(25.15 117.030343) scale(0.1 -0.1)">
       <use xlink:href="#DejaVuSans-32"/>
       <use xlink:href="#DejaVuSans-35" x="63.623047"/>
       <use xlink:href="#DejaVuSans-30" x="127.246094"/>
       <use xlink:href="#DejaVuSans-30" x="190.869141"/>
      </g>
     </g>
    </g>
    <g id="ytick_7">
     <g id="line2d_14">
      <g>
       <use xlink:href="#m82eb6d122a" x="57.6" y="76.779549" style="stroke: #000000; stroke-width: 0.8"/>
      </g>
     </g>
     <g id="text_14">
      <!-- 3000 -->
      <g transform="translate(25.15 80.578767) scale(0.1 -0.1)">
       <use xlink:href="#DejaVuSans-33"/>
       <use xlink:href="#DejaVuSans-30" x="63.623047"/>
       <use xlink:href="#DejaVuSans-30" x="127.246094"/>
       <use xlink:href="#DejaVuSans-30" x="190.869141"/>
      </g>
     </g>
    </g>
   </g>
   <g id="line2d_15">
    <path d="M 73.832727 84.240661 
L 74.918528 90.296614 
L 76.00433 68.761688 
L 77.090131 53.568 
L 78.175932 85.43209 
L 79.261733 81.440488 
L 80.347534 86.499873 
L 82.519137 56.601785 
L 83.604938 96.171824 
L 84.690739 85.089471 
L 85.77654 85.862783 
L 86.862341 98.3244 
L 87.948142 82.264382 
L 89.033943 76.931114 
L 90.119745 100.34308 
L 91.205546 63.52223 
L 92.291347 91.073972 
L 93.377148 73.605954 
L 94.462949 102.625608 
L 95.54875 82.760482 
L 96.634552 104.573626 
L 97.720353 107.017295 
L 98.806154 97.124409 
L 99.891955 93.148737 
L 100.977756 99.337206 
L 102.063557 104.550642 
L 103.149358 90.584646 
L 104.23516 109.849764 
L 105.320961 86.076429 
L 106.406762 115.305519 
L 107.492563 110.371022 
L 108.578364 89.935428 
L 109.664165 98.108583 
L 110.749967 105.251759 
L 111.835768 106.599958 
L 112.921569 112.743072 
L 114.00737 122.666051 
L 115.093171 123.903844 
L 116.178972 99.419458 
L 117.264773 127.24281 
L 118.350575 127.764663 
L 119.436376 129.883117 
L 120.522177 131.191078 
L 121.607978 118.902353 
L 122.693779 133.029447 
L 123.77958 109.563801 
L 124.865382 136.418336 
L 125.951183 137.079922 
L 127.036984 139.106965 
L 128.122785 138.240131 
L 129.208586 141.44017 
L 130.294387 135.030138 
L 131.380189 139.975778 
L 132.46599 141.428922 
L 133.551791 146.838152 
L 134.637592 131.25639 
L 135.723393 149.607033 
L 136.809194 139.659562 
L 137.894995 151.120448 
L 138.980797 137.526307 
L 140.066598 151.734882 
L 141.152399 155.444373 
L 142.2382 158.399619 
L 143.324001 156.157223 
L 144.409802 145.339863 
L 145.495604 156.085108 
L 146.581405 157.56988 
L 147.667206 155.086221 
L 148.753007 165.894173 
L 150.924609 168.614903 
L 152.01041 156.450545 
L 153.096212 158.014644 
L 154.182013 172.678161 
L 155.267814 148.671769 
L 156.353615 171.107227 
L 157.439416 168.856028 
L 158.525217 178.504238 
L 159.611019 175.528303 
L 160.69682 156.668303 
L 161.782621 158.266134 
L 163.954223 185.457034 
L 165.040024 185.258663 
L 166.125825 170.899727 
L 167.211627 185.503223 
L 168.297428 190.696526 
L 169.383229 192.524851 
L 170.46903 170.660362 
L 171.554831 194.387603 
L 172.640632 193.977559 
L 173.726434 196.771206 
L 174.812235 191.900945 
L 175.898036 189.193368 
L 176.983837 200.980444 
L 178.069638 181.017052 
L 179.155439 200.3163 
L 180.24124 198.647948 
L 181.327042 185.286332 
L 182.412843 206.866363 
L 183.498644 207.994093 
L 184.584445 206.391159 
L 185.670246 206.863905 
L 186.756047 191.969074 
L 187.841849 203.524815 
L 188.92765 194.546372 
L 190.013451 201.364261 
L 191.099252 202.537185 
L 192.185053 198.275641 
L 193.270854 216.91404 
L 194.356656 217.755686 
L 195.442457 211.410215 
L 196.528258 217.971228 
L 197.614059 220.825037 
L 198.69986 221.663223 
L 199.785661 220.843865 
L 200.871462 221.671664 
L 201.957264 217.17303 
L 203.043065 219.445789 
L 204.128866 225.214294 
L 205.214667 222.885588 
L 206.300468 224.020082 
L 207.386269 217.451428 
L 208.472071 226.96888 
L 209.557872 214.242634 
L 210.643673 226.520577 
L 211.729474 229.726368 
L 212.815275 223.895584 
L 213.901076 230.735491 
L 214.986877 231.394994 
L 216.072679 231.523183 
L 217.15848 227.36419 
L 218.244281 232.050465 
L 219.330082 224.833567 
L 220.415883 233.416475 
L 221.501684 229.278618 
L 222.587486 229.665696 
L 223.673287 233.849728 
L 224.759088 230.377056 
L 225.844889 230.097279 
L 226.93069 226.679583 
L 228.016491 234.893234 
L 229.102292 231.608109 
L 230.188094 233.127381 
L 231.273895 228.870584 
L 232.359696 233.280726 
L 233.445497 232.472424 
L 234.531298 236.008651 
L 236.702901 236.134532 
L 237.788702 226.770077 
L 238.874503 235.314211 
L 239.960304 226.718537 
L 241.046105 236.25684 
L 242.131906 226.341953 
L 243.217708 233.306574 
L 244.303509 233.273822 
L 245.38931 230.497742 
L 246.475111 236.294564 
L 247.560912 226.608899 
L 248.646713 233.406667 
L 249.732514 233.417772 
L 250.818316 226.610907 
L 251.904117 226.521476 
L 252.989918 230.432871 
L 254.075719 233.403118 
L 255.16152 235.268009 
L 256.247321 230.38108 
L 257.333123 230.448762 
L 258.418924 236.297121 
L 259.504725 226.534229 
L 260.590526 233.420449 
L 261.676327 230.540811 
L 262.762128 236.404315 
L 263.847929 226.653461 
L 264.933731 233.499851 
L 266.019532 230.565789 
L 267.105333 235.286327 
L 268.191134 226.467545 
L 269.276935 233.420904 
L 270.362736 233.206867 
L 271.448538 226.016324 
L 272.534339 235.342638 
L 273.62014 226.696824 
L 274.705941 226.327388 
L 275.791742 236.33434 
L 276.877543 226.313295 
L 277.963344 236.330907 
L 279.049146 226.731488 
L 280.134947 230.815436 
L 281.220748 226.752095 
L 282.306549 233.404437 
L 283.39235 235.395152 
L 284.478151 230.505228 
L 285.563953 236.338867 
L 286.649754 233.547279 
L 287.735555 236.347716 
L 288.821356 230.464457 
L 289.907157 230.308049 
L 290.992958 226.617045 
L 292.07876 233.301862 
L 293.164561 236.295792 
L 294.250362 230.436967 
L 295.336163 236.359672 
L 296.421964 226.742072 
L 297.507765 226.751591 
L 298.593566 233.467408 
L 299.679368 226.498772 
L 300.765169 226.499406 
L 301.85097 236.33689 
L 302.936771 226.497103 
L 304.022572 226.57999 
L 305.108373 236.339709 
L 306.194175 230.508213 
L 307.279976 233.352929 
L 308.365777 233.404779 
L 309.451578 226.83191 
L 310.537379 236.305419 
L 311.62318 233.439747 
L 312.708981 236.31934 
L 313.794783 233.402772 
L 314.880584 236.300031 
L 315.966385 230.532452 
L 317.052186 236.336401 
L 318.137987 226.529657 
L 319.223788 226.702119 
L 320.30959 236.325743 
L 321.395391 226.997761 
L 322.481192 236.413305 
L 323.566993 236.329765 
L 324.652794 226.646091 
L 325.738595 226.602481 
L 326.824396 236.261997 
L 327.910198 236.210435 
L 328.995999 233.084692 
L 330.0818 230.588902 
L 331.167601 236.220758 
L 332.253402 236.320106 
L 333.339203 226.611236 
L 334.425005 233.397833 
L 335.510806 230.786065 
L 336.596607 230.30949 
L 337.682408 233.35186 
L 338.768209 230.704238 
L 339.85401 226.594856 
L 340.939811 230.240046 
L 342.025613 233.105286 
L 343.111414 235.303688 
L 344.197215 230.482458 
L 345.283016 226.470266 
L 347.454618 235.385845 
L 348.54042 233.646724 
L 349.626221 230.753433 
L 350.712022 230.383865 
L 351.797823 226.514265 
L 352.883624 233.37571 
L 355.055227 233.384839 
L 356.141028 230.389679 
L 357.226829 226.610593 
L 358.31263 233.242484 
L 359.398431 236.276871 
L 360.484232 226.199898 
L 361.570033 235.393757 
L 362.655835 233.497029 
L 363.741636 233.378184 
L 364.827437 233.390967 
L 365.913238 230.459717 
L 366.999039 233.413494 
L 368.08484 226.710129 
L 369.170642 226.722293 
L 370.256443 230.570029 
L 371.342244 226.703204 
L 372.428045 235.344304 
L 373.513846 230.410882 
L 374.599647 235.353164 
L 375.685448 230.309839 
L 376.77125 233.438634 
L 377.857051 235.373067 
L 378.942852 226.59908 
L 380.028653 233.299408 
L 381.114454 226.688158 
L 382.200255 233.422145 
L 383.286057 233.558956 
L 384.371858 230.799061 
L 385.457659 226.850677 
L 386.54346 233.483184 
L 387.629261 230.473833 
L 388.715062 230.34681 
L 389.800863 233.66648 
L 390.886665 230.42037 
L 391.972466 233.450971 
L 393.058267 230.534083 
L 394.144068 233.407874 
L 395.229869 233.520465 
L 396.31567 230.546811 
L 397.401472 226.551444 
L 398.487273 235.551601 
L 398.487273 235.551601 
" clip-path="url(#pfd5ad3bfb1)" style="fill: none; stroke: #1f77b4; stroke-width: 1.5; stroke-linecap: square"/>
   </g>
   <g id="line2d_16">
    <path d="M 73.832727 229.838032 
L 76.00433 230.19485 
L 79.261733 230.864683 
L 86.862341 234.240223 
L 91.205546 236.45915 
L 95.54875 238.909508 
L 100.977756 242.25754 
L 107.492563 246.624525 
L 115.093171 252.042003 
L 146.581405 275.5529 
L 153.096212 279.996994 
L 158.525217 283.356381 
L 162.868422 285.863829 
L 167.211627 288.090506 
L 170.46903 289.630609 
L 174.812235 291.418772 
L 178.069638 292.597018 
L 181.327042 293.578944 
L 185.670246 294.577741 
L 188.92765 295.09601 
L 192.185053 295.402812 
L 195.442457 295.488 
L 198.69986 295.360366 
L 201.957264 295.021724 
L 205.214667 294.437142 
L 208.472071 293.693139 
L 212.815275 292.254449 
L 219.330082 289.672383 
L 221.501684 288.613871 
L 224.759088 287.124467 
L 230.188094 284.413039 
L 231.273895 283.952077 
L 234.531298 282.182061 
L 236.702901 281.218203 
L 237.788702 280.74105 
L 239.960304 280.12744 
L 242.131906 279.975147 
L 243.217708 279.555649 
L 244.303509 279.764264 
L 245.38931 279.358122 
L 247.560912 279.180883 
L 249.732514 278.979915 
L 250.818316 279.027338 
L 251.904117 278.559493 
L 252.989918 278.549896 
L 255.16152 279.727311 
L 256.247321 279.534 
L 257.333123 279.214801 
L 258.418924 279.292185 
L 259.504725 278.645329 
L 260.590526 279.01199 
L 261.676327 278.819981 
L 262.762128 277.85789 
L 263.847929 278.831047 
L 264.933731 278.519128 
L 266.019532 278.725255 
L 267.105333 279.466407 
L 268.191134 279.552467 
L 269.276935 279.480334 
L 270.362736 280.1297 
L 271.448538 281.007023 
L 272.534339 279.086827 
L 273.62014 279.763227 
L 274.705941 280.020681 
L 276.877543 277.27428 
L 277.963344 278.417206 
L 279.049146 278.529521 
L 280.134947 277.27305 
L 281.220748 278.419845 
L 282.306549 279.081996 
L 283.39235 278.68722 
L 284.478151 279.285474 
L 285.563953 278.400009 
L 286.649754 278.16565 
L 287.735555 277.064136 
L 288.821356 279.088887 
L 289.907157 277.53335 
L 290.992958 278.994739 
L 292.07876 279.623325 
L 293.164561 279.32584 
L 294.250362 279.30391 
L 295.336163 278.663137 
L 296.421964 278.504779 
L 297.507765 278.467243 
L 298.593566 278.639613 
L 299.679368 278.419632 
L 301.85097 278.436581 
L 302.936771 278.244946 
L 304.022572 278.91225 
L 305.108373 278.264477 
L 306.194175 279.368314 
L 308.365777 279.442148 
L 309.451578 278.143205 
L 310.537379 279.578747 
L 311.62318 278.892081 
L 312.708981 279.122507 
L 313.794783 280.598252 
L 314.880584 279.240574 
L 315.966385 279.596721 
L 317.052186 278.797859 
L 318.137987 278.616881 
L 319.223788 278.676402 
L 320.30959 277.282289 
L 322.481192 277.468935 
L 323.566993 279.495707 
L 324.652794 278.879658 
L 325.738595 279.104934 
L 326.824396 279.664554 
L 327.910198 280.011532 
L 328.995999 280.567011 
L 330.0818 280.59349 
L 331.167601 280.012472 
L 332.253402 278.944751 
L 334.425005 279.172434 
L 335.510806 277.473254 
L 336.596607 277.505285 
L 337.682408 278.066085 
L 338.768209 277.950484 
L 340.939811 280.084482 
L 343.111414 280.915552 
L 344.197215 279.116617 
L 345.283016 278.244783 
L 346.368817 277.642532 
L 347.454618 278.854127 
L 348.54042 277.431155 
L 351.797823 278.429341 
L 352.883624 279.253729 
L 353.969425 278.871842 
L 356.141028 279.520659 
L 357.226829 279.219202 
L 358.31263 279.94391 
L 359.398431 279.832749 
L 360.484232 280.433626 
L 361.570033 278.65521 
L 363.741636 278.512071 
L 364.827437 279.092149 
L 365.913238 278.823152 
L 368.08484 279.982578 
L 369.170642 278.551261 
L 370.256443 280.015203 
L 371.342244 278.580557 
L 372.428045 278.98025 
L 373.513846 278.388272 
L 374.599647 279.044443 
L 375.685448 277.460665 
L 376.77125 278.806867 
L 377.857051 278.855823 
L 378.942852 279.071239 
L 380.028653 279.629626 
L 381.114454 279.837779 
L 382.200255 279.623382 
L 383.286057 277.952512 
L 384.371858 277.451581 
L 387.629261 279.05642 
L 388.715062 277.81697 
L 389.800863 277.126148 
L 390.886665 278.357059 
L 391.972466 279.819428 
L 393.058267 278.873714 
L 394.144068 279.078625 
L 395.229869 278.334017 
L 396.31567 278.750059 
L 397.401472 278.702377 
L 398.487273 276.878175 
L 398.487273 276.878175 
" clip-path="url(#pfd5ad3bfb1)" style="fill: none; stroke: #ff7f0e; stroke-opacity: 0.5; stroke-width: 1.5; stroke-linecap: square"/>
   </g>
   <g id="patch_3">
    <path d="M 57.6 307.584 
L 57.6 41.472 
" style="fill: none; stroke: #000000; stroke-width: 0.8; stroke-linejoin: miter; stroke-linecap: square"/>
   </g>
   <g id="patch_4">
    <path d="M 414.72 307.584 
L 414.72 41.472 
" style="fill: none; stroke: #000000; stroke-width: 0.8; stroke-linejoin: miter; stroke-linecap: square"/>
   </g>
   <g id="patch_5">
    <path d="M 57.6 307.584 
L 414.72 307.584 
" style="fill: none; stroke: #000000; stroke-width: 0.8; stroke-linejoin: miter; stroke-linecap: square"/>
   </g>
   <g id="patch_6">
    <path d="M 57.6 41.472 
L 414.72 41.472 
" style="fill: none; stroke: #000000; stroke-width: 0.8; stroke-linejoin: miter; stroke-linecap: square"/>
   </g>
   <g id="legend_1">
    <g id="patch_7">
     <path d="M 351.768438 78.82825 
L 407.72 78.82825 
Q 409.72 78.82825 409.72 76.82825 
L 409.72 48.472 
Q 409.72 46.472 407.72 46.472 
L 351.768438 46.472 
Q 349.768438 46.472 349.768438 48.472 
L 349.768438 76.82825 
Q 349.768438 78.82825 351.768438 78.82825 
z
" style="fill: #ffffff; opacity: 0.8; stroke: #cccccc; stroke-linejoin: miter"/>
    </g>
    <g id="line2d_17">
     <path d="M 353.768438 54.570437 
L 363.768438 54.570437 
L 373.768438 54.570437 
" style="fill: none; stroke: #1f77b4; stroke-width: 1.5; stroke-linecap: square"/>
    </g>
    <g id="text_15">
     <!-- train -->
     <g transform="translate(381.768438 58.070437) scale(0.1 -0.1)">
      <defs>
       <path id="DejaVuSans-74" d="M 1172 4494 
L 1172 3500 
L 2356 3500 
L 2356 3053 
L 1172 3053 
L 1172 1153 
Q 1172 725 1289 603 
Q 1406 481 1766 481 
L 2356 481 
L 2356 0 
L 1766 0 
Q 1100 0 847 248 
Q 594 497 594 1153 
L 594 3053 
L 172 3053 
L 172 3500 
L 594 3500 
L 594 4494 
L 1172 4494 
z
" transform="scale(0.015625)"/>
       <path id="DejaVuSans-72" d="M 2631 2963 
Q 2534 3019 2420 3045 
Q 2306 3072 2169 3072 
Q 1681 3072 1420 2755 
Q 1159 2438 1159 1844 
L 1159 0 
L 581 0 
L 581 3500 
L 1159 3500 
L 1159 2956 
Q 1341 3275 1631 3429 
Q 1922 3584 2338 3584 
Q 2397 3584 2469 3576 
Q 2541 3569 2628 3553 
L 2631 2963 
z
" transform="scale(0.015625)"/>
       <path id="DejaVuSans-61" d="M 2194 1759 
Q 1497 1759 1228 1600 
Q 959 1441 959 1056 
Q 959 750 1161 570 
Q 1363 391 1709 391 
Q 2188 391 2477 730 
Q 2766 1069 2766 1631 
L 2766 1759 
L 2194 1759 
z
M 3341 1997 
L 3341 0 
L 2766 0 
L 2766 531 
Q 2569 213 2275 61 
Q 1981 -91 1556 -91 
Q 1019 -91 701 211 
Q 384 513 384 1019 
Q 384 1609 779 1909 
Q 1175 2209 1959 2209 
L 2766 2209 
L 2766 2266 
Q 2766 2663 2505 2880 
Q 2244 3097 1772 3097 
Q 1472 3097 1187 3025 
Q 903 2953 641 2809 
L 641 3341 
Q 956 3463 1253 3523 
Q 1550 3584 1831 3584 
Q 2591 3584 2966 3190 
Q 3341 2797 3341 1997 
z
" transform="scale(0.015625)"/>
       <path id="DejaVuSans-69" d="M 603 3500 
L 1178 3500 
L 1178 0 
L 603 0 
L 603 3500 
z
M 603 4863 
L 1178 4863 
L 1178 4134 
L 603 4134 
L 603 4863 
z
" transform="scale(0.015625)"/>
       <path id="DejaVuSans-6e" d="M 3513 2113 
L 3513 0 
L 2938 0 
L 2938 2094 
Q 2938 2591 2744 2837 
Q 2550 3084 2163 3084 
Q 1697 3084 1428 2787 
Q 1159 2491 1159 1978 
L 1159 0 
L 581 0 
L 581 3500 
L 1159 3500 
L 1159 2956 
Q 1366 3272 1645 3428 
Q 1925 3584 2291 3584 
Q 2894 3584 3203 3211 
Q 3513 2838 3513 2113 
z
" transform="scale(0.015625)"/>
      </defs>
      <use xlink:href="#DejaVuSans-74"/>
      <use xlink:href="#DejaVuSans-72" x="39.208984"/>
      <use xlink:href="#DejaVuSans-61" x="80.322266"/>
      <use xlink:href="#DejaVuSans-69" x="141.601562"/>
      <use xlink:href="#DejaVuSans-6e" x="169.384766"/>
     </g>
    </g>
    <g id="line2d_18">
     <path d="M 353.768438 69.248562 
L 363.768438 69.248562 
L 373.768438 69.248562 
" style="fill: none; stroke: #ff7f0e; stroke-opacity: 0.5; stroke-width: 1.5; stroke-linecap: square"/>
    </g>
    <g id="text_16">
     <!-- valid -->
     <g transform="translate(381.768438 72.748562) scale(0.1 -0.1)">
      <defs>
       <path id="DejaVuSans-76" d="M 191 3500 
L 800 3500 
L 1894 563 
L 2988 3500 
L 3597 3500 
L 2284 0 
L 1503 0 
L 191 3500 
z
" transform="scale(0.015625)"/>
       <path id="DejaVuSans-6c" d="M 603 4863 
L 1178 4863 
L 1178 0 
L 603 0 
L 603 4863 
z
" transform="scale(0.015625)"/>
       <path id="DejaVuSans-64" d="M 2906 2969 
L 2906 4863 
L 3481 4863 
L 3481 0 
L 2906 0 
L 2906 525 
Q 2725 213 2448 61 
Q 2172 -91 1784 -91 
Q 1150 -91 751 415 
Q 353 922 353 1747 
Q 353 2572 751 3078 
Q 1150 3584 1784 3584 
Q 2172 3584 2448 3432 
Q 2725 3281 2906 2969 
z
M 947 1747 
Q 947 1113 1208 752 
Q 1469 391 1925 391 
Q 2381 391 2643 752 
Q 2906 1113 2906 1747 
Q 2906 2381 2643 2742 
Q 2381 3103 1925 3103 
Q 1469 3103 1208 2742 
Q 947 2381 947 1747 
z
" transform="scale(0.015625)"/>
      </defs>
      <use xlink:href="#DejaVuSans-76"/>
      <use xlink:href="#DejaVuSans-61" x="59.179688"/>
      <use xlink:href="#DejaVuSans-6c" x="120.458984"/>
      <use xlink:href="#DejaVuSans-69" x="148.242188"/>
      <use xlink:href="#DejaVuSans-64" x="176.025391"/>
     </g>
    </g>
   </g>
  </g>
 </g>
 <defs>
  <clipPath id="pfd5ad3bfb1">
   <rect x="57.6" y="41.472" width="357.12" height="266.112"/>
  </clipPath>
 </defs>
</svg>
