<?xml version="1.0" encoding="utf-8" standalone="no"?>
<!DOCTYPE svg PUBLIC "-//W3C//DTD SVG 1.1//EN"
  "http://www.w3.org/Graphics/SVG/1.1/DTD/svg11.dtd">
<svg xmlns:xlink="http://www.w3.org/1999/xlink" width="460.8pt" height="345.6pt" viewBox="0 0 460.8 345.6" xmlns="http://www.w3.org/2000/svg" version="1.1">
 <metadata>
  <rdf:RDF xmlns:dc="http://purl.org/dc/elements/1.1/" xmlns:cc="http://creativecommons.org/ns#" xmlns:rdf="http://www.w3.org/1999/02/22-rdf-syntax-ns#">
   <cc:Work>
    <dc:type rdf:resource="http://purl.org/dc/dcmitype/StillImage"/>
    <dc:date>2023-12-08T03:36:13.809793</dc:date>
    <dc:format>image/svg+xml</dc:format>
    <dc:creator>
     <cc:Agent>
      <dc:title>Matplotlib v3.7.3, https://matplotlib.org/</dc:title>
     </cc:Agent>
    </dc:creator>
   </cc:Work>
  </rdf:RDF>
 </metadata>
 <defs>
  <style type="text/css">*{stroke-linejoin: round; stroke-linecap: butt}</style>
 </defs>
 <g id="figure_1">
  <g id="patch_1">
   <path d="M 0 345.6 
L 460.8 345.6 
L 460.8 0 
L 0 0 
z
" style="fill: #ffffff"/>
  </g>
  <g id="axes_1">
   <g id="patch_2">
    <path d="M 57.6 307.584 
L 414.72 307.584 
L 414.72 41.472 
L 57.6 41.472 
z
" style="fill: #ffffff"/>
   </g>
   <g id="matplotlib.axis_1">
    <g id="xtick_1">
     <g id="line2d_1">
      <defs>
       <path id="m7072918acf" d="M 0 0 
L 0 3.5 
" style="stroke: #000000; stroke-width: 0.8"/>
      </defs>
      <g>
       <use xlink:href="#m7072918acf" x="73.832727" y="307.584" style="stroke: #000000; stroke-width: 0.8"/>
      </g>
     </g>
     <g id="text_1">
      <!-- 0 -->
      <g transform="translate(70.651477 322.182437) scale(0.1 -0.1)">
       <defs>
        <path id="DejaVuSans-30" d="M 2034 4250 
Q 1547 4250 1301 3770 
Q 1056 3291 1056 2328 
Q 1056 1369 1301 889 
Q 1547 409 2034 409 
Q 2525 409 2770 889 
Q 3016 1369 3016 2328 
Q 3016 3291 2770 3770 
Q 2525 4250 2034 4250 
z
M 2034 4750 
Q 2819 4750 3233 4129 
Q 3647 3509 3647 2328 
Q 3647 1150 3233 529 
Q 2819 -91 2034 -91 
Q 1250 -91 836 529 
Q 422 1150 422 2328 
Q 422 3509 836 4129 
Q 1250 4750 2034 4750 
z
" transform="scale(0.015625)"/>
       </defs>
       <use xlink:href="#DejaVuSans-30"/>
      </g>
     </g>
    </g>
    <g id="xtick_2">
     <g id="line2d_2">
      <g>
       <use xlink:href="#m7072918acf" x="128.122785" y="307.584" style="stroke: #000000; stroke-width: 0.8"/>
      </g>
     </g>
     <g id="text_2">
      <!-- 50 -->
      <g transform="translate(121.760285 322.182437) scale(0.1 -0.1)">
       <defs>
        <path id="DejaVuSans-35" d="M 691 4666 
L 3169 4666 
L 3169 4134 
L 1269 4134 
L 1269 2991 
Q 1406 3038 1543 3061 
Q 1681 3084 1819 3084 
Q 2600 3084 3056 2656 
Q 3513 2228 3513 1497 
Q 3513 744 3044 326 
Q 2575 -91 1722 -91 
Q 1428 -91 1123 -41 
Q 819 9 494 109 
L 494 744 
Q 775 591 1075 516 
Q 1375 441 1709 441 
Q 2250 441 2565 725 
Q 2881 1009 2881 1497 
Q 2881 1984 2565 2268 
Q 2250 2553 1709 2553 
Q 1456 2553 1204 2497 
Q 953 2441 691 2322 
L 691 4666 
z
" transform="scale(0.015625)"/>
       </defs>
       <use xlink:href="#DejaVuSans-35"/>
       <use xlink:href="#DejaVuSans-30" x="63.623047"/>
      </g>
     </g>
    </g>
    <g id="xtick_3">
     <g id="line2d_3">
      <g>
       <use xlink:href="#m7072918acf" x="182.412843" y="307.584" style="stroke: #000000; stroke-width: 0.8"/>
      </g>
     </g>
     <g id="text_3">
      <!-- 100 -->
      <g transform="translate(172.869093 322.182437) scale(0.1 -0.1)">
       <defs>
        <path id="DejaVuSans-31" d="M 794 531 
L 1825 531 
L 1825 4091 
L 703 3866 
L 703 4441 
L 1819 4666 
L 2450 4666 
L 2450 531 
L 3481 531 
L 3481 0 
L 794 0 
L 794 531 
z
" transform="scale(0.015625)"/>
       </defs>
       <use xlink:href="#DejaVuSans-31"/>
       <use xlink:href="#DejaVuSans-30" x="63.623047"/>
       <use xlink:href="#DejaVuSans-30" x="127.246094"/>
      </g>
     </g>
    </g>
    <g id="xtick_4">
     <g id="line2d_4">
      <g>
       <use xlink:href="#m7072918acf" x="236.702901" y="307.584" style="stroke: #000000; stroke-width: 0.8"/>
      </g>
     </g>
     <g id="text_4">
      <!-- 150 -->
      <g transform="translate(227.159151 322.182437) scale(0.1 -0.1)">
       <use xlink:href="#DejaVuSans-31"/>
       <use xlink:href="#DejaVuSans-35" x="63.623047"/>
       <use xlink:href="#DejaVuSans-30" x="127.246094"/>
      </g>
     </g>
    </g>
    <g id="xtick_5">
     <g id="line2d_5">
      <g>
       <use xlink:href="#m7072918acf" x="290.992958" y="307.584" style="stroke: #000000; stroke-width: 0.8"/>
      </g>
     </g>
     <g id="text_5">
      <!-- 200 -->
      <g transform="translate(281.449208 322.182437) scale(0.1 -0.1)">
       <defs>
        <path id="DejaVuSans-32" d="M 1228 531 
L 3431 531 
L 3431 0 
L 469 0 
L 469 531 
Q 828 903 1448 1529 
Q 2069 2156 2228 2338 
Q 2531 2678 2651 2914 
Q 2772 3150 2772 3378 
Q 2772 3750 2511 3984 
Q 2250 4219 1831 4219 
Q 1534 4219 1204 4116 
Q 875 4013 500 3803 
L 500 4441 
Q 881 4594 1212 4672 
Q 1544 4750 1819 4750 
Q 2544 4750 2975 4387 
Q 3406 4025 3406 3419 
Q 3406 3131 3298 2873 
Q 3191 2616 2906 2266 
Q 2828 2175 2409 1742 
Q 1991 1309 1228 531 
z
" transform="scale(0.015625)"/>
       </defs>
       <use xlink:href="#DejaVuSans-32"/>
       <use xlink:href="#DejaVuSans-30" x="63.623047"/>
       <use xlink:href="#DejaVuSans-30" x="127.246094"/>
      </g>
     </g>
    </g>
    <g id="xtick_6">
     <g id="line2d_6">
      <g>
       <use xlink:href="#m7072918acf" x="345.283016" y="307.584" style="stroke: #000000; stroke-width: 0.8"/>
      </g>
     </g>
     <g id="text_6">
      <!-- 250 -->
      <g transform="translate(335.739266 322.182437) scale(0.1 -0.1)">
       <use xlink:href="#DejaVuSans-32"/>
       <use xlink:href="#DejaVuSans-35" x="63.623047"/>
       <use xlink:href="#DejaVuSans-30" x="127.246094"/>
      </g>
     </g>
    </g>
    <g id="xtick_7">
     <g id="line2d_7">
      <g>
       <use xlink:href="#m7072918acf" x="399.573074" y="307.584" style="stroke: #000000; stroke-width: 0.8"/>
      </g>
     </g>
     <g id="text_7">
      <!-- 300 -->
      <g transform="translate(390.029324 322.182437) scale(0.1 -0.1)">
       <defs>
        <path id="DejaVuSans-33" d="M 2597 2516 
Q 3050 2419 3304 2112 
Q 3559 1806 3559 1356 
Q 3559 666 3084 287 
Q 2609 -91 1734 -91 
Q 1441 -91 1130 -33 
Q 819 25 488 141 
L 488 750 
Q 750 597 1062 519 
Q 1375 441 1716 441 
Q 2309 441 2620 675 
Q 2931 909 2931 1356 
Q 2931 1769 2642 2001 
Q 2353 2234 1838 2234 
L 1294 2234 
L 1294 2753 
L 1863 2753 
Q 2328 2753 2575 2939 
Q 2822 3125 2822 3475 
Q 2822 3834 2567 4026 
Q 2313 4219 1838 4219 
Q 1578 4219 1281 4162 
Q 984 4106 628 3988 
L 628 4550 
Q 988 4650 1302 4700 
Q 1616 4750 1894 4750 
Q 2613 4750 3031 4423 
Q 3450 4097 3450 3541 
Q 3450 3153 3228 2886 
Q 3006 2619 2597 2516 
z
" transform="scale(0.015625)"/>
       </defs>
       <use xlink:href="#DejaVuSans-33"/>
       <use xlink:href="#DejaVuSans-30" x="63.623047"/>
       <use xlink:href="#DejaVuSans-30" x="127.246094"/>
      </g>
     </g>
    </g>
   </g>
   <g id="matplotlib.axis_2">
    <g id="ytick_1">
     <g id="line2d_8">
      <defs>
       <path id="m911df0b788" d="M 0 0 
L -3.5 0 
" style="stroke: #000000; stroke-width: 0.8"/>
      </defs>
      <g>
       <use xlink:href="#m911df0b788" x="57.6" y="295.489327" style="stroke: #000000; stroke-width: 0.8"/>
      </g>
     </g>
     <g id="text_8">
      <!-- 0 -->
      <g transform="translate(44.2375 299.288546) scale(0.1 -0.1)">
       <use xlink:href="#DejaVuSans-30"/>
      </g>
     </g>
    </g>
    <g id="ytick_2">
     <g id="line2d_9">
      <g>
       <use xlink:href="#m911df0b788" x="57.6" y="263.323098" style="stroke: #000000; stroke-width: 0.8"/>
      </g>
     </g>
     <g id="text_9">
      <!-- 250 -->
      <g transform="translate(31.5125 267.122317) scale(0.1 -0.1)">
       <use xlink:href="#DejaVuSans-32"/>
       <use xlink:href="#DejaVuSans-35" x="63.623047"/>
       <use xlink:href="#DejaVuSans-30" x="127.246094"/>
      </g>
     </g>
    </g>
    <g id="ytick_3">
     <g id="line2d_10">
      <g>
       <use xlink:href="#m911df0b788" x="57.6" y="231.15687" style="stroke: #000000; stroke-width: 0.8"/>
      </g>
     </g>
     <g id="text_10">
      <!-- 500 -->
      <g transform="translate(31.5125 234.956088) scale(0.1 -0.1)">
       <use xlink:href="#DejaVuSans-35"/>
       <use xlink:href="#DejaVuSans-30" x="63.623047"/>
       <use xlink:href="#DejaVuSans-30" x="127.246094"/>
      </g>
     </g>
    </g>
    <g id="ytick_4">
     <g id="line2d_11">
      <g>
       <use xlink:href="#m911df0b788" x="57.6" y="198.990641" style="stroke: #000000; stroke-width: 0.8"/>
      </g>
     </g>
     <g id="text_11">
      <!-- 750 -->
      <g transform="translate(31.5125 202.78986) scale(0.1 -0.1)">
       <defs>
        <path id="DejaVuSans-37" d="M 525 4666 
L 3525 4666 
L 3525 4397 
L 1831 0 
L 1172 0 
L 2766 4134 
L 525 4134 
L 525 4666 
z
" transform="scale(0.015625)"/>
       </defs>
       <use xlink:href="#DejaVuSans-37"/>
       <use xlink:href="#DejaVuSans-35" x="63.623047"/>
       <use xlink:href="#DejaVuSans-30" x="127.246094"/>
      </g>
     </g>
    </g>
    <g id="ytick_5">
     <g id="line2d_12">
      <g>
       <use xlink:href="#m911df0b788" x="57.6" y="166.824412" style="stroke: #000000; stroke-width: 0.8"/>
      </g>
     </g>
     <g id="text_12">
      <!-- 1000 -->
      <g transform="translate(25.15 170.623631) scale(0.1 -0.1)">
       <use xlink:href="#DejaVuSans-31"/>
       <use xlink:href="#DejaVuSans-30" x="63.623047"/>
       <use xlink:href="#DejaVuSans-30" x="127.246094"/>
       <use xlink:href="#DejaVuSans-30" x="190.869141"/>
      </g>
     </g>
    </g>
    <g id="ytick_6">
     <g id="line2d_13">
      <g>
       <use xlink:href="#m911df0b788" x="57.6" y="134.658183" style="stroke: #000000; stroke-width: 0.8"/>
      </g>
     </g>
     <g id="text_13">
      <!-- 1250 -->
      <g transform="translate(25.15 138.457402) scale(0.1 -0.1)">
       <use xlink:href="#DejaVuSans-31"/>
       <use xlink:href="#DejaVuSans-32" x="63.623047"/>
       <use xlink:href="#DejaVuSans-35" x="127.246094"/>
       <use xlink:href="#DejaVuSans-30" x="190.869141"/>
      </g>
     </g>
    </g>
    <g id="ytick_7">
     <g id="line2d_14">
      <g>
       <use xlink:href="#m911df0b788" x="57.6" y="102.491954" style="stroke: #000000; stroke-width: 0.8"/>
      </g>
     </g>
     <g id="text_14">
      <!-- 1500 -->
      <g transform="translate(25.15 106.291173) scale(0.1 -0.1)">
       <use xlink:href="#DejaVuSans-31"/>
       <use xlink:href="#DejaVuSans-35" x="63.623047"/>
       <use xlink:href="#DejaVuSans-30" x="127.246094"/>
       <use xlink:href="#DejaVuSans-30" x="190.869141"/>
      </g>
     </g>
    </g>
    <g id="ytick_8">
     <g id="line2d_15">
      <g>
       <use xlink:href="#m911df0b788" x="57.6" y="70.325726" style="stroke: #000000; stroke-width: 0.8"/>
      </g>
     </g>
     <g id="text_15">
      <!-- 1750 -->
      <g transform="translate(25.15 74.124944) scale(0.1 -0.1)">
       <use xlink:href="#DejaVuSans-31"/>
       <use xlink:href="#DejaVuSans-37" x="63.623047"/>
       <use xlink:href="#DejaVuSans-35" x="127.246094"/>
       <use xlink:href="#DejaVuSans-30" x="190.869141"/>
      </g>
     </g>
    </g>
   </g>
   <g id="line2d_16">
    <path d="M 73.832727 185.323611 
L 74.918528 128.403309 
L 76.00433 125.342197 
L 77.090131 131.691723 
L 78.175932 116.374441 
L 79.261733 77.989211 
L 80.347534 64.405873 
L 81.433335 70.857223 
L 82.519137 144.442518 
L 83.604938 70.883439 
L 84.690739 182.106962 
L 85.77654 123.783955 
L 86.862341 148.899889 
L 87.948142 157.607724 
L 89.033943 158.446298 
L 90.119745 162.759319 
L 91.205546 157.823719 
L 92.291347 161.935423 
L 93.377148 132.856233 
L 94.462949 160.268839 
L 95.54875 182.389007 
L 96.634552 156.773002 
L 97.720353 170.391377 
L 98.806154 162.02134 
L 99.891955 166.245902 
L 100.977756 174.523871 
L 102.063557 175.115091 
L 103.149358 176.698075 
L 104.23516 172.993247 
L 105.320961 146.35483 
L 106.406762 182.602234 
L 107.492563 163.603781 
L 108.578364 158.67987 
L 109.664165 140.974991 
L 110.749967 160.798971 
L 111.835768 165.849702 
L 112.921569 172.858883 
L 114.00737 171.343701 
L 115.093171 180.253703 
L 116.178972 166.033615 
L 117.264773 170.469624 
L 118.350575 154.571454 
L 119.436376 170.416101 
L 120.522177 151.491871 
L 121.607978 168.226972 
L 122.693779 148.357257 
L 123.77958 176.130867 
L 124.865382 155.323882 
L 125.951183 174.21734 
L 127.036984 166.826899 
L 128.122785 178.037949 
L 129.208586 167.069604 
L 130.294387 188.786241 
L 131.380189 181.29761 
L 132.46599 175.054314 
L 133.551791 173.3268 
L 134.637592 185.908716 
L 135.723393 180.308309 
L 136.809194 180.477221 
L 137.894995 175.472644 
L 138.980797 174.708039 
L 140.066598 165.011706 
L 141.152399 183.06824 
L 142.2382 174.079835 
L 143.324001 160.230386 
L 144.409802 177.393929 
L 145.495604 186.256725 
L 146.581405 180.425579 
L 147.667206 186.478327 
L 148.753007 180.147501 
L 149.838808 185.203427 
L 150.924609 184.044685 
L 152.01041 161.701114 
L 153.096212 154.377389 
L 154.182013 178.524548 
L 155.267814 170.072144 
L 156.353615 174.846915 
L 157.439416 156.57531 
L 158.525217 166.769249 
L 159.611019 154.754725 
L 160.69682 172.583054 
L 161.782621 166.386113 
L 162.868422 176.793208 
L 163.954223 158.494551 
L 165.040024 184.701467 
L 166.125825 173.464098 
L 167.211627 184.190293 
L 168.297428 182.354147 
L 169.383229 187.464319 
L 170.46903 177.764028 
L 171.554831 175.642902 
L 172.640632 166.742169 
L 173.726434 186.817574 
L 174.812235 177.710096 
L 175.898036 186.233255 
L 176.983837 161.496859 
L 178.069638 169.907758 
L 179.155439 151.813907 
L 180.24124 176.646772 
L 181.327042 163.938413 
L 182.412843 158.739237 
L 183.498644 169.848702 
L 184.584445 173.581874 
L 185.670246 172.19009 
L 186.756047 183.984557 
L 187.841849 181.26786 
L 190.013451 167.636698 
L 191.099252 166.915868 
L 192.185053 159.640855 
L 193.270854 150.35932 
L 194.356656 142.343163 
L 195.442457 175.148318 
L 196.528258 168.985507 
L 197.614059 178.905469 
L 198.69986 173.666107 
L 199.785661 177.68525 
L 200.871462 171.21137 
L 201.957264 174.96323 
L 203.043065 176.321473 
L 204.128866 175.007399 
L 205.214667 178.36424 
L 206.300468 186.605341 
L 207.386269 180.832775 
L 208.472071 183.183243 
L 209.557872 161.257305 
L 210.643673 160.433486 
L 211.729474 171.12377 
L 213.901076 152.653122 
L 214.986877 165.902608 
L 216.072679 149.824838 
L 217.15848 181.212367 
L 218.244281 165.418563 
L 219.330082 182.913119 
L 220.415883 168.306154 
L 221.501684 174.256337 
L 222.587486 179.474968 
L 223.673287 189.463816 
L 224.759088 184.208899 
L 225.844889 175.886936 
L 226.93069 183.544963 
L 228.016491 170.56514 
L 229.102292 182.583048 
L 230.188094 181.755908 
L 231.273895 166.538196 
L 232.359696 178.85925 
L 233.445497 165.178945 
L 234.531298 183.130369 
L 235.617099 169.969814 
L 236.702901 180.072563 
L 237.788702 170.966365 
L 238.874503 178.542947 
L 239.960304 182.930298 
L 241.046105 186.478978 
L 242.131906 181.853589 
L 243.217708 182.587852 
L 244.303509 181.501356 
L 245.38931 183.240936 
L 246.475111 171.318527 
L 247.560912 178.041403 
L 248.646713 165.110629 
L 249.732514 181.843688 
L 250.818316 153.947573 
L 251.904117 145.188937 
L 252.989918 151.871564 
L 254.075719 181.215601 
L 255.16152 175.788393 
L 256.247321 185.145864 
L 257.333123 179.722443 
L 258.418924 178.426198 
L 259.504725 181.580952 
L 260.590526 188.977786 
L 261.676327 176.260376 
L 262.762128 190.015186 
L 263.847929 184.408487 
L 264.933731 181.71958 
L 266.019532 182.370435 
L 267.105333 176.819852 
L 268.191134 175.465827 
L 270.362736 167.394567 
L 271.448538 184.048054 
L 272.534339 155.650801 
L 273.62014 187.707356 
L 274.705941 175.467098 
L 275.791742 181.607557 
L 276.877543 173.762186 
L 277.963344 177.651385 
L 279.049146 164.031 
L 280.134947 182.034435 
L 281.220748 173.434686 
L 282.306549 171.453273 
L 283.39235 167.417522 
L 284.478151 182.869927 
L 285.563953 162.225012 
L 286.649754 171.010614 
L 287.735555 159.366262 
L 288.821356 187.127348 
L 289.907157 181.337043 
L 290.992958 181.634606 
L 292.07876 184.102802 
L 293.164561 175.406265 
L 294.250362 182.226074 
L 295.336163 168.658737 
L 296.421964 187.107173 
L 297.507765 174.399294 
L 298.593566 186.380298 
L 299.679368 179.373615 
L 300.765169 180.342097 
L 301.85097 185.634969 
L 302.936771 176.63737 
L 304.022572 163.686877 
L 305.108373 179.154798 
L 306.194175 179.300292 
L 307.279976 177.839237 
L 308.365777 166.928493 
L 309.451578 175.118306 
L 310.537379 164.106013 
L 311.62318 176.456415 
L 312.708981 177.661998 
L 313.794783 175.247037 
L 314.880584 179.699809 
L 315.966385 166.81071 
L 317.052186 183.841176 
L 318.137987 177.2199 
L 319.223788 156.505362 
L 320.30959 169.552963 
L 321.395391 174.506035 
L 322.481192 153.028742 
L 323.566993 189.18874 
L 324.652794 174.675742 
L 325.738595 182.253159 
L 326.824396 168.965009 
L 327.910198 186.700913 
L 328.995999 173.828423 
L 330.0818 165.661847 
L 331.167601 172.642288 
L 332.253402 188.672451 
L 333.339203 184.747057 
L 334.425005 176.067985 
L 335.510806 161.556044 
L 336.596607 181.019886 
L 337.682408 178.633275 
L 338.768209 168.225187 
L 339.85401 159.626626 
L 340.939811 180.215511 
L 342.025613 163.338751 
L 343.111414 175.11171 
L 344.197215 181.663258 
L 345.283016 174.406606 
L 346.368817 182.075154 
L 347.454618 180.954547 
L 348.54042 170.663664 
L 349.626221 172.18237 
L 350.712022 167.659404 
L 351.797823 182.351651 
L 352.883624 168.555741 
L 353.969425 185.046015 
L 355.055227 158.40439 
L 356.141028 175.117794 
L 357.226829 177.894887 
L 358.31263 185.529713 
L 359.398431 168.860106 
L 360.484232 163.202505 
L 361.570033 172.254659 
L 362.655835 186.134126 
L 363.741636 183.171285 
L 364.827437 186.321144 
L 365.913238 184.935784 
L 366.999039 176.74066 
L 368.08484 186.446469 
L 369.170642 188.337392 
L 370.256443 161.249968 
L 371.342244 165.620454 
L 372.428045 178.554749 
L 373.513846 176.241397 
L 374.599647 171.525172 
L 375.685448 171.919898 
L 376.77125 179.504012 
L 377.857051 174.582828 
L 378.942852 168.713681 
L 380.028653 186.869657 
L 381.114454 188.464891 
L 382.200255 190.539344 
L 383.286057 175.037853 
L 384.371858 187.696473 
L 385.457659 179.359032 
L 386.54346 175.789615 
L 387.629261 184.843662 
L 389.800863 177.101803 
L 390.886665 169.319633 
L 391.972466 165.759538 
L 393.058267 159.237508 
L 394.144068 166.105899 
L 395.229869 172.218209 
L 396.31567 169.831193 
L 397.401472 161.384078 
L 398.487273 168.695992 
L 398.487273 168.695992 
" clip-path="url(#pf920a2bc6d)" style="fill: none; stroke: #1f77b4; stroke-width: 1.5; stroke-linecap: square"/>
   </g>
   <g id="line2d_17">
    <path d="M 73.832727 203.068967 
L 74.918528 291.944183 
L 76.00433 130.255289 
L 77.090131 292.501429 
L 78.175932 101.557139 
L 79.261733 282.670955 
L 80.347534 53.568 
L 81.433335 263.378272 
L 82.519137 144.900756 
L 83.604938 281.859791 
L 84.690739 208.398517 
L 85.77654 295.093559 
L 86.862341 193.243181 
L 87.948142 295.18057 
L 89.033943 196.822978 
L 90.119745 295.488 
L 91.205546 195.49927 
L 92.291347 295.467376 
L 93.377148 171.001852 
L 94.462949 295.485273 
L 95.54875 202.198939 
L 96.634552 295.40494 
L 97.720353 203.033628 
L 98.806154 295.46128 
L 99.891955 214.543656 
L 100.977756 293.908475 
L 102.063557 221.199506 
L 103.149358 292.642041 
L 104.23516 213.907447 
L 105.320961 293.916228 
L 106.406762 209.857706 
L 107.492563 293.857042 
L 108.578364 197.118866 
L 109.664165 294.930015 
L 110.749967 201.889292 
L 111.835768 295.013907 
L 112.921569 201.56317 
L 114.00737 294.114678 
L 115.093171 209.897262 
L 116.178972 294.726465 
L 117.264773 185.841588 
L 118.350575 295.248952 
L 119.436376 178.153804 
L 120.522177 294.562545 
L 121.607978 174.391093 
L 122.693779 294.342123 
L 123.77958 187.347966 
L 124.865382 295.381986 
L 125.951183 210.844367 
L 127.036984 293.351369 
L 128.122785 225.23643 
L 129.208586 289.231632 
L 130.294387 236.234124 
L 131.380189 286.159346 
L 132.46599 238.253249 
L 133.551791 284.661424 
L 134.637592 226.23963 
L 135.723393 289.650247 
L 136.809194 224.625052 
L 137.894995 293.110643 
L 138.980797 189.834888 
L 140.066598 295.461066 
L 141.152399 219.854877 
L 142.2382 292.147644 
L 143.324001 221.053101 
L 144.409802 291.976517 
L 145.495604 229.174092 
L 146.581405 289.942444 
L 147.667206 228.302596 
L 148.753007 289.243696 
L 149.838808 226.698619 
L 150.924609 287.074257 
L 152.01041 227.75471 
L 153.096212 291.265189 
L 154.182013 216.610847 
L 155.267814 293.664893 
L 156.353615 199.069721 
L 157.439416 295.442661 
L 158.525217 181.997739 
L 159.611019 295.432865 
L 160.69682 189.319035 
L 161.782621 295.319058 
L 162.868422 195.111131 
L 163.954223 295.372288 
L 165.040024 225.717667 
L 166.125825 292.33037 
L 167.211627 227.49398 
L 168.297428 289.672055 
L 169.383229 231.410799 
L 170.46903 289.693903 
L 171.554831 240.145493 
L 172.640632 281.928935 
L 173.726434 234.887068 
L 174.812235 284.946828 
L 175.898036 228.324506 
L 176.983837 292.004038 
L 178.069638 206.616746 
L 179.155439 294.695997 
L 180.24124 213.905868 
L 181.327042 294.95506 
L 182.412843 200.350222 
L 183.498644 294.029195 
L 184.584445 208.446036 
L 185.670246 291.613437 
L 186.756047 225.577929 
L 187.841849 287.195698 
L 188.92765 224.366034 
L 190.013451 291.824714 
L 191.099252 216.270887 
L 192.185053 294.474139 
L 193.270854 199.472404 
L 194.356656 294.704529 
L 195.442457 202.217206 
L 196.528258 294.677519 
L 197.614059 206.005525 
L 198.69986 291.173995 
L 199.785661 215.015729 
L 200.871462 293.096546 
L 201.957264 220.619092 
L 203.043065 289.863032 
L 204.128866 224.233662 
L 205.214667 291.338076 
L 206.300468 226.674267 
L 207.386269 286.834717 
L 208.472071 222.565502 
L 209.557872 292.516297 
L 210.643673 220.697592 
L 211.729474 294.564462 
L 212.815275 203.211061 
L 213.901076 294.444972 
L 214.986877 215.740765 
L 216.072679 292.870997 
L 217.15848 210.413202 
L 218.244281 293.348955 
L 219.330082 218.237723 
L 220.415883 291.901533 
L 221.501684 237.122331 
L 222.587486 283.533572 
L 223.673287 245.076707 
L 224.759088 282.372183 
L 225.844889 244.510115 
L 226.93069 284.273626 
L 228.016491 249.830638 
L 229.102292 283.987415 
L 230.188094 231.935919 
L 231.273895 292.670462 
L 232.359696 207.79741 
L 233.445497 293.805657 
L 234.531298 211.436977 
L 235.617099 290.306237 
L 236.702901 221.435507 
L 237.788702 287.63774 
L 238.874503 233.843139 
L 239.960304 284.515674 
L 241.046105 228.971781 
L 242.131906 289.476609 
L 243.217708 224.588237 
L 244.303509 287.770647 
L 245.38931 224.514449 
L 246.475111 290.282597 
L 247.560912 203.800301 
L 248.646713 294.423007 
L 249.732514 216.110778 
L 250.818316 295.172998 
L 251.904117 190.292566 
L 252.989918 295.4218 
L 254.075719 212.989814 
L 255.16152 293.018429 
L 256.247321 223.959951 
L 257.333123 290.059696 
L 258.418924 227.754192 
L 259.504725 287.737218 
L 260.590526 242.250696 
L 261.676327 279.174934 
L 262.762128 248.76956 
L 263.847929 282.809158 
L 264.933731 238.564338 
L 266.019532 284.522137 
L 267.105333 247.79833 
L 268.191134 287.330389 
L 269.276935 229.261489 
L 270.362736 292.668531 
L 271.448538 216.839851 
L 272.534339 293.999806 
L 273.62014 229.717926 
L 274.705941 290.008164 
L 275.791742 211.375825 
L 276.877543 291.384692 
L 277.963344 201.46631 
L 279.049146 292.661619 
L 280.134947 215.833455 
L 281.220748 291.214038 
L 282.306549 227.657442 
L 283.39235 292.410572 
L 284.478151 220.208423 
L 285.563953 291.779427 
L 286.649754 227.028527 
L 287.735555 288.85742 
L 288.821356 228.877449 
L 289.907157 290.152197 
L 290.992958 233.258586 
L 292.07876 287.352441 
L 293.164561 241.792909 
L 294.250362 285.050182 
L 295.336163 243.210068 
L 296.421964 284.035738 
L 297.507765 238.180389 
L 298.593566 285.029162 
L 299.679368 232.641684 
L 300.765169 287.12612 
L 301.85097 229.450858 
L 302.936771 290.088437 
L 304.022572 229.747394 
L 305.108373 287.256681 
L 306.194175 221.025921 
L 307.279976 285.82282 
L 308.365777 219.251109 
L 309.451578 293.460227 
L 310.537379 211.722758 
L 311.62318 292.034863 
L 312.708981 216.90061 
L 313.794783 292.015151 
L 314.880584 212.235258 
L 315.966385 292.549419 
L 317.052186 217.902294 
L 318.137987 292.607102 
L 319.223788 212.806617 
L 320.30959 291.497271 
L 321.395391 218.35914 
L 322.481192 291.913512 
L 323.566993 243.593491 
L 324.652794 281.44461 
L 325.738595 249.67056 
L 326.824396 278.387026 
L 327.910198 249.102633 
L 328.995999 282.708595 
L 330.0818 237.066892 
L 331.167601 286.616166 
L 332.253402 234.498565 
L 333.339203 284.909378 
L 334.425005 233.160772 
L 335.510806 287.613259 
L 336.596607 233.222462 
L 337.682408 290.577137 
L 338.768209 220.478671 
L 339.85401 292.262723 
L 340.939811 217.195242 
L 342.025613 292.990177 
L 343.111414 231.968529 
L 344.197215 285.003957 
L 345.283016 230.141238 
L 346.368817 287.14621 
L 347.454618 208.580229 
L 348.54042 294.554053 
L 349.626221 195.031933 
L 350.712022 295.091565 
L 351.797823 215.205216 
L 352.883624 293.341891 
L 353.969425 224.609204 
L 355.055227 289.172619 
L 356.141028 233.975384 
L 357.226829 287.294908 
L 358.31263 227.552823 
L 359.398431 287.283984 
L 360.484232 228.954017 
L 361.570033 288.211908 
L 362.655835 237.282247 
L 363.741636 285.126191 
L 364.827437 240.824486 
L 365.913238 280.811851 
L 366.999039 248.046001 
L 368.08484 282.958186 
L 369.170642 241.597171 
L 370.256443 287.229852 
L 371.342244 235.694177 
L 372.428045 284.964282 
L 373.513846 231.899261 
L 374.599647 288.696689 
L 375.685448 229.503089 
L 376.77125 289.929159 
L 377.857051 223.320671 
L 378.942852 291.358453 
L 380.028653 247.045891 
L 381.114454 271.286033 
L 382.200255 254.963668 
L 383.286057 280.594053 
L 384.371858 238.78561 
L 385.457659 282.543338 
L 386.54346 244.797569 
L 387.629261 284.715046 
L 388.715062 221.116601 
L 389.800863 291.884812 
L 390.886665 196.674036 
L 391.972466 294.756692 
L 393.058267 190.990147 
L 394.144068 294.381329 
L 395.229869 192.369785 
L 396.31567 293.139081 
L 397.401472 220.268177 
L 398.487273 292.02585 
L 398.487273 292.02585 
" clip-path="url(#pf920a2bc6d)" style="fill: none; stroke: #ff7f0e; stroke-opacity: 0.5; stroke-width: 1.5; stroke-linecap: square"/>
   </g>
   <g id="patch_3">
    <path d="M 57.6 307.584 
L 57.6 41.472 
" style="fill: none; stroke: #000000; stroke-width: 0.8; stroke-linejoin: miter; stroke-linecap: square"/>
   </g>
   <g id="patch_4">
    <path d="M 414.72 307.584 
L 414.72 41.472 
" style="fill: none; stroke: #000000; stroke-width: 0.8; stroke-linejoin: miter; stroke-linecap: square"/>
   </g>
   <g id="patch_5">
    <path d="M 57.6 307.584 
L 414.72 307.584 
" style="fill: none; stroke: #000000; stroke-width: 0.8; stroke-linejoin: miter; stroke-linecap: square"/>
   </g>
   <g id="patch_6">
    <path d="M 57.6 41.472 
L 414.72 41.472 
" style="fill: none; stroke: #000000; stroke-width: 0.8; stroke-linejoin: miter; stroke-linecap: square"/>
   </g>
   <g id="legend_1">
    <g id="patch_7">
     <path d="M 351.768438 78.82825 
L 407.72 78.82825 
Q 409.72 78.82825 409.72 76.82825 
L 409.72 48.472 
Q 409.72 46.472 407.72 46.472 
L 351.768438 46.472 
Q 349.768438 46.472 349.768438 48.472 
L 349.768438 76.82825 
Q 349.768438 78.82825 351.768438 78.82825 
z
" style="fill: #ffffff; opacity: 0.8; stroke: #cccccc; stroke-linejoin: miter"/>
    </g>
    <g id="line2d_18">
     <path d="M 353.768438 54.570437 
L 363.768438 54.570437 
L 373.768438 54.570437 
" style="fill: none; stroke: #1f77b4; stroke-width: 1.5; stroke-linecap: square"/>
    </g>
    <g id="text_16">
     <!-- train -->
     <g transform="translate(381.768438 58.070437) scale(0.1 -0.1)">
      <defs>
       <path id="DejaVuSans-74" d="M 1172 4494 
L 1172 3500 
L 2356 3500 
L 2356 3053 
L 1172 3053 
L 1172 1153 
Q 1172 725 1289 603 
Q 1406 481 1766 481 
L 2356 481 
L 2356 0 
L 1766 0 
Q 1100 0 847 248 
Q 594 497 594 1153 
L 594 3053 
L 172 3053 
L 172 3500 
L 594 3500 
L 594 4494 
L 1172 4494 
z
" transform="scale(0.015625)"/>
       <path id="DejaVuSans-72" d="M 2631 2963 
Q 2534 3019 2420 3045 
Q 2306 3072 2169 3072 
Q 1681 3072 1420 2755 
Q 1159 2438 1159 1844 
L 1159 0 
L 581 0 
L 581 3500 
L 1159 3500 
L 1159 2956 
Q 1341 3275 1631 3429 
Q 1922 3584 2338 3584 
Q 2397 3584 2469 3576 
Q 2541 3569 2628 3553 
L 2631 2963 
z
" transform="scale(0.015625)"/>
       <path id="DejaVuSans-61" d="M 2194 1759 
Q 1497 1759 1228 1600 
Q 959 1441 959 1056 
Q 959 750 1161 570 
Q 1363 391 1709 391 
Q 2188 391 2477 730 
Q 2766 1069 2766 1631 
L 2766 1759 
L 2194 1759 
z
M 3341 1997 
L 3341 0 
L 2766 0 
L 2766 531 
Q 2569 213 2275 61 
Q 1981 -91 1556 -91 
Q 1019 -91 701 211 
Q 384 513 384 1019 
Q 384 1609 779 1909 
Q 1175 2209 1959 2209 
L 2766 2209 
L 2766 2266 
Q 2766 2663 2505 2880 
Q 2244 3097 1772 3097 
Q 1472 3097 1187 3025 
Q 903 2953 641 2809 
L 641 3341 
Q 956 3463 1253 3523 
Q 1550 3584 1831 3584 
Q 2591 3584 2966 3190 
Q 3341 2797 3341 1997 
z
" transform="scale(0.015625)"/>
       <path id="DejaVuSans-69" d="M 603 3500 
L 1178 3500 
L 1178 0 
L 603 0 
L 603 3500 
z
M 603 4863 
L 1178 4863 
L 1178 4134 
L 603 4134 
L 603 4863 
z
" transform="scale(0.015625)"/>
       <path id="DejaVuSans-6e" d="M 3513 2113 
L 3513 0 
L 2938 0 
L 2938 2094 
Q 2938 2591 2744 2837 
Q 2550 3084 2163 3084 
Q 1697 3084 1428 2787 
Q 1159 2491 1159 1978 
L 1159 0 
L 581 0 
L 581 3500 
L 1159 3500 
L 1159 2956 
Q 1366 3272 1645 3428 
Q 1925 3584 2291 3584 
Q 2894 3584 3203 3211 
Q 3513 2838 3513 2113 
z
" transform="scale(0.015625)"/>
      </defs>
      <use xlink:href="#DejaVuSans-74"/>
      <use xlink:href="#DejaVuSans-72" x="39.208984"/>
      <use xlink:href="#DejaVuSans-61" x="80.322266"/>
      <use xlink:href="#DejaVuSans-69" x="141.601562"/>
      <use xlink:href="#DejaVuSans-6e" x="169.384766"/>
     </g>
    </g>
    <g id="line2d_19">
     <path d="M 353.768438 69.248562 
L 363.768438 69.248562 
L 373.768438 69.248562 
" style="fill: none; stroke: #ff7f0e; stroke-opacity: 0.5; stroke-width: 1.5; stroke-linecap: square"/>
    </g>
    <g id="text_17">
     <!-- valid -->
     <g transform="translate(381.768438 72.748562) scale(0.1 -0.1)">
      <defs>
       <path id="DejaVuSans-76" d="M 191 3500 
L 800 3500 
L 1894 563 
L 2988 3500 
L 3597 3500 
L 2284 0 
L 1503 0 
L 191 3500 
z
" transform="scale(0.015625)"/>
       <path id="DejaVuSans-6c" d="M 603 4863 
L 1178 4863 
L 1178 0 
L 603 0 
L 603 4863 
z
" transform="scale(0.015625)"/>
       <path id="DejaVuSans-64" d="M 2906 2969 
L 2906 4863 
L 3481 4863 
L 3481 0 
L 2906 0 
L 2906 525 
Q 2725 213 2448 61 
Q 2172 -91 1784 -91 
Q 1150 -91 751 415 
Q 353 922 353 1747 
Q 353 2572 751 3078 
Q 1150 3584 1784 3584 
Q 2172 3584 2448 3432 
Q 2725 3281 2906 2969 
z
M 947 1747 
Q 947 1113 1208 752 
Q 1469 391 1925 391 
Q 2381 391 2643 752 
Q 2906 1113 2906 1747 
Q 2906 2381 2643 2742 
Q 2381 3103 1925 3103 
Q 1469 3103 1208 2742 
Q 947 2381 947 1747 
z
" transform="scale(0.015625)"/>
      </defs>
      <use xlink:href="#DejaVuSans-76"/>
      <use xlink:href="#DejaVuSans-61" x="59.179688"/>
      <use xlink:href="#DejaVuSans-6c" x="120.458984"/>
      <use xlink:href="#DejaVuSans-69" x="148.242188"/>
      <use xlink:href="#DejaVuSans-64" x="176.025391"/>
     </g>
    </g>
   </g>
  </g>
 </g>
 <defs>
  <clipPath id="pf920a2bc6d">
   <rect x="57.6" y="41.472" width="357.12" height="266.112"/>
  </clipPath>
 </defs>
</svg>
