<?xml version="1.0" encoding="utf-8" standalone="no"?>
<!DOCTYPE svg PUBLIC "-//W3C//DTD SVG 1.1//EN"
  "http://www.w3.org/Graphics/SVG/1.1/DTD/svg11.dtd">
<svg xmlns:xlink="http://www.w3.org/1999/xlink" width="460.8pt" height="345.6pt" viewBox="0 0 460.8 345.6" xmlns="http://www.w3.org/2000/svg" version="1.1">
 <metadata>
  <rdf:RDF xmlns:dc="http://purl.org/dc/elements/1.1/" xmlns:cc="http://creativecommons.org/ns#" xmlns:rdf="http://www.w3.org/1999/02/22-rdf-syntax-ns#">
   <cc:Work>
    <dc:type rdf:resource="http://purl.org/dc/dcmitype/StillImage"/>
    <dc:date>2023-12-06T17:51:40.251424</dc:date>
    <dc:format>image/svg+xml</dc:format>
    <dc:creator>
     <cc:Agent>
      <dc:title>Matplotlib v3.7.3, https://matplotlib.org/</dc:title>
     </cc:Agent>
    </dc:creator>
   </cc:Work>
  </rdf:RDF>
 </metadata>
 <defs>
  <style type="text/css">*{stroke-linejoin: round; stroke-linecap: butt}</style>
 </defs>
 <g id="figure_1">
  <g id="patch_1">
   <path d="M 0 345.6 
L 460.8 345.6 
L 460.8 0 
L 0 0 
z
" style="fill: #ffffff"/>
  </g>
  <g id="axes_1">
   <g id="patch_2">
    <path d="M 57.6 307.584 
L 414.72 307.584 
L 414.72 41.472 
L 57.6 41.472 
z
" style="fill: #ffffff"/>
   </g>
   <g id="matplotlib.axis_1">
    <g id="xtick_1">
     <g id="line2d_1">
      <defs>
       <path id="m54b0be3a1e" d="M 0 0 
L 0 3.5 
" style="stroke: #000000; stroke-width: 0.8"/>
      </defs>
      <g>
       <use xlink:href="#m54b0be3a1e" x="73.832727" y="307.584" style="stroke: #000000; stroke-width: 0.8"/>
      </g>
     </g>
     <g id="text_1">
      <!-- 0 -->
      <g transform="translate(70.651477 322.182437) scale(0.1 -0.1)">
       <defs>
        <path id="DejaVuSans-30" d="M 2034 4250 
Q 1547 4250 1301 3770 
Q 1056 3291 1056 2328 
Q 1056 1369 1301 889 
Q 1547 409 2034 409 
Q 2525 409 2770 889 
Q 3016 1369 3016 2328 
Q 3016 3291 2770 3770 
Q 2525 4250 2034 4250 
z
M 2034 4750 
Q 2819 4750 3233 4129 
Q 3647 3509 3647 2328 
Q 3647 1150 3233 529 
Q 2819 -91 2034 -91 
Q 1250 -91 836 529 
Q 422 1150 422 2328 
Q 422 3509 836 4129 
Q 1250 4750 2034 4750 
z
" transform="scale(0.015625)"/>
       </defs>
       <use xlink:href="#DejaVuSans-30"/>
      </g>
     </g>
    </g>
    <g id="xtick_2">
     <g id="line2d_2">
      <g>
       <use xlink:href="#m54b0be3a1e" x="128.122785" y="307.584" style="stroke: #000000; stroke-width: 0.8"/>
      </g>
     </g>
     <g id="text_2">
      <!-- 50 -->
      <g transform="translate(121.760285 322.182437) scale(0.1 -0.1)">
       <defs>
        <path id="DejaVuSans-35" d="M 691 4666 
L 3169 4666 
L 3169 4134 
L 1269 4134 
L 1269 2991 
Q 1406 3038 1543 3061 
Q 1681 3084 1819 3084 
Q 2600 3084 3056 2656 
Q 3513 2228 3513 1497 
Q 3513 744 3044 326 
Q 2575 -91 1722 -91 
Q 1428 -91 1123 -41 
Q 819 9 494 109 
L 494 744 
Q 775 591 1075 516 
Q 1375 441 1709 441 
Q 2250 441 2565 725 
Q 2881 1009 2881 1497 
Q 2881 1984 2565 2268 
Q 2250 2553 1709 2553 
Q 1456 2553 1204 2497 
Q 953 2441 691 2322 
L 691 4666 
z
" transform="scale(0.015625)"/>
       </defs>
       <use xlink:href="#DejaVuSans-35"/>
       <use xlink:href="#DejaVuSans-30" x="63.623047"/>
      </g>
     </g>
    </g>
    <g id="xtick_3">
     <g id="line2d_3">
      <g>
       <use xlink:href="#m54b0be3a1e" x="182.412843" y="307.584" style="stroke: #000000; stroke-width: 0.8"/>
      </g>
     </g>
     <g id="text_3">
      <!-- 100 -->
      <g transform="translate(172.869093 322.182437) scale(0.1 -0.1)">
       <defs>
        <path id="DejaVuSans-31" d="M 794 531 
L 1825 531 
L 1825 4091 
L 703 3866 
L 703 4441 
L 1819 4666 
L 2450 4666 
L 2450 531 
L 3481 531 
L 3481 0 
L 794 0 
L 794 531 
z
" transform="scale(0.015625)"/>
       </defs>
       <use xlink:href="#DejaVuSans-31"/>
       <use xlink:href="#DejaVuSans-30" x="63.623047"/>
       <use xlink:href="#DejaVuSans-30" x="127.246094"/>
      </g>
     </g>
    </g>
    <g id="xtick_4">
     <g id="line2d_4">
      <g>
       <use xlink:href="#m54b0be3a1e" x="236.702901" y="307.584" style="stroke: #000000; stroke-width: 0.8"/>
      </g>
     </g>
     <g id="text_4">
      <!-- 150 -->
      <g transform="translate(227.159151 322.182437) scale(0.1 -0.1)">
       <use xlink:href="#DejaVuSans-31"/>
       <use xlink:href="#DejaVuSans-35" x="63.623047"/>
       <use xlink:href="#DejaVuSans-30" x="127.246094"/>
      </g>
     </g>
    </g>
    <g id="xtick_5">
     <g id="line2d_5">
      <g>
       <use xlink:href="#m54b0be3a1e" x="290.992958" y="307.584" style="stroke: #000000; stroke-width: 0.8"/>
      </g>
     </g>
     <g id="text_5">
      <!-- 200 -->
      <g transform="translate(281.449208 322.182437) scale(0.1 -0.1)">
       <defs>
        <path id="DejaVuSans-32" d="M 1228 531 
L 3431 531 
L 3431 0 
L 469 0 
L 469 531 
Q 828 903 1448 1529 
Q 2069 2156 2228 2338 
Q 2531 2678 2651 2914 
Q 2772 3150 2772 3378 
Q 2772 3750 2511 3984 
Q 2250 4219 1831 4219 
Q 1534 4219 1204 4116 
Q 875 4013 500 3803 
L 500 4441 
Q 881 4594 1212 4672 
Q 1544 4750 1819 4750 
Q 2544 4750 2975 4387 
Q 3406 4025 3406 3419 
Q 3406 3131 3298 2873 
Q 3191 2616 2906 2266 
Q 2828 2175 2409 1742 
Q 1991 1309 1228 531 
z
" transform="scale(0.015625)"/>
       </defs>
       <use xlink:href="#DejaVuSans-32"/>
       <use xlink:href="#DejaVuSans-30" x="63.623047"/>
       <use xlink:href="#DejaVuSans-30" x="127.246094"/>
      </g>
     </g>
    </g>
    <g id="xtick_6">
     <g id="line2d_6">
      <g>
       <use xlink:href="#m54b0be3a1e" x="345.283016" y="307.584" style="stroke: #000000; stroke-width: 0.8"/>
      </g>
     </g>
     <g id="text_6">
      <!-- 250 -->
      <g transform="translate(335.739266 322.182437) scale(0.1 -0.1)">
       <use xlink:href="#DejaVuSans-32"/>
       <use xlink:href="#DejaVuSans-35" x="63.623047"/>
       <use xlink:href="#DejaVuSans-30" x="127.246094"/>
      </g>
     </g>
    </g>
    <g id="xtick_7">
     <g id="line2d_7">
      <g>
       <use xlink:href="#m54b0be3a1e" x="399.573074" y="307.584" style="stroke: #000000; stroke-width: 0.8"/>
      </g>
     </g>
     <g id="text_7">
      <!-- 300 -->
      <g transform="translate(390.029324 322.182437) scale(0.1 -0.1)">
       <defs>
        <path id="DejaVuSans-33" d="M 2597 2516 
Q 3050 2419 3304 2112 
Q 3559 1806 3559 1356 
Q 3559 666 3084 287 
Q 2609 -91 1734 -91 
Q 1441 -91 1130 -33 
Q 819 25 488 141 
L 488 750 
Q 750 597 1062 519 
Q 1375 441 1716 441 
Q 2309 441 2620 675 
Q 2931 909 2931 1356 
Q 2931 1769 2642 2001 
Q 2353 2234 1838 2234 
L 1294 2234 
L 1294 2753 
L 1863 2753 
Q 2328 2753 2575 2939 
Q 2822 3125 2822 3475 
Q 2822 3834 2567 4026 
Q 2313 4219 1838 4219 
Q 1578 4219 1281 4162 
Q 984 4106 628 3988 
L 628 4550 
Q 988 4650 1302 4700 
Q 1616 4750 1894 4750 
Q 2613 4750 3031 4423 
Q 3450 4097 3450 3541 
Q 3450 3153 3228 2886 
Q 3006 2619 2597 2516 
z
" transform="scale(0.015625)"/>
       </defs>
       <use xlink:href="#DejaVuSans-33"/>
       <use xlink:href="#DejaVuSans-30" x="63.623047"/>
       <use xlink:href="#DejaVuSans-30" x="127.246094"/>
      </g>
     </g>
    </g>
   </g>
   <g id="matplotlib.axis_2">
    <g id="ytick_1">
     <g id="line2d_8">
      <defs>
       <path id="m4dbe9ec808" d="M 0 0 
L -3.5 0 
" style="stroke: #000000; stroke-width: 0.8"/>
      </defs>
      <g>
       <use xlink:href="#m4dbe9ec808" x="57.6" y="269.998336" style="stroke: #000000; stroke-width: 0.8"/>
      </g>
     </g>
     <g id="text_8">
      <!-- 500 -->
      <g transform="translate(31.5125 273.797554) scale(0.1 -0.1)">
       <use xlink:href="#DejaVuSans-35"/>
       <use xlink:href="#DejaVuSans-30" x="63.623047"/>
       <use xlink:href="#DejaVuSans-30" x="127.246094"/>
      </g>
     </g>
    </g>
    <g id="ytick_2">
     <g id="line2d_9">
      <g>
       <use xlink:href="#m4dbe9ec808" x="57.6" y="216.980933" style="stroke: #000000; stroke-width: 0.8"/>
      </g>
     </g>
     <g id="text_9">
      <!-- 1000 -->
      <g transform="translate(25.15 220.780151) scale(0.1 -0.1)">
       <use xlink:href="#DejaVuSans-31"/>
       <use xlink:href="#DejaVuSans-30" x="63.623047"/>
       <use xlink:href="#DejaVuSans-30" x="127.246094"/>
       <use xlink:href="#DejaVuSans-30" x="190.869141"/>
      </g>
     </g>
    </g>
    <g id="ytick_3">
     <g id="line2d_10">
      <g>
       <use xlink:href="#m4dbe9ec808" x="57.6" y="163.963529" style="stroke: #000000; stroke-width: 0.8"/>
      </g>
     </g>
     <g id="text_10">
      <!-- 1500 -->
      <g transform="translate(25.15 167.762748) scale(0.1 -0.1)">
       <use xlink:href="#DejaVuSans-31"/>
       <use xlink:href="#DejaVuSans-35" x="63.623047"/>
       <use xlink:href="#DejaVuSans-30" x="127.246094"/>
       <use xlink:href="#DejaVuSans-30" x="190.869141"/>
      </g>
     </g>
    </g>
    <g id="ytick_4">
     <g id="line2d_11">
      <g>
       <use xlink:href="#m4dbe9ec808" x="57.6" y="110.946126" style="stroke: #000000; stroke-width: 0.8"/>
      </g>
     </g>
     <g id="text_11">
      <!-- 2000 -->
      <g transform="translate(25.15 114.745345) scale(0.1 -0.1)">
       <use xlink:href="#DejaVuSans-32"/>
       <use xlink:href="#DejaVuSans-30" x="63.623047"/>
       <use xlink:href="#DejaVuSans-30" x="127.246094"/>
       <use xlink:href="#DejaVuSans-30" x="190.869141"/>
      </g>
     </g>
    </g>
    <g id="ytick_5">
     <g id="line2d_12">
      <g>
       <use xlink:href="#m4dbe9ec808" x="57.6" y="57.928723" style="stroke: #000000; stroke-width: 0.8"/>
      </g>
     </g>
     <g id="text_12">
      <!-- 2500 -->
      <g transform="translate(25.15 61.727942) scale(0.1 -0.1)">
       <use xlink:href="#DejaVuSans-32"/>
       <use xlink:href="#DejaVuSans-35" x="63.623047"/>
       <use xlink:href="#DejaVuSans-30" x="127.246094"/>
       <use xlink:href="#DejaVuSans-30" x="190.869141"/>
      </g>
     </g>
    </g>
   </g>
   <g id="line2d_13">
    <path d="M 73.832727 53.568 
L 74.918528 212.731579 
L 76.00433 188.658014 
L 77.090131 189.827063 
L 78.175932 221.041515 
L 79.261733 222.152583 
L 80.347534 220.566027 
L 81.433335 220.934706 
L 82.519137 225.930446 
L 83.604938 225.992584 
L 84.690739 223.7138 
L 85.77654 228.68168 
L 86.862341 229.87133 
L 87.948142 226.342523 
L 89.033943 225.178624 
L 90.119745 223.8114 
L 91.205546 223.577753 
L 92.291347 233.223307 
L 93.377148 207.450242 
L 94.462949 234.421197 
L 95.54875 230.814306 
L 96.634552 220.626246 
L 97.720353 227.861628 
L 98.806154 217.314633 
L 99.891955 217.547875 
L 100.977756 201.074328 
L 102.063557 190.970227 
L 103.149358 218.248726 
L 104.23516 232.73308 
L 105.320961 219.974571 
L 106.406762 238.975973 
L 107.492563 226.685607 
L 108.578364 212.705628 
L 109.664165 223.228536 
L 110.749967 240.246242 
L 111.835768 240.654364 
L 112.921569 231.837728 
L 114.00737 241.148279 
L 115.093171 225.835034 
L 116.178972 242.881453 
L 117.264773 220.863365 
L 118.350575 241.679464 
L 119.436376 220.760615 
L 120.522177 242.046425 
L 121.607978 232.975503 
L 122.693779 215.061539 
L 123.77958 233.077338 
L 124.865382 201.394167 
L 125.951183 190.700058 
L 127.036984 224.678457 
L 128.122785 218.369154 
L 129.208586 221.681451 
L 130.294387 249.786331 
L 131.380189 238.07275 
L 132.46599 247.936912 
L 133.551791 247.805457 
L 134.637592 247.560047 
L 135.723393 250.160631 
L 136.809194 241.231566 
L 137.894995 248.54612 
L 138.980797 247.93774 
L 140.066598 236.528683 
L 141.152399 248.050373 
L 142.2382 250.576314 
L 143.324001 243.556194 
L 144.409802 246.033312 
L 145.495604 247.392194 
L 146.581405 250.187075 
L 147.667206 234.113469 
L 148.753007 246.300019 
L 149.838808 223.283324 
L 150.924609 211.706697 
L 152.01041 232.172342 
L 153.096212 234.373704 
L 154.182013 248.778086 
L 155.267814 255.588704 
L 156.353615 246.316437 
L 157.439416 254.998743 
L 158.525217 245.648018 
L 159.611019 256.733526 
L 160.69682 237.084882 
L 161.782621 249.503309 
L 162.868422 257.803957 
L 163.954223 257.94367 
L 165.040024 250.630979 
L 166.125825 258.384953 
L 167.211627 259.047876 
L 168.297428 252.126527 
L 169.383229 241.2039 
L 170.46903 260.023403 
L 171.554831 259.672966 
L 172.640632 260.43112 
L 173.726434 252.037772 
L 174.812235 259.610356 
L 175.898036 256.421812 
L 176.983837 244.914267 
L 178.069638 247.138278 
L 180.24124 226.806661 
L 181.327042 227.375786 
L 182.412843 254.453319 
L 183.498644 251.179198 
L 184.584445 258.07279 
L 185.670246 263.756707 
L 186.756047 260.842976 
L 187.841849 262.983228 
L 188.92765 256.07562 
L 190.013451 258.086338 
L 191.099252 264.469533 
L 192.185053 247.189294 
L 193.270854 264.889098 
L 194.356656 258.368439 
L 195.442457 262.604522 
L 196.528258 254.712087 
L 197.614059 257.483566 
L 198.69986 264.474361 
L 199.785661 265.735877 
L 200.871462 257.75005 
L 201.957264 262.20966 
L 203.043065 261.426702 
L 204.128866 253.214075 
L 205.214667 258.966558 
L 206.300468 236.865312 
L 207.386269 232.223622 
L 208.472071 221.320565 
L 209.557872 254.464879 
L 210.643673 261.077979 
L 211.729474 266.515288 
L 212.815275 266.87652 
L 213.901076 260.396775 
L 214.986877 268.024781 
L 216.072679 265.130459 
L 217.15848 268.916219 
L 218.244281 263.961488 
L 219.330082 253.262013 
L 220.415883 267.929668 
L 221.501684 269.502612 
L 222.587486 265.030424 
L 223.673287 262.649246 
L 224.759088 268.143468 
L 225.844889 263.745048 
L 226.93069 265.77551 
L 228.016491 269.492384 
L 229.102292 255.63688 
L 230.188094 265.915659 
L 231.273895 249.340221 
L 232.359696 247.370138 
L 233.445497 264.900907 
L 234.531298 248.203608 
L 235.617099 262.934488 
L 236.702901 220.89794 
L 237.788702 193.939769 
L 238.874503 258.886004 
L 239.960304 266.604418 
L 241.046105 272.984454 
L 243.217708 273.924983 
L 244.303509 271.536148 
L 245.38931 271.958416 
L 246.475111 266.728338 
L 247.560912 271.50125 
L 248.646713 272.134873 
L 249.732514 270.134057 
L 250.818316 274.109212 
L 251.904117 273.730521 
L 252.989918 273.21876 
L 254.075719 255.195703 
L 255.16152 273.656829 
L 256.247321 258.46739 
L 257.333123 275.156135 
L 258.418924 274.885899 
L 259.504725 275.976858 
L 260.590526 261.127429 
L 261.676327 271.311389 
L 262.762128 276.506621 
L 263.847929 253.11423 
L 264.933731 254.6711 
L 266.019532 221.235851 
L 267.105333 248.490819 
L 268.191134 256.502563 
L 269.276935 253.952957 
L 270.362736 271.570161 
L 271.448538 272.33647 
L 272.534339 277.705516 
L 273.62014 261.31579 
L 274.705941 273.944232 
L 275.791742 278.475328 
L 276.877543 277.029712 
L 277.963344 278.279054 
L 279.049146 277.934031 
L 280.134947 277.787785 
L 281.220748 267.396263 
L 282.306549 274.703764 
L 283.39235 275.81663 
L 284.478151 276.135333 
L 285.563953 269.442356 
L 286.649754 279.650553 
L 287.735555 273.656377 
L 288.821356 274.613722 
L 289.907157 279.22705 
L 290.992958 262.470348 
L 292.07876 277.600539 
L 293.164561 277.23849 
L 294.250362 268.007969 
L 295.336163 276.974464 
L 296.421964 280.458203 
L 297.507765 278.769683 
L 298.593566 278.716189 
L 300.765169 273.421506 
L 301.85097 276.279347 
L 304.022572 271.938005 
L 305.108373 283.858153 
L 306.194175 281.350677 
L 307.279976 277.466752 
L 308.365777 274.452871 
L 309.451578 280.41665 
L 310.537379 268.256738 
L 311.62318 278.72213 
L 312.708981 275.839956 
L 313.794783 280.364733 
L 314.880584 277.432674 
L 315.966385 281.711938 
L 317.052186 278.54753 
L 318.137987 279.053947 
L 319.223788 283.542677 
L 320.30959 281.058731 
L 321.395391 267.59799 
L 322.481192 273.400111 
L 323.566993 271.461185 
L 324.652794 272.918074 
L 325.738595 265.649409 
L 326.824396 282.187861 
L 327.910198 286.455503 
L 328.995999 283.653576 
L 330.0818 283.311002 
L 331.167601 284.945377 
L 332.253402 269.650595 
L 333.339203 281.144712 
L 334.425005 281.51202 
L 335.510806 283.984935 
L 336.596607 269.90356 
L 337.682408 268.732001 
L 338.768209 277.478647 
L 339.85401 274.726365 
L 340.939811 269.591094 
L 342.025613 282.913242 
L 343.111414 283.715183 
L 344.197215 283.620114 
L 345.283016 287.620134 
L 346.368817 288.261647 
L 347.454618 273.486053 
L 348.54042 278.124168 
L 349.626221 287.396582 
L 350.712022 259.030849 
L 351.797823 266.36305 
L 352.883624 281.293076 
L 353.969425 272.659331 
L 355.055227 268.98625 
L 356.141028 269.092384 
L 357.226829 280.246207 
L 358.31263 285.106802 
L 359.398431 279.175904 
L 360.484232 289.81626 
L 361.570033 287.738808 
L 362.655835 273.730497 
L 363.741636 287.41724 
L 364.827437 289.438869 
L 365.913238 288.684758 
L 366.999039 285.097887 
L 368.08484 284.826426 
L 369.170642 284.411909 
L 370.256443 283.402468 
L 371.342244 283.715015 
L 372.428045 275.131232 
L 373.513846 273.064208 
L 374.599647 280.949978 
L 375.685448 283.812455 
L 376.77125 273.193403 
L 377.857051 285.862891 
L 378.942852 286.557247 
L 380.028653 288.917782 
L 381.114454 286.676564 
L 382.200255 289.073423 
L 383.286057 276.072845 
L 384.371858 285.233009 
L 385.457659 284.448828 
L 386.54346 286.278642 
L 387.629261 288.549623 
L 388.715062 284.618967 
L 389.800863 282.855045 
L 390.886665 288.684718 
L 391.972466 286.306335 
L 393.058267 290.024669 
L 394.144068 286.87349 
L 395.229869 291.044408 
L 396.31567 289.621188 
L 397.401472 284.853228 
L 398.487273 290.047734 
L 398.487273 290.047734 
" clip-path="url(#pdc3e3b20b6)" style="fill: none; stroke: #1f77b4; stroke-width: 1.5; stroke-linecap: square"/>
   </g>
   <g id="line2d_14">
    <path d="M 73.832727 182.967956 
L 74.918528 268.404541 
L 76.00433 263.616581 
L 78.175932 265.396824 
L 79.261733 267.801951 
L 80.347534 267.573328 
L 81.433335 268.193039 
L 82.519137 270.124182 
L 83.604938 270.400833 
L 84.690739 271.384892 
L 85.77654 273.764306 
L 86.862341 274.629331 
L 87.948142 272.588924 
L 89.033943 279.245658 
L 90.119745 274.648357 
L 91.205546 280.541187 
L 92.291347 273.888313 
L 93.377148 282.327162 
L 94.462949 270.797606 
L 95.54875 278.115603 
L 96.634552 249.927035 
L 97.720353 267.100758 
L 98.806154 203.095123 
L 99.891955 222.996735 
L 100.977756 137.056609 
L 102.063557 208.904259 
L 103.149358 192.234451 
L 104.23516 267.288504 
L 105.320961 258.811207 
L 106.406762 284.69582 
L 107.492563 281.283003 
L 108.578364 285.386705 
L 110.749967 283.628791 
L 111.835768 285.033694 
L 112.921569 282.217562 
L 114.00737 284.766882 
L 115.093171 275.866356 
L 116.178972 285.337749 
L 117.264773 281.250668 
L 118.350575 284.70737 
L 119.436376 276.713282 
L 120.522177 281.367553 
L 121.607978 251.487903 
L 122.693779 264.132895 
L 123.77958 216.01141 
L 124.865382 204.047412 
L 125.951183 107.756915 
L 127.036984 183.688175 
L 128.122785 189.734692 
L 129.208586 264.466892 
L 130.294387 266.877226 
L 131.380189 285.728785 
L 132.46599 280.964369 
L 133.551791 285.706137 
L 134.637592 283.815902 
L 135.723393 283.520281 
L 136.809194 284.636245 
L 137.894995 285.19375 
L 138.980797 284.324835 
L 140.066598 285.230029 
L 141.152399 284.867075 
L 142.2382 284.835091 
L 143.324001 283.135423 
L 144.409802 284.959796 
L 145.495604 275.13488 
L 146.581405 278.662517 
L 147.667206 250.766166 
L 148.753007 245.27976 
L 149.838808 182.47976 
L 150.924609 170.654215 
L 152.01041 114.457869 
L 153.096212 197.176771 
L 154.182013 207.972019 
L 155.267814 274.324004 
L 156.353615 269.092137 
L 157.439416 285.096043 
L 158.525217 282.628991 
L 159.611019 285.34866 
L 161.782621 284.119437 
L 162.868422 283.995431 
L 163.954223 285.584802 
L 165.040024 284.79056 
L 166.125825 285.193721 
L 167.211627 285.218215 
L 168.297428 285.392776 
L 169.383229 281.63788 
L 170.46903 285.092285 
L 171.554831 277.406955 
L 172.640632 282.701649 
L 173.726434 270.829256 
L 174.812235 275.399181 
L 175.898036 248.449644 
L 176.983837 263.729367 
L 178.069638 209.630107 
L 179.155439 185.221249 
L 180.24124 139.767615 
L 181.327042 183.788864 
L 182.412843 194.798948 
L 183.498644 268.718669 
L 184.584445 269.07633 
L 185.670246 284.683076 
L 186.756047 281.121467 
L 187.841849 285.545177 
L 188.92765 280.078959 
L 190.013451 285.875603 
L 191.099252 284.509898 
L 193.270854 285.556607 
L 194.356656 285.523406 
L 195.442457 283.885693 
L 196.528258 286.004135 
L 197.614059 281.969511 
L 198.69986 284.694351 
L 199.785661 277.385348 
L 200.871462 283.923097 
L 201.957264 274.091202 
L 203.043065 270.42655 
L 204.128866 235.743207 
L 205.214667 229.528367 
L 206.300468 162.941566 
L 207.386269 183.228148 
L 208.472071 135.711072 
L 209.557872 227.211879 
L 210.643673 247.657393 
L 211.729474 280.488196 
L 212.815275 278.566089 
L 213.901076 285.221159 
L 214.986877 282.765118 
L 216.072679 285.958323 
L 217.15848 284.821928 
L 218.244281 286.202249 
L 219.330082 283.726139 
L 220.415883 286.107954 
L 221.501684 284.143949 
L 222.587486 286.311993 
L 223.673287 280.532516 
L 224.759088 285.735892 
L 225.844889 276.329736 
L 226.93069 280.241808 
L 228.016491 272.756169 
L 229.102292 279.959766 
L 230.188094 269.362877 
L 231.273895 265.657037 
L 232.359696 233.417463 
L 233.445497 246.841025 
L 234.531298 210.9811 
L 235.617099 216.861288 
L 236.702901 57.233608 
L 237.788702 89.352605 
L 238.874503 187.297672 
L 239.960304 270.027941 
L 241.046105 279.61587 
L 242.131906 285.369225 
L 243.217708 284.851536 
L 244.303509 285.780881 
L 245.38931 285.5336 
L 246.475111 286.444573 
L 247.560912 286.27275 
L 248.646713 287.315328 
L 249.732514 286.964495 
L 250.818316 288.499995 
L 251.904117 285.455204 
L 252.989918 288.377578 
L 254.075719 286.133247 
L 255.16152 288.610974 
L 256.247321 288.756391 
L 258.418924 287.491999 
L 259.504725 283.425998 
L 260.590526 285.605534 
L 261.676327 277.47594 
L 262.762128 275.37887 
L 263.847929 230.584647 
L 264.933731 210.154872 
L 266.019532 137.287103 
L 267.105333 154.043857 
L 268.191134 180.277001 
L 269.276935 236.243213 
L 270.362736 254.608636 
L 271.448538 281.530636 
L 272.534339 277.053007 
L 273.62014 285.350734 
L 274.705941 286.325474 
L 275.791742 287.6011 
L 276.877543 282.067155 
L 277.963344 286.133411 
L 279.049146 281.698534 
L 280.134947 280.990176 
L 281.220748 275.724629 
L 282.306549 273.050272 
L 283.39235 269.991108 
L 284.478151 273.524299 
L 285.563953 264.857314 
L 286.649754 276.552766 
L 287.735555 267.423196 
L 288.821356 271.509438 
L 289.907157 269.153199 
L 290.992958 274.709248 
L 293.164561 267.841634 
L 294.250362 266.929154 
L 295.336163 270.272829 
L 296.421964 264.509779 
L 297.507765 261.922483 
L 298.593566 258.791834 
L 299.679368 254.294376 
L 300.765169 239.839953 
L 301.85097 251.653065 
L 302.936771 258.750194 
L 304.022572 272.632274 
L 305.108373 277.50238 
L 306.194175 281.37531 
L 307.279976 281.255441 
L 308.365777 284.177207 
L 309.451578 279.941648 
L 310.537379 281.245607 
L 311.62318 271.985071 
L 312.708981 261.196395 
L 313.794783 265.510806 
L 314.880584 275.718603 
L 315.966385 272.232711 
L 317.052186 274.081935 
L 318.137987 273.890114 
L 319.223788 271.404698 
L 320.30959 237.911756 
L 321.395391 235.240493 
L 322.481192 242.339305 
L 323.566993 264.841909 
L 324.652794 264.478135 
L 325.738595 277.473287 
L 326.824396 278.97267 
L 327.910198 285.326894 
L 328.995999 284.485168 
L 330.0818 284.708359 
L 331.167601 281.667304 
L 332.253402 283.497314 
L 333.339203 279.76593 
L 334.425005 279.399837 
L 335.510806 255.325999 
L 336.596607 254.324697 
L 337.682408 229.804436 
L 338.768209 247.12222 
L 339.85401 239.491318 
L 340.939811 272.445339 
L 342.025613 270.29374 
L 343.111414 283.451184 
L 344.197215 282.863142 
L 345.283016 291.366389 
L 346.368817 287.410569 
L 347.454618 288.31421 
L 348.54042 284.17442 
L 349.626221 286.132419 
L 350.712022 275.871438 
L 351.797823 274.975327 
L 352.883624 254.559894 
L 353.969425 269.587081 
L 355.055227 247.565978 
L 356.141028 266.786258 
L 357.226829 255.142396 
L 358.31263 275.841394 
L 359.398431 276.588065 
L 360.484232 290.262463 
L 361.570033 285.028242 
L 362.655835 289.944202 
L 363.741636 278.883609 
L 364.827437 291.679299 
L 365.913238 284.546063 
L 366.999039 287.100111 
L 368.08484 275.521489 
L 369.170642 287.072804 
L 370.256443 263.683484 
L 371.342244 271.602874 
L 372.428045 241.96883 
L 373.513846 251.177843 
L 374.599647 238.27362 
L 375.685448 260.048194 
L 376.77125 256.604639 
L 377.857051 288.530106 
L 378.942852 285.615418 
L 380.028653 295.488 
L 381.114454 290.409395 
L 382.200255 276.782588 
L 383.286057 254.796142 
L 384.371858 275.679168 
L 385.457659 265.193622 
L 386.54346 281.028213 
L 387.629261 277.114602 
L 388.715062 277.196651 
L 389.800863 263.999907 
L 390.886665 280.122799 
L 391.972466 272.757923 
L 393.058267 284.792887 
L 394.144068 275.435043 
L 395.229869 286.060706 
L 396.31567 279.721154 
L 397.401472 291.670385 
L 398.487273 286.683384 
L 398.487273 286.683384 
" clip-path="url(#pdc3e3b20b6)" style="fill: none; stroke: #ff7f0e; stroke-opacity: 0.5; stroke-width: 1.5; stroke-linecap: square"/>
   </g>
   <g id="patch_3">
    <path d="M 57.6 307.584 
L 57.6 41.472 
" style="fill: none; stroke: #000000; stroke-width: 0.8; stroke-linejoin: miter; stroke-linecap: square"/>
   </g>
   <g id="patch_4">
    <path d="M 414.72 307.584 
L 414.72 41.472 
" style="fill: none; stroke: #000000; stroke-width: 0.8; stroke-linejoin: miter; stroke-linecap: square"/>
   </g>
   <g id="patch_5">
    <path d="M 57.6 307.584 
L 414.72 307.584 
" style="fill: none; stroke: #000000; stroke-width: 0.8; stroke-linejoin: miter; stroke-linecap: square"/>
   </g>
   <g id="patch_6">
    <path d="M 57.6 41.472 
L 414.72 41.472 
" style="fill: none; stroke: #000000; stroke-width: 0.8; stroke-linejoin: miter; stroke-linecap: square"/>
   </g>
   <g id="legend_1">
    <g id="patch_7">
     <path d="M 351.768438 78.82825 
L 407.72 78.82825 
Q 409.72 78.82825 409.72 76.82825 
L 409.72 48.472 
Q 409.72 46.472 407.72 46.472 
L 351.768438 46.472 
Q 349.768438 46.472 349.768438 48.472 
L 349.768438 76.82825 
Q 349.768438 78.82825 351.768438 78.82825 
z
" style="fill: #ffffff; opacity: 0.8; stroke: #cccccc; stroke-linejoin: miter"/>
    </g>
    <g id="line2d_15">
     <path d="M 353.768438 54.570437 
L 363.768438 54.570437 
L 373.768438 54.570437 
" style="fill: none; stroke: #1f77b4; stroke-width: 1.5; stroke-linecap: square"/>
    </g>
    <g id="text_13">
     <!-- train -->
     <g transform="translate(381.768438 58.070437) scale(0.1 -0.1)">
      <defs>
       <path id="DejaVuSans-74" d="M 1172 4494 
L 1172 3500 
L 2356 3500 
L 2356 3053 
L 1172 3053 
L 1172 1153 
Q 1172 725 1289 603 
Q 1406 481 1766 481 
L 2356 481 
L 2356 0 
L 1766 0 
Q 1100 0 847 248 
Q 594 497 594 1153 
L 594 3053 
L 172 3053 
L 172 3500 
L 594 3500 
L 594 4494 
L 1172 4494 
z
" transform="scale(0.015625)"/>
       <path id="DejaVuSans-72" d="M 2631 2963 
Q 2534 3019 2420 3045 
Q 2306 3072 2169 3072 
Q 1681 3072 1420 2755 
Q 1159 2438 1159 1844 
L 1159 0 
L 581 0 
L 581 3500 
L 1159 3500 
L 1159 2956 
Q 1341 3275 1631 3429 
Q 1922 3584 2338 3584 
Q 2397 3584 2469 3576 
Q 2541 3569 2628 3553 
L 2631 2963 
z
" transform="scale(0.015625)"/>
       <path id="DejaVuSans-61" d="M 2194 1759 
Q 1497 1759 1228 1600 
Q 959 1441 959 1056 
Q 959 750 1161 570 
Q 1363 391 1709 391 
Q 2188 391 2477 730 
Q 2766 1069 2766 1631 
L 2766 1759 
L 2194 1759 
z
M 3341 1997 
L 3341 0 
L 2766 0 
L 2766 531 
Q 2569 213 2275 61 
Q 1981 -91 1556 -91 
Q 1019 -91 701 211 
Q 384 513 384 1019 
Q 384 1609 779 1909 
Q 1175 2209 1959 2209 
L 2766 2209 
L 2766 2266 
Q 2766 2663 2505 2880 
Q 2244 3097 1772 3097 
Q 1472 3097 1187 3025 
Q 903 2953 641 2809 
L 641 3341 
Q 956 3463 1253 3523 
Q 1550 3584 1831 3584 
Q 2591 3584 2966 3190 
Q 3341 2797 3341 1997 
z
" transform="scale(0.015625)"/>
       <path id="DejaVuSans-69" d="M 603 3500 
L 1178 3500 
L 1178 0 
L 603 0 
L 603 3500 
z
M 603 4863 
L 1178 4863 
L 1178 4134 
L 603 4134 
L 603 4863 
z
" transform="scale(0.015625)"/>
       <path id="DejaVuSans-6e" d="M 3513 2113 
L 3513 0 
L 2938 0 
L 2938 2094 
Q 2938 2591 2744 2837 
Q 2550 3084 2163 3084 
Q 1697 3084 1428 2787 
Q 1159 2491 1159 1978 
L 1159 0 
L 581 0 
L 581 3500 
L 1159 3500 
L 1159 2956 
Q 1366 3272 1645 3428 
Q 1925 3584 2291 3584 
Q 2894 3584 3203 3211 
Q 3513 2838 3513 2113 
z
" transform="scale(0.015625)"/>
      </defs>
      <use xlink:href="#DejaVuSans-74"/>
      <use xlink:href="#DejaVuSans-72" x="39.208984"/>
      <use xlink:href="#DejaVuSans-61" x="80.322266"/>
      <use xlink:href="#DejaVuSans-69" x="141.601562"/>
      <use xlink:href="#DejaVuSans-6e" x="169.384766"/>
     </g>
    </g>
    <g id="line2d_16">
     <path d="M 353.768438 69.248562 
L 363.768438 69.248562 
L 373.768438 69.248562 
" style="fill: none; stroke: #ff7f0e; stroke-opacity: 0.5; stroke-width: 1.5; stroke-linecap: square"/>
    </g>
    <g id="text_14">
     <!-- valid -->
     <g transform="translate(381.768438 72.748562) scale(0.1 -0.1)">
      <defs>
       <path id="DejaVuSans-76" d="M 191 3500 
L 800 3500 
L 1894 563 
L 2988 3500 
L 3597 3500 
L 2284 0 
L 1503 0 
L 191 3500 
z
" transform="scale(0.015625)"/>
       <path id="DejaVuSans-6c" d="M 603 4863 
L 1178 4863 
L 1178 0 
L 603 0 
L 603 4863 
z
" transform="scale(0.015625)"/>
       <path id="DejaVuSans-64" d="M 2906 2969 
L 2906 4863 
L 3481 4863 
L 3481 0 
L 2906 0 
L 2906 525 
Q 2725 213 2448 61 
Q 2172 -91 1784 -91 
Q 1150 -91 751 415 
Q 353 922 353 1747 
Q 353 2572 751 3078 
Q 1150 3584 1784 3584 
Q 2172 3584 2448 3432 
Q 2725 3281 2906 2969 
z
M 947 1747 
Q 947 1113 1208 752 
Q 1469 391 1925 391 
Q 2381 391 2643 752 
Q 2906 1113 2906 1747 
Q 2906 2381 2643 2742 
Q 2381 3103 1925 3103 
Q 1469 3103 1208 2742 
Q 947 2381 947 1747 
z
" transform="scale(0.015625)"/>
      </defs>
      <use xlink:href="#DejaVuSans-76"/>
      <use xlink:href="#DejaVuSans-61" x="59.179688"/>
      <use xlink:href="#DejaVuSans-6c" x="120.458984"/>
      <use xlink:href="#DejaVuSans-69" x="148.242188"/>
      <use xlink:href="#DejaVuSans-64" x="176.025391"/>
     </g>
    </g>
   </g>
  </g>
 </g>
 <defs>
  <clipPath id="pdc3e3b20b6">
   <rect x="57.6" y="41.472" width="357.12" height="266.112"/>
  </clipPath>
 </defs>
</svg>
