<?xml version="1.0" encoding="utf-8" standalone="no"?>
<!DOCTYPE svg PUBLIC "-//W3C//DTD SVG 1.1//EN"
  "http://www.w3.org/Graphics/SVG/1.1/DTD/svg11.dtd">
<svg xmlns:xlink="http://www.w3.org/1999/xlink" width="460.8pt" height="345.6pt" viewBox="0 0 460.8 345.6" xmlns="http://www.w3.org/2000/svg" version="1.1">
 <metadata>
  <rdf:RDF xmlns:dc="http://purl.org/dc/elements/1.1/" xmlns:cc="http://creativecommons.org/ns#" xmlns:rdf="http://www.w3.org/1999/02/22-rdf-syntax-ns#">
   <cc:Work>
    <dc:type rdf:resource="http://purl.org/dc/dcmitype/StillImage"/>
    <dc:date>2023-12-04T10:21:40.620065</dc:date>
    <dc:format>image/svg+xml</dc:format>
    <dc:creator>
     <cc:Agent>
      <dc:title>Matplotlib v3.7.3, https://matplotlib.org/</dc:title>
     </cc:Agent>
    </dc:creator>
   </cc:Work>
  </rdf:RDF>
 </metadata>
 <defs>
  <style type="text/css">*{stroke-linejoin: round; stroke-linecap: butt}</style>
 </defs>
 <g id="figure_1">
  <g id="patch_1">
   <path d="M 0 345.6 
L 460.8 345.6 
L 460.8 0 
L 0 0 
z
" style="fill: #ffffff"/>
  </g>
  <g id="axes_1">
   <g id="patch_2">
    <path d="M 57.6 307.584 
L 414.72 307.584 
L 414.72 41.472 
L 57.6 41.472 
z
" style="fill: #ffffff"/>
   </g>
   <g id="matplotlib.axis_1">
    <g id="xtick_1">
     <g id="line2d_1">
      <defs>
       <path id="mbdef6ecdd2" d="M 0 0 
L 0 3.5 
" style="stroke: #000000; stroke-width: 0.8"/>
      </defs>
      <g>
       <use xlink:href="#mbdef6ecdd2" x="73.832727" y="307.584" style="stroke: #000000; stroke-width: 0.8"/>
      </g>
     </g>
     <g id="text_1">
      <!-- 0 -->
      <g transform="translate(70.651477 322.182437) scale(0.1 -0.1)">
       <defs>
        <path id="DejaVuSans-30" d="M 2034 4250 
Q 1547 4250 1301 3770 
Q 1056 3291 1056 2328 
Q 1056 1369 1301 889 
Q 1547 409 2034 409 
Q 2525 409 2770 889 
Q 3016 1369 3016 2328 
Q 3016 3291 2770 3770 
Q 2525 4250 2034 4250 
z
M 2034 4750 
Q 2819 4750 3233 4129 
Q 3647 3509 3647 2328 
Q 3647 1150 3233 529 
Q 2819 -91 2034 -91 
Q 1250 -91 836 529 
Q 422 1150 422 2328 
Q 422 3509 836 4129 
Q 1250 4750 2034 4750 
z
" transform="scale(0.015625)"/>
       </defs>
       <use xlink:href="#DejaVuSans-30"/>
      </g>
     </g>
    </g>
    <g id="xtick_2">
     <g id="line2d_2">
      <g>
       <use xlink:href="#mbdef6ecdd2" x="128.122785" y="307.584" style="stroke: #000000; stroke-width: 0.8"/>
      </g>
     </g>
     <g id="text_2">
      <!-- 50 -->
      <g transform="translate(121.760285 322.182437) scale(0.1 -0.1)">
       <defs>
        <path id="DejaVuSans-35" d="M 691 4666 
L 3169 4666 
L 3169 4134 
L 1269 4134 
L 1269 2991 
Q 1406 3038 1543 3061 
Q 1681 3084 1819 3084 
Q 2600 3084 3056 2656 
Q 3513 2228 3513 1497 
Q 3513 744 3044 326 
Q 2575 -91 1722 -91 
Q 1428 -91 1123 -41 
Q 819 9 494 109 
L 494 744 
Q 775 591 1075 516 
Q 1375 441 1709 441 
Q 2250 441 2565 725 
Q 2881 1009 2881 1497 
Q 2881 1984 2565 2268 
Q 2250 2553 1709 2553 
Q 1456 2553 1204 2497 
Q 953 2441 691 2322 
L 691 4666 
z
" transform="scale(0.015625)"/>
       </defs>
       <use xlink:href="#DejaVuSans-35"/>
       <use xlink:href="#DejaVuSans-30" x="63.623047"/>
      </g>
     </g>
    </g>
    <g id="xtick_3">
     <g id="line2d_3">
      <g>
       <use xlink:href="#mbdef6ecdd2" x="182.412843" y="307.584" style="stroke: #000000; stroke-width: 0.8"/>
      </g>
     </g>
     <g id="text_3">
      <!-- 100 -->
      <g transform="translate(172.869093 322.182437) scale(0.1 -0.1)">
       <defs>
        <path id="DejaVuSans-31" d="M 794 531 
L 1825 531 
L 1825 4091 
L 703 3866 
L 703 4441 
L 1819 4666 
L 2450 4666 
L 2450 531 
L 3481 531 
L 3481 0 
L 794 0 
L 794 531 
z
" transform="scale(0.015625)"/>
       </defs>
       <use xlink:href="#DejaVuSans-31"/>
       <use xlink:href="#DejaVuSans-30" x="63.623047"/>
       <use xlink:href="#DejaVuSans-30" x="127.246094"/>
      </g>
     </g>
    </g>
    <g id="xtick_4">
     <g id="line2d_4">
      <g>
       <use xlink:href="#mbdef6ecdd2" x="236.702901" y="307.584" style="stroke: #000000; stroke-width: 0.8"/>
      </g>
     </g>
     <g id="text_4">
      <!-- 150 -->
      <g transform="translate(227.159151 322.182437) scale(0.1 -0.1)">
       <use xlink:href="#DejaVuSans-31"/>
       <use xlink:href="#DejaVuSans-35" x="63.623047"/>
       <use xlink:href="#DejaVuSans-30" x="127.246094"/>
      </g>
     </g>
    </g>
    <g id="xtick_5">
     <g id="line2d_5">
      <g>
       <use xlink:href="#mbdef6ecdd2" x="290.992958" y="307.584" style="stroke: #000000; stroke-width: 0.8"/>
      </g>
     </g>
     <g id="text_5">
      <!-- 200 -->
      <g transform="translate(281.449208 322.182437) scale(0.1 -0.1)">
       <defs>
        <path id="DejaVuSans-32" d="M 1228 531 
L 3431 531 
L 3431 0 
L 469 0 
L 469 531 
Q 828 903 1448 1529 
Q 2069 2156 2228 2338 
Q 2531 2678 2651 2914 
Q 2772 3150 2772 3378 
Q 2772 3750 2511 3984 
Q 2250 4219 1831 4219 
Q 1534 4219 1204 4116 
Q 875 4013 500 3803 
L 500 4441 
Q 881 4594 1212 4672 
Q 1544 4750 1819 4750 
Q 2544 4750 2975 4387 
Q 3406 4025 3406 3419 
Q 3406 3131 3298 2873 
Q 3191 2616 2906 2266 
Q 2828 2175 2409 1742 
Q 1991 1309 1228 531 
z
" transform="scale(0.015625)"/>
       </defs>
       <use xlink:href="#DejaVuSans-32"/>
       <use xlink:href="#DejaVuSans-30" x="63.623047"/>
       <use xlink:href="#DejaVuSans-30" x="127.246094"/>
      </g>
     </g>
    </g>
    <g id="xtick_6">
     <g id="line2d_6">
      <g>
       <use xlink:href="#mbdef6ecdd2" x="345.283016" y="307.584" style="stroke: #000000; stroke-width: 0.8"/>
      </g>
     </g>
     <g id="text_6">
      <!-- 250 -->
      <g transform="translate(335.739266 322.182437) scale(0.1 -0.1)">
       <use xlink:href="#DejaVuSans-32"/>
       <use xlink:href="#DejaVuSans-35" x="63.623047"/>
       <use xlink:href="#DejaVuSans-30" x="127.246094"/>
      </g>
     </g>
    </g>
    <g id="xtick_7">
     <g id="line2d_7">
      <g>
       <use xlink:href="#mbdef6ecdd2" x="399.573074" y="307.584" style="stroke: #000000; stroke-width: 0.8"/>
      </g>
     </g>
     <g id="text_7">
      <!-- 300 -->
      <g transform="translate(390.029324 322.182437) scale(0.1 -0.1)">
       <defs>
        <path id="DejaVuSans-33" d="M 2597 2516 
Q 3050 2419 3304 2112 
Q 3559 1806 3559 1356 
Q 3559 666 3084 287 
Q 2609 -91 1734 -91 
Q 1441 -91 1130 -33 
Q 819 25 488 141 
L 488 750 
Q 750 597 1062 519 
Q 1375 441 1716 441 
Q 2309 441 2620 675 
Q 2931 909 2931 1356 
Q 2931 1769 2642 2001 
Q 2353 2234 1838 2234 
L 1294 2234 
L 1294 2753 
L 1863 2753 
Q 2328 2753 2575 2939 
Q 2822 3125 2822 3475 
Q 2822 3834 2567 4026 
Q 2313 4219 1838 4219 
Q 1578 4219 1281 4162 
Q 984 4106 628 3988 
L 628 4550 
Q 988 4650 1302 4700 
Q 1616 4750 1894 4750 
Q 2613 4750 3031 4423 
Q 3450 4097 3450 3541 
Q 3450 3153 3228 2886 
Q 3006 2619 2597 2516 
z
" transform="scale(0.015625)"/>
       </defs>
       <use xlink:href="#DejaVuSans-33"/>
       <use xlink:href="#DejaVuSans-30" x="63.623047"/>
       <use xlink:href="#DejaVuSans-30" x="127.246094"/>
      </g>
     </g>
    </g>
   </g>
   <g id="matplotlib.axis_2">
    <g id="ytick_1">
     <g id="line2d_8">
      <defs>
       <path id="me4f2ee2b02" d="M 0 0 
L -3.5 0 
" style="stroke: #000000; stroke-width: 0.8"/>
      </defs>
      <g>
       <use xlink:href="#me4f2ee2b02" x="57.6" y="295.488656" style="stroke: #000000; stroke-width: 0.8"/>
      </g>
     </g>
     <g id="text_8">
      <!-- 0 -->
      <g transform="translate(44.2375 299.287874) scale(0.1 -0.1)">
       <use xlink:href="#DejaVuSans-30"/>
      </g>
     </g>
    </g>
    <g id="ytick_2">
     <g id="line2d_9">
      <g>
       <use xlink:href="#me4f2ee2b02" x="57.6" y="245.723183" style="stroke: #000000; stroke-width: 0.8"/>
      </g>
     </g>
     <g id="text_9">
      <!-- 200 -->
      <g transform="translate(31.5125 249.522402) scale(0.1 -0.1)">
       <use xlink:href="#DejaVuSans-32"/>
       <use xlink:href="#DejaVuSans-30" x="63.623047"/>
       <use xlink:href="#DejaVuSans-30" x="127.246094"/>
      </g>
     </g>
    </g>
    <g id="ytick_3">
     <g id="line2d_10">
      <g>
       <use xlink:href="#me4f2ee2b02" x="57.6" y="195.957711" style="stroke: #000000; stroke-width: 0.8"/>
      </g>
     </g>
     <g id="text_10">
      <!-- 400 -->
      <g transform="translate(31.5125 199.75693) scale(0.1 -0.1)">
       <defs>
        <path id="DejaVuSans-34" d="M 2419 4116 
L 825 1625 
L 2419 1625 
L 2419 4116 
z
M 2253 4666 
L 3047 4666 
L 3047 1625 
L 3713 1625 
L 3713 1100 
L 3047 1100 
L 3047 0 
L 2419 0 
L 2419 1100 
L 313 1100 
L 313 1709 
L 2253 4666 
z
" transform="scale(0.015625)"/>
       </defs>
       <use xlink:href="#DejaVuSans-34"/>
       <use xlink:href="#DejaVuSans-30" x="63.623047"/>
       <use xlink:href="#DejaVuSans-30" x="127.246094"/>
      </g>
     </g>
    </g>
    <g id="ytick_4">
     <g id="line2d_11">
      <g>
       <use xlink:href="#me4f2ee2b02" x="57.6" y="146.192239" style="stroke: #000000; stroke-width: 0.8"/>
      </g>
     </g>
     <g id="text_11">
      <!-- 600 -->
      <g transform="translate(31.5125 149.991457) scale(0.1 -0.1)">
       <defs>
        <path id="DejaVuSans-36" d="M 2113 2584 
Q 1688 2584 1439 2293 
Q 1191 2003 1191 1497 
Q 1191 994 1439 701 
Q 1688 409 2113 409 
Q 2538 409 2786 701 
Q 3034 994 3034 1497 
Q 3034 2003 2786 2293 
Q 2538 2584 2113 2584 
z
M 3366 4563 
L 3366 3988 
Q 3128 4100 2886 4159 
Q 2644 4219 2406 4219 
Q 1781 4219 1451 3797 
Q 1122 3375 1075 2522 
Q 1259 2794 1537 2939 
Q 1816 3084 2150 3084 
Q 2853 3084 3261 2657 
Q 3669 2231 3669 1497 
Q 3669 778 3244 343 
Q 2819 -91 2113 -91 
Q 1303 -91 875 529 
Q 447 1150 447 2328 
Q 447 3434 972 4092 
Q 1497 4750 2381 4750 
Q 2619 4750 2861 4703 
Q 3103 4656 3366 4563 
z
" transform="scale(0.015625)"/>
       </defs>
       <use xlink:href="#DejaVuSans-36"/>
       <use xlink:href="#DejaVuSans-30" x="63.623047"/>
       <use xlink:href="#DejaVuSans-30" x="127.246094"/>
      </g>
     </g>
    </g>
    <g id="ytick_5">
     <g id="line2d_12">
      <g>
       <use xlink:href="#me4f2ee2b02" x="57.6" y="96.426766" style="stroke: #000000; stroke-width: 0.8"/>
      </g>
     </g>
     <g id="text_12">
      <!-- 800 -->
      <g transform="translate(31.5125 100.225985) scale(0.1 -0.1)">
       <defs>
        <path id="DejaVuSans-38" d="M 2034 2216 
Q 1584 2216 1326 1975 
Q 1069 1734 1069 1313 
Q 1069 891 1326 650 
Q 1584 409 2034 409 
Q 2484 409 2743 651 
Q 3003 894 3003 1313 
Q 3003 1734 2745 1975 
Q 2488 2216 2034 2216 
z
M 1403 2484 
Q 997 2584 770 2862 
Q 544 3141 544 3541 
Q 544 4100 942 4425 
Q 1341 4750 2034 4750 
Q 2731 4750 3128 4425 
Q 3525 4100 3525 3541 
Q 3525 3141 3298 2862 
Q 3072 2584 2669 2484 
Q 3125 2378 3379 2068 
Q 3634 1759 3634 1313 
Q 3634 634 3220 271 
Q 2806 -91 2034 -91 
Q 1263 -91 848 271 
Q 434 634 434 1313 
Q 434 1759 690 2068 
Q 947 2378 1403 2484 
z
M 1172 3481 
Q 1172 3119 1398 2916 
Q 1625 2713 2034 2713 
Q 2441 2713 2670 2916 
Q 2900 3119 2900 3481 
Q 2900 3844 2670 4047 
Q 2441 4250 2034 4250 
Q 1625 4250 1398 4047 
Q 1172 3844 1172 3481 
z
" transform="scale(0.015625)"/>
       </defs>
       <use xlink:href="#DejaVuSans-38"/>
       <use xlink:href="#DejaVuSans-30" x="63.623047"/>
       <use xlink:href="#DejaVuSans-30" x="127.246094"/>
      </g>
     </g>
    </g>
    <g id="ytick_6">
     <g id="line2d_13">
      <g>
       <use xlink:href="#me4f2ee2b02" x="57.6" y="46.661294" style="stroke: #000000; stroke-width: 0.8"/>
      </g>
     </g>
     <g id="text_13">
      <!-- 1000 -->
      <g transform="translate(25.15 50.460513) scale(0.1 -0.1)">
       <use xlink:href="#DejaVuSans-31"/>
       <use xlink:href="#DejaVuSans-30" x="63.623047"/>
       <use xlink:href="#DejaVuSans-30" x="127.246094"/>
       <use xlink:href="#DejaVuSans-30" x="190.869141"/>
      </g>
     </g>
    </g>
   </g>
   <g id="line2d_14">
    <path d="M 73.832727 144.259544 
L 74.918528 209.015024 
L 76.00433 255.535447 
L 77.090131 227.927411 
L 78.175932 83.684523 
L 79.261733 122.166196 
L 80.347534 169.684973 
L 81.433335 267.657289 
L 82.519137 271.282012 
L 83.604938 283.752552 
L 84.690739 288.063269 
L 85.77654 283.861511 
L 86.862341 290.533107 
L 87.948142 289.745234 
L 89.033943 278.447306 
L 90.119745 269.591357 
L 91.205546 247.401922 
L 92.291347 287.491525 
L 93.377148 290.8782 
L 94.462949 283.524891 
L 95.54875 273.67687 
L 96.634552 284.704319 
L 97.720353 276.053974 
L 99.891955 292.882802 
L 102.063557 293.259208 
L 103.149358 294.011988 
L 104.23516 293.618438 
L 105.320961 292.256264 
L 106.406762 274.182523 
L 107.492563 233.514742 
L 108.578364 271.723089 
L 109.664165 188.918113 
L 110.749967 278.031817 
L 111.835768 286.665012 
L 112.921569 293.503585 
L 114.00737 294.404968 
L 115.093171 294.507007 
L 116.178972 294.170516 
L 117.264773 294.342536 
L 118.350575 294.770173 
L 119.436376 294.511896 
L 120.522177 294.727555 
L 121.607978 292.025839 
L 122.693779 283.800685 
L 123.77958 292.222723 
L 124.865382 281.193668 
L 125.951183 293.446375 
L 128.122785 293.335104 
L 129.208586 289.708497 
L 130.294387 291.135895 
L 131.380189 291.876958 
L 132.46599 290.97886 
L 133.551791 294.171826 
L 134.637592 294.558433 
L 135.723393 294.434254 
L 136.809194 294.122224 
L 137.894995 293.519888 
L 138.980797 291.413421 
L 140.066598 289.8874 
L 141.152399 280.088358 
L 142.2382 287.071129 
L 143.324001 292.843412 
L 144.409802 285.306387 
L 145.495604 293.816594 
L 146.581405 294.408202 
L 147.667206 295.225294 
L 148.753007 295.196763 
L 149.838808 295.323375 
L 152.01041 294.61328 
L 153.096212 292.712183 
L 155.267814 248.324029 
L 156.353615 268.071026 
L 157.439416 256.049059 
L 158.525217 291.221176 
L 159.611019 294.952995 
L 160.69682 294.580518 
L 161.782621 295.143844 
L 162.868422 295.067327 
L 163.954223 295.210315 
L 165.040024 294.865758 
L 166.125825 295.242882 
L 167.211627 295.281211 
L 169.383229 295.006439 
L 171.554831 294.349175 
L 172.640632 291.299775 
L 173.726434 268.861666 
L 174.812235 223.200203 
L 175.898036 273.725811 
L 176.983837 290.46135 
L 178.069638 290.423844 
L 179.155439 294.996356 
L 180.24124 295.116761 
L 181.327042 295.090611 
L 182.412843 295.291262 
L 183.498644 295.126654 
L 184.584445 295.159892 
L 185.670246 295.047376 
L 186.756047 295.10353 
L 187.841849 294.926265 
L 188.92765 294.593849 
L 190.013451 294.830856 
L 191.099252 294.023559 
L 192.185053 289.98331 
L 193.270854 268.418103 
L 194.356656 267.615151 
L 195.442457 292.917083 
L 196.528258 278.46545 
L 197.614059 288.836384 
L 198.69986 294.535308 
L 199.785661 295.118044 
L 200.871462 294.829051 
L 201.957264 295.282019 
L 203.043065 295.237981 
L 204.128866 295.066721 
L 205.214667 295.336264 
L 206.300468 295.188216 
L 207.386269 294.377732 
L 208.472071 294.164126 
L 209.557872 290.862096 
L 210.643673 293.207874 
L 211.729474 284.34179 
L 212.815275 293.951158 
L 213.901076 294.994674 
L 216.072679 295.251754 
L 217.15848 295.128647 
L 218.244281 295.340944 
L 219.330082 293.868765 
L 221.501684 284.60051 
L 222.587486 291.742048 
L 223.673287 291.647317 
L 224.759088 294.876928 
L 225.844889 295.217743 
L 226.93069 295.031058 
L 228.016491 295.219066 
L 233.445497 294.837501 
L 234.531298 294.553868 
L 235.617099 287.239539 
L 236.702901 282.760282 
L 237.788702 290.43793 
L 238.874503 294.556673 
L 239.960304 295.152097 
L 241.046105 295.132198 
L 242.131906 295.365773 
L 243.217708 295.202288 
L 245.38931 294.552439 
L 246.475111 293.739023 
L 247.560912 293.8061 
L 248.646713 294.080502 
L 249.732514 294.996711 
L 250.818316 295.095013 
L 251.904117 294.882391 
L 252.989918 290.977892 
L 254.075719 289.716059 
L 255.16152 294.022574 
L 256.247321 293.032161 
L 257.333123 295.243509 
L 258.418924 294.924527 
L 260.590526 295.212965 
L 262.762128 295.097016 
L 263.847929 294.890555 
L 264.933731 294.230077 
L 266.019532 291.270064 
L 267.105333 282.35358 
L 268.191134 292.184399 
L 269.276935 291.337698 
L 270.362736 295.03276 
L 273.62014 295.324381 
L 277.963344 295.198452 
L 279.049146 294.852159 
L 280.134947 292.62184 
L 281.220748 293.131876 
L 282.306549 285.888498 
L 283.39235 294.776185 
L 284.478151 295.063074 
L 288.821356 294.933216 
L 289.907157 294.963912 
L 290.992958 293.651647 
L 292.07876 293.643626 
L 293.164561 288.56119 
L 294.250362 293.949961 
L 295.336163 294.895198 
L 296.421964 295.041711 
L 297.507765 294.989909 
L 299.679368 295.372806 
L 301.85097 295.052212 
L 302.936771 292.652171 
L 304.022572 289.46391 
L 305.108373 293.866446 
L 306.194175 294.8994 
L 307.279976 295.082355 
L 308.365777 295.020381 
L 309.451578 295.193155 
L 311.62318 294.726278 
L 312.708981 292.728668 
L 313.794783 292.955903 
L 314.880584 293.970201 
L 315.966385 292.347954 
L 317.052186 295.105403 
L 318.137987 295.328996 
L 323.566993 295.14438 
L 324.652794 295.222055 
L 325.738595 293.984915 
L 326.824396 285.639176 
L 327.910198 287.133442 
L 328.995999 287.750653 
L 330.0818 294.657647 
L 331.167601 295.276572 
L 332.253402 295.117061 
L 333.339203 295.330811 
L 335.510806 295.340547 
L 336.596607 295.369065 
L 338.768209 294.815644 
L 339.85401 293.167079 
L 340.939811 294.904173 
L 342.025613 292.831888 
L 343.111414 294.681241 
L 344.197215 295.13813 
L 345.283016 295.124861 
L 346.368817 294.918663 
L 347.454618 293.594455 
L 348.54042 295.004207 
L 349.626221 294.870508 
L 350.712022 294.322418 
L 351.797823 295.134364 
L 353.969425 295.344237 
L 356.141028 295.300817 
L 357.226829 294.317498 
L 358.31263 293.975067 
L 359.398431 295.095037 
L 360.484232 293.828612 
L 361.570033 294.648902 
L 362.655835 295.218459 
L 364.827437 295.24201 
L 365.913238 294.835849 
L 366.999039 293.343983 
L 368.08484 293.5684 
L 369.170642 294.655827 
L 370.256443 294.162287 
L 371.342244 295.204175 
L 372.428045 295.345696 
L 377.857051 295.232055 
L 378.942852 294.018538 
L 380.028653 290.590427 
L 381.114454 284.96046 
L 382.200255 293.919724 
L 383.286057 291.793092 
L 384.371858 292.73407 
L 385.457659 294.744583 
L 386.54346 295.322339 
L 388.715062 295.357575 
L 391.972466 295.38243 
L 393.058267 295.340361 
L 394.144068 295.177157 
L 395.229869 294.18031 
L 396.31567 290.707747 
L 397.401472 294.052717 
L 398.487273 286.940357 
L 398.487273 286.940357 
" clip-path="url(#pdf5e222774)" style="fill: none; stroke: #1f77b4; stroke-width: 1.5; stroke-linecap: square"/>
   </g>
   <g id="line2d_15">
    <path d="M 73.832727 78.007391 
L 74.918528 226.237642 
L 76.00433 293.467179 
L 77.090131 260.844503 
L 78.175932 200.922412 
L 79.261733 167.917051 
L 80.347534 53.568 
L 81.433335 294.773163 
L 82.519137 252.761145 
L 83.604938 293.900973 
L 84.690739 287.211188 
L 85.77654 294.786459 
L 86.862341 287.147338 
L 87.948142 291.476957 
L 89.033943 278.408941 
L 90.119745 257.867246 
L 91.205546 285.579676 
L 92.291347 286.425445 
L 93.377148 292.947803 
L 94.462949 286.227705 
L 95.54875 273.211317 
L 96.634552 286.518836 
L 97.720353 290.581878 
L 98.806154 292.630554 
L 99.891955 289.214542 
L 100.977756 294.947697 
L 102.063557 295.415542 
L 103.149358 293.743415 
L 104.23516 294.201795 
L 105.320961 287.532593 
L 106.406762 292.024994 
L 107.492563 212.468828 
L 108.578364 269.641167 
L 109.664165 257.747833 
L 110.749967 290.379583 
L 111.835768 294.545203 
L 112.921569 295.073601 
L 114.00737 294.162667 
L 115.093171 295.440304 
L 116.178972 293.024193 
L 117.264773 295.006974 
L 118.350575 292.113293 
L 119.436376 293.806657 
L 120.522177 291.481257 
L 121.607978 289.954382 
L 122.693779 280.318789 
L 123.77958 294.697021 
L 124.865382 293.091125 
L 125.951183 294.084206 
L 127.036984 291.99675 
L 128.122785 284.718062 
L 129.208586 293.699713 
L 130.294387 287.858942 
L 131.380189 284.310352 
L 132.46599 295.023897 
L 133.551791 281.175056 
L 134.637592 294.014336 
L 135.723393 285.653563 
L 136.809194 292.123084 
L 137.894995 276.424628 
L 138.980797 291.815942 
L 140.066598 255.136729 
L 141.152399 295.337444 
L 142.2382 239.758635 
L 143.324001 293.694661 
L 144.409802 295.168107 
L 145.495604 293.237648 
L 146.581405 293.03928 
L 147.667206 295.346346 
L 148.753007 294.759284 
L 149.838808 295.487445 
L 150.924609 295.117473 
L 152.01041 295.45592 
L 153.096212 294.176413 
L 154.182013 285.896857 
L 155.267814 262.90231 
L 156.353615 291.307452 
L 157.439416 285.765902 
L 158.525217 293.34126 
L 159.611019 295.295794 
L 160.69682 294.356505 
L 161.782621 295.408222 
L 162.868422 292.852906 
L 163.954223 295.477226 
L 165.040024 293.887623 
L 166.125825 295.428694 
L 167.211627 294.18051 
L 168.297428 295.318509 
L 169.383229 295.09879 
L 170.46903 295.166228 
L 171.554831 295.409335 
L 172.640632 293.305113 
L 173.726434 285.017286 
L 174.812235 271.03426 
L 175.898036 276.369825 
L 176.983837 294.408293 
L 178.069638 295.206537 
L 179.155439 295.474163 
L 180.24124 295.02667 
L 181.327042 295.394382 
L 182.412843 293.916012 
L 183.498644 295.14228 
L 184.584445 293.513273 
L 185.670246 294.795215 
L 186.756047 291.920124 
L 187.841849 292.664129 
L 188.92765 285.618141 
L 190.013451 288.479847 
L 191.099252 289.237867 
L 192.185053 281.344734 
L 193.270854 293.626577 
L 194.356656 265.880599 
L 195.442457 294.753345 
L 196.528258 291.515307 
L 197.614059 295.113396 
L 198.69986 294.925862 
L 199.785661 294.957287 
L 200.871462 295.316571 
L 201.957264 294.881627 
L 204.128866 295.405474 
L 205.214667 295.281053 
L 206.300468 295.438418 
L 207.386269 294.421423 
L 208.472071 294.644868 
L 209.557872 289.833453 
L 210.643673 289.164571 
L 211.729474 294.144877 
L 212.815275 295.372106 
L 213.901076 295.361888 
L 214.986877 293.904009 
L 216.072679 295.366211 
L 217.15848 295.265938 
L 218.244281 294.981294 
L 219.330082 295.25411 
L 220.415883 287.942293 
L 221.501684 294.805571 
L 222.587486 294.835062 
L 223.673287 288.273856 
L 224.759088 295.457022 
L 225.844889 292.576629 
L 226.93069 294.819236 
L 228.016491 291.19504 
L 229.102292 293.844298 
L 230.188094 290.179758 
L 231.273895 290.548349 
L 232.359696 288.527756 
L 233.445497 294.149749 
L 234.531298 289.458943 
L 235.617099 295.227002 
L 236.702901 267.947202 
L 237.788702 293.790343 
L 238.874503 295.297407 
L 239.960304 295.484463 
L 241.046105 295.387669 
L 242.131906 295.483856 
L 243.217708 294.556668 
L 244.303509 295.211644 
L 245.38931 291.874998 
L 246.475111 294.248221 
L 247.560912 293.036939 
L 248.646713 294.324368 
L 249.732514 294.43739 
L 250.818316 295.083983 
L 251.904117 295.057684 
L 252.989918 291.443781 
L 254.075719 295.381298 
L 255.16152 295.475483 
L 256.247321 292.839312 
L 257.333123 295.421854 
L 258.418924 294.613283 
L 259.504725 295.398331 
L 260.590526 294.578933 
L 261.676327 294.859257 
L 262.762128 294.380444 
L 263.847929 293.069574 
L 264.933731 295.182365 
L 266.019532 286.415087 
L 267.105333 295.029792 
L 268.191134 294.246939 
L 269.276935 291.822299 
L 270.362736 295.466967 
L 273.62014 295.448807 
L 274.705941 295.131864 
L 275.791742 295.419942 
L 276.877543 294.641521 
L 277.963344 295.432112 
L 279.049146 294.041156 
L 280.134947 294.39507 
L 281.220748 281.878139 
L 282.306549 295.327128 
L 283.39235 294.580125 
L 284.478151 294.212359 
L 285.563953 294.173542 
L 287.735555 294.260421 
L 288.821356 294.623457 
L 289.907157 294.309057 
L 290.992958 295.401568 
L 292.07876 290.449517 
L 293.164561 294.516322 
L 294.250362 295.471233 
L 295.336163 295.060351 
L 296.421964 295.324431 
L 297.507765 294.379457 
L 298.593566 295.488 
L 299.679368 293.746675 
L 300.765169 295.446125 
L 301.85097 293.055544 
L 302.936771 295.29039 
L 304.022572 287.968295 
L 305.108373 293.532771 
L 306.194175 293.8123 
L 307.279976 295.33589 
L 308.365777 294.691329 
L 309.451578 295.301923 
L 310.537379 293.373714 
L 311.62318 292.241252 
L 312.708981 294.893234 
L 313.794783 290.251053 
L 314.880584 292.609895 
L 315.966385 295.457255 
L 317.052186 294.175681 
L 318.137987 295.313683 
L 319.223788 295.220679 
L 320.30959 295.463673 
L 321.395391 294.970748 
L 322.481192 295.439978 
L 323.566993 295.07421 
L 324.652794 295.372 
L 325.738595 295.227569 
L 326.824396 290.102345 
L 327.910198 290.029239 
L 328.995999 295.149781 
L 330.0818 291.448535 
L 331.167601 295.344126 
L 332.253402 293.084716 
L 333.339203 295.438286 
L 334.425005 293.039024 
L 335.510806 295.444926 
L 336.596607 294.635078 
L 337.682408 295.33819 
L 338.768209 293.604573 
L 339.85401 294.653964 
L 340.939811 289.751702 
L 342.025613 294.382336 
L 343.111414 294.99594 
L 344.197215 295.199099 
L 345.283016 295.129129 
L 346.368817 294.907293 
L 347.454618 295.094975 
L 348.54042 293.81861 
L 350.712022 295.037253 
L 351.797823 293.811446 
L 352.883624 295.411198 
L 353.969425 294.324166 
L 355.055227 295.448088 
L 356.141028 294.241955 
L 357.226829 294.731847 
L 358.31263 288.966594 
L 359.398431 295.053063 
L 361.570033 295.370487 
L 362.655835 295.13783 
L 363.741636 295.441648 
L 364.827437 295.164893 
L 365.913238 295.42547 
L 366.999039 294.732044 
L 368.08484 294.582723 
L 369.170642 295.071221 
L 370.256443 295.193476 
L 371.342244 295.074433 
L 373.513846 295.30832 
L 374.599647 295.087967 
L 375.685448 295.421345 
L 376.77125 294.645581 
L 377.857051 294.870025 
L 378.942852 295.424317 
L 380.028653 286.687927 
L 381.114454 294.078026 
L 382.200255 294.871335 
L 383.286057 291.290485 
L 384.371858 295.354825 
L 385.457659 295.030332 
L 386.54346 295.313124 
L 387.629261 295.06779 
L 388.715062 295.468299 
L 389.800863 294.942559 
L 390.886665 295.434589 
L 391.972466 295.091241 
L 394.144068 295.254291 
L 396.31567 292.613894 
L 397.401472 293.013123 
L 398.487273 294.356262 
L 398.487273 294.356262 
" clip-path="url(#pdf5e222774)" style="fill: none; stroke: #ff7f0e; stroke-opacity: 0.5; stroke-width: 1.5; stroke-linecap: square"/>
   </g>
   <g id="patch_3">
    <path d="M 57.6 307.584 
L 57.6 41.472 
" style="fill: none; stroke: #000000; stroke-width: 0.8; stroke-linejoin: miter; stroke-linecap: square"/>
   </g>
   <g id="patch_4">
    <path d="M 414.72 307.584 
L 414.72 41.472 
" style="fill: none; stroke: #000000; stroke-width: 0.8; stroke-linejoin: miter; stroke-linecap: square"/>
   </g>
   <g id="patch_5">
    <path d="M 57.6 307.584 
L 414.72 307.584 
" style="fill: none; stroke: #000000; stroke-width: 0.8; stroke-linejoin: miter; stroke-linecap: square"/>
   </g>
   <g id="patch_6">
    <path d="M 57.6 41.472 
L 414.72 41.472 
" style="fill: none; stroke: #000000; stroke-width: 0.8; stroke-linejoin: miter; stroke-linecap: square"/>
   </g>
   <g id="legend_1">
    <g id="patch_7">
     <path d="M 351.768438 78.82825 
L 407.72 78.82825 
Q 409.72 78.82825 409.72 76.82825 
L 409.72 48.472 
Q 409.72 46.472 407.72 46.472 
L 351.768438 46.472 
Q 349.768438 46.472 349.768438 48.472 
L 349.768438 76.82825 
Q 349.768438 78.82825 351.768438 78.82825 
z
" style="fill: #ffffff; opacity: 0.8; stroke: #cccccc; stroke-linejoin: miter"/>
    </g>
    <g id="line2d_16">
     <path d="M 353.768438 54.570437 
L 363.768438 54.570437 
L 373.768438 54.570437 
" style="fill: none; stroke: #1f77b4; stroke-width: 1.5; stroke-linecap: square"/>
    </g>
    <g id="text_14">
     <!-- train -->
     <g transform="translate(381.768438 58.070437) scale(0.1 -0.1)">
      <defs>
       <path id="DejaVuSans-74" d="M 1172 4494 
L 1172 3500 
L 2356 3500 
L 2356 3053 
L 1172 3053 
L 1172 1153 
Q 1172 725 1289 603 
Q 1406 481 1766 481 
L 2356 481 
L 2356 0 
L 1766 0 
Q 1100 0 847 248 
Q 594 497 594 1153 
L 594 3053 
L 172 3053 
L 172 3500 
L 594 3500 
L 594 4494 
L 1172 4494 
z
" transform="scale(0.015625)"/>
       <path id="DejaVuSans-72" d="M 2631 2963 
Q 2534 3019 2420 3045 
Q 2306 3072 2169 3072 
Q 1681 3072 1420 2755 
Q 1159 2438 1159 1844 
L 1159 0 
L 581 0 
L 581 3500 
L 1159 3500 
L 1159 2956 
Q 1341 3275 1631 3429 
Q 1922 3584 2338 3584 
Q 2397 3584 2469 3576 
Q 2541 3569 2628 3553 
L 2631 2963 
z
" transform="scale(0.015625)"/>
       <path id="DejaVuSans-61" d="M 2194 1759 
Q 1497 1759 1228 1600 
Q 959 1441 959 1056 
Q 959 750 1161 570 
Q 1363 391 1709 391 
Q 2188 391 2477 730 
Q 2766 1069 2766 1631 
L 2766 1759 
L 2194 1759 
z
M 3341 1997 
L 3341 0 
L 2766 0 
L 2766 531 
Q 2569 213 2275 61 
Q 1981 -91 1556 -91 
Q 1019 -91 701 211 
Q 384 513 384 1019 
Q 384 1609 779 1909 
Q 1175 2209 1959 2209 
L 2766 2209 
L 2766 2266 
Q 2766 2663 2505 2880 
Q 2244 3097 1772 3097 
Q 1472 3097 1187 3025 
Q 903 2953 641 2809 
L 641 3341 
Q 956 3463 1253 3523 
Q 1550 3584 1831 3584 
Q 2591 3584 2966 3190 
Q 3341 2797 3341 1997 
z
" transform="scale(0.015625)"/>
       <path id="DejaVuSans-69" d="M 603 3500 
L 1178 3500 
L 1178 0 
L 603 0 
L 603 3500 
z
M 603 4863 
L 1178 4863 
L 1178 4134 
L 603 4134 
L 603 4863 
z
" transform="scale(0.015625)"/>
       <path id="DejaVuSans-6e" d="M 3513 2113 
L 3513 0 
L 2938 0 
L 2938 2094 
Q 2938 2591 2744 2837 
Q 2550 3084 2163 3084 
Q 1697 3084 1428 2787 
Q 1159 2491 1159 1978 
L 1159 0 
L 581 0 
L 581 3500 
L 1159 3500 
L 1159 2956 
Q 1366 3272 1645 3428 
Q 1925 3584 2291 3584 
Q 2894 3584 3203 3211 
Q 3513 2838 3513 2113 
z
" transform="scale(0.015625)"/>
      </defs>
      <use xlink:href="#DejaVuSans-74"/>
      <use xlink:href="#DejaVuSans-72" x="39.208984"/>
      <use xlink:href="#DejaVuSans-61" x="80.322266"/>
      <use xlink:href="#DejaVuSans-69" x="141.601562"/>
      <use xlink:href="#DejaVuSans-6e" x="169.384766"/>
     </g>
    </g>
    <g id="line2d_17">
     <path d="M 353.768438 69.248562 
L 363.768438 69.248562 
L 373.768438 69.248562 
" style="fill: none; stroke: #ff7f0e; stroke-opacity: 0.5; stroke-width: 1.5; stroke-linecap: square"/>
    </g>
    <g id="text_15">
     <!-- valid -->
     <g transform="translate(381.768438 72.748562) scale(0.1 -0.1)">
      <defs>
       <path id="DejaVuSans-76" d="M 191 3500 
L 800 3500 
L 1894 563 
L 2988 3500 
L 3597 3500 
L 2284 0 
L 1503 0 
L 191 3500 
z
" transform="scale(0.015625)"/>
       <path id="DejaVuSans-6c" d="M 603 4863 
L 1178 4863 
L 1178 0 
L 603 0 
L 603 4863 
z
" transform="scale(0.015625)"/>
       <path id="DejaVuSans-64" d="M 2906 2969 
L 2906 4863 
L 3481 4863 
L 3481 0 
L 2906 0 
L 2906 525 
Q 2725 213 2448 61 
Q 2172 -91 1784 -91 
Q 1150 -91 751 415 
Q 353 922 353 1747 
Q 353 2572 751 3078 
Q 1150 3584 1784 3584 
Q 2172 3584 2448 3432 
Q 2725 3281 2906 2969 
z
M 947 1747 
Q 947 1113 1208 752 
Q 1469 391 1925 391 
Q 2381 391 2643 752 
Q 2906 1113 2906 1747 
Q 2906 2381 2643 2742 
Q 2381 3103 1925 3103 
Q 1469 3103 1208 2742 
Q 947 2381 947 1747 
z
" transform="scale(0.015625)"/>
      </defs>
      <use xlink:href="#DejaVuSans-76"/>
      <use xlink:href="#DejaVuSans-61" x="59.179688"/>
      <use xlink:href="#DejaVuSans-6c" x="120.458984"/>
      <use xlink:href="#DejaVuSans-69" x="148.242188"/>
      <use xlink:href="#DejaVuSans-64" x="176.025391"/>
     </g>
    </g>
   </g>
  </g>
 </g>
 <defs>
  <clipPath id="pdf5e222774">
   <rect x="57.6" y="41.472" width="357.12" height="266.112"/>
  </clipPath>
 </defs>
</svg>
