<?xml version="1.0" encoding="utf-8" standalone="no"?>
<!DOCTYPE svg PUBLIC "-//W3C//DTD SVG 1.1//EN"
  "http://www.w3.org/Graphics/SVG/1.1/DTD/svg11.dtd">
<svg xmlns:xlink="http://www.w3.org/1999/xlink" width="460.8pt" height="345.6pt" viewBox="0 0 460.8 345.6" xmlns="http://www.w3.org/2000/svg" version="1.1">
 <metadata>
  <rdf:RDF xmlns:dc="http://purl.org/dc/elements/1.1/" xmlns:cc="http://creativecommons.org/ns#" xmlns:rdf="http://www.w3.org/1999/02/22-rdf-syntax-ns#">
   <cc:Work>
    <dc:type rdf:resource="http://purl.org/dc/dcmitype/StillImage"/>
    <dc:date>2023-12-05T01:07:15.717616</dc:date>
    <dc:format>image/svg+xml</dc:format>
    <dc:creator>
     <cc:Agent>
      <dc:title>Matplotlib v3.7.3, https://matplotlib.org/</dc:title>
     </cc:Agent>
    </dc:creator>
   </cc:Work>
  </rdf:RDF>
 </metadata>
 <defs>
  <style type="text/css">*{stroke-linejoin: round; stroke-linecap: butt}</style>
 </defs>
 <g id="figure_1">
  <g id="patch_1">
   <path d="M 0 345.6 
L 460.8 345.6 
L 460.8 0 
L 0 0 
z
" style="fill: #ffffff"/>
  </g>
  <g id="axes_1">
   <g id="patch_2">
    <path d="M 57.6 307.584 
L 414.72 307.584 
L 414.72 41.472 
L 57.6 41.472 
z
" style="fill: #ffffff"/>
   </g>
   <g id="matplotlib.axis_1">
    <g id="xtick_1">
     <g id="line2d_1">
      <defs>
       <path id="m745107c963" d="M 0 0 
L 0 3.5 
" style="stroke: #000000; stroke-width: 0.8"/>
      </defs>
      <g>
       <use xlink:href="#m745107c963" x="73.832727" y="307.584" style="stroke: #000000; stroke-width: 0.8"/>
      </g>
     </g>
     <g id="text_1">
      <!-- 0 -->
      <g transform="translate(70.651477 322.182437) scale(0.1 -0.1)">
       <defs>
        <path id="DejaVuSans-30" d="M 2034 4250 
Q 1547 4250 1301 3770 
Q 1056 3291 1056 2328 
Q 1056 1369 1301 889 
Q 1547 409 2034 409 
Q 2525 409 2770 889 
Q 3016 1369 3016 2328 
Q 3016 3291 2770 3770 
Q 2525 4250 2034 4250 
z
M 2034 4750 
Q 2819 4750 3233 4129 
Q 3647 3509 3647 2328 
Q 3647 1150 3233 529 
Q 2819 -91 2034 -91 
Q 1250 -91 836 529 
Q 422 1150 422 2328 
Q 422 3509 836 4129 
Q 1250 4750 2034 4750 
z
" transform="scale(0.015625)"/>
       </defs>
       <use xlink:href="#DejaVuSans-30"/>
      </g>
     </g>
    </g>
    <g id="xtick_2">
     <g id="line2d_2">
      <g>
       <use xlink:href="#m745107c963" x="128.122785" y="307.584" style="stroke: #000000; stroke-width: 0.8"/>
      </g>
     </g>
     <g id="text_2">
      <!-- 50 -->
      <g transform="translate(121.760285 322.182437) scale(0.1 -0.1)">
       <defs>
        <path id="DejaVuSans-35" d="M 691 4666 
L 3169 4666 
L 3169 4134 
L 1269 4134 
L 1269 2991 
Q 1406 3038 1543 3061 
Q 1681 3084 1819 3084 
Q 2600 3084 3056 2656 
Q 3513 2228 3513 1497 
Q 3513 744 3044 326 
Q 2575 -91 1722 -91 
Q 1428 -91 1123 -41 
Q 819 9 494 109 
L 494 744 
Q 775 591 1075 516 
Q 1375 441 1709 441 
Q 2250 441 2565 725 
Q 2881 1009 2881 1497 
Q 2881 1984 2565 2268 
Q 2250 2553 1709 2553 
Q 1456 2553 1204 2497 
Q 953 2441 691 2322 
L 691 4666 
z
" transform="scale(0.015625)"/>
       </defs>
       <use xlink:href="#DejaVuSans-35"/>
       <use xlink:href="#DejaVuSans-30" x="63.623047"/>
      </g>
     </g>
    </g>
    <g id="xtick_3">
     <g id="line2d_3">
      <g>
       <use xlink:href="#m745107c963" x="182.412843" y="307.584" style="stroke: #000000; stroke-width: 0.8"/>
      </g>
     </g>
     <g id="text_3">
      <!-- 100 -->
      <g transform="translate(172.869093 322.182437) scale(0.1 -0.1)">
       <defs>
        <path id="DejaVuSans-31" d="M 794 531 
L 1825 531 
L 1825 4091 
L 703 3866 
L 703 4441 
L 1819 4666 
L 2450 4666 
L 2450 531 
L 3481 531 
L 3481 0 
L 794 0 
L 794 531 
z
" transform="scale(0.015625)"/>
       </defs>
       <use xlink:href="#DejaVuSans-31"/>
       <use xlink:href="#DejaVuSans-30" x="63.623047"/>
       <use xlink:href="#DejaVuSans-30" x="127.246094"/>
      </g>
     </g>
    </g>
    <g id="xtick_4">
     <g id="line2d_4">
      <g>
       <use xlink:href="#m745107c963" x="236.702901" y="307.584" style="stroke: #000000; stroke-width: 0.8"/>
      </g>
     </g>
     <g id="text_4">
      <!-- 150 -->
      <g transform="translate(227.159151 322.182437) scale(0.1 -0.1)">
       <use xlink:href="#DejaVuSans-31"/>
       <use xlink:href="#DejaVuSans-35" x="63.623047"/>
       <use xlink:href="#DejaVuSans-30" x="127.246094"/>
      </g>
     </g>
    </g>
    <g id="xtick_5">
     <g id="line2d_5">
      <g>
       <use xlink:href="#m745107c963" x="290.992958" y="307.584" style="stroke: #000000; stroke-width: 0.8"/>
      </g>
     </g>
     <g id="text_5">
      <!-- 200 -->
      <g transform="translate(281.449208 322.182437) scale(0.1 -0.1)">
       <defs>
        <path id="DejaVuSans-32" d="M 1228 531 
L 3431 531 
L 3431 0 
L 469 0 
L 469 531 
Q 828 903 1448 1529 
Q 2069 2156 2228 2338 
Q 2531 2678 2651 2914 
Q 2772 3150 2772 3378 
Q 2772 3750 2511 3984 
Q 2250 4219 1831 4219 
Q 1534 4219 1204 4116 
Q 875 4013 500 3803 
L 500 4441 
Q 881 4594 1212 4672 
Q 1544 4750 1819 4750 
Q 2544 4750 2975 4387 
Q 3406 4025 3406 3419 
Q 3406 3131 3298 2873 
Q 3191 2616 2906 2266 
Q 2828 2175 2409 1742 
Q 1991 1309 1228 531 
z
" transform="scale(0.015625)"/>
       </defs>
       <use xlink:href="#DejaVuSans-32"/>
       <use xlink:href="#DejaVuSans-30" x="63.623047"/>
       <use xlink:href="#DejaVuSans-30" x="127.246094"/>
      </g>
     </g>
    </g>
    <g id="xtick_6">
     <g id="line2d_6">
      <g>
       <use xlink:href="#m745107c963" x="345.283016" y="307.584" style="stroke: #000000; stroke-width: 0.8"/>
      </g>
     </g>
     <g id="text_6">
      <!-- 250 -->
      <g transform="translate(335.739266 322.182437) scale(0.1 -0.1)">
       <use xlink:href="#DejaVuSans-32"/>
       <use xlink:href="#DejaVuSans-35" x="63.623047"/>
       <use xlink:href="#DejaVuSans-30" x="127.246094"/>
      </g>
     </g>
    </g>
    <g id="xtick_7">
     <g id="line2d_7">
      <g>
       <use xlink:href="#m745107c963" x="399.573074" y="307.584" style="stroke: #000000; stroke-width: 0.8"/>
      </g>
     </g>
     <g id="text_7">
      <!-- 300 -->
      <g transform="translate(390.029324 322.182437) scale(0.1 -0.1)">
       <defs>
        <path id="DejaVuSans-33" d="M 2597 2516 
Q 3050 2419 3304 2112 
Q 3559 1806 3559 1356 
Q 3559 666 3084 287 
Q 2609 -91 1734 -91 
Q 1441 -91 1130 -33 
Q 819 25 488 141 
L 488 750 
Q 750 597 1062 519 
Q 1375 441 1716 441 
Q 2309 441 2620 675 
Q 2931 909 2931 1356 
Q 2931 1769 2642 2001 
Q 2353 2234 1838 2234 
L 1294 2234 
L 1294 2753 
L 1863 2753 
Q 2328 2753 2575 2939 
Q 2822 3125 2822 3475 
Q 2822 3834 2567 4026 
Q 2313 4219 1838 4219 
Q 1578 4219 1281 4162 
Q 984 4106 628 3988 
L 628 4550 
Q 988 4650 1302 4700 
Q 1616 4750 1894 4750 
Q 2613 4750 3031 4423 
Q 3450 4097 3450 3541 
Q 3450 3153 3228 2886 
Q 3006 2619 2597 2516 
z
" transform="scale(0.015625)"/>
       </defs>
       <use xlink:href="#DejaVuSans-33"/>
       <use xlink:href="#DejaVuSans-30" x="63.623047"/>
       <use xlink:href="#DejaVuSans-30" x="127.246094"/>
      </g>
     </g>
    </g>
   </g>
   <g id="matplotlib.axis_2">
    <g id="ytick_1">
     <g id="line2d_8">
      <defs>
       <path id="m7b53f6450a" d="M 0 0 
L -3.5 0 
" style="stroke: #000000; stroke-width: 0.8"/>
      </defs>
      <g>
       <use xlink:href="#m7b53f6450a" x="57.6" y="295.489123" style="stroke: #000000; stroke-width: 0.8"/>
      </g>
     </g>
     <g id="text_8">
      <!-- 0 -->
      <g transform="translate(44.2375 299.288341) scale(0.1 -0.1)">
       <use xlink:href="#DejaVuSans-30"/>
      </g>
     </g>
    </g>
    <g id="ytick_2">
     <g id="line2d_9">
      <g>
       <use xlink:href="#m7b53f6450a" x="57.6" y="236.562058" style="stroke: #000000; stroke-width: 0.8"/>
      </g>
     </g>
     <g id="text_9">
      <!-- 500 -->
      <g transform="translate(31.5125 240.361277) scale(0.1 -0.1)">
       <use xlink:href="#DejaVuSans-35"/>
       <use xlink:href="#DejaVuSans-30" x="63.623047"/>
       <use xlink:href="#DejaVuSans-30" x="127.246094"/>
      </g>
     </g>
    </g>
    <g id="ytick_3">
     <g id="line2d_10">
      <g>
       <use xlink:href="#m7b53f6450a" x="57.6" y="177.634993" style="stroke: #000000; stroke-width: 0.8"/>
      </g>
     </g>
     <g id="text_10">
      <!-- 1000 -->
      <g transform="translate(25.15 181.434212) scale(0.1 -0.1)">
       <use xlink:href="#DejaVuSans-31"/>
       <use xlink:href="#DejaVuSans-30" x="63.623047"/>
       <use xlink:href="#DejaVuSans-30" x="127.246094"/>
       <use xlink:href="#DejaVuSans-30" x="190.869141"/>
      </g>
     </g>
    </g>
    <g id="ytick_4">
     <g id="line2d_11">
      <g>
       <use xlink:href="#m7b53f6450a" x="57.6" y="118.707928" style="stroke: #000000; stroke-width: 0.8"/>
      </g>
     </g>
     <g id="text_11">
      <!-- 1500 -->
      <g transform="translate(25.15 122.507147) scale(0.1 -0.1)">
       <use xlink:href="#DejaVuSans-31"/>
       <use xlink:href="#DejaVuSans-35" x="63.623047"/>
       <use xlink:href="#DejaVuSans-30" x="127.246094"/>
       <use xlink:href="#DejaVuSans-30" x="190.869141"/>
      </g>
     </g>
    </g>
    <g id="ytick_5">
     <g id="line2d_12">
      <g>
       <use xlink:href="#m7b53f6450a" x="57.6" y="59.780863" style="stroke: #000000; stroke-width: 0.8"/>
      </g>
     </g>
     <g id="text_12">
      <!-- 2000 -->
      <g transform="translate(25.15 63.580082) scale(0.1 -0.1)">
       <use xlink:href="#DejaVuSans-32"/>
       <use xlink:href="#DejaVuSans-30" x="63.623047"/>
       <use xlink:href="#DejaVuSans-30" x="127.246094"/>
       <use xlink:href="#DejaVuSans-30" x="190.869141"/>
      </g>
     </g>
    </g>
   </g>
   <g id="line2d_13">
    <path d="M 73.832727 135.003048 
L 74.918528 129.028209 
L 76.00433 178.588837 
L 77.090131 144.195767 
L 78.175932 257.500524 
L 79.261733 268.390322 
L 81.433335 282.515153 
L 82.519137 285.917518 
L 83.604938 287.998117 
L 84.690739 289.222454 
L 85.77654 288.700408 
L 86.862341 286.251508 
L 87.948142 284.884919 
L 89.033943 290.824848 
L 90.119745 286.933309 
L 91.205546 288.417855 
L 92.291347 292.120258 
L 93.377148 289.377022 
L 94.462949 292.314543 
L 96.634552 293.352559 
L 97.720353 294.355879 
L 98.806154 293.78101 
L 99.891955 290.903457 
L 100.977756 286.497612 
L 102.063557 287.427826 
L 104.23516 294.132359 
L 105.320961 293.64885 
L 106.406762 291.591048 
L 107.492563 289.836955 
L 108.578364 291.846386 
L 109.664165 285.026787 
L 110.749967 293.798866 
L 111.835768 294.689927 
L 112.921569 294.298447 
L 115.093171 282.163652 
L 116.178972 292.910027 
L 117.264773 288.547793 
L 118.350575 294.611016 
L 119.436376 294.829539 
L 120.522177 294.386836 
L 121.607978 294.326802 
L 122.693779 294.746104 
L 123.77958 294.425518 
L 124.865382 294.644097 
L 125.951183 294.445007 
L 127.036984 292.516038 
L 128.122785 286.061018 
L 129.208586 247.668377 
L 130.294387 293.747171 
L 131.380189 274.839152 
L 132.46599 289.09383 
L 133.551791 294.779109 
L 134.637592 294.622529 
L 135.723393 295.00956 
L 136.809194 295.192648 
L 137.894995 295.123222 
L 138.980797 294.909173 
L 141.152399 294.87008 
L 142.2382 294.530168 
L 143.324001 290.172541 
L 144.409802 275.248856 
L 145.495604 289.022633 
L 146.581405 256.263997 
L 147.667206 275.835299 
L 148.753007 281.9398 
L 149.838808 283.930457 
L 150.924609 288.984142 
L 152.01041 292.420632 
L 153.096212 293.997826 
L 154.182013 295.059839 
L 155.267814 294.934227 
L 156.353615 294.449629 
L 157.439416 295.017713 
L 158.525217 294.982277 
L 159.611019 294.740855 
L 160.69682 295.153643 
L 161.782621 294.508216 
L 162.868422 294.142301 
L 163.954223 289.732147 
L 165.040024 281.264995 
L 166.125825 294.126926 
L 167.211627 287.017713 
L 168.297428 294.653591 
L 169.383229 294.185302 
L 170.46903 295.069113 
L 172.640632 294.894114 
L 173.726434 295.141003 
L 174.812235 295.251029 
L 175.898036 295.166358 
L 176.983837 294.778952 
L 178.069638 294.072717 
L 179.155439 291.482888 
L 180.24124 293.062208 
L 181.327042 293.2288 
L 182.412843 294.714014 
L 183.498644 294.701693 
L 184.584445 294.525362 
L 185.670246 294.158638 
L 186.756047 294.944174 
L 187.841849 292.903661 
L 188.92765 295.031669 
L 190.013451 295.285634 
L 194.356656 295.34705 
L 195.442457 295.090205 
L 196.528258 294.382804 
L 197.614059 290.870915 
L 198.69986 281.285372 
L 199.785661 269.183564 
L 200.871462 293.43972 
L 201.957264 292.232149 
L 203.043065 295.193347 
L 204.128866 294.973614 
L 205.214667 295.227188 
L 206.300468 295.19373 
L 207.386269 295.304084 
L 209.557872 295.298941 
L 210.643673 295.303379 
L 211.729474 294.860123 
L 212.815275 293.751515 
L 213.901076 288.242775 
L 214.986877 278.799497 
L 216.072679 282.079987 
L 217.15848 295.020757 
L 218.244281 294.589219 
L 220.415883 295.310265 
L 223.673287 295.332922 
L 226.93069 295.12316 
L 228.016491 294.821653 
L 229.102292 295.008971 
L 230.188094 294.50661 
L 231.273895 291.92147 
L 232.359696 279.206797 
L 233.445497 294.239451 
L 234.531298 282.475043 
L 235.617099 293.472049 
L 236.702901 295.263996 
L 238.874503 295.382598 
L 245.38931 295.1529 
L 246.475111 294.86053 
L 247.560912 293.77458 
L 248.646713 290.4763 
L 249.732514 294.138657 
L 250.818316 289.080564 
L 251.904117 295.072823 
L 252.989918 295.297314 
L 254.075719 295.207804 
L 255.16152 295.370742 
L 258.418924 295.109369 
L 259.504725 295.123513 
L 260.590526 295.253031 
L 261.676327 294.534567 
L 262.762128 291.367464 
L 263.847929 290.147898 
L 264.933731 289.294423 
L 266.019532 294.922416 
L 268.191134 295.402102 
L 273.62014 295.300107 
L 274.705941 295.076171 
L 275.791742 294.699364 
L 276.877543 292.300508 
L 277.963344 293.057245 
L 279.049146 291.205003 
L 280.134947 294.799572 
L 281.220748 295.381563 
L 282.306549 295.241263 
L 283.39235 295.365617 
L 284.478151 295.265366 
L 285.563953 295.338647 
L 286.649754 294.658492 
L 287.735555 293.522021 
L 288.821356 293.922147 
L 289.907157 292.609207 
L 290.992958 294.486351 
L 292.07876 295.282647 
L 295.336163 295.296433 
L 299.679368 294.798865 
L 301.85097 289.545538 
L 302.936771 292.300116 
L 304.022572 293.056956 
L 305.108373 294.366071 
L 306.194175 295.314446 
L 308.365777 295.403398 
L 311.62318 295.3918 
L 313.794783 295.373346 
L 314.880584 295.199621 
L 315.966385 294.391768 
L 317.052186 288.902587 
L 318.137987 289.198768 
L 319.223788 293.174567 
L 320.30959 294.500188 
L 321.395391 295.248152 
L 322.481192 295.376659 
L 328.995999 295.368991 
L 330.0818 295.083198 
L 331.167601 294.48593 
L 332.253402 291.324225 
L 333.339203 294.356343 
L 334.425005 292.451018 
L 335.510806 295.145327 
L 338.768209 295.359806 
L 344.197215 295.354 
L 346.368817 294.985493 
L 347.454618 293.309519 
L 348.54042 282.436293 
L 349.626221 278.130258 
L 351.797823 294.804566 
L 353.969425 295.383214 
L 356.141028 295.355934 
L 358.31263 295.380354 
L 361.570033 295.444327 
L 363.741636 295.337927 
L 364.827437 295.392349 
L 365.913238 294.806439 
L 366.999039 291.920012 
L 368.08484 285.82611 
L 370.256443 294.756961 
L 371.342244 294.140429 
L 372.428045 295.133794 
L 373.513846 295.362303 
L 376.77125 295.406496 
L 377.857051 295.295462 
L 378.942852 295.346937 
L 381.114454 294.987837 
L 382.200255 294.179845 
L 383.286057 294.833394 
L 384.371858 293.994501 
L 385.457659 295.0264 
L 386.54346 295.285383 
L 388.715062 295.287068 
L 389.800863 294.925174 
L 390.886665 294.26549 
L 391.972466 292.039814 
L 393.058267 295.00762 
L 394.144068 292.269757 
L 395.229869 295.252612 
L 397.401472 295.38751 
L 398.487273 295.346972 
L 398.487273 295.346972 
" clip-path="url(#p8f37a8ea2c)" style="fill: none; stroke: #1f77b4; stroke-width: 1.5; stroke-linecap: square"/>
   </g>
   <g id="line2d_14">
    <path d="M 73.832727 76.800168 
L 74.918528 270.202211 
L 76.00433 53.568 
L 77.090131 261.129148 
L 78.175932 238.426792 
L 79.261733 245.204195 
L 80.347534 274.392255 
L 81.433335 292.675003 
L 82.519137 289.519876 
L 83.604938 282.277286 
L 84.690739 289.670866 
L 85.77654 292.698424 
L 86.862341 292.032341 
L 87.948142 288.614545 
L 89.033943 295.070919 
L 90.119745 295.004923 
L 91.205546 295.2045 
L 92.291347 293.493307 
L 93.377148 291.060191 
L 94.462949 294.748818 
L 95.54875 294.392536 
L 96.634552 295.32805 
L 97.720353 295.20624 
L 98.806154 293.03815 
L 99.891955 293.312875 
L 100.977756 281.530742 
L 102.063557 295.378483 
L 103.149358 295.425289 
L 104.23516 294.535409 
L 105.320961 293.006088 
L 106.406762 292.161821 
L 107.492563 288.45367 
L 108.578364 292.878271 
L 109.664165 294.394809 
L 110.749967 295.025929 
L 111.835768 295.048806 
L 112.921569 294.408545 
L 114.00737 289.153235 
L 115.093171 287.737657 
L 116.178972 295.408919 
L 117.264773 284.782123 
L 118.350575 295.19361 
L 119.436376 295.296443 
L 120.522177 295.211635 
L 121.607978 295.308567 
L 122.693779 294.968051 
L 123.77958 295.106158 
L 124.865382 294.424152 
L 125.951183 295.117787 
L 127.036984 295.411224 
L 128.122785 282.814763 
L 129.208586 288.327084 
L 130.294387 295.019711 
L 131.380189 290.685741 
L 132.46599 294.371053 
L 133.551791 295.101113 
L 136.809194 295.466825 
L 137.894995 295.128615 
L 138.980797 295.40328 
L 140.066598 294.626526 
L 141.152399 295.210401 
L 142.2382 293.764982 
L 143.324001 284.155537 
L 145.495604 291.542309 
L 146.581405 265.39484 
L 147.667206 287.957891 
L 148.753007 283.579884 
L 149.838808 294.08188 
L 150.924609 290.640702 
L 152.01041 295.483278 
L 154.182013 293.927328 
L 155.267814 295.404294 
L 156.353615 293.804226 
L 157.439416 295.329155 
L 158.525217 293.331287 
L 159.611019 294.541418 
L 160.69682 293.24311 
L 161.782621 295.162985 
L 162.868422 295.480263 
L 165.040024 289.595442 
L 166.125825 295.377517 
L 167.211627 293.050526 
L 168.297428 291.769484 
L 169.383229 295.347747 
L 171.554831 294.999625 
L 172.640632 295.25075 
L 173.726434 294.37381 
L 174.812235 295.465175 
L 175.898036 293.53601 
L 176.983837 295.381696 
L 178.069638 283.57348 
L 179.155439 294.856536 
L 180.24124 291.488335 
L 181.327042 295.164592 
L 182.412843 294.877748 
L 183.498644 295.350783 
L 184.584445 295.434775 
L 185.670246 294.088291 
L 186.756047 295.085259 
L 187.841849 294.441513 
L 188.92765 293.152649 
L 190.013451 295.461198 
L 191.099252 294.7219 
L 192.185053 295.483909 
L 193.270854 295.017992 
L 194.356656 295.383527 
L 195.442457 294.072507 
L 196.528258 294.836609 
L 197.614059 287.682972 
L 198.69986 285.255102 
L 199.785661 293.697153 
L 200.871462 294.583393 
L 201.957264 287.751646 
L 203.043065 294.057623 
L 204.128866 294.87733 
L 205.214667 294.467566 
L 206.300468 294.719207 
L 207.386269 295.10468 
L 208.472071 294.488093 
L 209.557872 295.267216 
L 210.643673 294.292253 
L 211.729474 295.483284 
L 212.815275 295.336948 
L 213.901076 291.959974 
L 214.986877 289.187324 
L 216.072679 287.659701 
L 217.15848 294.508458 
L 218.244281 295.320511 
L 219.330082 293.864703 
L 220.415883 294.923694 
L 222.587486 295.142181 
L 223.673287 294.815516 
L 224.759088 295.419519 
L 225.844889 294.861541 
L 226.93069 295.406062 
L 228.016491 294.910335 
L 229.102292 295.445785 
L 230.188094 294.58942 
L 231.273895 293.94475 
L 232.359696 292.959005 
L 233.445497 295.483301 
L 234.531298 284.632748 
L 235.617099 295.477098 
L 236.702901 294.452766 
L 237.788702 295.27443 
L 238.874503 294.743325 
L 239.960304 295.039258 
L 241.046105 294.723659 
L 242.131906 295.415963 
L 243.217708 294.866985 
L 244.303509 295.422961 
L 245.38931 295.278789 
L 247.560912 295.471908 
L 248.646713 292.26225 
L 249.732514 295.054724 
L 250.818316 290.057498 
L 251.904117 294.971198 
L 252.989918 295.378697 
L 254.075719 294.880499 
L 255.16152 295.258604 
L 256.247321 295.372355 
L 257.333123 295.201533 
L 258.418924 295.415161 
L 259.504725 295.29299 
L 260.590526 295.417277 
L 261.676327 295.394554 
L 262.762128 292.076363 
L 263.847929 294.843797 
L 264.933731 292.897388 
L 266.019532 294.744631 
L 267.105333 295.439029 
L 269.276935 295.207471 
L 270.362736 295.464863 
L 271.448538 295.417256 
L 272.534339 295.255883 
L 273.62014 294.780197 
L 274.705941 295.332046 
L 275.791742 294.325021 
L 276.877543 292.236985 
L 277.963344 291.241353 
L 279.049146 295.205743 
L 280.134947 295.476616 
L 281.220748 295.372637 
L 282.306549 294.902642 
L 283.39235 295.461326 
L 284.478151 295.199351 
L 285.563953 295.457142 
L 286.649754 295.257979 
L 287.735555 294.092158 
L 288.821356 294.575879 
L 289.907157 294.726991 
L 290.992958 295.275544 
L 293.164561 295.295668 
L 295.336163 295.181117 
L 297.507765 295.400869 
L 298.593566 295.344572 
L 299.679368 295.153427 
L 300.765169 295.488 
L 301.85097 293.024623 
L 302.936771 293.792539 
L 304.022572 294.077054 
L 305.108373 295.439964 
L 307.279976 295.059246 
L 308.365777 295.431907 
L 310.537379 295.318991 
L 311.62318 295.426706 
L 312.708981 295.32551 
L 314.880584 295.479601 
L 315.966385 294.746202 
L 317.052186 293.25335 
L 318.137987 293.250905 
L 319.223788 294.866438 
L 320.30959 295.043029 
L 321.395391 295.384552 
L 323.566993 295.410531 
L 326.824396 295.394435 
L 327.910198 294.999611 
L 328.995999 295.454158 
L 330.0818 294.442798 
L 331.167601 295.01765 
L 332.253402 292.475773 
L 333.339203 295.285106 
L 334.425005 295.458386 
L 335.510806 295.47797 
L 336.596607 295.308034 
L 337.682408 295.371324 
L 338.768209 295.313659 
L 339.85401 295.389963 
L 340.939811 295.125464 
L 342.025613 295.284382 
L 343.111414 295.118051 
L 344.197215 295.376598 
L 346.368817 295.462248 
L 347.454618 295.383143 
L 348.54042 291.556847 
L 349.626221 286.246114 
L 350.712022 288.729525 
L 351.797823 294.254916 
L 352.883624 295.322425 
L 355.055227 295.293359 
L 356.141028 295.016275 
L 357.226829 295.283847 
L 358.31263 295.178449 
L 359.398431 295.324387 
L 361.570033 295.441235 
L 362.655835 295.104587 
L 363.741636 295.45225 
L 365.913238 295.481658 
L 366.999039 294.353576 
L 368.08484 290.956262 
L 369.170642 293.566618 
L 370.256443 294.006881 
L 371.342244 295.458973 
L 372.428045 295.008556 
L 373.513846 295.344664 
L 374.599647 295.29348 
L 377.857051 295.409074 
L 378.942852 295.113008 
L 380.028653 295.392588 
L 381.114454 293.997286 
L 382.200255 293.714058 
L 383.286057 293.867462 
L 384.371858 295.407717 
L 385.457659 295.03024 
L 386.54346 295.210103 
L 387.629261 294.960783 
L 388.715062 295.380461 
L 389.800863 295.431369 
L 391.972466 295.007286 
L 393.058267 295.166866 
L 394.144068 294.721367 
L 395.229869 293.942404 
L 396.31567 295.288373 
L 397.401472 295.004154 
L 398.487273 295.078439 
L 398.487273 295.078439 
" clip-path="url(#p8f37a8ea2c)" style="fill: none; stroke: #ff7f0e; stroke-opacity: 0.5; stroke-width: 1.5; stroke-linecap: square"/>
   </g>
   <g id="patch_3">
    <path d="M 57.6 307.584 
L 57.6 41.472 
" style="fill: none; stroke: #000000; stroke-width: 0.8; stroke-linejoin: miter; stroke-linecap: square"/>
   </g>
   <g id="patch_4">
    <path d="M 414.72 307.584 
L 414.72 41.472 
" style="fill: none; stroke: #000000; stroke-width: 0.8; stroke-linejoin: miter; stroke-linecap: square"/>
   </g>
   <g id="patch_5">
    <path d="M 57.6 307.584 
L 414.72 307.584 
" style="fill: none; stroke: #000000; stroke-width: 0.8; stroke-linejoin: miter; stroke-linecap: square"/>
   </g>
   <g id="patch_6">
    <path d="M 57.6 41.472 
L 414.72 41.472 
" style="fill: none; stroke: #000000; stroke-width: 0.8; stroke-linejoin: miter; stroke-linecap: square"/>
   </g>
   <g id="legend_1">
    <g id="patch_7">
     <path d="M 351.768438 78.82825 
L 407.72 78.82825 
Q 409.72 78.82825 409.72 76.82825 
L 409.72 48.472 
Q 409.72 46.472 407.72 46.472 
L 351.768438 46.472 
Q 349.768438 46.472 349.768438 48.472 
L 349.768438 76.82825 
Q 349.768438 78.82825 351.768438 78.82825 
z
" style="fill: #ffffff; opacity: 0.8; stroke: #cccccc; stroke-linejoin: miter"/>
    </g>
    <g id="line2d_15">
     <path d="M 353.768438 54.570437 
L 363.768438 54.570437 
L 373.768438 54.570437 
" style="fill: none; stroke: #1f77b4; stroke-width: 1.5; stroke-linecap: square"/>
    </g>
    <g id="text_13">
     <!-- train -->
     <g transform="translate(381.768438 58.070437) scale(0.1 -0.1)">
      <defs>
       <path id="DejaVuSans-74" d="M 1172 4494 
L 1172 3500 
L 2356 3500 
L 2356 3053 
L 1172 3053 
L 1172 1153 
Q 1172 725 1289 603 
Q 1406 481 1766 481 
L 2356 481 
L 2356 0 
L 1766 0 
Q 1100 0 847 248 
Q 594 497 594 1153 
L 594 3053 
L 172 3053 
L 172 3500 
L 594 3500 
L 594 4494 
L 1172 4494 
z
" transform="scale(0.015625)"/>
       <path id="DejaVuSans-72" d="M 2631 2963 
Q 2534 3019 2420 3045 
Q 2306 3072 2169 3072 
Q 1681 3072 1420 2755 
Q 1159 2438 1159 1844 
L 1159 0 
L 581 0 
L 581 3500 
L 1159 3500 
L 1159 2956 
Q 1341 3275 1631 3429 
Q 1922 3584 2338 3584 
Q 2397 3584 2469 3576 
Q 2541 3569 2628 3553 
L 2631 2963 
z
" transform="scale(0.015625)"/>
       <path id="DejaVuSans-61" d="M 2194 1759 
Q 1497 1759 1228 1600 
Q 959 1441 959 1056 
Q 959 750 1161 570 
Q 1363 391 1709 391 
Q 2188 391 2477 730 
Q 2766 1069 2766 1631 
L 2766 1759 
L 2194 1759 
z
M 3341 1997 
L 3341 0 
L 2766 0 
L 2766 531 
Q 2569 213 2275 61 
Q 1981 -91 1556 -91 
Q 1019 -91 701 211 
Q 384 513 384 1019 
Q 384 1609 779 1909 
Q 1175 2209 1959 2209 
L 2766 2209 
L 2766 2266 
Q 2766 2663 2505 2880 
Q 2244 3097 1772 3097 
Q 1472 3097 1187 3025 
Q 903 2953 641 2809 
L 641 3341 
Q 956 3463 1253 3523 
Q 1550 3584 1831 3584 
Q 2591 3584 2966 3190 
Q 3341 2797 3341 1997 
z
" transform="scale(0.015625)"/>
       <path id="DejaVuSans-69" d="M 603 3500 
L 1178 3500 
L 1178 0 
L 603 0 
L 603 3500 
z
M 603 4863 
L 1178 4863 
L 1178 4134 
L 603 4134 
L 603 4863 
z
" transform="scale(0.015625)"/>
       <path id="DejaVuSans-6e" d="M 3513 2113 
L 3513 0 
L 2938 0 
L 2938 2094 
Q 2938 2591 2744 2837 
Q 2550 3084 2163 3084 
Q 1697 3084 1428 2787 
Q 1159 2491 1159 1978 
L 1159 0 
L 581 0 
L 581 3500 
L 1159 3500 
L 1159 2956 
Q 1366 3272 1645 3428 
Q 1925 3584 2291 3584 
Q 2894 3584 3203 3211 
Q 3513 2838 3513 2113 
z
" transform="scale(0.015625)"/>
      </defs>
      <use xlink:href="#DejaVuSans-74"/>
      <use xlink:href="#DejaVuSans-72" x="39.208984"/>
      <use xlink:href="#DejaVuSans-61" x="80.322266"/>
      <use xlink:href="#DejaVuSans-69" x="141.601562"/>
      <use xlink:href="#DejaVuSans-6e" x="169.384766"/>
     </g>
    </g>
    <g id="line2d_16">
     <path d="M 353.768438 69.248562 
L 363.768438 69.248562 
L 373.768438 69.248562 
" style="fill: none; stroke: #ff7f0e; stroke-opacity: 0.5; stroke-width: 1.5; stroke-linecap: square"/>
    </g>
    <g id="text_14">
     <!-- valid -->
     <g transform="translate(381.768438 72.748562) scale(0.1 -0.1)">
      <defs>
       <path id="DejaVuSans-76" d="M 191 3500 
L 800 3500 
L 1894 563 
L 2988 3500 
L 3597 3500 
L 2284 0 
L 1503 0 
L 191 3500 
z
" transform="scale(0.015625)"/>
       <path id="DejaVuSans-6c" d="M 603 4863 
L 1178 4863 
L 1178 0 
L 603 0 
L 603 4863 
z
" transform="scale(0.015625)"/>
       <path id="DejaVuSans-64" d="M 2906 2969 
L 2906 4863 
L 3481 4863 
L 3481 0 
L 2906 0 
L 2906 525 
Q 2725 213 2448 61 
Q 2172 -91 1784 -91 
Q 1150 -91 751 415 
Q 353 922 353 1747 
Q 353 2572 751 3078 
Q 1150 3584 1784 3584 
Q 2172 3584 2448 3432 
Q 2725 3281 2906 2969 
z
M 947 1747 
Q 947 1113 1208 752 
Q 1469 391 1925 391 
Q 2381 391 2643 752 
Q 2906 1113 2906 1747 
Q 2906 2381 2643 2742 
Q 2381 3103 1925 3103 
Q 1469 3103 1208 2742 
Q 947 2381 947 1747 
z
" transform="scale(0.015625)"/>
      </defs>
      <use xlink:href="#DejaVuSans-76"/>
      <use xlink:href="#DejaVuSans-61" x="59.179688"/>
      <use xlink:href="#DejaVuSans-6c" x="120.458984"/>
      <use xlink:href="#DejaVuSans-69" x="148.242188"/>
      <use xlink:href="#DejaVuSans-64" x="176.025391"/>
     </g>
    </g>
   </g>
  </g>
 </g>
 <defs>
  <clipPath id="p8f37a8ea2c">
   <rect x="57.6" y="41.472" width="357.12" height="266.112"/>
  </clipPath>
 </defs>
</svg>
