<?xml version="1.0" encoding="utf-8" standalone="no"?>
<!DOCTYPE svg PUBLIC "-//W3C//DTD SVG 1.1//EN"
  "http://www.w3.org/Graphics/SVG/1.1/DTD/svg11.dtd">
<svg xmlns:xlink="http://www.w3.org/1999/xlink" width="460.8pt" height="345.6pt" viewBox="0 0 460.8 345.6" xmlns="http://www.w3.org/2000/svg" version="1.1">
 <metadata>
  <rdf:RDF xmlns:dc="http://purl.org/dc/elements/1.1/" xmlns:cc="http://creativecommons.org/ns#" xmlns:rdf="http://www.w3.org/1999/02/22-rdf-syntax-ns#">
   <cc:Work>
    <dc:type rdf:resource="http://purl.org/dc/dcmitype/StillImage"/>
    <dc:date>2023-12-04T08:32:34.157244</dc:date>
    <dc:format>image/svg+xml</dc:format>
    <dc:creator>
     <cc:Agent>
      <dc:title>Matplotlib v3.7.3, https://matplotlib.org/</dc:title>
     </cc:Agent>
    </dc:creator>
   </cc:Work>
  </rdf:RDF>
 </metadata>
 <defs>
  <style type="text/css">*{stroke-linejoin: round; stroke-linecap: butt}</style>
 </defs>
 <g id="figure_1">
  <g id="patch_1">
   <path d="M 0 345.6 
L 460.8 345.6 
L 460.8 0 
L 0 0 
z
" style="fill: #ffffff"/>
  </g>
  <g id="axes_1">
   <g id="patch_2">
    <path d="M 57.6 307.584 
L 414.72 307.584 
L 414.72 41.472 
L 57.6 41.472 
z
" style="fill: #ffffff"/>
   </g>
   <g id="matplotlib.axis_1">
    <g id="xtick_1">
     <g id="line2d_1">
      <defs>
       <path id="m4820203f0d" d="M 0 0 
L 0 3.5 
" style="stroke: #000000; stroke-width: 0.8"/>
      </defs>
      <g>
       <use xlink:href="#m4820203f0d" x="73.832727" y="307.584" style="stroke: #000000; stroke-width: 0.8"/>
      </g>
     </g>
     <g id="text_1">
      <!-- 0 -->
      <g transform="translate(70.651477 322.182437) scale(0.1 -0.1)">
       <defs>
        <path id="DejaVuSans-30" d="M 2034 4250 
Q 1547 4250 1301 3770 
Q 1056 3291 1056 2328 
Q 1056 1369 1301 889 
Q 1547 409 2034 409 
Q 2525 409 2770 889 
Q 3016 1369 3016 2328 
Q 3016 3291 2770 3770 
Q 2525 4250 2034 4250 
z
M 2034 4750 
Q 2819 4750 3233 4129 
Q 3647 3509 3647 2328 
Q 3647 1150 3233 529 
Q 2819 -91 2034 -91 
Q 1250 -91 836 529 
Q 422 1150 422 2328 
Q 422 3509 836 4129 
Q 1250 4750 2034 4750 
z
" transform="scale(0.015625)"/>
       </defs>
       <use xlink:href="#DejaVuSans-30"/>
      </g>
     </g>
    </g>
    <g id="xtick_2">
     <g id="line2d_2">
      <g>
       <use xlink:href="#m4820203f0d" x="128.122785" y="307.584" style="stroke: #000000; stroke-width: 0.8"/>
      </g>
     </g>
     <g id="text_2">
      <!-- 50 -->
      <g transform="translate(121.760285 322.182437) scale(0.1 -0.1)">
       <defs>
        <path id="DejaVuSans-35" d="M 691 4666 
L 3169 4666 
L 3169 4134 
L 1269 4134 
L 1269 2991 
Q 1406 3038 1543 3061 
Q 1681 3084 1819 3084 
Q 2600 3084 3056 2656 
Q 3513 2228 3513 1497 
Q 3513 744 3044 326 
Q 2575 -91 1722 -91 
Q 1428 -91 1123 -41 
Q 819 9 494 109 
L 494 744 
Q 775 591 1075 516 
Q 1375 441 1709 441 
Q 2250 441 2565 725 
Q 2881 1009 2881 1497 
Q 2881 1984 2565 2268 
Q 2250 2553 1709 2553 
Q 1456 2553 1204 2497 
Q 953 2441 691 2322 
L 691 4666 
z
" transform="scale(0.015625)"/>
       </defs>
       <use xlink:href="#DejaVuSans-35"/>
       <use xlink:href="#DejaVuSans-30" x="63.623047"/>
      </g>
     </g>
    </g>
    <g id="xtick_3">
     <g id="line2d_3">
      <g>
       <use xlink:href="#m4820203f0d" x="182.412843" y="307.584" style="stroke: #000000; stroke-width: 0.8"/>
      </g>
     </g>
     <g id="text_3">
      <!-- 100 -->
      <g transform="translate(172.869093 322.182437) scale(0.1 -0.1)">
       <defs>
        <path id="DejaVuSans-31" d="M 794 531 
L 1825 531 
L 1825 4091 
L 703 3866 
L 703 4441 
L 1819 4666 
L 2450 4666 
L 2450 531 
L 3481 531 
L 3481 0 
L 794 0 
L 794 531 
z
" transform="scale(0.015625)"/>
       </defs>
       <use xlink:href="#DejaVuSans-31"/>
       <use xlink:href="#DejaVuSans-30" x="63.623047"/>
       <use xlink:href="#DejaVuSans-30" x="127.246094"/>
      </g>
     </g>
    </g>
    <g id="xtick_4">
     <g id="line2d_4">
      <g>
       <use xlink:href="#m4820203f0d" x="236.702901" y="307.584" style="stroke: #000000; stroke-width: 0.8"/>
      </g>
     </g>
     <g id="text_4">
      <!-- 150 -->
      <g transform="translate(227.159151 322.182437) scale(0.1 -0.1)">
       <use xlink:href="#DejaVuSans-31"/>
       <use xlink:href="#DejaVuSans-35" x="63.623047"/>
       <use xlink:href="#DejaVuSans-30" x="127.246094"/>
      </g>
     </g>
    </g>
    <g id="xtick_5">
     <g id="line2d_5">
      <g>
       <use xlink:href="#m4820203f0d" x="290.992958" y="307.584" style="stroke: #000000; stroke-width: 0.8"/>
      </g>
     </g>
     <g id="text_5">
      <!-- 200 -->
      <g transform="translate(281.449208 322.182437) scale(0.1 -0.1)">
       <defs>
        <path id="DejaVuSans-32" d="M 1228 531 
L 3431 531 
L 3431 0 
L 469 0 
L 469 531 
Q 828 903 1448 1529 
Q 2069 2156 2228 2338 
Q 2531 2678 2651 2914 
Q 2772 3150 2772 3378 
Q 2772 3750 2511 3984 
Q 2250 4219 1831 4219 
Q 1534 4219 1204 4116 
Q 875 4013 500 3803 
L 500 4441 
Q 881 4594 1212 4672 
Q 1544 4750 1819 4750 
Q 2544 4750 2975 4387 
Q 3406 4025 3406 3419 
Q 3406 3131 3298 2873 
Q 3191 2616 2906 2266 
Q 2828 2175 2409 1742 
Q 1991 1309 1228 531 
z
" transform="scale(0.015625)"/>
       </defs>
       <use xlink:href="#DejaVuSans-32"/>
       <use xlink:href="#DejaVuSans-30" x="63.623047"/>
       <use xlink:href="#DejaVuSans-30" x="127.246094"/>
      </g>
     </g>
    </g>
    <g id="xtick_6">
     <g id="line2d_6">
      <g>
       <use xlink:href="#m4820203f0d" x="345.283016" y="307.584" style="stroke: #000000; stroke-width: 0.8"/>
      </g>
     </g>
     <g id="text_6">
      <!-- 250 -->
      <g transform="translate(335.739266 322.182437) scale(0.1 -0.1)">
       <use xlink:href="#DejaVuSans-32"/>
       <use xlink:href="#DejaVuSans-35" x="63.623047"/>
       <use xlink:href="#DejaVuSans-30" x="127.246094"/>
      </g>
     </g>
    </g>
    <g id="xtick_7">
     <g id="line2d_7">
      <g>
       <use xlink:href="#m4820203f0d" x="399.573074" y="307.584" style="stroke: #000000; stroke-width: 0.8"/>
      </g>
     </g>
     <g id="text_7">
      <!-- 300 -->
      <g transform="translate(390.029324 322.182437) scale(0.1 -0.1)">
       <defs>
        <path id="DejaVuSans-33" d="M 2597 2516 
Q 3050 2419 3304 2112 
Q 3559 1806 3559 1356 
Q 3559 666 3084 287 
Q 2609 -91 1734 -91 
Q 1441 -91 1130 -33 
Q 819 25 488 141 
L 488 750 
Q 750 597 1062 519 
Q 1375 441 1716 441 
Q 2309 441 2620 675 
Q 2931 909 2931 1356 
Q 2931 1769 2642 2001 
Q 2353 2234 1838 2234 
L 1294 2234 
L 1294 2753 
L 1863 2753 
Q 2328 2753 2575 2939 
Q 2822 3125 2822 3475 
Q 2822 3834 2567 4026 
Q 2313 4219 1838 4219 
Q 1578 4219 1281 4162 
Q 984 4106 628 3988 
L 628 4550 
Q 988 4650 1302 4700 
Q 1616 4750 1894 4750 
Q 2613 4750 3031 4423 
Q 3450 4097 3450 3541 
Q 3450 3153 3228 2886 
Q 3006 2619 2597 2516 
z
" transform="scale(0.015625)"/>
       </defs>
       <use xlink:href="#DejaVuSans-33"/>
       <use xlink:href="#DejaVuSans-30" x="63.623047"/>
       <use xlink:href="#DejaVuSans-30" x="127.246094"/>
      </g>
     </g>
    </g>
   </g>
   <g id="matplotlib.axis_2">
    <g id="ytick_1">
     <g id="line2d_8">
      <defs>
       <path id="meb787a100e" d="M 0 0 
L -3.5 0 
" style="stroke: #000000; stroke-width: 0.8"/>
      </defs>
      <g>
       <use xlink:href="#meb787a100e" x="57.6" y="295.488793" style="stroke: #000000; stroke-width: 0.8"/>
      </g>
     </g>
     <g id="text_8">
      <!-- 0 -->
      <g transform="translate(44.2375 299.288012) scale(0.1 -0.1)">
       <use xlink:href="#DejaVuSans-30"/>
      </g>
     </g>
    </g>
    <g id="ytick_2">
     <g id="line2d_9">
      <g>
       <use xlink:href="#meb787a100e" x="57.6" y="256.004009" style="stroke: #000000; stroke-width: 0.8"/>
      </g>
     </g>
     <g id="text_9">
      <!-- 200 -->
      <g transform="translate(31.5125 259.803228) scale(0.1 -0.1)">
       <use xlink:href="#DejaVuSans-32"/>
       <use xlink:href="#DejaVuSans-30" x="63.623047"/>
       <use xlink:href="#DejaVuSans-30" x="127.246094"/>
      </g>
     </g>
    </g>
    <g id="ytick_3">
     <g id="line2d_10">
      <g>
       <use xlink:href="#meb787a100e" x="57.6" y="216.519225" style="stroke: #000000; stroke-width: 0.8"/>
      </g>
     </g>
     <g id="text_10">
      <!-- 400 -->
      <g transform="translate(31.5125 220.318444) scale(0.1 -0.1)">
       <defs>
        <path id="DejaVuSans-34" d="M 2419 4116 
L 825 1625 
L 2419 1625 
L 2419 4116 
z
M 2253 4666 
L 3047 4666 
L 3047 1625 
L 3713 1625 
L 3713 1100 
L 3047 1100 
L 3047 0 
L 2419 0 
L 2419 1100 
L 313 1100 
L 313 1709 
L 2253 4666 
z
" transform="scale(0.015625)"/>
       </defs>
       <use xlink:href="#DejaVuSans-34"/>
       <use xlink:href="#DejaVuSans-30" x="63.623047"/>
       <use xlink:href="#DejaVuSans-30" x="127.246094"/>
      </g>
     </g>
    </g>
    <g id="ytick_4">
     <g id="line2d_11">
      <g>
       <use xlink:href="#meb787a100e" x="57.6" y="177.034442" style="stroke: #000000; stroke-width: 0.8"/>
      </g>
     </g>
     <g id="text_11">
      <!-- 600 -->
      <g transform="translate(31.5125 180.83366) scale(0.1 -0.1)">
       <defs>
        <path id="DejaVuSans-36" d="M 2113 2584 
Q 1688 2584 1439 2293 
Q 1191 2003 1191 1497 
Q 1191 994 1439 701 
Q 1688 409 2113 409 
Q 2538 409 2786 701 
Q 3034 994 3034 1497 
Q 3034 2003 2786 2293 
Q 2538 2584 2113 2584 
z
M 3366 4563 
L 3366 3988 
Q 3128 4100 2886 4159 
Q 2644 4219 2406 4219 
Q 1781 4219 1451 3797 
Q 1122 3375 1075 2522 
Q 1259 2794 1537 2939 
Q 1816 3084 2150 3084 
Q 2853 3084 3261 2657 
Q 3669 2231 3669 1497 
Q 3669 778 3244 343 
Q 2819 -91 2113 -91 
Q 1303 -91 875 529 
Q 447 1150 447 2328 
Q 447 3434 972 4092 
Q 1497 4750 2381 4750 
Q 2619 4750 2861 4703 
Q 3103 4656 3366 4563 
z
" transform="scale(0.015625)"/>
       </defs>
       <use xlink:href="#DejaVuSans-36"/>
       <use xlink:href="#DejaVuSans-30" x="63.623047"/>
       <use xlink:href="#DejaVuSans-30" x="127.246094"/>
      </g>
     </g>
    </g>
    <g id="ytick_5">
     <g id="line2d_12">
      <g>
       <use xlink:href="#meb787a100e" x="57.6" y="137.549658" style="stroke: #000000; stroke-width: 0.8"/>
      </g>
     </g>
     <g id="text_12">
      <!-- 800 -->
      <g transform="translate(31.5125 141.348877) scale(0.1 -0.1)">
       <defs>
        <path id="DejaVuSans-38" d="M 2034 2216 
Q 1584 2216 1326 1975 
Q 1069 1734 1069 1313 
Q 1069 891 1326 650 
Q 1584 409 2034 409 
Q 2484 409 2743 651 
Q 3003 894 3003 1313 
Q 3003 1734 2745 1975 
Q 2488 2216 2034 2216 
z
M 1403 2484 
Q 997 2584 770 2862 
Q 544 3141 544 3541 
Q 544 4100 942 4425 
Q 1341 4750 2034 4750 
Q 2731 4750 3128 4425 
Q 3525 4100 3525 3541 
Q 3525 3141 3298 2862 
Q 3072 2584 2669 2484 
Q 3125 2378 3379 2068 
Q 3634 1759 3634 1313 
Q 3634 634 3220 271 
Q 2806 -91 2034 -91 
Q 1263 -91 848 271 
Q 434 634 434 1313 
Q 434 1759 690 2068 
Q 947 2378 1403 2484 
z
M 1172 3481 
Q 1172 3119 1398 2916 
Q 1625 2713 2034 2713 
Q 2441 2713 2670 2916 
Q 2900 3119 2900 3481 
Q 2900 3844 2670 4047 
Q 2441 4250 2034 4250 
Q 1625 4250 1398 4047 
Q 1172 3844 1172 3481 
z
" transform="scale(0.015625)"/>
       </defs>
       <use xlink:href="#DejaVuSans-38"/>
       <use xlink:href="#DejaVuSans-30" x="63.623047"/>
       <use xlink:href="#DejaVuSans-30" x="127.246094"/>
      </g>
     </g>
    </g>
    <g id="ytick_6">
     <g id="line2d_13">
      <g>
       <use xlink:href="#meb787a100e" x="57.6" y="98.064874" style="stroke: #000000; stroke-width: 0.8"/>
      </g>
     </g>
     <g id="text_13">
      <!-- 1000 -->
      <g transform="translate(25.15 101.864093) scale(0.1 -0.1)">
       <use xlink:href="#DejaVuSans-31"/>
       <use xlink:href="#DejaVuSans-30" x="63.623047"/>
       <use xlink:href="#DejaVuSans-30" x="127.246094"/>
       <use xlink:href="#DejaVuSans-30" x="190.869141"/>
      </g>
     </g>
    </g>
    <g id="ytick_7">
     <g id="line2d_14">
      <g>
       <use xlink:href="#meb787a100e" x="57.6" y="58.58009" style="stroke: #000000; stroke-width: 0.8"/>
      </g>
     </g>
     <g id="text_14">
      <!-- 1200 -->
      <g transform="translate(25.15 62.379309) scale(0.1 -0.1)">
       <use xlink:href="#DejaVuSans-31"/>
       <use xlink:href="#DejaVuSans-32" x="63.623047"/>
       <use xlink:href="#DejaVuSans-30" x="127.246094"/>
       <use xlink:href="#DejaVuSans-30" x="190.869141"/>
      </g>
     </g>
    </g>
   </g>
   <g id="line2d_15">
    <path d="M 73.832727 105.901785 
L 74.918528 118.389057 
L 76.00433 239.229351 
L 77.090131 264.373242 
L 78.175932 267.721547 
L 79.261733 263.296938 
L 80.347534 275.5879 
L 81.433335 261.510372 
L 84.690739 85.736086 
L 85.77654 211.435387 
L 86.862341 273.198277 
L 87.948142 266.104513 
L 89.033943 280.317127 
L 90.119745 277.898195 
L 91.205546 262.236407 
L 92.291347 277.198878 
L 93.377148 271.787754 
L 94.462949 276.400364 
L 95.54875 272.966925 
L 96.634552 260.209824 
L 97.720353 271.264867 
L 98.806154 270.840528 
L 99.891955 278.407154 
L 100.977756 267.111247 
L 102.063557 279.189835 
L 103.149358 278.622875 
L 104.23516 273.201338 
L 105.320961 261.868011 
L 106.406762 219.062696 
L 107.492563 277.243418 
L 108.578364 269.339385 
L 109.664165 235.077656 
L 110.749967 262.726839 
L 111.835768 278.366321 
L 112.921569 265.941685 
L 114.00737 275.130745 
L 115.093171 274.877336 
L 116.178972 268.29425 
L 117.264773 269.336946 
L 119.436376 284.294549 
L 120.522177 278.535377 
L 121.607978 281.849346 
L 123.77958 227.971153 
L 124.865382 277.378878 
L 125.951183 265.54856 
L 127.036984 268.30671 
L 128.122785 274.109078 
L 129.208586 281.994249 
L 130.294387 273.786183 
L 131.380189 285.39504 
L 132.46599 277.657733 
L 133.551791 276.512639 
L 134.637592 274.312384 
L 135.723393 282.491176 
L 136.809194 267.585843 
L 137.894995 261.515658 
L 138.980797 277.279191 
L 140.066598 266.218594 
L 141.152399 274.073866 
L 142.2382 276.731854 
L 143.324001 275.528336 
L 144.409802 276.195893 
L 145.495604 279.753581 
L 146.581405 269.322211 
L 147.667206 274.504863 
L 148.753007 282.354478 
L 149.838808 276.819884 
L 150.924609 283.27873 
L 152.01041 284.180633 
L 153.096212 284.239557 
L 154.182013 274.026433 
L 155.267814 271.005337 
L 156.353615 274.701921 
L 157.439416 280.076858 
L 158.525217 280.126671 
L 159.611019 274.102736 
L 160.69682 275.621725 
L 161.782621 281.351309 
L 162.868422 280.535813 
L 163.954223 284.733425 
L 165.040024 282.633124 
L 166.125825 286.43681 
L 167.211627 278.609745 
L 168.297428 272.558781 
L 169.383229 279.524512 
L 170.46903 271.331059 
L 171.554831 273.259549 
L 172.640632 285.223327 
L 173.726434 282.4816 
L 174.812235 279.09781 
L 175.898036 285.658864 
L 176.983837 283.874889 
L 178.069638 285.024629 
L 179.155439 286.506569 
L 180.24124 263.647691 
L 181.327042 236.785529 
L 182.412843 242.531999 
L 183.498644 283.685411 
L 184.584445 261.103058 
L 185.670246 279.771511 
L 186.756047 280.710437 
L 187.841849 285.210903 
L 188.92765 279.906458 
L 190.013451 286.866163 
L 192.185053 286.112179 
L 193.270854 280.584649 
L 194.356656 280.226355 
L 195.442457 285.258312 
L 196.528258 286.642712 
L 197.614059 288.331889 
L 198.69986 283.804154 
L 199.785661 287.368032 
L 200.871462 289.596053 
L 201.957264 285.825951 
L 203.043065 279.532824 
L 204.128866 286.227045 
L 205.214667 286.262902 
L 206.300468 284.848273 
L 207.386269 289.828069 
L 208.472071 289.667765 
L 209.557872 289.69578 
L 210.643673 272.207495 
L 211.729474 243.413914 
L 212.815275 286.59026 
L 213.901076 285.484689 
L 214.986877 286.606035 
L 216.072679 289.613569 
L 217.15848 290.108785 
L 218.244281 290.19339 
L 219.330082 287.682346 
L 220.415883 284.425066 
L 221.501684 277.192313 
L 222.587486 276.5616 
L 223.673287 286.970489 
L 224.759088 289.957708 
L 225.844889 287.207672 
L 226.93069 287.062506 
L 228.016491 284.443084 
L 229.102292 279.567342 
L 230.188094 289.012337 
L 231.273895 289.137632 
L 232.359696 291.04617 
L 233.445497 284.699396 
L 234.531298 275.823066 
L 235.617099 282.670722 
L 236.702901 284.254381 
L 237.788702 288.238327 
L 238.874503 286.718089 
L 239.960304 291.384356 
L 241.046105 291.75549 
L 242.131906 289.590116 
L 243.217708 290.21462 
L 244.303509 288.695401 
L 245.38931 290.621082 
L 246.475111 286.032843 
L 247.560912 288.719283 
L 248.646713 286.03303 
L 249.732514 276.252006 
L 250.818316 288.069362 
L 251.904117 291.784917 
L 252.989918 292.393238 
L 254.075719 291.812207 
L 256.247321 275.737556 
L 257.333123 289.663684 
L 258.418924 288.300917 
L 259.504725 288.962465 
L 260.590526 290.180296 
L 261.676327 290.803749 
L 262.762128 290.04665 
L 263.847929 280.774305 
L 264.933731 263.894414 
L 266.019532 289.811309 
L 267.105333 286.110041 
L 268.191134 291.445741 
L 269.276935 291.526023 
L 270.362736 290.265453 
L 271.448538 293.412649 
L 272.534339 293.264751 
L 273.62014 289.212986 
L 274.705941 267.945714 
L 275.791742 282.135553 
L 276.877543 281.933678 
L 277.963344 290.290887 
L 279.049146 289.986696 
L 280.134947 291.285859 
L 281.220748 291.02709 
L 282.306549 289.207446 
L 283.39235 290.564561 
L 284.478151 290.35548 
L 285.563953 290.634315 
L 286.649754 290.009996 
L 287.735555 292.589287 
L 288.821356 293.487741 
L 289.907157 289.541125 
L 290.992958 278.266972 
L 292.07876 290.180011 
L 293.164561 289.718414 
L 294.250362 293.304155 
L 295.336163 293.888383 
L 296.421964 294.088623 
L 297.507765 293.923878 
L 298.593566 294.133002 
L 299.679368 294.073859 
L 300.765169 286.584461 
L 301.85097 283.346112 
L 302.936771 278.641037 
L 304.022572 290.518994 
L 305.108373 292.661202 
L 306.194175 291.190684 
L 307.279976 293.699331 
L 308.365777 292.261135 
L 309.451578 290.16578 
L 310.537379 291.786827 
L 312.708981 293.457919 
L 313.794783 294.127542 
L 314.880584 294.240861 
L 315.966385 294.221491 
L 318.137987 294.83017 
L 319.223788 294.03609 
L 320.30959 294.48055 
L 321.395391 289.958897 
L 323.566993 285.797615 
L 324.652794 274.600561 
L 325.738595 227.640972 
L 326.824396 283.622473 
L 327.910198 247.039469 
L 328.995999 251.699085 
L 330.0818 248.528734 
L 331.167601 243.701586 
L 332.253402 238.272818 
L 333.339203 249.543295 
L 334.425005 252.226171 
L 335.510806 268.492902 
L 336.596607 265.060034 
L 337.682408 277.087487 
L 338.768209 273.618462 
L 339.85401 283.333614 
L 340.939811 287.410192 
L 342.025613 287.790247 
L 343.111414 287.906388 
L 344.197215 282.305561 
L 345.283016 282.406804 
L 346.368817 280.144166 
L 347.454618 279.112064 
L 348.54042 282.583553 
L 349.626221 273.457005 
L 350.712022 276.737743 
L 351.797823 276.561729 
L 352.883624 281.435521 
L 353.969425 277.978689 
L 355.055227 278.183235 
L 356.141028 275.591157 
L 357.226829 268.618478 
L 358.31263 265.742744 
L 359.398431 274.628661 
L 360.484232 277.653208 
L 361.570033 279.99014 
L 362.655835 269.94931 
L 363.741636 272.146158 
L 364.827437 279.571175 
L 365.913238 281.483895 
L 366.999039 277.48941 
L 368.08484 283.729767 
L 369.170642 284.061718 
L 370.256443 284.767896 
L 371.342244 283.79817 
L 372.428045 288.308372 
L 373.513846 282.527127 
L 374.599647 283.240308 
L 375.685448 281.793608 
L 376.77125 282.779665 
L 377.857051 278.883317 
L 378.942852 279.805202 
L 380.028653 280.068517 
L 381.114454 278.968505 
L 382.200255 274.030249 
L 384.371858 276.296772 
L 385.457659 279.34081 
L 386.54346 281.596579 
L 387.629261 282.830684 
L 388.715062 279.677797 
L 389.800863 282.454639 
L 390.886665 278.674176 
L 391.972466 280.737068 
L 393.058267 277.343088 
L 394.144068 278.313151 
L 395.229869 279.478134 
L 396.31567 281.222202 
L 397.401472 287.728806 
L 398.487273 288.034194 
L 398.487273 288.034194 
" clip-path="url(#p7d00042898)" style="fill: none; stroke: #1f77b4; stroke-width: 1.5; stroke-linecap: square"/>
   </g>
   <g id="line2d_16">
    <path d="M 73.832727 204.692106 
L 74.918528 258.642467 
L 76.00433 294.075638 
L 77.090131 293.027805 
L 78.175932 293.506079 
L 79.261733 293.83409 
L 80.347534 291.378367 
L 81.433335 282.036882 
L 82.519137 212.443188 
L 83.604938 53.568 
L 84.690739 222.129877 
L 85.77654 293.432568 
L 86.862341 293.294171 
L 87.948142 292.23526 
L 89.033943 292.112711 
L 90.119745 293.480695 
L 91.205546 293.578094 
L 92.291347 292.263244 
L 93.377148 290.518858 
L 94.462949 286.640174 
L 95.54875 291.594009 
L 96.634552 288.827029 
L 97.720353 290.155253 
L 98.806154 294.052124 
L 99.891955 292.242968 
L 100.977756 294.698359 
L 102.063557 294.53592 
L 103.149358 293.552225 
L 104.23516 295.169774 
L 105.320961 291.32748 
L 106.406762 270.987783 
L 107.492563 280.640717 
L 108.578364 294.284624 
L 109.664165 273.115787 
L 110.749967 293.859877 
L 111.835768 293.268084 
L 112.921569 295.05529 
L 114.00737 292.389084 
L 115.093171 289.282649 
L 116.178972 294.725629 
L 117.264773 292.39715 
L 118.350575 295.165634 
L 119.436376 292.930553 
L 120.522177 294.433833 
L 121.607978 294.246791 
L 122.693779 284.772568 
L 123.77958 254.322842 
L 124.865382 290.980136 
L 125.951183 288.444128 
L 127.036984 291.45452 
L 128.122785 294.089427 
L 129.208586 294.154635 
L 130.294387 294.91951 
L 131.380189 294.496663 
L 132.46599 288.831227 
L 133.551791 293.826064 
L 134.637592 295.327446 
L 135.723393 292.484938 
L 136.809194 291.786839 
L 137.894995 287.161146 
L 138.980797 294.193757 
L 140.066598 286.31885 
L 141.152399 287.347304 
L 142.2382 294.505566 
L 143.324001 295.235546 
L 145.495604 292.989862 
L 146.581405 289.176682 
L 147.667206 294.687792 
L 148.753007 290.521588 
L 149.838808 291.489482 
L 150.924609 294.730293 
L 152.01041 291.766854 
L 153.096212 294.527352 
L 154.182013 294.543972 
L 155.267814 287.101373 
L 156.353615 288.164647 
L 157.439416 289.56026 
L 158.525217 293.238252 
L 159.611019 290.340019 
L 160.69682 294.601161 
L 161.782621 293.925707 
L 162.868422 294.933696 
L 163.954223 294.577978 
L 165.040024 293.125119 
L 166.125825 294.281418 
L 167.211627 291.211114 
L 168.297428 281.33827 
L 169.383229 276.798755 
L 170.46903 295.403372 
L 171.554831 294.28185 
L 172.640632 292.548296 
L 173.726434 292.682573 
L 174.812235 294.387776 
L 175.898036 291.594756 
L 176.983837 294.313011 
L 178.069638 288.792751 
L 179.155439 294.03046 
L 180.24124 294.815036 
L 181.327042 254.530069 
L 182.412843 280.4274 
L 183.498644 291.309692 
L 184.584445 279.23172 
L 185.670246 293.803247 
L 186.756047 293.680652 
L 187.841849 291.829102 
L 188.92765 294.616728 
L 190.013451 294.502347 
L 191.099252 290.501356 
L 192.185053 291.175038 
L 193.270854 270.575645 
L 194.356656 295.176193 
L 195.442457 294.502708 
L 196.528258 294.353769 
L 197.614059 295.019521 
L 198.69986 295.332979 
L 199.785661 294.971094 
L 200.871462 292.83286 
L 201.957264 293.440694 
L 203.043065 293.800288 
L 204.128866 294.916671 
L 205.214667 295.001925 
L 206.300468 292.462159 
L 207.386269 294.945776 
L 208.472071 294.898893 
L 209.557872 295.319269 
L 210.643673 290.265423 
L 211.729474 262.817189 
L 212.815275 295.177633 
L 213.901076 294.541382 
L 214.986877 289.314139 
L 216.072679 295.430408 
L 217.15848 295.171733 
L 218.244281 293.989566 
L 219.330082 295.152147 
L 220.415883 283.758153 
L 221.501684 294.492801 
L 222.587486 290.167571 
L 223.673287 294.961488 
L 224.759088 295.222182 
L 225.844889 285.29287 
L 226.93069 288.984624 
L 228.016491 288.221461 
L 229.102292 288.815594 
L 230.188094 294.831069 
L 231.273895 294.961378 
L 232.359696 294.570173 
L 233.445497 293.292628 
L 234.531298 286.291286 
L 235.617099 286.151531 
L 236.702901 291.125022 
L 237.788702 294.912674 
L 238.874503 292.729606 
L 239.960304 295.046554 
L 241.046105 293.57958 
L 242.131906 295.240285 
L 243.217708 290.703051 
L 245.38931 294.420283 
L 246.475111 292.471398 
L 247.560912 295.474425 
L 248.646713 286.141952 
L 249.732514 290.525403 
L 250.818316 294.317289 
L 251.904117 295.028811 
L 252.989918 295.323686 
L 254.075719 290.797396 
L 255.16152 288.320192 
L 256.247321 285.2435 
L 257.333123 294.847757 
L 259.504725 295.375258 
L 260.590526 294.456192 
L 261.676327 295.409427 
L 262.762128 295.371432 
L 263.847929 278.250789 
L 264.933731 273.411739 
L 266.019532 295.19653 
L 267.105333 288.659482 
L 268.191134 295.229889 
L 269.276935 295.264395 
L 270.362736 295.450602 
L 271.448538 295.067102 
L 272.534339 295.049952 
L 273.62014 293.289075 
L 274.705941 266.76824 
L 275.791742 294.436937 
L 276.877543 292.434385 
L 277.963344 293.315085 
L 279.049146 295.352762 
L 280.134947 295.003509 
L 281.220748 295.397221 
L 282.306549 292.246379 
L 283.39235 293.759466 
L 284.478151 289.937663 
L 285.563953 295.352353 
L 286.649754 295.448471 
L 288.821356 295.301399 
L 289.907157 290.776428 
L 290.992958 287.442672 
L 292.07876 295.2919 
L 293.164561 293.515758 
L 294.250362 295.278768 
L 296.421964 295.478386 
L 297.507765 295.337154 
L 298.593566 295.418662 
L 299.679368 294.758171 
L 300.765169 289.326592 
L 301.85097 287.412633 
L 302.936771 278.87025 
L 304.022572 294.418569 
L 305.108373 295.337317 
L 306.194175 294.831425 
L 307.279976 295.16705 
L 308.365777 293.45165 
L 309.451578 288.49335 
L 310.537379 294.690505 
L 311.62318 294.73607 
L 312.708981 295.130826 
L 314.880584 295.176928 
L 315.966385 295.488 
L 317.052186 295.369345 
L 318.137987 295.365886 
L 320.30959 295.097375 
L 321.395391 292.210443 
L 322.481192 286.270827 
L 323.566993 290.178188 
L 324.652794 283.615213 
L 325.738595 224.713945 
L 326.824396 286.96608 
L 327.910198 270.678674 
L 328.995999 261.884513 
L 330.0818 267.910175 
L 331.167601 246.183371 
L 332.253402 278.388952 
L 333.339203 268.822824 
L 334.425005 277.791731 
L 335.510806 270.24023 
L 336.596607 283.913144 
L 337.682408 278.522488 
L 338.768209 289.760728 
L 339.85401 289.051386 
L 340.939811 293.495867 
L 342.025613 289.335966 
L 343.111414 291.384396 
L 344.197215 282.844049 
L 345.283016 290.311356 
L 346.368817 285.872961 
L 347.454618 291.181705 
L 348.54042 283.404239 
L 349.626221 286.679788 
L 350.712022 279.998077 
L 351.797823 288.879777 
L 352.883624 279.497041 
L 353.969425 287.421851 
L 355.055227 279.302452 
L 356.141028 285.127117 
L 357.226829 281.788246 
L 358.31263 288.181367 
L 359.398431 280.065007 
L 360.484232 285.101136 
L 361.570033 280.919719 
L 362.655835 286.155201 
L 363.741636 275.989861 
L 364.827437 289.441994 
L 365.913238 283.911129 
L 366.999039 286.655293 
L 368.08484 285.061302 
L 369.170642 288.452862 
L 370.256443 285.681729 
L 371.342244 290.680326 
L 372.428045 291.354263 
L 373.513846 290.459351 
L 374.599647 286.71787 
L 375.685448 290.438415 
L 376.77125 285.426541 
L 377.857051 286.142469 
L 378.942852 282.339928 
L 380.028653 286.563198 
L 381.114454 280.445757 
L 382.200255 285.499281 
L 383.286057 279.475316 
L 384.371858 289.048712 
L 385.457659 281.3414 
L 386.54346 288.443772 
L 387.629261 283.640051 
L 388.715062 288.823767 
L 389.800863 280.471085 
L 390.886665 284.139222 
L 391.972466 273.74397 
L 393.058267 283.317393 
L 394.144068 276.789604 
L 395.229869 284.206201 
L 396.31567 287.08703 
L 397.401472 287.348463 
L 398.487273 288.52419 
L 398.487273 288.52419 
" clip-path="url(#p7d00042898)" style="fill: none; stroke: #ff7f0e; stroke-opacity: 0.5; stroke-width: 1.5; stroke-linecap: square"/>
   </g>
   <g id="patch_3">
    <path d="M 57.6 307.584 
L 57.6 41.472 
" style="fill: none; stroke: #000000; stroke-width: 0.8; stroke-linejoin: miter; stroke-linecap: square"/>
   </g>
   <g id="patch_4">
    <path d="M 414.72 307.584 
L 414.72 41.472 
" style="fill: none; stroke: #000000; stroke-width: 0.8; stroke-linejoin: miter; stroke-linecap: square"/>
   </g>
   <g id="patch_5">
    <path d="M 57.6 307.584 
L 414.72 307.584 
" style="fill: none; stroke: #000000; stroke-width: 0.8; stroke-linejoin: miter; stroke-linecap: square"/>
   </g>
   <g id="patch_6">
    <path d="M 57.6 41.472 
L 414.72 41.472 
" style="fill: none; stroke: #000000; stroke-width: 0.8; stroke-linejoin: miter; stroke-linecap: square"/>
   </g>
   <g id="legend_1">
    <g id="patch_7">
     <path d="M 351.768438 78.82825 
L 407.72 78.82825 
Q 409.72 78.82825 409.72 76.82825 
L 409.72 48.472 
Q 409.72 46.472 407.72 46.472 
L 351.768438 46.472 
Q 349.768438 46.472 349.768438 48.472 
L 349.768438 76.82825 
Q 349.768438 78.82825 351.768438 78.82825 
z
" style="fill: #ffffff; opacity: 0.8; stroke: #cccccc; stroke-linejoin: miter"/>
    </g>
    <g id="line2d_17">
     <path d="M 353.768438 54.570437 
L 363.768438 54.570437 
L 373.768438 54.570437 
" style="fill: none; stroke: #1f77b4; stroke-width: 1.5; stroke-linecap: square"/>
    </g>
    <g id="text_15">
     <!-- train -->
     <g transform="translate(381.768438 58.070437) scale(0.1 -0.1)">
      <defs>
       <path id="DejaVuSans-74" d="M 1172 4494 
L 1172 3500 
L 2356 3500 
L 2356 3053 
L 1172 3053 
L 1172 1153 
Q 1172 725 1289 603 
Q 1406 481 1766 481 
L 2356 481 
L 2356 0 
L 1766 0 
Q 1100 0 847 248 
Q 594 497 594 1153 
L 594 3053 
L 172 3053 
L 172 3500 
L 594 3500 
L 594 4494 
L 1172 4494 
z
" transform="scale(0.015625)"/>
       <path id="DejaVuSans-72" d="M 2631 2963 
Q 2534 3019 2420 3045 
Q 2306 3072 2169 3072 
Q 1681 3072 1420 2755 
Q 1159 2438 1159 1844 
L 1159 0 
L 581 0 
L 581 3500 
L 1159 3500 
L 1159 2956 
Q 1341 3275 1631 3429 
Q 1922 3584 2338 3584 
Q 2397 3584 2469 3576 
Q 2541 3569 2628 3553 
L 2631 2963 
z
" transform="scale(0.015625)"/>
       <path id="DejaVuSans-61" d="M 2194 1759 
Q 1497 1759 1228 1600 
Q 959 1441 959 1056 
Q 959 750 1161 570 
Q 1363 391 1709 391 
Q 2188 391 2477 730 
Q 2766 1069 2766 1631 
L 2766 1759 
L 2194 1759 
z
M 3341 1997 
L 3341 0 
L 2766 0 
L 2766 531 
Q 2569 213 2275 61 
Q 1981 -91 1556 -91 
Q 1019 -91 701 211 
Q 384 513 384 1019 
Q 384 1609 779 1909 
Q 1175 2209 1959 2209 
L 2766 2209 
L 2766 2266 
Q 2766 2663 2505 2880 
Q 2244 3097 1772 3097 
Q 1472 3097 1187 3025 
Q 903 2953 641 2809 
L 641 3341 
Q 956 3463 1253 3523 
Q 1550 3584 1831 3584 
Q 2591 3584 2966 3190 
Q 3341 2797 3341 1997 
z
" transform="scale(0.015625)"/>
       <path id="DejaVuSans-69" d="M 603 3500 
L 1178 3500 
L 1178 0 
L 603 0 
L 603 3500 
z
M 603 4863 
L 1178 4863 
L 1178 4134 
L 603 4134 
L 603 4863 
z
" transform="scale(0.015625)"/>
       <path id="DejaVuSans-6e" d="M 3513 2113 
L 3513 0 
L 2938 0 
L 2938 2094 
Q 2938 2591 2744 2837 
Q 2550 3084 2163 3084 
Q 1697 3084 1428 2787 
Q 1159 2491 1159 1978 
L 1159 0 
L 581 0 
L 581 3500 
L 1159 3500 
L 1159 2956 
Q 1366 3272 1645 3428 
Q 1925 3584 2291 3584 
Q 2894 3584 3203 3211 
Q 3513 2838 3513 2113 
z
" transform="scale(0.015625)"/>
      </defs>
      <use xlink:href="#DejaVuSans-74"/>
      <use xlink:href="#DejaVuSans-72" x="39.208984"/>
      <use xlink:href="#DejaVuSans-61" x="80.322266"/>
      <use xlink:href="#DejaVuSans-69" x="141.601562"/>
      <use xlink:href="#DejaVuSans-6e" x="169.384766"/>
     </g>
    </g>
    <g id="line2d_18">
     <path d="M 353.768438 69.248562 
L 363.768438 69.248562 
L 373.768438 69.248562 
" style="fill: none; stroke: #ff7f0e; stroke-opacity: 0.5; stroke-width: 1.5; stroke-linecap: square"/>
    </g>
    <g id="text_16">
     <!-- valid -->
     <g transform="translate(381.768438 72.748562) scale(0.1 -0.1)">
      <defs>
       <path id="DejaVuSans-76" d="M 191 3500 
L 800 3500 
L 1894 563 
L 2988 3500 
L 3597 3500 
L 2284 0 
L 1503 0 
L 191 3500 
z
" transform="scale(0.015625)"/>
       <path id="DejaVuSans-6c" d="M 603 4863 
L 1178 4863 
L 1178 0 
L 603 0 
L 603 4863 
z
" transform="scale(0.015625)"/>
       <path id="DejaVuSans-64" d="M 2906 2969 
L 2906 4863 
L 3481 4863 
L 3481 0 
L 2906 0 
L 2906 525 
Q 2725 213 2448 61 
Q 2172 -91 1784 -91 
Q 1150 -91 751 415 
Q 353 922 353 1747 
Q 353 2572 751 3078 
Q 1150 3584 1784 3584 
Q 2172 3584 2448 3432 
Q 2725 3281 2906 2969 
z
M 947 1747 
Q 947 1113 1208 752 
Q 1469 391 1925 391 
Q 2381 391 2643 752 
Q 2906 1113 2906 1747 
Q 2906 2381 2643 2742 
Q 2381 3103 1925 3103 
Q 1469 3103 1208 2742 
Q 947 2381 947 1747 
z
" transform="scale(0.015625)"/>
      </defs>
      <use xlink:href="#DejaVuSans-76"/>
      <use xlink:href="#DejaVuSans-61" x="59.179688"/>
      <use xlink:href="#DejaVuSans-6c" x="120.458984"/>
      <use xlink:href="#DejaVuSans-69" x="148.242188"/>
      <use xlink:href="#DejaVuSans-64" x="176.025391"/>
     </g>
    </g>
   </g>
  </g>
 </g>
 <defs>
  <clipPath id="p7d00042898">
   <rect x="57.6" y="41.472" width="357.12" height="266.112"/>
  </clipPath>
 </defs>
</svg>
