<?xml version="1.0" encoding="utf-8" standalone="no"?>
<!DOCTYPE svg PUBLIC "-//W3C//DTD SVG 1.1//EN"
  "http://www.w3.org/Graphics/SVG/1.1/DTD/svg11.dtd">
<svg xmlns:xlink="http://www.w3.org/1999/xlink" width="460.8pt" height="345.6pt" viewBox="0 0 460.8 345.6" xmlns="http://www.w3.org/2000/svg" version="1.1">
 <metadata>
  <rdf:RDF xmlns:dc="http://purl.org/dc/elements/1.1/" xmlns:cc="http://creativecommons.org/ns#" xmlns:rdf="http://www.w3.org/1999/02/22-rdf-syntax-ns#">
   <cc:Work>
    <dc:type rdf:resource="http://purl.org/dc/dcmitype/StillImage"/>
    <dc:date>2023-12-08T02:27:43.616155</dc:date>
    <dc:format>image/svg+xml</dc:format>
    <dc:creator>
     <cc:Agent>
      <dc:title>Matplotlib v3.7.3, https://matplotlib.org/</dc:title>
     </cc:Agent>
    </dc:creator>
   </cc:Work>
  </rdf:RDF>
 </metadata>
 <defs>
  <style type="text/css">*{stroke-linejoin: round; stroke-linecap: butt}</style>
 </defs>
 <g id="figure_1">
  <g id="patch_1">
   <path d="M 0 345.6 
L 460.8 345.6 
L 460.8 0 
L 0 0 
z
" style="fill: #ffffff"/>
  </g>
  <g id="axes_1">
   <g id="patch_2">
    <path d="M 57.6 307.584 
L 414.72 307.584 
L 414.72 41.472 
L 57.6 41.472 
z
" style="fill: #ffffff"/>
   </g>
   <g id="matplotlib.axis_1">
    <g id="xtick_1">
     <g id="line2d_1">
      <defs>
       <path id="m5ef2475022" d="M 0 0 
L 0 3.5 
" style="stroke: #000000; stroke-width: 0.8"/>
      </defs>
      <g>
       <use xlink:href="#m5ef2475022" x="73.832727" y="307.584" style="stroke: #000000; stroke-width: 0.8"/>
      </g>
     </g>
     <g id="text_1">
      <!-- 0 -->
      <g transform="translate(70.651477 322.182437) scale(0.1 -0.1)">
       <defs>
        <path id="DejaVuSans-30" d="M 2034 4250 
Q 1547 4250 1301 3770 
Q 1056 3291 1056 2328 
Q 1056 1369 1301 889 
Q 1547 409 2034 409 
Q 2525 409 2770 889 
Q 3016 1369 3016 2328 
Q 3016 3291 2770 3770 
Q 2525 4250 2034 4250 
z
M 2034 4750 
Q 2819 4750 3233 4129 
Q 3647 3509 3647 2328 
Q 3647 1150 3233 529 
Q 2819 -91 2034 -91 
Q 1250 -91 836 529 
Q 422 1150 422 2328 
Q 422 3509 836 4129 
Q 1250 4750 2034 4750 
z
" transform="scale(0.015625)"/>
       </defs>
       <use xlink:href="#DejaVuSans-30"/>
      </g>
     </g>
    </g>
    <g id="xtick_2">
     <g id="line2d_2">
      <g>
       <use xlink:href="#m5ef2475022" x="128.122785" y="307.584" style="stroke: #000000; stroke-width: 0.8"/>
      </g>
     </g>
     <g id="text_2">
      <!-- 50 -->
      <g transform="translate(121.760285 322.182437) scale(0.1 -0.1)">
       <defs>
        <path id="DejaVuSans-35" d="M 691 4666 
L 3169 4666 
L 3169 4134 
L 1269 4134 
L 1269 2991 
Q 1406 3038 1543 3061 
Q 1681 3084 1819 3084 
Q 2600 3084 3056 2656 
Q 3513 2228 3513 1497 
Q 3513 744 3044 326 
Q 2575 -91 1722 -91 
Q 1428 -91 1123 -41 
Q 819 9 494 109 
L 494 744 
Q 775 591 1075 516 
Q 1375 441 1709 441 
Q 2250 441 2565 725 
Q 2881 1009 2881 1497 
Q 2881 1984 2565 2268 
Q 2250 2553 1709 2553 
Q 1456 2553 1204 2497 
Q 953 2441 691 2322 
L 691 4666 
z
" transform="scale(0.015625)"/>
       </defs>
       <use xlink:href="#DejaVuSans-35"/>
       <use xlink:href="#DejaVuSans-30" x="63.623047"/>
      </g>
     </g>
    </g>
    <g id="xtick_3">
     <g id="line2d_3">
      <g>
       <use xlink:href="#m5ef2475022" x="182.412843" y="307.584" style="stroke: #000000; stroke-width: 0.8"/>
      </g>
     </g>
     <g id="text_3">
      <!-- 100 -->
      <g transform="translate(172.869093 322.182437) scale(0.1 -0.1)">
       <defs>
        <path id="DejaVuSans-31" d="M 794 531 
L 1825 531 
L 1825 4091 
L 703 3866 
L 703 4441 
L 1819 4666 
L 2450 4666 
L 2450 531 
L 3481 531 
L 3481 0 
L 794 0 
L 794 531 
z
" transform="scale(0.015625)"/>
       </defs>
       <use xlink:href="#DejaVuSans-31"/>
       <use xlink:href="#DejaVuSans-30" x="63.623047"/>
       <use xlink:href="#DejaVuSans-30" x="127.246094"/>
      </g>
     </g>
    </g>
    <g id="xtick_4">
     <g id="line2d_4">
      <g>
       <use xlink:href="#m5ef2475022" x="236.702901" y="307.584" style="stroke: #000000; stroke-width: 0.8"/>
      </g>
     </g>
     <g id="text_4">
      <!-- 150 -->
      <g transform="translate(227.159151 322.182437) scale(0.1 -0.1)">
       <use xlink:href="#DejaVuSans-31"/>
       <use xlink:href="#DejaVuSans-35" x="63.623047"/>
       <use xlink:href="#DejaVuSans-30" x="127.246094"/>
      </g>
     </g>
    </g>
    <g id="xtick_5">
     <g id="line2d_5">
      <g>
       <use xlink:href="#m5ef2475022" x="290.992958" y="307.584" style="stroke: #000000; stroke-width: 0.8"/>
      </g>
     </g>
     <g id="text_5">
      <!-- 200 -->
      <g transform="translate(281.449208 322.182437) scale(0.1 -0.1)">
       <defs>
        <path id="DejaVuSans-32" d="M 1228 531 
L 3431 531 
L 3431 0 
L 469 0 
L 469 531 
Q 828 903 1448 1529 
Q 2069 2156 2228 2338 
Q 2531 2678 2651 2914 
Q 2772 3150 2772 3378 
Q 2772 3750 2511 3984 
Q 2250 4219 1831 4219 
Q 1534 4219 1204 4116 
Q 875 4013 500 3803 
L 500 4441 
Q 881 4594 1212 4672 
Q 1544 4750 1819 4750 
Q 2544 4750 2975 4387 
Q 3406 4025 3406 3419 
Q 3406 3131 3298 2873 
Q 3191 2616 2906 2266 
Q 2828 2175 2409 1742 
Q 1991 1309 1228 531 
z
" transform="scale(0.015625)"/>
       </defs>
       <use xlink:href="#DejaVuSans-32"/>
       <use xlink:href="#DejaVuSans-30" x="63.623047"/>
       <use xlink:href="#DejaVuSans-30" x="127.246094"/>
      </g>
     </g>
    </g>
    <g id="xtick_6">
     <g id="line2d_6">
      <g>
       <use xlink:href="#m5ef2475022" x="345.283016" y="307.584" style="stroke: #000000; stroke-width: 0.8"/>
      </g>
     </g>
     <g id="text_6">
      <!-- 250 -->
      <g transform="translate(335.739266 322.182437) scale(0.1 -0.1)">
       <use xlink:href="#DejaVuSans-32"/>
       <use xlink:href="#DejaVuSans-35" x="63.623047"/>
       <use xlink:href="#DejaVuSans-30" x="127.246094"/>
      </g>
     </g>
    </g>
    <g id="xtick_7">
     <g id="line2d_7">
      <g>
       <use xlink:href="#m5ef2475022" x="399.573074" y="307.584" style="stroke: #000000; stroke-width: 0.8"/>
      </g>
     </g>
     <g id="text_7">
      <!-- 300 -->
      <g transform="translate(390.029324 322.182437) scale(0.1 -0.1)">
       <defs>
        <path id="DejaVuSans-33" d="M 2597 2516 
Q 3050 2419 3304 2112 
Q 3559 1806 3559 1356 
Q 3559 666 3084 287 
Q 2609 -91 1734 -91 
Q 1441 -91 1130 -33 
Q 819 25 488 141 
L 488 750 
Q 750 597 1062 519 
Q 1375 441 1716 441 
Q 2309 441 2620 675 
Q 2931 909 2931 1356 
Q 2931 1769 2642 2001 
Q 2353 2234 1838 2234 
L 1294 2234 
L 1294 2753 
L 1863 2753 
Q 2328 2753 2575 2939 
Q 2822 3125 2822 3475 
Q 2822 3834 2567 4026 
Q 2313 4219 1838 4219 
Q 1578 4219 1281 4162 
Q 984 4106 628 3988 
L 628 4550 
Q 988 4650 1302 4700 
Q 1616 4750 1894 4750 
Q 2613 4750 3031 4423 
Q 3450 4097 3450 3541 
Q 3450 3153 3228 2886 
Q 3006 2619 2597 2516 
z
" transform="scale(0.015625)"/>
       </defs>
       <use xlink:href="#DejaVuSans-33"/>
       <use xlink:href="#DejaVuSans-30" x="63.623047"/>
       <use xlink:href="#DejaVuSans-30" x="127.246094"/>
      </g>
     </g>
    </g>
   </g>
   <g id="matplotlib.axis_2">
    <g id="ytick_1">
     <g id="line2d_8">
      <defs>
       <path id="m5873303665" d="M 0 0 
L -3.5 0 
" style="stroke: #000000; stroke-width: 0.8"/>
      </defs>
      <g>
       <use xlink:href="#m5873303665" x="57.6" y="295.565652" style="stroke: #000000; stroke-width: 0.8"/>
      </g>
     </g>
     <g id="text_8">
      <!-- 0 -->
      <g transform="translate(44.2375 299.364871) scale(0.1 -0.1)">
       <use xlink:href="#DejaVuSans-30"/>
      </g>
     </g>
    </g>
    <g id="ytick_2">
     <g id="line2d_9">
      <g>
       <use xlink:href="#m5873303665" x="57.6" y="251.849041" style="stroke: #000000; stroke-width: 0.8"/>
      </g>
     </g>
     <g id="text_9">
      <!-- 10000 -->
      <g transform="translate(18.7875 255.64826) scale(0.1 -0.1)">
       <use xlink:href="#DejaVuSans-31"/>
       <use xlink:href="#DejaVuSans-30" x="63.623047"/>
       <use xlink:href="#DejaVuSans-30" x="127.246094"/>
       <use xlink:href="#DejaVuSans-30" x="190.869141"/>
       <use xlink:href="#DejaVuSans-30" x="254.492188"/>
      </g>
     </g>
    </g>
    <g id="ytick_3">
     <g id="line2d_10">
      <g>
       <use xlink:href="#m5873303665" x="57.6" y="208.132431" style="stroke: #000000; stroke-width: 0.8"/>
      </g>
     </g>
     <g id="text_10">
      <!-- 20000 -->
      <g transform="translate(18.7875 211.93165) scale(0.1 -0.1)">
       <use xlink:href="#DejaVuSans-32"/>
       <use xlink:href="#DejaVuSans-30" x="63.623047"/>
       <use xlink:href="#DejaVuSans-30" x="127.246094"/>
       <use xlink:href="#DejaVuSans-30" x="190.869141"/>
       <use xlink:href="#DejaVuSans-30" x="254.492188"/>
      </g>
     </g>
    </g>
    <g id="ytick_4">
     <g id="line2d_11">
      <g>
       <use xlink:href="#m5873303665" x="57.6" y="164.41582" style="stroke: #000000; stroke-width: 0.8"/>
      </g>
     </g>
     <g id="text_11">
      <!-- 30000 -->
      <g transform="translate(18.7875 168.215039) scale(0.1 -0.1)">
       <use xlink:href="#DejaVuSans-33"/>
       <use xlink:href="#DejaVuSans-30" x="63.623047"/>
       <use xlink:href="#DejaVuSans-30" x="127.246094"/>
       <use xlink:href="#DejaVuSans-30" x="190.869141"/>
       <use xlink:href="#DejaVuSans-30" x="254.492188"/>
      </g>
     </g>
    </g>
    <g id="ytick_5">
     <g id="line2d_12">
      <g>
       <use xlink:href="#m5873303665" x="57.6" y="120.69921" style="stroke: #000000; stroke-width: 0.8"/>
      </g>
     </g>
     <g id="text_12">
      <!-- 40000 -->
      <g transform="translate(18.7875 124.498429) scale(0.1 -0.1)">
       <defs>
        <path id="DejaVuSans-34" d="M 2419 4116 
L 825 1625 
L 2419 1625 
L 2419 4116 
z
M 2253 4666 
L 3047 4666 
L 3047 1625 
L 3713 1625 
L 3713 1100 
L 3047 1100 
L 3047 0 
L 2419 0 
L 2419 1100 
L 313 1100 
L 313 1709 
L 2253 4666 
z
" transform="scale(0.015625)"/>
       </defs>
       <use xlink:href="#DejaVuSans-34"/>
       <use xlink:href="#DejaVuSans-30" x="63.623047"/>
       <use xlink:href="#DejaVuSans-30" x="127.246094"/>
       <use xlink:href="#DejaVuSans-30" x="190.869141"/>
       <use xlink:href="#DejaVuSans-30" x="254.492188"/>
      </g>
     </g>
    </g>
    <g id="ytick_6">
     <g id="line2d_13">
      <g>
       <use xlink:href="#m5873303665" x="57.6" y="76.9826" style="stroke: #000000; stroke-width: 0.8"/>
      </g>
     </g>
     <g id="text_13">
      <!-- 50000 -->
      <g transform="translate(18.7875 80.781818) scale(0.1 -0.1)">
       <use xlink:href="#DejaVuSans-35"/>
       <use xlink:href="#DejaVuSans-30" x="63.623047"/>
       <use xlink:href="#DejaVuSans-30" x="127.246094"/>
       <use xlink:href="#DejaVuSans-30" x="190.869141"/>
       <use xlink:href="#DejaVuSans-30" x="254.492188"/>
      </g>
     </g>
    </g>
   </g>
   <g id="line2d_14">
    <path d="M 73.832727 128.73708 
L 74.918528 187.952464 
L 76.00433 220.140922 
L 77.090131 240.918701 
L 78.175932 255.340419 
L 79.261733 264.915771 
L 80.347534 271.086244 
L 81.433335 275.208914 
L 82.519137 278.060219 
L 83.604938 280.210222 
L 85.77654 283.492156 
L 86.862341 287.950315 
L 87.948142 291.156072 
L 98.806154 291.497868 
L 110.749967 291.779094 
L 111.835768 291.585707 
L 112.921569 291.722116 
L 114.00737 291.270808 
L 115.093171 291.776474 
L 116.178972 291.365439 
L 117.264773 291.901814 
L 118.350575 291.664311 
L 119.436376 292.031585 
L 120.522177 291.866382 
L 121.607978 292.080945 
L 122.693779 291.996382 
L 123.77958 292.10021 
L 124.865382 291.977992 
L 125.951183 292.225814 
L 127.036984 291.930895 
L 128.122785 292.152048 
L 129.208586 291.910413 
L 130.294387 292.205279 
L 131.380189 291.902859 
L 132.46599 292.270574 
L 133.551791 292.019059 
L 134.637592 292.269374 
L 135.723393 292.048153 
L 136.809194 292.42416 
L 137.894995 292.093359 
L 138.980797 292.397884 
L 140.066598 292.120503 
L 141.152399 292.359596 
L 142.2382 292.112446 
L 143.324001 292.384146 
L 144.409802 292.138589 
L 145.495604 292.415994 
L 146.581405 292.102997 
L 147.667206 292.457706 
L 148.753007 292.222792 
L 149.838808 292.458418 
L 150.924609 292.187693 
L 152.01041 292.530018 
L 153.096212 292.30829 
L 154.182013 292.500835 
L 155.267814 292.305312 
L 156.353615 292.596926 
L 157.439416 292.415777 
L 158.525217 292.578802 
L 159.611019 292.368275 
L 160.69682 292.677149 
L 161.782621 292.25669 
L 162.868422 292.606368 
L 163.954223 292.390509 
L 165.040024 292.707504 
L 166.125825 292.440341 
L 167.211627 292.718281 
L 168.297428 292.607794 
L 169.383229 292.889442 
L 170.46903 292.591792 
L 171.554831 292.717336 
L 172.640632 292.491229 
L 173.726434 292.706423 
L 174.812235 292.520942 
L 175.898036 292.828497 
L 176.983837 292.67083 
L 178.069638 292.815365 
L 179.155439 292.664806 
L 180.24124 292.929074 
L 181.327042 292.69657 
L 182.412843 292.901192 
L 183.498644 292.672926 
L 184.584445 292.912789 
L 185.670246 292.755825 
L 186.756047 292.955711 
L 187.841849 292.692395 
L 188.92765 293.003873 
L 190.013451 292.873847 
L 191.099252 293.078548 
L 192.185053 292.856312 
L 193.270854 293.060557 
L 194.356656 292.841111 
L 195.442457 293.0621 
L 196.528258 292.864585 
L 197.614059 293.139144 
L 198.69986 292.906901 
L 199.785661 293.172842 
L 200.871462 292.941024 
L 201.957264 293.159158 
L 203.043065 292.955094 
L 204.128866 293.140022 
L 205.214667 292.890237 
L 206.300468 293.229515 
L 207.386269 292.940404 
L 208.472071 293.289734 
L 209.557872 292.961469 
L 210.643673 293.468773 
L 211.729474 293.301039 
L 212.815275 293.606855 
L 213.901076 293.540907 
L 214.986877 293.651043 
L 216.072679 293.421078 
L 217.15848 293.500536 
L 218.244281 292.724908 
L 219.330082 292.542171 
L 220.415883 291.629052 
L 221.501684 292.290768 
L 222.587486 292.664408 
L 223.673287 293.342433 
L 224.759088 293.371576 
L 225.844889 293.567174 
L 229.102292 293.621842 
L 230.188094 293.698456 
L 231.273895 293.577332 
L 232.359696 293.682145 
L 233.445497 293.403716 
L 234.531298 293.251062 
L 235.617099 292.135796 
L 236.702901 291.863017 
L 237.788702 291.74341 
L 238.874503 293.274137 
L 239.960304 293.270806 
L 241.046105 293.5791 
L 247.560912 293.837986 
L 248.646713 293.670154 
L 249.732514 293.717924 
L 250.818316 293.217204 
L 251.904117 292.989662 
L 252.989918 292.051614 
L 254.075719 292.297001 
L 255.16152 292.700662 
L 256.247321 293.618658 
L 257.333123 293.533642 
L 258.418924 293.783151 
L 259.504725 293.771184 
L 260.590526 293.889288 
L 261.676327 293.845738 
L 262.762128 293.925848 
L 263.847929 293.818613 
L 264.933731 293.933865 
L 266.019532 293.627313 
L 267.105333 293.598881 
L 268.191134 292.832212 
L 269.276935 292.626266 
L 270.362736 292.209932 
L 271.448538 293.254884 
L 272.534339 293.329212 
L 273.62014 293.899549 
L 274.705941 293.783989 
L 275.791742 293.955543 
L 276.877543 293.894926 
L 277.963344 294.01116 
L 279.049146 293.908704 
L 280.134947 294.006016 
L 281.220748 293.787202 
L 282.306549 293.809315 
L 283.39235 293.31977 
L 284.478151 293.180073 
L 285.563953 292.549918 
L 286.649754 293.024407 
L 287.735555 293.215375 
L 288.821356 292.324562 
L 289.907157 292.833276 
L 290.992958 293.995465 
L 292.07876 293.871206 
L 293.164561 294.093234 
L 294.250362 293.959647 
L 295.336163 294.160981 
L 296.421964 293.999718 
L 297.507765 294.145014 
L 298.593566 293.845354 
L 299.679368 293.94244 
L 300.765169 293.468995 
L 301.85097 293.554503 
L 302.936771 293.212326 
L 304.022572 293.682208 
L 305.108373 293.541977 
L 306.194175 294.010603 
L 307.279976 293.831259 
L 308.365777 294.154666 
L 309.451578 294.033935 
L 310.537379 294.20297 
L 311.62318 293.974725 
L 312.708981 294.13977 
L 313.794783 293.924215 
L 314.880584 294.000955 
L 315.966385 293.613752 
L 317.052186 293.884506 
L 318.137987 293.433117 
L 319.223788 293.858721 
L 320.30959 293.469473 
L 321.395391 293.991297 
L 322.481192 293.900744 
L 323.566993 294.150342 
L 324.652794 293.947886 
L 325.738595 294.214112 
L 326.824396 294.010224 
L 327.910198 294.171127 
L 328.995999 293.935413 
L 330.0818 294.098742 
L 331.167601 293.770601 
L 332.253402 293.967478 
L 333.339203 293.578954 
L 334.425005 294.068513 
L 335.510806 293.775158 
L 336.596607 294.07537 
L 337.682408 293.715527 
L 338.768209 294.119266 
L 339.85401 293.965731 
L 340.939811 294.207559 
L 342.025613 293.931488 
L 343.111414 294.211987 
L 344.197215 293.993004 
L 345.283016 294.17176 
L 346.368817 293.793204 
L 347.454618 294.116659 
L 348.54042 293.813721 
L 349.626221 294.08635 
L 350.712022 293.71993 
L 351.797823 294.119459 
L 352.883624 293.983718 
L 353.969425 294.349678 
L 356.141028 294.315083 
L 357.226829 293.95572 
L 358.31263 293.907306 
L 359.398431 293.17889 
L 360.484232 293.283863 
L 361.570033 293.156717 
L 362.655835 293.898679 
L 363.741636 293.544713 
L 364.827437 294.212362 
L 365.913238 294.178339 
L 366.999039 294.372303 
L 368.08484 294.269091 
L 369.170642 294.380821 
L 370.256443 294.258908 
L 371.342244 294.370394 
L 372.428045 294.183156 
L 373.513846 294.3002 
L 374.599647 294.005885 
L 375.685448 294.116791 
L 376.77125 293.50816 
L 377.857051 293.728627 
L 378.942852 293.372578 
L 380.028653 293.926524 
L 381.114454 293.626152 
L 382.200255 294.203038 
L 383.286057 294.135217 
L 384.371858 294.361877 
L 385.457659 294.218397 
L 386.54346 294.346101 
L 387.629261 294.239133 
L 388.715062 294.357401 
L 389.800863 294.17926 
L 390.886665 294.280398 
L 391.972466 293.971451 
L 393.058267 294.095166 
L 394.144068 293.745346 
L 395.229869 293.892162 
L 396.31567 293.394154 
L 397.401472 294.004552 
L 398.487273 293.831736 
L 398.487273 293.831736 
" clip-path="url(#p45ab281877)" style="fill: none; stroke: #1f77b4; stroke-width: 1.5; stroke-linecap: square"/>
   </g>
   <g id="line2d_15">
    <path d="M 73.832727 53.568 
L 74.918528 142.875127 
L 76.00433 192.069719 
L 77.090131 224.791213 
L 78.175932 247.291811 
L 79.261733 262.207169 
L 80.347534 272.518603 
L 81.433335 279.79648 
L 82.519137 284.703646 
L 83.604938 288.085855 
L 84.690739 290.495125 
L 85.77654 292.350104 
L 86.862341 294.902836 
L 87.948142 293.07153 
L 89.033943 294.997267 
L 90.119745 294.257914 
L 91.205546 294.438034 
L 92.291347 294.304 
L 95.54875 294.287733 
L 98.806154 294.209809 
L 99.891955 294.056587 
L 100.977756 294.275072 
L 102.063557 294.041646 
L 103.149358 294.256537 
L 104.23516 293.873502 
L 105.320961 294.235787 
L 106.406762 293.778442 
L 107.492563 294.335233 
L 108.578364 293.630765 
L 109.664165 294.51491 
L 110.749967 293.107531 
L 111.835768 295.025979 
L 112.921569 291.998091 
L 114.00737 295.423005 
L 115.093171 291.353197 
L 116.178972 295.423115 
L 117.264773 292.113656 
L 118.350575 295.199191 
L 119.436376 292.85935 
L 120.522177 295.001745 
L 121.607978 293.163621 
L 122.693779 294.956886 
L 123.77958 292.996185 
L 124.865382 295.121082 
L 125.951183 292.717743 
L 127.036984 295.276947 
L 128.122785 291.888853 
L 129.208586 295.429509 
L 130.294387 291.655895 
L 131.380189 295.450811 
L 132.46599 291.781686 
L 133.551791 295.410292 
L 134.637592 291.810848 
L 135.723393 295.372737 
L 136.809194 292.196499 
L 137.894995 295.378072 
L 138.980797 291.791284 
L 140.066598 295.4115 
L 141.152399 291.56197 
L 142.2382 295.43949 
L 143.324001 291.398026 
L 144.409802 295.457249 
L 145.495604 291.148431 
L 146.581405 295.459505 
L 147.667206 291.575468 
L 148.753007 295.458057 
L 149.838808 291.189724 
L 150.924609 295.466078 
L 152.01041 291.361694 
L 153.096212 295.467467 
L 154.182013 291.00064 
L 155.267814 295.473631 
L 156.353615 291.406744 
L 157.439416 295.468597 
L 158.525217 290.941386 
L 159.611019 295.478007 
L 160.69682 291.327407 
L 161.782621 295.47806 
L 162.868422 290.545266 
L 163.954223 295.482504 
L 165.040024 291.274742 
L 166.125825 295.474192 
L 167.211627 291.256724 
L 168.297428 295.466249 
L 169.383229 291.877318 
L 170.46903 295.469759 
L 171.554831 291.10379 
L 172.640632 295.46398 
L 173.726434 290.458542 
L 174.812235 295.477852 
L 175.898036 291.320283 
L 176.983837 295.471371 
L 178.069638 291.467321 
L 179.155439 295.476751 
L 180.24124 291.57522 
L 181.327042 295.473541 
L 182.412843 291.094154 
L 183.498644 295.470188 
L 184.584445 291.047278 
L 185.670246 295.466515 
L 186.756047 291.118548 
L 187.841849 295.471005 
L 188.92765 291.512161 
L 190.013451 295.469798 
L 191.099252 291.432878 
L 192.185053 295.466071 
L 193.270854 291.194825 
L 194.356656 295.466379 
L 195.442457 291.356756 
L 196.528258 295.465678 
L 197.614059 291.331391 
L 198.69986 295.466923 
L 199.785661 291.549263 
L 200.871462 295.464738 
L 201.957264 291.537485 
L 203.043065 295.451277 
L 204.128866 291.01507 
L 205.214667 295.441215 
L 206.300468 291.087418 
L 207.386269 295.458131 
L 208.472071 291.34867 
L 209.557872 295.463437 
L 210.643673 291.921454 
L 211.729474 295.06952 
L 212.815275 294.222204 
L 213.901076 295.158332 
L 214.986877 293.717551 
L 216.072679 295.40602 
L 217.15848 291.898137 
L 218.244281 295.112928 
L 219.330082 286.908196 
L 220.415883 293.911796 
L 221.501684 284.576819 
L 222.587486 295.488 
L 223.673287 293.007873 
L 224.759088 294.912438 
L 225.844889 294.131658 
L 226.93069 294.872888 
L 228.016491 294.356697 
L 229.102292 295.010687 
L 230.188094 294.222633 
L 231.273895 295.265439 
L 232.359696 293.290546 
L 233.445497 295.395612 
L 234.531298 290.354931 
L 235.617099 294.284001 
L 236.702901 283.76358 
L 237.788702 294.344536 
L 238.874503 289.173478 
L 239.960304 295.295906 
L 241.046105 293.668714 
L 242.131906 294.876246 
L 243.217708 294.140429 
L 244.303509 294.977352 
L 245.38931 294.262051 
L 246.475111 295.14269 
L 247.560912 293.914181 
L 248.646713 295.357683 
L 249.732514 292.588587 
L 250.818316 295.182926 
L 251.904117 288.583315 
L 252.989918 293.954387 
L 254.075719 284.819762 
L 255.16152 295.095541 
L 256.247321 291.660379 
L 257.333123 295.249128 
L 258.418924 293.591472 
L 259.504725 295.05053 
L 260.590526 294.058586 
L 261.676327 295.138213 
L 262.762128 293.983887 
L 263.847929 295.288627 
L 264.933731 293.415554 
L 266.019532 295.3719 
L 267.105333 291.19582 
L 268.191134 294.748879 
L 269.276935 286.616887 
L 270.362736 294.149411 
L 271.448538 288.089184 
L 272.534339 295.459331 
L 273.62014 292.884774 
L 274.705941 295.145946 
L 275.791742 293.771907 
L 276.877543 295.138849 
L 277.963344 293.972743 
L 279.049146 295.256183 
L 280.134947 293.624937 
L 281.220748 295.376287 
L 282.306549 292.167728 
L 283.39235 295.082887 
L 284.478151 288.539821 
L 285.563953 294.326803 
L 286.649754 287.26361 
L 287.735555 295.223004 
L 288.821356 286.333486 
L 289.907157 295.215077 
L 290.992958 292.108587 
L 292.07876 295.367188 
L 293.164561 293.192852 
L 294.250362 295.347489 
L 295.336163 293.31395 
L 296.421964 295.389561 
L 297.507765 292.987464 
L 298.593566 295.378814 
L 299.679368 291.774027 
L 300.765169 295.116386 
L 301.85097 289.750988 
L 302.936771 294.97712 
L 304.022572 290.143594 
L 305.108373 295.338244 
L 306.194175 292.007629 
L 307.279976 295.427133 
L 308.365777 293.033076 
L 309.451578 295.39145 
L 310.537379 293.172148 
L 311.62318 295.407245 
L 312.708981 292.854682 
L 313.794783 295.398656 
L 314.880584 291.884105 
L 315.966385 295.281165 
L 317.052186 290.798791 
L 318.137987 295.157465 
L 319.223788 290.62392 
L 320.30959 295.347185 
L 321.395391 291.846483 
L 322.481192 295.433625 
L 323.566993 292.639031 
L 324.652794 295.437764 
L 325.738595 293.029741 
L 326.824396 295.436437 
L 327.910198 292.747397 
L 328.995999 295.424735 
L 330.0818 292.326203 
L 331.167601 295.34795 
L 332.253402 291.509402 
L 333.339203 295.323306 
L 334.425005 291.53361 
L 335.510806 295.34167 
L 336.596607 291.863183 
L 337.682408 295.420412 
L 338.768209 292.338375 
L 339.85401 295.434208 
L 340.939811 292.734834 
L 342.025613 295.446833 
L 343.111414 292.848024 
L 344.197215 295.436307 
L 345.283016 292.607875 
L 346.368817 295.410372 
L 347.454618 292.295786 
L 348.54042 295.363489 
L 349.626221 292.026883 
L 350.712022 295.362868 
L 351.797823 292.149727 
L 352.883624 295.400819 
L 353.969425 294.161103 
L 355.055227 295.425222 
L 356.141028 293.444846 
L 357.226829 295.420926 
L 358.31263 291.43381 
L 359.398431 294.871454 
L 360.484232 288.885867 
L 361.570033 294.678938 
L 362.655835 290.750049 
L 363.741636 295.434381 
L 364.827437 292.976429 
L 365.913238 295.4249 
L 366.999039 293.901471 
L 368.08484 295.396536 
L 369.170642 294.049146 
L 370.256443 295.41331 
L 371.342244 293.841558 
L 372.428045 295.454286 
L 373.513846 293.288347 
L 374.599647 295.39582 
L 375.685448 291.947087 
L 376.77125 295.084535 
L 377.857051 290.326421 
L 378.942852 294.870762 
L 380.028653 290.912572 
L 381.114454 295.358908 
L 382.200255 292.700381 
L 383.286057 295.465743 
L 384.371858 293.675642 
L 385.457659 295.447919 
L 386.54346 293.870852 
L 387.629261 295.453056 
L 388.715062 293.681951 
L 389.800863 295.463365 
L 390.886665 293.135387 
L 391.972466 295.389659 
L 393.058267 292.115181 
L 394.144068 295.149278 
L 395.229869 290.884472 
L 396.31567 295.032543 
L 397.401472 291.205389 
L 398.487273 295.322801 
L 398.487273 295.322801 
" clip-path="url(#p45ab281877)" style="fill: none; stroke: #ff7f0e; stroke-opacity: 0.5; stroke-width: 1.5; stroke-linecap: square"/>
   </g>
   <g id="patch_3">
    <path d="M 57.6 307.584 
L 57.6 41.472 
" style="fill: none; stroke: #000000; stroke-width: 0.8; stroke-linejoin: miter; stroke-linecap: square"/>
   </g>
   <g id="patch_4">
    <path d="M 414.72 307.584 
L 414.72 41.472 
" style="fill: none; stroke: #000000; stroke-width: 0.8; stroke-linejoin: miter; stroke-linecap: square"/>
   </g>
   <g id="patch_5">
    <path d="M 57.6 307.584 
L 414.72 307.584 
" style="fill: none; stroke: #000000; stroke-width: 0.8; stroke-linejoin: miter; stroke-linecap: square"/>
   </g>
   <g id="patch_6">
    <path d="M 57.6 41.472 
L 414.72 41.472 
" style="fill: none; stroke: #000000; stroke-width: 0.8; stroke-linejoin: miter; stroke-linecap: square"/>
   </g>
   <g id="legend_1">
    <g id="patch_7">
     <path d="M 351.768438 78.82825 
L 407.72 78.82825 
Q 409.72 78.82825 409.72 76.82825 
L 409.72 48.472 
Q 409.72 46.472 407.72 46.472 
L 351.768438 46.472 
Q 349.768438 46.472 349.768438 48.472 
L 349.768438 76.82825 
Q 349.768438 78.82825 351.768438 78.82825 
z
" style="fill: #ffffff; opacity: 0.8; stroke: #cccccc; stroke-linejoin: miter"/>
    </g>
    <g id="line2d_16">
     <path d="M 353.768438 54.570437 
L 363.768438 54.570437 
L 373.768438 54.570437 
" style="fill: none; stroke: #1f77b4; stroke-width: 1.5; stroke-linecap: square"/>
    </g>
    <g id="text_14">
     <!-- train -->
     <g transform="translate(381.768438 58.070437) scale(0.1 -0.1)">
      <defs>
       <path id="DejaVuSans-74" d="M 1172 4494 
L 1172 3500 
L 2356 3500 
L 2356 3053 
L 1172 3053 
L 1172 1153 
Q 1172 725 1289 603 
Q 1406 481 1766 481 
L 2356 481 
L 2356 0 
L 1766 0 
Q 1100 0 847 248 
Q 594 497 594 1153 
L 594 3053 
L 172 3053 
L 172 3500 
L 594 3500 
L 594 4494 
L 1172 4494 
z
" transform="scale(0.015625)"/>
       <path id="DejaVuSans-72" d="M 2631 2963 
Q 2534 3019 2420 3045 
Q 2306 3072 2169 3072 
Q 1681 3072 1420 2755 
Q 1159 2438 1159 1844 
L 1159 0 
L 581 0 
L 581 3500 
L 1159 3500 
L 1159 2956 
Q 1341 3275 1631 3429 
Q 1922 3584 2338 3584 
Q 2397 3584 2469 3576 
Q 2541 3569 2628 3553 
L 2631 2963 
z
" transform="scale(0.015625)"/>
       <path id="DejaVuSans-61" d="M 2194 1759 
Q 1497 1759 1228 1600 
Q 959 1441 959 1056 
Q 959 750 1161 570 
Q 1363 391 1709 391 
Q 2188 391 2477 730 
Q 2766 1069 2766 1631 
L 2766 1759 
L 2194 1759 
z
M 3341 1997 
L 3341 0 
L 2766 0 
L 2766 531 
Q 2569 213 2275 61 
Q 1981 -91 1556 -91 
Q 1019 -91 701 211 
Q 384 513 384 1019 
Q 384 1609 779 1909 
Q 1175 2209 1959 2209 
L 2766 2209 
L 2766 2266 
Q 2766 2663 2505 2880 
Q 2244 3097 1772 3097 
Q 1472 3097 1187 3025 
Q 903 2953 641 2809 
L 641 3341 
Q 956 3463 1253 3523 
Q 1550 3584 1831 3584 
Q 2591 3584 2966 3190 
Q 3341 2797 3341 1997 
z
" transform="scale(0.015625)"/>
       <path id="DejaVuSans-69" d="M 603 3500 
L 1178 3500 
L 1178 0 
L 603 0 
L 603 3500 
z
M 603 4863 
L 1178 4863 
L 1178 4134 
L 603 4134 
L 603 4863 
z
" transform="scale(0.015625)"/>
       <path id="DejaVuSans-6e" d="M 3513 2113 
L 3513 0 
L 2938 0 
L 2938 2094 
Q 2938 2591 2744 2837 
Q 2550 3084 2163 3084 
Q 1697 3084 1428 2787 
Q 1159 2491 1159 1978 
L 1159 0 
L 581 0 
L 581 3500 
L 1159 3500 
L 1159 2956 
Q 1366 3272 1645 3428 
Q 1925 3584 2291 3584 
Q 2894 3584 3203 3211 
Q 3513 2838 3513 2113 
z
" transform="scale(0.015625)"/>
      </defs>
      <use xlink:href="#DejaVuSans-74"/>
      <use xlink:href="#DejaVuSans-72" x="39.208984"/>
      <use xlink:href="#DejaVuSans-61" x="80.322266"/>
      <use xlink:href="#DejaVuSans-69" x="141.601562"/>
      <use xlink:href="#DejaVuSans-6e" x="169.384766"/>
     </g>
    </g>
    <g id="line2d_17">
     <path d="M 353.768438 69.248562 
L 363.768438 69.248562 
L 373.768438 69.248562 
" style="fill: none; stroke: #ff7f0e; stroke-opacity: 0.5; stroke-width: 1.5; stroke-linecap: square"/>
    </g>
    <g id="text_15">
     <!-- valid -->
     <g transform="translate(381.768438 72.748562) scale(0.1 -0.1)">
      <defs>
       <path id="DejaVuSans-76" d="M 191 3500 
L 800 3500 
L 1894 563 
L 2988 3500 
L 3597 3500 
L 2284 0 
L 1503 0 
L 191 3500 
z
" transform="scale(0.015625)"/>
       <path id="DejaVuSans-6c" d="M 603 4863 
L 1178 4863 
L 1178 0 
L 603 0 
L 603 4863 
z
" transform="scale(0.015625)"/>
       <path id="DejaVuSans-64" d="M 2906 2969 
L 2906 4863 
L 3481 4863 
L 3481 0 
L 2906 0 
L 2906 525 
Q 2725 213 2448 61 
Q 2172 -91 1784 -91 
Q 1150 -91 751 415 
Q 353 922 353 1747 
Q 353 2572 751 3078 
Q 1150 3584 1784 3584 
Q 2172 3584 2448 3432 
Q 2725 3281 2906 2969 
z
M 947 1747 
Q 947 1113 1208 752 
Q 1469 391 1925 391 
Q 2381 391 2643 752 
Q 2906 1113 2906 1747 
Q 2906 2381 2643 2742 
Q 2381 3103 1925 3103 
Q 1469 3103 1208 2742 
Q 947 2381 947 1747 
z
" transform="scale(0.015625)"/>
      </defs>
      <use xlink:href="#DejaVuSans-76"/>
      <use xlink:href="#DejaVuSans-61" x="59.179688"/>
      <use xlink:href="#DejaVuSans-6c" x="120.458984"/>
      <use xlink:href="#DejaVuSans-69" x="148.242188"/>
      <use xlink:href="#DejaVuSans-64" x="176.025391"/>
     </g>
    </g>
   </g>
  </g>
 </g>
 <defs>
  <clipPath id="p45ab281877">
   <rect x="57.6" y="41.472" width="357.12" height="266.112"/>
  </clipPath>
 </defs>
</svg>
