<?xml version="1.0" encoding="utf-8" standalone="no"?>
<!DOCTYPE svg PUBLIC "-//W3C//DTD SVG 1.1//EN"
  "http://www.w3.org/Graphics/SVG/1.1/DTD/svg11.dtd">
<svg xmlns:xlink="http://www.w3.org/1999/xlink" width="460.8pt" height="345.6pt" viewBox="0 0 460.8 345.6" xmlns="http://www.w3.org/2000/svg" version="1.1">
 <metadata>
  <rdf:RDF xmlns:dc="http://purl.org/dc/elements/1.1/" xmlns:cc="http://creativecommons.org/ns#" xmlns:rdf="http://www.w3.org/1999/02/22-rdf-syntax-ns#">
   <cc:Work>
    <dc:type rdf:resource="http://purl.org/dc/dcmitype/StillImage"/>
    <dc:date>2023-12-08T04:07:43.012864</dc:date>
    <dc:format>image/svg+xml</dc:format>
    <dc:creator>
     <cc:Agent>
      <dc:title>Matplotlib v3.7.3, https://matplotlib.org/</dc:title>
     </cc:Agent>
    </dc:creator>
   </cc:Work>
  </rdf:RDF>
 </metadata>
 <defs>
  <style type="text/css">*{stroke-linejoin: round; stroke-linecap: butt}</style>
 </defs>
 <g id="figure_1">
  <g id="patch_1">
   <path d="M 0 345.6 
L 460.8 345.6 
L 460.8 0 
L 0 0 
z
" style="fill: #ffffff"/>
  </g>
  <g id="axes_1">
   <g id="patch_2">
    <path d="M 57.6 307.584 
L 414.72 307.584 
L 414.72 41.472 
L 57.6 41.472 
z
" style="fill: #ffffff"/>
   </g>
   <g id="matplotlib.axis_1">
    <g id="xtick_1">
     <g id="line2d_1">
      <defs>
       <path id="mfafa9bc043" d="M 0 0 
L 0 3.5 
" style="stroke: #000000; stroke-width: 0.8"/>
      </defs>
      <g>
       <use xlink:href="#mfafa9bc043" x="73.832727" y="307.584" style="stroke: #000000; stroke-width: 0.8"/>
      </g>
     </g>
     <g id="text_1">
      <!-- 0 -->
      <g transform="translate(70.651477 322.182437) scale(0.1 -0.1)">
       <defs>
        <path id="DejaVuSans-30" d="M 2034 4250 
Q 1547 4250 1301 3770 
Q 1056 3291 1056 2328 
Q 1056 1369 1301 889 
Q 1547 409 2034 409 
Q 2525 409 2770 889 
Q 3016 1369 3016 2328 
Q 3016 3291 2770 3770 
Q 2525 4250 2034 4250 
z
M 2034 4750 
Q 2819 4750 3233 4129 
Q 3647 3509 3647 2328 
Q 3647 1150 3233 529 
Q 2819 -91 2034 -91 
Q 1250 -91 836 529 
Q 422 1150 422 2328 
Q 422 3509 836 4129 
Q 1250 4750 2034 4750 
z
" transform="scale(0.015625)"/>
       </defs>
       <use xlink:href="#DejaVuSans-30"/>
      </g>
     </g>
    </g>
    <g id="xtick_2">
     <g id="line2d_2">
      <g>
       <use xlink:href="#mfafa9bc043" x="128.122785" y="307.584" style="stroke: #000000; stroke-width: 0.8"/>
      </g>
     </g>
     <g id="text_2">
      <!-- 50 -->
      <g transform="translate(121.760285 322.182437) scale(0.1 -0.1)">
       <defs>
        <path id="DejaVuSans-35" d="M 691 4666 
L 3169 4666 
L 3169 4134 
L 1269 4134 
L 1269 2991 
Q 1406 3038 1543 3061 
Q 1681 3084 1819 3084 
Q 2600 3084 3056 2656 
Q 3513 2228 3513 1497 
Q 3513 744 3044 326 
Q 2575 -91 1722 -91 
Q 1428 -91 1123 -41 
Q 819 9 494 109 
L 494 744 
Q 775 591 1075 516 
Q 1375 441 1709 441 
Q 2250 441 2565 725 
Q 2881 1009 2881 1497 
Q 2881 1984 2565 2268 
Q 2250 2553 1709 2553 
Q 1456 2553 1204 2497 
Q 953 2441 691 2322 
L 691 4666 
z
" transform="scale(0.015625)"/>
       </defs>
       <use xlink:href="#DejaVuSans-35"/>
       <use xlink:href="#DejaVuSans-30" x="63.623047"/>
      </g>
     </g>
    </g>
    <g id="xtick_3">
     <g id="line2d_3">
      <g>
       <use xlink:href="#mfafa9bc043" x="182.412843" y="307.584" style="stroke: #000000; stroke-width: 0.8"/>
      </g>
     </g>
     <g id="text_3">
      <!-- 100 -->
      <g transform="translate(172.869093 322.182437) scale(0.1 -0.1)">
       <defs>
        <path id="DejaVuSans-31" d="M 794 531 
L 1825 531 
L 1825 4091 
L 703 3866 
L 703 4441 
L 1819 4666 
L 2450 4666 
L 2450 531 
L 3481 531 
L 3481 0 
L 794 0 
L 794 531 
z
" transform="scale(0.015625)"/>
       </defs>
       <use xlink:href="#DejaVuSans-31"/>
       <use xlink:href="#DejaVuSans-30" x="63.623047"/>
       <use xlink:href="#DejaVuSans-30" x="127.246094"/>
      </g>
     </g>
    </g>
    <g id="xtick_4">
     <g id="line2d_4">
      <g>
       <use xlink:href="#mfafa9bc043" x="236.702901" y="307.584" style="stroke: #000000; stroke-width: 0.8"/>
      </g>
     </g>
     <g id="text_4">
      <!-- 150 -->
      <g transform="translate(227.159151 322.182437) scale(0.1 -0.1)">
       <use xlink:href="#DejaVuSans-31"/>
       <use xlink:href="#DejaVuSans-35" x="63.623047"/>
       <use xlink:href="#DejaVuSans-30" x="127.246094"/>
      </g>
     </g>
    </g>
    <g id="xtick_5">
     <g id="line2d_5">
      <g>
       <use xlink:href="#mfafa9bc043" x="290.992958" y="307.584" style="stroke: #000000; stroke-width: 0.8"/>
      </g>
     </g>
     <g id="text_5">
      <!-- 200 -->
      <g transform="translate(281.449208 322.182437) scale(0.1 -0.1)">
       <defs>
        <path id="DejaVuSans-32" d="M 1228 531 
L 3431 531 
L 3431 0 
L 469 0 
L 469 531 
Q 828 903 1448 1529 
Q 2069 2156 2228 2338 
Q 2531 2678 2651 2914 
Q 2772 3150 2772 3378 
Q 2772 3750 2511 3984 
Q 2250 4219 1831 4219 
Q 1534 4219 1204 4116 
Q 875 4013 500 3803 
L 500 4441 
Q 881 4594 1212 4672 
Q 1544 4750 1819 4750 
Q 2544 4750 2975 4387 
Q 3406 4025 3406 3419 
Q 3406 3131 3298 2873 
Q 3191 2616 2906 2266 
Q 2828 2175 2409 1742 
Q 1991 1309 1228 531 
z
" transform="scale(0.015625)"/>
       </defs>
       <use xlink:href="#DejaVuSans-32"/>
       <use xlink:href="#DejaVuSans-30" x="63.623047"/>
       <use xlink:href="#DejaVuSans-30" x="127.246094"/>
      </g>
     </g>
    </g>
    <g id="xtick_6">
     <g id="line2d_6">
      <g>
       <use xlink:href="#mfafa9bc043" x="345.283016" y="307.584" style="stroke: #000000; stroke-width: 0.8"/>
      </g>
     </g>
     <g id="text_6">
      <!-- 250 -->
      <g transform="translate(335.739266 322.182437) scale(0.1 -0.1)">
       <use xlink:href="#DejaVuSans-32"/>
       <use xlink:href="#DejaVuSans-35" x="63.623047"/>
       <use xlink:href="#DejaVuSans-30" x="127.246094"/>
      </g>
     </g>
    </g>
    <g id="xtick_7">
     <g id="line2d_7">
      <g>
       <use xlink:href="#mfafa9bc043" x="399.573074" y="307.584" style="stroke: #000000; stroke-width: 0.8"/>
      </g>
     </g>
     <g id="text_7">
      <!-- 300 -->
      <g transform="translate(390.029324 322.182437) scale(0.1 -0.1)">
       <defs>
        <path id="DejaVuSans-33" d="M 2597 2516 
Q 3050 2419 3304 2112 
Q 3559 1806 3559 1356 
Q 3559 666 3084 287 
Q 2609 -91 1734 -91 
Q 1441 -91 1130 -33 
Q 819 25 488 141 
L 488 750 
Q 750 597 1062 519 
Q 1375 441 1716 441 
Q 2309 441 2620 675 
Q 2931 909 2931 1356 
Q 2931 1769 2642 2001 
Q 2353 2234 1838 2234 
L 1294 2234 
L 1294 2753 
L 1863 2753 
Q 2328 2753 2575 2939 
Q 2822 3125 2822 3475 
Q 2822 3834 2567 4026 
Q 2313 4219 1838 4219 
Q 1578 4219 1281 4162 
Q 984 4106 628 3988 
L 628 4550 
Q 988 4650 1302 4700 
Q 1616 4750 1894 4750 
Q 2613 4750 3031 4423 
Q 3450 4097 3450 3541 
Q 3450 3153 3228 2886 
Q 3006 2619 2597 2516 
z
" transform="scale(0.015625)"/>
       </defs>
       <use xlink:href="#DejaVuSans-33"/>
       <use xlink:href="#DejaVuSans-30" x="63.623047"/>
       <use xlink:href="#DejaVuSans-30" x="127.246094"/>
      </g>
     </g>
    </g>
   </g>
   <g id="matplotlib.axis_2">
    <g id="ytick_1">
     <g id="line2d_8">
      <defs>
       <path id="ma42672d45b" d="M 0 0 
L -3.5 0 
" style="stroke: #000000; stroke-width: 0.8"/>
      </defs>
      <g>
       <use xlink:href="#ma42672d45b" x="57.6" y="295.489219" style="stroke: #000000; stroke-width: 0.8"/>
      </g>
     </g>
     <g id="text_8">
      <!-- 0 -->
      <g transform="translate(44.2375 299.288438) scale(0.1 -0.1)">
       <use xlink:href="#DejaVuSans-30"/>
      </g>
     </g>
    </g>
    <g id="ytick_2">
     <g id="line2d_9">
      <g>
       <use xlink:href="#ma42672d45b" x="57.6" y="259.496118" style="stroke: #000000; stroke-width: 0.8"/>
      </g>
     </g>
     <g id="text_9">
      <!-- 250 -->
      <g transform="translate(31.5125 263.295336) scale(0.1 -0.1)">
       <use xlink:href="#DejaVuSans-32"/>
       <use xlink:href="#DejaVuSans-35" x="63.623047"/>
       <use xlink:href="#DejaVuSans-30" x="127.246094"/>
      </g>
     </g>
    </g>
    <g id="ytick_3">
     <g id="line2d_10">
      <g>
       <use xlink:href="#ma42672d45b" x="57.6" y="223.503016" style="stroke: #000000; stroke-width: 0.8"/>
      </g>
     </g>
     <g id="text_10">
      <!-- 500 -->
      <g transform="translate(31.5125 227.302235) scale(0.1 -0.1)">
       <use xlink:href="#DejaVuSans-35"/>
       <use xlink:href="#DejaVuSans-30" x="63.623047"/>
       <use xlink:href="#DejaVuSans-30" x="127.246094"/>
      </g>
     </g>
    </g>
    <g id="ytick_4">
     <g id="line2d_11">
      <g>
       <use xlink:href="#ma42672d45b" x="57.6" y="187.509914" style="stroke: #000000; stroke-width: 0.8"/>
      </g>
     </g>
     <g id="text_11">
      <!-- 750 -->
      <g transform="translate(31.5125 191.309133) scale(0.1 -0.1)">
       <defs>
        <path id="DejaVuSans-37" d="M 525 4666 
L 3525 4666 
L 3525 4397 
L 1831 0 
L 1172 0 
L 2766 4134 
L 525 4134 
L 525 4666 
z
" transform="scale(0.015625)"/>
       </defs>
       <use xlink:href="#DejaVuSans-37"/>
       <use xlink:href="#DejaVuSans-35" x="63.623047"/>
       <use xlink:href="#DejaVuSans-30" x="127.246094"/>
      </g>
     </g>
    </g>
    <g id="ytick_5">
     <g id="line2d_12">
      <g>
       <use xlink:href="#ma42672d45b" x="57.6" y="151.516812" style="stroke: #000000; stroke-width: 0.8"/>
      </g>
     </g>
     <g id="text_12">
      <!-- 1000 -->
      <g transform="translate(25.15 155.316031) scale(0.1 -0.1)">
       <use xlink:href="#DejaVuSans-31"/>
       <use xlink:href="#DejaVuSans-30" x="63.623047"/>
       <use xlink:href="#DejaVuSans-30" x="127.246094"/>
       <use xlink:href="#DejaVuSans-30" x="190.869141"/>
      </g>
     </g>
    </g>
    <g id="ytick_6">
     <g id="line2d_13">
      <g>
       <use xlink:href="#ma42672d45b" x="57.6" y="115.523711" style="stroke: #000000; stroke-width: 0.8"/>
      </g>
     </g>
     <g id="text_13">
      <!-- 1250 -->
      <g transform="translate(25.15 119.322929) scale(0.1 -0.1)">
       <use xlink:href="#DejaVuSans-31"/>
       <use xlink:href="#DejaVuSans-32" x="63.623047"/>
       <use xlink:href="#DejaVuSans-35" x="127.246094"/>
       <use xlink:href="#DejaVuSans-30" x="190.869141"/>
      </g>
     </g>
    </g>
    <g id="ytick_7">
     <g id="line2d_14">
      <g>
       <use xlink:href="#ma42672d45b" x="57.6" y="79.530609" style="stroke: #000000; stroke-width: 0.8"/>
      </g>
     </g>
     <g id="text_14">
      <!-- 1500 -->
      <g transform="translate(25.15 83.329828) scale(0.1 -0.1)">
       <use xlink:href="#DejaVuSans-31"/>
       <use xlink:href="#DejaVuSans-35" x="63.623047"/>
       <use xlink:href="#DejaVuSans-30" x="127.246094"/>
       <use xlink:href="#DejaVuSans-30" x="190.869141"/>
      </g>
     </g>
    </g>
    <g id="ytick_8">
     <g id="line2d_15">
      <g>
       <use xlink:href="#ma42672d45b" x="57.6" y="43.537507" style="stroke: #000000; stroke-width: 0.8"/>
      </g>
     </g>
     <g id="text_15">
      <!-- 1750 -->
      <g transform="translate(25.15 47.336726) scale(0.1 -0.1)">
       <use xlink:href="#DejaVuSans-31"/>
       <use xlink:href="#DejaVuSans-37" x="63.623047"/>
       <use xlink:href="#DejaVuSans-35" x="127.246094"/>
       <use xlink:href="#DejaVuSans-30" x="190.869141"/>
      </g>
     </g>
    </g>
   </g>
   <g id="line2d_16">
    <path d="M 73.832727 81.486526 
L 74.918528 150.176455 
L 76.00433 247.770021 
L 77.090131 277.365379 
L 78.175932 254.115884 
L 79.261733 222.200031 
L 80.347534 244.630686 
L 81.433335 280.714018 
L 82.519137 294.136601 
L 83.604938 293.947061 
L 84.690739 295.127624 
L 85.77654 295.370878 
L 86.862341 295.285823 
L 87.948142 294.737427 
L 89.033943 287.386292 
L 90.119745 232.29576 
L 91.205546 166.513245 
L 92.291347 53.568 
L 93.377148 268.289206 
L 94.462949 291.128513 
L 95.54875 293.907123 
L 96.634552 295.028675 
L 97.720353 294.873896 
L 98.806154 295.173401 
L 103.149358 294.677531 
L 104.23516 294.568128 
L 105.320961 294.154129 
L 106.406762 284.558399 
L 108.578364 195.61211 
L 109.664165 210.810798 
L 110.749967 289.069184 
L 111.835768 291.958529 
L 112.921569 293.002725 
L 114.00737 293.789578 
L 116.178972 294.435147 
L 117.264773 294.102028 
L 118.350575 293.944386 
L 119.436376 293.587436 
L 120.522177 290.477322 
L 121.607978 285.315646 
L 122.693779 285.473046 
L 124.865382 292.703676 
L 125.951183 294.65113 
L 127.036984 294.625257 
L 130.294387 295.03645 
L 132.46599 294.875179 
L 134.637592 294.287925 
L 135.723393 293.63957 
L 136.809194 294.637918 
L 137.894995 294.619842 
L 138.980797 294.030468 
L 140.066598 291.957636 
L 141.152399 290.992925 
L 142.2382 291.334837 
L 143.324001 291.559457 
L 144.409802 293.661342 
L 145.495604 293.17683 
L 146.581405 294.583003 
L 148.753007 294.832928 
L 149.838808 295.085896 
L 150.924609 294.465634 
L 152.01041 294.975741 
L 153.096212 293.311374 
L 154.182013 294.665569 
L 155.267814 295.118255 
L 156.353615 295.034276 
L 157.439416 294.267698 
L 158.525217 292.821724 
L 159.611019 293.892964 
L 160.69682 294.329629 
L 161.782621 291.431472 
L 162.868422 293.486265 
L 163.954223 293.637043 
L 165.040024 293.190991 
L 166.125825 291.526613 
L 167.211627 285.47468 
L 168.297428 282.666312 
L 169.383229 264.790787 
L 171.554831 285.376098 
L 172.640632 287.38973 
L 173.726434 294.109248 
L 174.812235 295.314972 
L 175.898036 295.378761 
L 176.983837 295.330254 
L 178.069638 295.118169 
L 180.24124 291.222168 
L 181.327042 292.955429 
L 182.412843 292.085665 
L 183.498644 292.242026 
L 184.584445 295.440084 
L 185.670246 295.385759 
L 187.841849 295.484555 
L 191.099252 295.429023 
L 192.185053 294.828518 
L 193.270854 291.372593 
L 194.356656 270.000066 
L 195.442457 276.333322 
L 196.528258 292.074714 
L 197.614059 268.549048 
L 198.69986 290.952747 
L 199.785661 286.2279 
L 200.871462 287.476988 
L 201.957264 290.945914 
L 204.128866 294.30694 
L 205.214667 294.826745 
L 207.386269 294.606328 
L 208.472071 294.129339 
L 209.557872 294.077781 
L 210.643673 292.827236 
L 211.729474 293.961769 
L 212.815275 292.989512 
L 213.901076 293.837003 
L 214.986877 290.657202 
L 216.072679 283.970114 
L 217.15848 271.027978 
L 218.244281 292.548037 
L 219.330082 270.073783 
L 220.415883 280.784457 
L 221.501684 282.467888 
L 222.587486 282.60547 
L 223.673287 280.837362 
L 224.759088 281.100149 
L 225.844889 279.647873 
L 226.93069 282.742022 
L 228.016491 282.191905 
L 229.102292 282.714639 
L 230.188094 284.159492 
L 231.273895 289.758777 
L 233.445497 294.458104 
L 234.531298 294.66648 
L 235.617099 294.989008 
L 239.960304 295.167802 
L 241.046105 295.096224 
L 242.131906 294.858072 
L 243.217708 293.817324 
L 244.303509 291.365097 
L 245.38931 292.010473 
L 247.560912 292.77978 
L 248.646713 292.738131 
L 249.732514 293.674303 
L 250.818316 295.17261 
L 252.989918 294.925121 
L 255.16152 294.900997 
L 257.333123 293.864273 
L 258.418924 285.864551 
L 259.504725 288.534558 
L 260.590526 286.800339 
L 261.676327 291.114346 
L 262.762128 292.794042 
L 263.847929 295.234516 
L 266.019532 295.444194 
L 273.62014 295.411798 
L 275.791742 295.204187 
L 276.877543 293.51756 
L 277.963344 283.990764 
L 279.049146 279.541474 
L 280.134947 276.673497 
L 281.220748 293.303592 
L 282.306549 293.196985 
L 283.39235 288.100254 
L 284.478151 292.348726 
L 286.649754 293.703883 
L 287.735555 294.934558 
L 290.992958 295.277166 
L 293.164561 295.155851 
L 294.250362 293.798106 
L 295.336163 288.039446 
L 296.421964 294.14295 
L 297.507765 288.701752 
L 298.593566 294.957042 
L 300.765169 294.925438 
L 301.85097 294.725083 
L 302.936771 295.019625 
L 304.022572 294.416636 
L 305.108373 294.405456 
L 306.194175 290.24864 
L 307.279976 292.370644 
L 308.365777 287.948943 
L 309.451578 294.036014 
L 310.537379 290.817347 
L 311.62318 294.393846 
L 312.708981 295.281947 
L 315.966385 295.476356 
L 320.30959 295.389052 
L 322.481192 295.03744 
L 323.566993 293.639819 
L 324.652794 289.100122 
L 325.738595 292.045694 
L 326.824396 291.729428 
L 327.910198 293.226677 
L 328.995999 293.565106 
L 330.0818 294.146062 
L 331.167601 294.302365 
L 332.253402 294.668583 
L 333.339203 294.684538 
L 334.425005 294.279715 
L 335.510806 293.211858 
L 336.596607 290.005279 
L 337.682408 293.772688 
L 338.768209 293.646447 
L 339.85401 294.835561 
L 340.939811 295.056388 
L 342.025613 294.977783 
L 343.111414 295.240367 
L 346.368817 295.007447 
L 347.454618 293.61462 
L 348.54042 291.326509 
L 349.626221 294.061974 
L 350.712022 292.944663 
L 351.797823 294.041543 
L 353.969425 295.212461 
L 355.055227 295.136521 
L 356.141028 295.258997 
L 358.31263 295.006822 
L 359.398431 293.402987 
L 361.570033 285.933801 
L 362.655835 292.316944 
L 363.741636 294.859993 
L 364.827437 289.717091 
L 365.913238 295.306204 
L 366.999039 294.394011 
L 368.08484 295.337525 
L 371.342244 295.441271 
L 374.599647 295.354024 
L 376.77125 295.110925 
L 377.857051 294.693557 
L 378.942852 294.077148 
L 380.028653 288.435199 
L 381.114454 288.938271 
L 382.200255 291.812487 
L 383.286057 293.376738 
L 384.371858 292.889536 
L 385.457659 292.955842 
L 386.54346 295.138009 
L 387.629261 295.173735 
L 388.715062 295.383082 
L 391.972466 295.363327 
L 393.058267 294.862011 
L 394.144068 292.752516 
L 395.229869 293.948435 
L 396.31567 289.915775 
L 397.401472 295.162562 
L 398.487273 295.221966 
L 398.487273 295.221966 
" clip-path="url(#p2614157811)" style="fill: none; stroke: #1f77b4; stroke-width: 1.5; stroke-linecap: square"/>
   </g>
   <g id="line2d_17">
    <path d="M 73.832727 254.471609 
L 74.918528 158.577049 
L 76.00433 295.31922 
L 77.090131 283.960735 
L 78.175932 276.70825 
L 79.261733 262.417624 
L 80.347534 277.217549 
L 81.433335 289.04662 
L 82.519137 294.889923 
L 83.604938 294.835688 
L 84.690739 295.482524 
L 85.77654 295.245323 
L 86.862341 295.471879 
L 87.948142 293.85579 
L 89.033943 290.730514 
L 90.119745 259.448905 
L 91.205546 240.626013 
L 92.291347 171.557237 
L 93.377148 295.469759 
L 94.462949 293.630441 
L 95.54875 292.604274 
L 96.634552 294.37344 
L 97.720353 295.028535 
L 98.806154 295.163475 
L 102.063557 295.024251 
L 103.149358 294.648528 
L 104.23516 294.842389 
L 105.320961 291.84719 
L 106.406762 294.875558 
L 107.492563 253.27048 
L 108.578364 280.267347 
L 109.664165 286.956511 
L 110.749967 278.083122 
L 111.835768 290.541603 
L 114.00737 293.265781 
L 115.093171 291.249973 
L 116.178972 293.46011 
L 117.264773 290.637087 
L 118.350575 294.031312 
L 119.436376 285.706348 
L 120.522177 294.759928 
L 121.607978 265.030575 
L 122.693779 272.822034 
L 123.77958 274.661795 
L 124.865382 293.230016 
L 125.951183 290.863326 
L 127.036984 292.749107 
L 128.122785 293.173308 
L 129.208586 295.342343 
L 130.294387 293.201255 
L 131.380189 295.401163 
L 132.46599 293.397897 
L 133.551791 295.382555 
L 134.637592 291.592556 
L 135.723393 294.430381 
L 136.809194 292.807599 
L 137.894995 294.063989 
L 138.980797 288.414444 
L 140.066598 293.387202 
L 141.152399 277.314304 
L 142.2382 288.423498 
L 143.324001 269.8896 
L 144.409802 292.08743 
L 145.495604 286.597564 
L 146.581405 292.284961 
L 147.667206 291.405345 
L 148.753007 295.184488 
L 149.838808 292.969937 
L 150.924609 295.3475 
L 152.01041 291.007196 
L 153.096212 295.239856 
L 154.182013 295.144136 
L 155.267814 295.452761 
L 156.353615 294.247864 
L 157.439416 295.222733 
L 158.525217 287.463081 
L 159.611019 294.136078 
L 160.69682 294.889696 
L 161.782621 291.573433 
L 162.868422 289.373926 
L 163.954223 286.474875 
L 165.040024 290.902569 
L 166.125825 275.238937 
L 167.211627 288.700358 
L 168.297428 245.592095 
L 169.383229 275.887416 
L 170.46903 264.284564 
L 171.554831 293.327164 
L 172.640632 295.4555 
L 173.726434 294.704957 
L 174.812235 295.352144 
L 175.898036 295.060606 
L 176.983837 295.474157 
L 178.069638 294.75113 
L 179.155439 294.875775 
L 180.24124 291.978891 
L 182.412843 294.964178 
L 183.498644 294.723947 
L 184.584445 295.466537 
L 190.013451 295.472504 
L 191.099252 295.266759 
L 192.185053 295.403921 
L 193.270854 292.252524 
L 194.356656 289.567782 
L 195.442457 269.035168 
L 196.528258 291.898978 
L 197.614059 280.094101 
L 198.69986 295.377111 
L 199.785661 295.230674 
L 200.871462 295.433868 
L 203.043065 295.167943 
L 204.128866 293.881766 
L 205.214667 293.614594 
L 206.300468 291.560872 
L 207.386269 292.328281 
L 208.472071 290.832418 
L 209.557872 287.34214 
L 210.643673 290.247576 
L 211.729474 287.559781 
L 212.815275 289.101259 
L 213.901076 289.907802 
L 214.986877 295.363905 
L 216.072679 274.69373 
L 217.15848 283.454829 
L 218.244281 294.872844 
L 219.330082 290.244922 
L 220.415883 292.294353 
L 221.501684 291.159627 
L 222.587486 290.929525 
L 223.673287 288.406824 
L 224.759088 289.930774 
L 225.844889 288.695953 
L 226.93069 289.454407 
L 228.016491 287.997415 
L 229.102292 286.21264 
L 230.188094 284.160768 
L 231.273895 287.651579 
L 232.359696 288.227001 
L 233.445497 289.386185 
L 234.531298 290.812113 
L 235.617099 293.871138 
L 236.702901 293.454569 
L 237.788702 294.453954 
L 238.874503 293.158124 
L 239.960304 293.305784 
L 241.046105 292.857086 
L 242.131906 294.174018 
L 243.217708 288.771617 
L 244.303509 295.095493 
L 245.38931 283.194502 
L 246.475111 293.975459 
L 247.560912 279.646956 
L 248.646713 293.776317 
L 249.732514 293.962825 
L 250.818316 291.988803 
L 251.904117 292.302327 
L 252.989918 292.221309 
L 254.075719 292.313027 
L 255.16152 290.868709 
L 256.247321 292.716937 
L 257.333123 289.788353 
L 258.418924 295.379389 
L 259.504725 275.002943 
L 260.590526 294.956623 
L 261.676327 287.075262 
L 262.762128 284.957143 
L 263.847929 294.683383 
L 264.933731 295.182161 
L 266.019532 295.347248 
L 270.362736 295.331245 
L 272.534339 295.228319 
L 273.62014 294.977807 
L 274.705941 294.905906 
L 275.791742 293.838785 
L 276.877543 294.893904 
L 277.963344 279.548145 
L 279.049146 290.148898 
L 280.134947 294.06611 
L 281.220748 284.107885 
L 282.306549 283.782052 
L 283.39235 295.021701 
L 284.478151 288.292573 
L 285.563953 278.929747 
L 286.649754 289.767899 
L 287.735555 294.046177 
L 288.821356 293.816294 
L 289.907157 294.73195 
L 290.992958 294.406062 
L 292.07876 295.07717 
L 293.164561 293.84889 
L 294.250362 295.488 
L 295.336163 280.472982 
L 296.421964 295.272004 
L 297.507765 295.378234 
L 298.593566 292.936207 
L 299.679368 293.821476 
L 300.765169 292.033955 
L 301.85097 292.756789 
L 302.936771 290.861723 
L 304.022572 293.517847 
L 305.108373 289.913111 
L 306.194175 295.145873 
L 307.279976 280.327347 
L 308.365777 291.947325 
L 309.451578 294.201065 
L 310.537379 294.827325 
L 311.62318 294.257538 
L 312.708981 295.31191 
L 313.794783 295.471577 
L 318.137987 295.119341 
L 319.223788 294.913528 
L 321.395391 293.746765 
L 322.481192 290.16134 
L 323.566993 292.70993 
L 324.652794 266.278326 
L 325.738595 292.168802 
L 326.824396 287.924515 
L 327.910198 287.969384 
L 328.995999 290.604725 
L 330.0818 291.307232 
L 331.167601 288.408828 
L 332.253402 293.827824 
L 333.339203 291.979544 
L 334.425005 294.129463 
L 335.510806 285.132279 
L 336.596607 294.505553 
L 337.682408 290.420833 
L 338.768209 292.302245 
L 339.85401 290.787282 
L 340.939811 293.078685 
L 342.025613 291.948884 
L 343.111414 293.629539 
L 344.197215 292.978066 
L 345.283016 293.306803 
L 346.368817 290.702104 
L 347.454618 295.052936 
L 348.54042 283.712612 
L 349.626221 294.421192 
L 350.712022 291.252349 
L 351.797823 289.250712 
L 352.883624 292.948583 
L 353.969425 292.967067 
L 355.055227 293.525695 
L 356.141028 293.710378 
L 357.226829 294.438004 
L 358.31263 293.573387 
L 359.398431 295.33051 
L 360.484232 287.047557 
L 361.570033 294.730608 
L 362.655835 280.199838 
L 363.741636 292.313416 
L 364.827437 294.473452 
L 365.913238 292.727751 
L 366.999039 294.18457 
L 369.170642 295.313367 
L 374.599647 294.862373 
L 375.685448 294.313919 
L 376.77125 293.45503 
L 377.857051 293.409251 
L 378.942852 287.047505 
L 380.028653 292.208775 
L 381.114454 259.943953 
L 382.200255 294.70093 
L 383.286057 288.844811 
L 384.371858 293.846846 
L 385.457659 291.506069 
L 386.54346 290.867725 
L 387.629261 294.61904 
L 388.715062 295.244682 
L 389.800863 295.085777 
L 390.886665 295.368281 
L 391.972466 294.878249 
L 393.058267 295.46072 
L 394.144068 290.48682 
L 395.229869 295.218753 
L 396.31567 293.888817 
L 397.401472 291.551945 
L 398.487273 292.094779 
L 398.487273 292.094779 
" clip-path="url(#p2614157811)" style="fill: none; stroke: #ff7f0e; stroke-opacity: 0.5; stroke-width: 1.5; stroke-linecap: square"/>
   </g>
   <g id="patch_3">
    <path d="M 57.6 307.584 
L 57.6 41.472 
" style="fill: none; stroke: #000000; stroke-width: 0.8; stroke-linejoin: miter; stroke-linecap: square"/>
   </g>
   <g id="patch_4">
    <path d="M 414.72 307.584 
L 414.72 41.472 
" style="fill: none; stroke: #000000; stroke-width: 0.8; stroke-linejoin: miter; stroke-linecap: square"/>
   </g>
   <g id="patch_5">
    <path d="M 57.6 307.584 
L 414.72 307.584 
" style="fill: none; stroke: #000000; stroke-width: 0.8; stroke-linejoin: miter; stroke-linecap: square"/>
   </g>
   <g id="patch_6">
    <path d="M 57.6 41.472 
L 414.72 41.472 
" style="fill: none; stroke: #000000; stroke-width: 0.8; stroke-linejoin: miter; stroke-linecap: square"/>
   </g>
   <g id="legend_1">
    <g id="patch_7">
     <path d="M 351.768438 78.82825 
L 407.72 78.82825 
Q 409.72 78.82825 409.72 76.82825 
L 409.72 48.472 
Q 409.72 46.472 407.72 46.472 
L 351.768438 46.472 
Q 349.768438 46.472 349.768438 48.472 
L 349.768438 76.82825 
Q 349.768438 78.82825 351.768438 78.82825 
z
" style="fill: #ffffff; opacity: 0.8; stroke: #cccccc; stroke-linejoin: miter"/>
    </g>
    <g id="line2d_18">
     <path d="M 353.768438 54.570437 
L 363.768438 54.570437 
L 373.768438 54.570437 
" style="fill: none; stroke: #1f77b4; stroke-width: 1.5; stroke-linecap: square"/>
    </g>
    <g id="text_16">
     <!-- train -->
     <g transform="translate(381.768438 58.070437) scale(0.1 -0.1)">
      <defs>
       <path id="DejaVuSans-74" d="M 1172 4494 
L 1172 3500 
L 2356 3500 
L 2356 3053 
L 1172 3053 
L 1172 1153 
Q 1172 725 1289 603 
Q 1406 481 1766 481 
L 2356 481 
L 2356 0 
L 1766 0 
Q 1100 0 847 248 
Q 594 497 594 1153 
L 594 3053 
L 172 3053 
L 172 3500 
L 594 3500 
L 594 4494 
L 1172 4494 
z
" transform="scale(0.015625)"/>
       <path id="DejaVuSans-72" d="M 2631 2963 
Q 2534 3019 2420 3045 
Q 2306 3072 2169 3072 
Q 1681 3072 1420 2755 
Q 1159 2438 1159 1844 
L 1159 0 
L 581 0 
L 581 3500 
L 1159 3500 
L 1159 2956 
Q 1341 3275 1631 3429 
Q 1922 3584 2338 3584 
Q 2397 3584 2469 3576 
Q 2541 3569 2628 3553 
L 2631 2963 
z
" transform="scale(0.015625)"/>
       <path id="DejaVuSans-61" d="M 2194 1759 
Q 1497 1759 1228 1600 
Q 959 1441 959 1056 
Q 959 750 1161 570 
Q 1363 391 1709 391 
Q 2188 391 2477 730 
Q 2766 1069 2766 1631 
L 2766 1759 
L 2194 1759 
z
M 3341 1997 
L 3341 0 
L 2766 0 
L 2766 531 
Q 2569 213 2275 61 
Q 1981 -91 1556 -91 
Q 1019 -91 701 211 
Q 384 513 384 1019 
Q 384 1609 779 1909 
Q 1175 2209 1959 2209 
L 2766 2209 
L 2766 2266 
Q 2766 2663 2505 2880 
Q 2244 3097 1772 3097 
Q 1472 3097 1187 3025 
Q 903 2953 641 2809 
L 641 3341 
Q 956 3463 1253 3523 
Q 1550 3584 1831 3584 
Q 2591 3584 2966 3190 
Q 3341 2797 3341 1997 
z
" transform="scale(0.015625)"/>
       <path id="DejaVuSans-69" d="M 603 3500 
L 1178 3500 
L 1178 0 
L 603 0 
L 603 3500 
z
M 603 4863 
L 1178 4863 
L 1178 4134 
L 603 4134 
L 603 4863 
z
" transform="scale(0.015625)"/>
       <path id="DejaVuSans-6e" d="M 3513 2113 
L 3513 0 
L 2938 0 
L 2938 2094 
Q 2938 2591 2744 2837 
Q 2550 3084 2163 3084 
Q 1697 3084 1428 2787 
Q 1159 2491 1159 1978 
L 1159 0 
L 581 0 
L 581 3500 
L 1159 3500 
L 1159 2956 
Q 1366 3272 1645 3428 
Q 1925 3584 2291 3584 
Q 2894 3584 3203 3211 
Q 3513 2838 3513 2113 
z
" transform="scale(0.015625)"/>
      </defs>
      <use xlink:href="#DejaVuSans-74"/>
      <use xlink:href="#DejaVuSans-72" x="39.208984"/>
      <use xlink:href="#DejaVuSans-61" x="80.322266"/>
      <use xlink:href="#DejaVuSans-69" x="141.601562"/>
      <use xlink:href="#DejaVuSans-6e" x="169.384766"/>
     </g>
    </g>
    <g id="line2d_19">
     <path d="M 353.768438 69.248562 
L 363.768438 69.248562 
L 373.768438 69.248562 
" style="fill: none; stroke: #ff7f0e; stroke-opacity: 0.5; stroke-width: 1.5; stroke-linecap: square"/>
    </g>
    <g id="text_17">
     <!-- valid -->
     <g transform="translate(381.768438 72.748562) scale(0.1 -0.1)">
      <defs>
       <path id="DejaVuSans-76" d="M 191 3500 
L 800 3500 
L 1894 563 
L 2988 3500 
L 3597 3500 
L 2284 0 
L 1503 0 
L 191 3500 
z
" transform="scale(0.015625)"/>
       <path id="DejaVuSans-6c" d="M 603 4863 
L 1178 4863 
L 1178 0 
L 603 0 
L 603 4863 
z
" transform="scale(0.015625)"/>
       <path id="DejaVuSans-64" d="M 2906 2969 
L 2906 4863 
L 3481 4863 
L 3481 0 
L 2906 0 
L 2906 525 
Q 2725 213 2448 61 
Q 2172 -91 1784 -91 
Q 1150 -91 751 415 
Q 353 922 353 1747 
Q 353 2572 751 3078 
Q 1150 3584 1784 3584 
Q 2172 3584 2448 3432 
Q 2725 3281 2906 2969 
z
M 947 1747 
Q 947 1113 1208 752 
Q 1469 391 1925 391 
Q 2381 391 2643 752 
Q 2906 1113 2906 1747 
Q 2906 2381 2643 2742 
Q 2381 3103 1925 3103 
Q 1469 3103 1208 2742 
Q 947 2381 947 1747 
z
" transform="scale(0.015625)"/>
      </defs>
      <use xlink:href="#DejaVuSans-76"/>
      <use xlink:href="#DejaVuSans-61" x="59.179688"/>
      <use xlink:href="#DejaVuSans-6c" x="120.458984"/>
      <use xlink:href="#DejaVuSans-69" x="148.242188"/>
      <use xlink:href="#DejaVuSans-64" x="176.025391"/>
     </g>
    </g>
   </g>
  </g>
 </g>
 <defs>
  <clipPath id="p2614157811">
   <rect x="57.6" y="41.472" width="357.12" height="266.112"/>
  </clipPath>
 </defs>
</svg>
