<?xml version="1.0" encoding="utf-8" standalone="no"?>
<!DOCTYPE svg PUBLIC "-//W3C//DTD SVG 1.1//EN"
  "http://www.w3.org/Graphics/SVG/1.1/DTD/svg11.dtd">
<svg xmlns:xlink="http://www.w3.org/1999/xlink" width="460.8pt" height="345.6pt" viewBox="0 0 460.8 345.6" xmlns="http://www.w3.org/2000/svg" version="1.1">
 <metadata>
  <rdf:RDF xmlns:dc="http://purl.org/dc/elements/1.1/" xmlns:cc="http://creativecommons.org/ns#" xmlns:rdf="http://www.w3.org/1999/02/22-rdf-syntax-ns#">
   <cc:Work>
    <dc:type rdf:resource="http://purl.org/dc/dcmitype/StillImage"/>
    <dc:date>2023-12-05T08:56:47.656928</dc:date>
    <dc:format>image/svg+xml</dc:format>
    <dc:creator>
     <cc:Agent>
      <dc:title>Matplotlib v3.7.3, https://matplotlib.org/</dc:title>
     </cc:Agent>
    </dc:creator>
   </cc:Work>
  </rdf:RDF>
 </metadata>
 <defs>
  <style type="text/css">*{stroke-linejoin: round; stroke-linecap: butt}</style>
 </defs>
 <g id="figure_1">
  <g id="patch_1">
   <path d="M 0 345.6 
L 460.8 345.6 
L 460.8 0 
L 0 0 
z
" style="fill: #ffffff"/>
  </g>
  <g id="axes_1">
   <g id="patch_2">
    <path d="M 57.6 307.584 
L 414.72 307.584 
L 414.72 41.472 
L 57.6 41.472 
z
" style="fill: #ffffff"/>
   </g>
   <g id="matplotlib.axis_1">
    <g id="xtick_1">
     <g id="line2d_1">
      <defs>
       <path id="mc1a255636d" d="M 0 0 
L 0 3.5 
" style="stroke: #000000; stroke-width: 0.8"/>
      </defs>
      <g>
       <use xlink:href="#mc1a255636d" x="73.832727" y="307.584" style="stroke: #000000; stroke-width: 0.8"/>
      </g>
     </g>
     <g id="text_1">
      <!-- 0 -->
      <g transform="translate(70.651477 322.182437) scale(0.1 -0.1)">
       <defs>
        <path id="DejaVuSans-30" d="M 2034 4250 
Q 1547 4250 1301 3770 
Q 1056 3291 1056 2328 
Q 1056 1369 1301 889 
Q 1547 409 2034 409 
Q 2525 409 2770 889 
Q 3016 1369 3016 2328 
Q 3016 3291 2770 3770 
Q 2525 4250 2034 4250 
z
M 2034 4750 
Q 2819 4750 3233 4129 
Q 3647 3509 3647 2328 
Q 3647 1150 3233 529 
Q 2819 -91 2034 -91 
Q 1250 -91 836 529 
Q 422 1150 422 2328 
Q 422 3509 836 4129 
Q 1250 4750 2034 4750 
z
" transform="scale(0.015625)"/>
       </defs>
       <use xlink:href="#DejaVuSans-30"/>
      </g>
     </g>
    </g>
    <g id="xtick_2">
     <g id="line2d_2">
      <g>
       <use xlink:href="#mc1a255636d" x="128.122785" y="307.584" style="stroke: #000000; stroke-width: 0.8"/>
      </g>
     </g>
     <g id="text_2">
      <!-- 50 -->
      <g transform="translate(121.760285 322.182437) scale(0.1 -0.1)">
       <defs>
        <path id="DejaVuSans-35" d="M 691 4666 
L 3169 4666 
L 3169 4134 
L 1269 4134 
L 1269 2991 
Q 1406 3038 1543 3061 
Q 1681 3084 1819 3084 
Q 2600 3084 3056 2656 
Q 3513 2228 3513 1497 
Q 3513 744 3044 326 
Q 2575 -91 1722 -91 
Q 1428 -91 1123 -41 
Q 819 9 494 109 
L 494 744 
Q 775 591 1075 516 
Q 1375 441 1709 441 
Q 2250 441 2565 725 
Q 2881 1009 2881 1497 
Q 2881 1984 2565 2268 
Q 2250 2553 1709 2553 
Q 1456 2553 1204 2497 
Q 953 2441 691 2322 
L 691 4666 
z
" transform="scale(0.015625)"/>
       </defs>
       <use xlink:href="#DejaVuSans-35"/>
       <use xlink:href="#DejaVuSans-30" x="63.623047"/>
      </g>
     </g>
    </g>
    <g id="xtick_3">
     <g id="line2d_3">
      <g>
       <use xlink:href="#mc1a255636d" x="182.412843" y="307.584" style="stroke: #000000; stroke-width: 0.8"/>
      </g>
     </g>
     <g id="text_3">
      <!-- 100 -->
      <g transform="translate(172.869093 322.182437) scale(0.1 -0.1)">
       <defs>
        <path id="DejaVuSans-31" d="M 794 531 
L 1825 531 
L 1825 4091 
L 703 3866 
L 703 4441 
L 1819 4666 
L 2450 4666 
L 2450 531 
L 3481 531 
L 3481 0 
L 794 0 
L 794 531 
z
" transform="scale(0.015625)"/>
       </defs>
       <use xlink:href="#DejaVuSans-31"/>
       <use xlink:href="#DejaVuSans-30" x="63.623047"/>
       <use xlink:href="#DejaVuSans-30" x="127.246094"/>
      </g>
     </g>
    </g>
    <g id="xtick_4">
     <g id="line2d_4">
      <g>
       <use xlink:href="#mc1a255636d" x="236.702901" y="307.584" style="stroke: #000000; stroke-width: 0.8"/>
      </g>
     </g>
     <g id="text_4">
      <!-- 150 -->
      <g transform="translate(227.159151 322.182437) scale(0.1 -0.1)">
       <use xlink:href="#DejaVuSans-31"/>
       <use xlink:href="#DejaVuSans-35" x="63.623047"/>
       <use xlink:href="#DejaVuSans-30" x="127.246094"/>
      </g>
     </g>
    </g>
    <g id="xtick_5">
     <g id="line2d_5">
      <g>
       <use xlink:href="#mc1a255636d" x="290.992958" y="307.584" style="stroke: #000000; stroke-width: 0.8"/>
      </g>
     </g>
     <g id="text_5">
      <!-- 200 -->
      <g transform="translate(281.449208 322.182437) scale(0.1 -0.1)">
       <defs>
        <path id="DejaVuSans-32" d="M 1228 531 
L 3431 531 
L 3431 0 
L 469 0 
L 469 531 
Q 828 903 1448 1529 
Q 2069 2156 2228 2338 
Q 2531 2678 2651 2914 
Q 2772 3150 2772 3378 
Q 2772 3750 2511 3984 
Q 2250 4219 1831 4219 
Q 1534 4219 1204 4116 
Q 875 4013 500 3803 
L 500 4441 
Q 881 4594 1212 4672 
Q 1544 4750 1819 4750 
Q 2544 4750 2975 4387 
Q 3406 4025 3406 3419 
Q 3406 3131 3298 2873 
Q 3191 2616 2906 2266 
Q 2828 2175 2409 1742 
Q 1991 1309 1228 531 
z
" transform="scale(0.015625)"/>
       </defs>
       <use xlink:href="#DejaVuSans-32"/>
       <use xlink:href="#DejaVuSans-30" x="63.623047"/>
       <use xlink:href="#DejaVuSans-30" x="127.246094"/>
      </g>
     </g>
    </g>
    <g id="xtick_6">
     <g id="line2d_6">
      <g>
       <use xlink:href="#mc1a255636d" x="345.283016" y="307.584" style="stroke: #000000; stroke-width: 0.8"/>
      </g>
     </g>
     <g id="text_6">
      <!-- 250 -->
      <g transform="translate(335.739266 322.182437) scale(0.1 -0.1)">
       <use xlink:href="#DejaVuSans-32"/>
       <use xlink:href="#DejaVuSans-35" x="63.623047"/>
       <use xlink:href="#DejaVuSans-30" x="127.246094"/>
      </g>
     </g>
    </g>
    <g id="xtick_7">
     <g id="line2d_7">
      <g>
       <use xlink:href="#mc1a255636d" x="399.573074" y="307.584" style="stroke: #000000; stroke-width: 0.8"/>
      </g>
     </g>
     <g id="text_7">
      <!-- 300 -->
      <g transform="translate(390.029324 322.182437) scale(0.1 -0.1)">
       <defs>
        <path id="DejaVuSans-33" d="M 2597 2516 
Q 3050 2419 3304 2112 
Q 3559 1806 3559 1356 
Q 3559 666 3084 287 
Q 2609 -91 1734 -91 
Q 1441 -91 1130 -33 
Q 819 25 488 141 
L 488 750 
Q 750 597 1062 519 
Q 1375 441 1716 441 
Q 2309 441 2620 675 
Q 2931 909 2931 1356 
Q 2931 1769 2642 2001 
Q 2353 2234 1838 2234 
L 1294 2234 
L 1294 2753 
L 1863 2753 
Q 2328 2753 2575 2939 
Q 2822 3125 2822 3475 
Q 2822 3834 2567 4026 
Q 2313 4219 1838 4219 
Q 1578 4219 1281 4162 
Q 984 4106 628 3988 
L 628 4550 
Q 988 4650 1302 4700 
Q 1616 4750 1894 4750 
Q 2613 4750 3031 4423 
Q 3450 4097 3450 3541 
Q 3450 3153 3228 2886 
Q 3006 2619 2597 2516 
z
" transform="scale(0.015625)"/>
       </defs>
       <use xlink:href="#DejaVuSans-33"/>
       <use xlink:href="#DejaVuSans-30" x="63.623047"/>
       <use xlink:href="#DejaVuSans-30" x="127.246094"/>
      </g>
     </g>
    </g>
   </g>
   <g id="matplotlib.axis_2">
    <g id="ytick_1">
     <g id="line2d_8">
      <defs>
       <path id="m6a8c93d3c9" d="M 0 0 
L -3.5 0 
" style="stroke: #000000; stroke-width: 0.8"/>
      </defs>
      <g>
       <use xlink:href="#m6a8c93d3c9" x="57.6" y="293.574468" style="stroke: #000000; stroke-width: 0.8"/>
      </g>
     </g>
     <g id="text_8">
      <!-- 400 -->
      <g transform="translate(31.5125 297.373686) scale(0.1 -0.1)">
       <defs>
        <path id="DejaVuSans-34" d="M 2419 4116 
L 825 1625 
L 2419 1625 
L 2419 4116 
z
M 2253 4666 
L 3047 4666 
L 3047 1625 
L 3713 1625 
L 3713 1100 
L 3047 1100 
L 3047 0 
L 2419 0 
L 2419 1100 
L 313 1100 
L 313 1709 
L 2253 4666 
z
" transform="scale(0.015625)"/>
       </defs>
       <use xlink:href="#DejaVuSans-34"/>
       <use xlink:href="#DejaVuSans-30" x="63.623047"/>
       <use xlink:href="#DejaVuSans-30" x="127.246094"/>
      </g>
     </g>
    </g>
    <g id="ytick_2">
     <g id="line2d_9">
      <g>
       <use xlink:href="#m6a8c93d3c9" x="57.6" y="260.151694" style="stroke: #000000; stroke-width: 0.8"/>
      </g>
     </g>
     <g id="text_9">
      <!-- 600 -->
      <g transform="translate(31.5125 263.950912) scale(0.1 -0.1)">
       <defs>
        <path id="DejaVuSans-36" d="M 2113 2584 
Q 1688 2584 1439 2293 
Q 1191 2003 1191 1497 
Q 1191 994 1439 701 
Q 1688 409 2113 409 
Q 2538 409 2786 701 
Q 3034 994 3034 1497 
Q 3034 2003 2786 2293 
Q 2538 2584 2113 2584 
z
M 3366 4563 
L 3366 3988 
Q 3128 4100 2886 4159 
Q 2644 4219 2406 4219 
Q 1781 4219 1451 3797 
Q 1122 3375 1075 2522 
Q 1259 2794 1537 2939 
Q 1816 3084 2150 3084 
Q 2853 3084 3261 2657 
Q 3669 2231 3669 1497 
Q 3669 778 3244 343 
Q 2819 -91 2113 -91 
Q 1303 -91 875 529 
Q 447 1150 447 2328 
Q 447 3434 972 4092 
Q 1497 4750 2381 4750 
Q 2619 4750 2861 4703 
Q 3103 4656 3366 4563 
z
" transform="scale(0.015625)"/>
       </defs>
       <use xlink:href="#DejaVuSans-36"/>
       <use xlink:href="#DejaVuSans-30" x="63.623047"/>
       <use xlink:href="#DejaVuSans-30" x="127.246094"/>
      </g>
     </g>
    </g>
    <g id="ytick_3">
     <g id="line2d_10">
      <g>
       <use xlink:href="#m6a8c93d3c9" x="57.6" y="226.72892" style="stroke: #000000; stroke-width: 0.8"/>
      </g>
     </g>
     <g id="text_10">
      <!-- 800 -->
      <g transform="translate(31.5125 230.528138) scale(0.1 -0.1)">
       <defs>
        <path id="DejaVuSans-38" d="M 2034 2216 
Q 1584 2216 1326 1975 
Q 1069 1734 1069 1313 
Q 1069 891 1326 650 
Q 1584 409 2034 409 
Q 2484 409 2743 651 
Q 3003 894 3003 1313 
Q 3003 1734 2745 1975 
Q 2488 2216 2034 2216 
z
M 1403 2484 
Q 997 2584 770 2862 
Q 544 3141 544 3541 
Q 544 4100 942 4425 
Q 1341 4750 2034 4750 
Q 2731 4750 3128 4425 
Q 3525 4100 3525 3541 
Q 3525 3141 3298 2862 
Q 3072 2584 2669 2484 
Q 3125 2378 3379 2068 
Q 3634 1759 3634 1313 
Q 3634 634 3220 271 
Q 2806 -91 2034 -91 
Q 1263 -91 848 271 
Q 434 634 434 1313 
Q 434 1759 690 2068 
Q 947 2378 1403 2484 
z
M 1172 3481 
Q 1172 3119 1398 2916 
Q 1625 2713 2034 2713 
Q 2441 2713 2670 2916 
Q 2900 3119 2900 3481 
Q 2900 3844 2670 4047 
Q 2441 4250 2034 4250 
Q 1625 4250 1398 4047 
Q 1172 3844 1172 3481 
z
" transform="scale(0.015625)"/>
       </defs>
       <use xlink:href="#DejaVuSans-38"/>
       <use xlink:href="#DejaVuSans-30" x="63.623047"/>
       <use xlink:href="#DejaVuSans-30" x="127.246094"/>
      </g>
     </g>
    </g>
    <g id="ytick_4">
     <g id="line2d_11">
      <g>
       <use xlink:href="#m6a8c93d3c9" x="57.6" y="193.306146" style="stroke: #000000; stroke-width: 0.8"/>
      </g>
     </g>
     <g id="text_11">
      <!-- 1000 -->
      <g transform="translate(25.15 197.105364) scale(0.1 -0.1)">
       <use xlink:href="#DejaVuSans-31"/>
       <use xlink:href="#DejaVuSans-30" x="63.623047"/>
       <use xlink:href="#DejaVuSans-30" x="127.246094"/>
       <use xlink:href="#DejaVuSans-30" x="190.869141"/>
      </g>
     </g>
    </g>
    <g id="ytick_5">
     <g id="line2d_12">
      <g>
       <use xlink:href="#m6a8c93d3c9" x="57.6" y="159.883372" style="stroke: #000000; stroke-width: 0.8"/>
      </g>
     </g>
     <g id="text_12">
      <!-- 1200 -->
      <g transform="translate(25.15 163.68259) scale(0.1 -0.1)">
       <use xlink:href="#DejaVuSans-31"/>
       <use xlink:href="#DejaVuSans-32" x="63.623047"/>
       <use xlink:href="#DejaVuSans-30" x="127.246094"/>
       <use xlink:href="#DejaVuSans-30" x="190.869141"/>
      </g>
     </g>
    </g>
    <g id="ytick_6">
     <g id="line2d_13">
      <g>
       <use xlink:href="#m6a8c93d3c9" x="57.6" y="126.460598" style="stroke: #000000; stroke-width: 0.8"/>
      </g>
     </g>
     <g id="text_13">
      <!-- 1400 -->
      <g transform="translate(25.15 130.259816) scale(0.1 -0.1)">
       <use xlink:href="#DejaVuSans-31"/>
       <use xlink:href="#DejaVuSans-34" x="63.623047"/>
       <use xlink:href="#DejaVuSans-30" x="127.246094"/>
       <use xlink:href="#DejaVuSans-30" x="190.869141"/>
      </g>
     </g>
    </g>
    <g id="ytick_7">
     <g id="line2d_14">
      <g>
       <use xlink:href="#m6a8c93d3c9" x="57.6" y="93.037824" style="stroke: #000000; stroke-width: 0.8"/>
      </g>
     </g>
     <g id="text_14">
      <!-- 1600 -->
      <g transform="translate(25.15 96.837042) scale(0.1 -0.1)">
       <use xlink:href="#DejaVuSans-31"/>
       <use xlink:href="#DejaVuSans-36" x="63.623047"/>
       <use xlink:href="#DejaVuSans-30" x="127.246094"/>
       <use xlink:href="#DejaVuSans-30" x="190.869141"/>
      </g>
     </g>
    </g>
    <g id="ytick_8">
     <g id="line2d_15">
      <g>
       <use xlink:href="#m6a8c93d3c9" x="57.6" y="59.61505" style="stroke: #000000; stroke-width: 0.8"/>
      </g>
     </g>
     <g id="text_15">
      <!-- 1800 -->
      <g transform="translate(25.15 63.414268) scale(0.1 -0.1)">
       <use xlink:href="#DejaVuSans-31"/>
       <use xlink:href="#DejaVuSans-38" x="63.623047"/>
       <use xlink:href="#DejaVuSans-30" x="127.246094"/>
       <use xlink:href="#DejaVuSans-30" x="190.869141"/>
      </g>
     </g>
    </g>
   </g>
   <g id="line2d_16">
    <path d="M 73.832727 53.568 
L 74.918528 115.872016 
L 76.00433 131.132822 
L 77.090131 112.465666 
L 78.175932 144.193948 
L 79.261733 150.674116 
L 80.347534 158.22609 
L 81.433335 158.237955 
L 82.519137 162.987455 
L 83.604938 180.955776 
L 84.690739 161.205479 
L 85.77654 179.772356 
L 86.862341 181.326532 
L 87.948142 171.03514 
L 89.033943 186.392984 
L 90.119745 185.113064 
L 91.205546 185.566109 
L 92.291347 186.951788 
L 93.377148 193.507523 
L 94.462949 207.902433 
L 95.54875 201.49385 
L 96.634552 204.066157 
L 97.720353 194.831702 
L 98.806154 199.026658 
L 99.891955 202.549182 
L 100.977756 195.125722 
L 102.063557 204.692628 
L 103.149358 204.274595 
L 104.23516 197.043136 
L 105.320961 200.851102 
L 106.406762 194.343731 
L 107.492563 192.880015 
L 108.578364 203.016971 
L 109.664165 189.651805 
L 110.749967 185.852818 
L 111.835768 196.142018 
L 112.921569 189.987601 
L 114.00737 199.46177 
L 115.093171 196.60907 
L 116.178972 197.662775 
L 117.264773 203.526442 
L 118.350575 193.781973 
L 119.436376 201.184581 
L 120.522177 194.043048 
L 121.607978 199.043468 
L 122.693779 200.403801 
L 123.77958 203.587653 
L 124.865382 200.599638 
L 125.951183 200.347684 
L 127.036984 202.334804 
L 128.122785 203.20324 
L 129.208586 197.998849 
L 130.294387 200.52422 
L 131.380189 203.567725 
L 132.46599 210.13941 
L 133.551791 201.466606 
L 134.637592 206.050887 
L 135.723393 202.537934 
L 136.809194 207.000829 
L 137.894995 194.630221 
L 138.980797 204.286104 
L 140.066598 197.76664 
L 141.152399 199.991225 
L 142.2382 200.684836 
L 143.324001 204.432945 
L 144.409802 201.13388 
L 145.495604 196.641795 
L 146.581405 198.897524 
L 147.667206 203.057383 
L 148.753007 200.20191 
L 149.838808 209.630223 
L 150.924609 203.722566 
L 152.01041 209.757855 
L 153.096212 194.856969 
L 154.182013 202.852627 
L 155.267814 206.532607 
L 156.353615 196.051778 
L 157.439416 205.618852 
L 158.525217 206.300677 
L 159.611019 208.070952 
L 160.69682 204.908085 
L 161.782621 196.12916 
L 162.868422 207.18695 
L 163.954223 199.837301 
L 165.040024 203.21509 
L 166.125825 202.345542 
L 167.211627 199.046291 
L 168.297428 206.222572 
L 169.383229 202.88306 
L 170.46903 205.396966 
L 171.554831 193.430914 
L 172.640632 197.998865 
L 173.726434 208.02521 
L 174.812235 192.596338 
L 176.983837 213.160106 
L 178.069638 204.424973 
L 179.155439 204.731199 
L 180.24124 206.9484 
L 181.327042 204.478528 
L 182.412843 207.294507 
L 183.498644 207.821959 
L 184.584445 208.018176 
L 185.670246 201.611154 
L 186.756047 203.201661 
L 187.841849 210.415201 
L 188.92765 201.984557 
L 190.013451 199.418835 
L 191.099252 206.286152 
L 192.185053 206.427371 
L 193.270854 203.516138 
L 194.356656 202.137851 
L 195.442457 203.885749 
L 196.528258 202.739844 
L 197.614059 205.955623 
L 198.69986 201.305303 
L 199.785661 207.74413 
L 200.871462 194.580509 
L 201.957264 201.804202 
L 203.043065 206.280094 
L 204.128866 198.141458 
L 205.214667 204.306095 
L 206.300468 201.329558 
L 207.386269 207.401899 
L 208.472071 204.987132 
L 210.643673 204.538281 
L 211.729474 203.249665 
L 212.815275 208.082001 
L 213.901076 206.419385 
L 214.986877 208.275852 
L 216.072679 207.222662 
L 217.15848 209.532901 
L 218.244281 201.758501 
L 219.330082 204.228445 
L 220.415883 203.128418 
L 221.501684 205.26734 
L 222.587486 206.008702 
L 223.673287 205.301227 
L 224.759088 206.403489 
L 225.844889 205.8069 
L 226.93069 213.587668 
L 228.016491 204.067266 
L 229.102292 201.172125 
L 230.188094 206.05041 
L 231.273895 204.22206 
L 232.359696 209.733553 
L 233.445497 207.557882 
L 234.531298 203.134693 
L 235.617099 207.507442 
L 236.702901 206.40953 
L 237.788702 202.330749 
L 238.874503 196.849255 
L 239.960304 209.640454 
L 241.046105 170.153035 
L 242.131906 208.166114 
L 243.217708 206.057624 
L 244.303509 182.687145 
L 245.38931 196.533974 
L 246.475111 194.628324 
L 247.560912 202.268476 
L 248.646713 210.772344 
L 249.732514 201.780671 
L 250.818316 210.526241 
L 251.904117 206.792753 
L 252.989918 208.786097 
L 254.075719 203.113951 
L 256.247321 205.492196 
L 257.333123 207.809147 
L 258.418924 202.824868 
L 259.504725 206.938297 
L 260.590526 204.406273 
L 261.676327 212.635515 
L 262.762128 208.052994 
L 263.847929 209.298407 
L 264.933731 205.827801 
L 266.019532 204.68416 
L 267.105333 206.363821 
L 268.191134 211.934475 
L 269.276935 212.197143 
L 270.362736 204.831521 
L 271.448538 205.536525 
L 272.534339 205.570596 
L 273.62014 204.09017 
L 274.705941 203.154066 
L 275.791742 203.739412 
L 276.877543 212.921752 
L 277.963344 210.230872 
L 279.049146 205.790778 
L 280.134947 207.844132 
L 281.220748 203.897025 
L 282.306549 204.104651 
L 283.39235 205.621673 
L 284.478151 207.846342 
L 285.563953 206.787814 
L 286.649754 210.365493 
L 287.735555 211.942707 
L 288.821356 201.426108 
L 289.907157 206.720761 
L 290.992958 196.849853 
L 292.07876 212.257613 
L 293.164561 198.323997 
L 294.250362 191.890849 
L 295.336163 205.587746 
L 296.421964 211.805131 
L 297.507765 211.690964 
L 298.593566 212.446771 
L 299.679368 206.345367 
L 300.765169 211.1382 
L 301.85097 211.197946 
L 304.022572 206.302348 
L 305.108373 204.343284 
L 306.194175 205.707894 
L 308.365777 209.20579 
L 309.451578 206.950441 
L 310.537379 213.425833 
L 311.62318 204.91199 
L 312.708981 202.77466 
L 313.794783 211.568738 
L 314.880584 210.912506 
L 315.966385 206.651233 
L 317.052186 221.65938 
L 318.137987 203.818971 
L 319.223788 217.130228 
L 320.30959 208.965181 
L 321.395391 205.384021 
L 322.481192 204.512981 
L 323.566993 212.802379 
L 324.652794 214.566751 
L 325.738595 206.705559 
L 326.824396 213.34556 
L 328.995999 209.103801 
L 330.0818 202.529383 
L 331.167601 209.945336 
L 332.253402 208.560786 
L 333.339203 204.176538 
L 334.425005 205.619115 
L 335.510806 209.927915 
L 336.596607 202.472164 
L 337.682408 219.747281 
L 338.768209 206.745769 
L 339.85401 208.257013 
L 340.939811 204.013589 
L 342.025613 207.565428 
L 343.111414 206.885637 
L 344.197215 208.360302 
L 345.283016 212.979082 
L 346.368817 205.068494 
L 347.454618 210.971351 
L 348.54042 200.904529 
L 349.626221 201.685056 
L 350.712022 205.944836 
L 351.797823 207.957699 
L 352.883624 216.684226 
L 353.969425 206.059251 
L 355.055227 218.238784 
L 356.141028 207.680499 
L 357.226829 204.22942 
L 358.31263 209.316005 
L 359.398431 204.194157 
L 360.484232 209.49819 
L 361.570033 208.635024 
L 362.655835 203.190401 
L 363.741636 207.825391 
L 364.827437 209.577346 
L 365.913238 205.662582 
L 366.999039 207.715637 
L 368.08484 204.923091 
L 369.170642 205.902139 
L 370.256443 208.79997 
L 371.342244 207.19087 
L 372.428045 210.80634 
L 373.513846 207.542551 
L 374.599647 224.849209 
L 375.685448 201.018439 
L 376.77125 204.708072 
L 377.857051 206.711336 
L 378.942852 198.770182 
L 380.028653 205.77188 
L 381.114454 199.43961 
L 382.200255 206.927177 
L 383.286057 201.751075 
L 384.371858 203.662934 
L 385.457659 203.333425 
L 386.54346 203.954758 
L 387.629261 210.851362 
L 388.715062 210.715806 
L 389.800863 213.656835 
L 390.886665 208.90515 
L 391.972466 210.783602 
L 393.058267 208.743644 
L 394.144068 205.521965 
L 395.229869 206.38781 
L 396.31567 201.916963 
L 397.401472 207.531757 
L 398.487273 215.215793 
L 398.487273 215.215793 
" clip-path="url(#pebb41a7fba)" style="fill: none; stroke: #1f77b4; stroke-width: 1.5; stroke-linecap: square"/>
   </g>
   <g id="line2d_17">
    <path d="M 73.832727 256.11695 
L 74.918528 168.539409 
L 76.00433 167.988762 
L 77.090131 235.798896 
L 78.175932 220.940878 
L 79.261733 240.225639 
L 80.347534 233.57915 
L 81.433335 252.88939 
L 82.519137 248.679016 
L 83.604938 267.5331 
L 84.690739 253.325055 
L 85.77654 274.070716 
L 86.862341 248.926566 
L 87.948142 283.426283 
L 89.033943 227.845035 
L 90.119745 281.076091 
L 91.205546 252.642708 
L 92.291347 282.975833 
L 93.377148 283.499166 
L 94.462949 275.95573 
L 95.54875 286.002054 
L 96.634552 280.079788 
L 97.720353 283.438416 
L 98.806154 284.670274 
L 99.891955 285.415248 
L 100.977756 284.109146 
L 102.063557 286.218479 
L 103.149358 282.99915 
L 104.23516 288.062959 
L 105.320961 280.412052 
L 106.406762 287.036551 
L 107.492563 275.011604 
L 108.578364 283.671879 
L 109.664165 252.607121 
L 110.749967 270.846043 
L 111.835768 265.582884 
L 112.921569 289.336422 
L 114.00737 289.297188 
L 115.093171 284.483897 
L 116.178972 289.855021 
L 117.264773 286.673111 
L 118.350575 289.903353 
L 119.436376 287.540253 
L 120.522177 290.327497 
L 121.607978 287.617242 
L 122.693779 290.416368 
L 123.77958 289.744695 
L 124.865382 290.699332 
L 125.951183 290.908367 
L 127.036984 290.685781 
L 128.122785 291.00499 
L 129.208586 290.544172 
L 130.294387 291.401737 
L 131.380189 290.884576 
L 132.46599 291.649675 
L 134.637592 291.10887 
L 135.723393 288.812237 
L 136.809194 289.325538 
L 137.894995 282.29342 
L 138.980797 271.624697 
L 140.066598 245.757135 
L 141.152399 235.768287 
L 142.2382 240.600156 
L 143.324001 287.991402 
L 144.409802 292.446775 
L 145.495604 284.660665 
L 146.581405 287.208117 
L 147.667206 290.284464 
L 148.753007 292.481368 
L 149.838808 292.484902 
L 150.924609 291.904456 
L 152.01041 292.438911 
L 153.096212 292.06007 
L 154.182013 292.66982 
L 155.267814 292.628745 
L 156.353615 292.741821 
L 157.439416 291.976013 
L 158.525217 292.85256 
L 159.611019 292.291973 
L 160.69682 292.759584 
L 161.782621 292.235583 
L 162.868422 292.877947 
L 165.040024 292.801913 
L 166.125825 290.975579 
L 167.211627 291.768788 
L 168.297428 290.405924 
L 169.383229 290.235199 
L 170.46903 285.563844 
L 171.554831 287.314297 
L 172.640632 278.32906 
L 173.726434 275.655238 
L 174.812235 271.580124 
L 175.898036 283.805227 
L 178.069638 293.204566 
L 179.155439 293.25069 
L 180.24124 293.085651 
L 181.327042 293.245365 
L 182.412843 292.44244 
L 183.498644 293.340519 
L 185.670246 293.513682 
L 187.841849 293.525947 
L 188.92765 293.39897 
L 190.013451 292.938784 
L 191.099252 293.512004 
L 192.185053 292.363677 
L 193.270854 291.957597 
L 194.356656 290.901513 
L 195.442457 289.087821 
L 196.528258 289.243256 
L 197.614059 287.509108 
L 198.69986 281.152248 
L 199.785661 278.029257 
L 200.871462 275.95523 
L 201.957264 281.478296 
L 204.128866 293.838 
L 205.214667 293.790316 
L 206.300468 292.80636 
L 207.386269 293.363459 
L 210.643673 294.057189 
L 211.729474 294.079415 
L 212.815275 294.22543 
L 213.901076 294.118317 
L 214.986877 293.629995 
L 217.15848 294.216766 
L 218.244281 294.196335 
L 219.330082 294.344121 
L 221.501684 293.688242 
L 222.587486 294.351745 
L 223.673287 294.248421 
L 224.759088 294.274497 
L 225.844889 294.41606 
L 228.016491 294.452254 
L 229.102292 294.045082 
L 230.188094 294.493002 
L 231.273895 294.492982 
L 232.359696 294.212997 
L 233.445497 294.391535 
L 234.531298 293.111493 
L 235.617099 293.150201 
L 236.702901 290.591892 
L 237.788702 289.408325 
L 238.874503 268.637588 
L 239.960304 233.27388 
L 241.046105 155.501916 
L 242.131906 188.367617 
L 243.217708 280.094751 
L 244.303509 286.330539 
L 245.38931 277.120927 
L 246.475111 283.964201 
L 247.560912 293.808125 
L 248.646713 294.772513 
L 249.732514 293.297747 
L 250.818316 294.301113 
L 251.904117 294.796932 
L 255.16152 294.875776 
L 256.247321 294.209172 
L 257.333123 294.846824 
L 258.418924 294.769137 
L 259.504725 294.026151 
L 260.590526 294.731311 
L 261.676327 294.903025 
L 268.191134 294.980171 
L 269.276935 294.576172 
L 270.362736 294.612361 
L 271.448538 294.815194 
L 272.534339 294.739843 
L 273.62014 294.849506 
L 274.705941 294.449209 
L 275.791742 294.965458 
L 276.877543 294.973184 
L 277.963344 294.378984 
L 279.049146 294.391127 
L 280.134947 294.020118 
L 281.220748 294.870584 
L 282.306549 294.731413 
L 283.39235 293.850301 
L 284.478151 294.16775 
L 285.563953 289.090162 
L 286.649754 286.634688 
L 289.907157 263.305652 
L 290.992958 260.32558 
L 292.07876 275.023528 
L 293.164561 292.028124 
L 294.250362 293.420109 
L 295.336163 290.259026 
L 296.421964 291.119473 
L 297.507765 294.24786 
L 299.679368 295.078079 
L 300.765169 295.091732 
L 301.85097 294.767015 
L 302.936771 295.032206 
L 304.022572 294.767536 
L 305.108373 295.050081 
L 306.194175 295.000627 
L 307.279976 295.081328 
L 308.365777 294.814781 
L 309.451578 293.971944 
L 310.537379 293.374434 
L 311.62318 293.3847 
L 312.708981 293.87626 
L 313.794783 292.777102 
L 314.880584 293.034775 
L 315.966385 291.608019 
L 317.052186 292.767045 
L 318.137987 294.107077 
L 319.223788 294.85379 
L 320.30959 294.394258 
L 322.481192 291.789683 
L 323.566993 289.302267 
L 324.652794 288.545788 
L 325.738595 285.841269 
L 326.824396 286.461959 
L 327.910198 285.675277 
L 328.995999 291.490017 
L 330.0818 292.681167 
L 331.167601 294.791317 
L 332.253402 295.338134 
L 333.339203 294.148401 
L 334.425005 294.82953 
L 335.510806 295.120016 
L 337.682408 295.242934 
L 339.85401 294.781622 
L 340.939811 293.627344 
L 342.025613 293.72464 
L 343.111414 294.62405 
L 344.197215 293.32703 
L 345.283016 293.207718 
L 346.368817 293.787297 
L 347.454618 289.387405 
L 348.54042 289.310876 
L 349.626221 285.502778 
L 350.712022 291.880833 
L 351.797823 289.198724 
L 352.883624 291.982408 
L 353.969425 291.907312 
L 355.055227 294.221804 
L 356.141028 292.817692 
L 357.226829 294.674829 
L 358.31263 294.497082 
L 359.398431 295.367826 
L 360.484232 295.348171 
L 361.570033 294.366249 
L 362.655835 294.006282 
L 363.741636 294.44824 
L 364.827437 295.462898 
L 365.913238 295.327501 
L 366.999039 295.488 
L 368.08484 294.602635 
L 369.170642 293.311261 
L 370.256443 292.693009 
L 371.342244 294.955671 
L 372.428045 293.267443 
L 373.513846 292.342324 
L 374.599647 290.053602 
L 375.685448 285.311848 
L 376.77125 265.184959 
L 377.857051 267.245608 
L 378.942852 273.602198 
L 380.028653 289.849758 
L 381.114454 295.408579 
L 382.200255 294.75679 
L 383.286057 295.240517 
L 384.371858 295.065911 
L 385.457659 295.40889 
L 386.54346 294.928101 
L 387.629261 295.408967 
L 389.800863 295.034944 
L 390.886665 295.411746 
L 391.972466 295.380983 
L 393.058267 294.33567 
L 394.144068 293.947878 
L 395.229869 293.005777 
L 396.31567 291.228738 
L 397.401472 292.047942 
L 398.487273 293.291132 
L 398.487273 293.291132 
" clip-path="url(#pebb41a7fba)" style="fill: none; stroke: #ff7f0e; stroke-opacity: 0.5; stroke-width: 1.5; stroke-linecap: square"/>
   </g>
   <g id="patch_3">
    <path d="M 57.6 307.584 
L 57.6 41.472 
" style="fill: none; stroke: #000000; stroke-width: 0.8; stroke-linejoin: miter; stroke-linecap: square"/>
   </g>
   <g id="patch_4">
    <path d="M 414.72 307.584 
L 414.72 41.472 
" style="fill: none; stroke: #000000; stroke-width: 0.8; stroke-linejoin: miter; stroke-linecap: square"/>
   </g>
   <g id="patch_5">
    <path d="M 57.6 307.584 
L 414.72 307.584 
" style="fill: none; stroke: #000000; stroke-width: 0.8; stroke-linejoin: miter; stroke-linecap: square"/>
   </g>
   <g id="patch_6">
    <path d="M 57.6 41.472 
L 414.72 41.472 
" style="fill: none; stroke: #000000; stroke-width: 0.8; stroke-linejoin: miter; stroke-linecap: square"/>
   </g>
   <g id="legend_1">
    <g id="patch_7">
     <path d="M 351.768438 78.82825 
L 407.72 78.82825 
Q 409.72 78.82825 409.72 76.82825 
L 409.72 48.472 
Q 409.72 46.472 407.72 46.472 
L 351.768438 46.472 
Q 349.768438 46.472 349.768438 48.472 
L 349.768438 76.82825 
Q 349.768438 78.82825 351.768438 78.82825 
z
" style="fill: #ffffff; opacity: 0.8; stroke: #cccccc; stroke-linejoin: miter"/>
    </g>
    <g id="line2d_18">
     <path d="M 353.768438 54.570437 
L 363.768438 54.570437 
L 373.768438 54.570437 
" style="fill: none; stroke: #1f77b4; stroke-width: 1.5; stroke-linecap: square"/>
    </g>
    <g id="text_16">
     <!-- train -->
     <g transform="translate(381.768438 58.070437) scale(0.1 -0.1)">
      <defs>
       <path id="DejaVuSans-74" d="M 1172 4494 
L 1172 3500 
L 2356 3500 
L 2356 3053 
L 1172 3053 
L 1172 1153 
Q 1172 725 1289 603 
Q 1406 481 1766 481 
L 2356 481 
L 2356 0 
L 1766 0 
Q 1100 0 847 248 
Q 594 497 594 1153 
L 594 3053 
L 172 3053 
L 172 3500 
L 594 3500 
L 594 4494 
L 1172 4494 
z
" transform="scale(0.015625)"/>
       <path id="DejaVuSans-72" d="M 2631 2963 
Q 2534 3019 2420 3045 
Q 2306 3072 2169 3072 
Q 1681 3072 1420 2755 
Q 1159 2438 1159 1844 
L 1159 0 
L 581 0 
L 581 3500 
L 1159 3500 
L 1159 2956 
Q 1341 3275 1631 3429 
Q 1922 3584 2338 3584 
Q 2397 3584 2469 3576 
Q 2541 3569 2628 3553 
L 2631 2963 
z
" transform="scale(0.015625)"/>
       <path id="DejaVuSans-61" d="M 2194 1759 
Q 1497 1759 1228 1600 
Q 959 1441 959 1056 
Q 959 750 1161 570 
Q 1363 391 1709 391 
Q 2188 391 2477 730 
Q 2766 1069 2766 1631 
L 2766 1759 
L 2194 1759 
z
M 3341 1997 
L 3341 0 
L 2766 0 
L 2766 531 
Q 2569 213 2275 61 
Q 1981 -91 1556 -91 
Q 1019 -91 701 211 
Q 384 513 384 1019 
Q 384 1609 779 1909 
Q 1175 2209 1959 2209 
L 2766 2209 
L 2766 2266 
Q 2766 2663 2505 2880 
Q 2244 3097 1772 3097 
Q 1472 3097 1187 3025 
Q 903 2953 641 2809 
L 641 3341 
Q 956 3463 1253 3523 
Q 1550 3584 1831 3584 
Q 2591 3584 2966 3190 
Q 3341 2797 3341 1997 
z
" transform="scale(0.015625)"/>
       <path id="DejaVuSans-69" d="M 603 3500 
L 1178 3500 
L 1178 0 
L 603 0 
L 603 3500 
z
M 603 4863 
L 1178 4863 
L 1178 4134 
L 603 4134 
L 603 4863 
z
" transform="scale(0.015625)"/>
       <path id="DejaVuSans-6e" d="M 3513 2113 
L 3513 0 
L 2938 0 
L 2938 2094 
Q 2938 2591 2744 2837 
Q 2550 3084 2163 3084 
Q 1697 3084 1428 2787 
Q 1159 2491 1159 1978 
L 1159 0 
L 581 0 
L 581 3500 
L 1159 3500 
L 1159 2956 
Q 1366 3272 1645 3428 
Q 1925 3584 2291 3584 
Q 2894 3584 3203 3211 
Q 3513 2838 3513 2113 
z
" transform="scale(0.015625)"/>
      </defs>
      <use xlink:href="#DejaVuSans-74"/>
      <use xlink:href="#DejaVuSans-72" x="39.208984"/>
      <use xlink:href="#DejaVuSans-61" x="80.322266"/>
      <use xlink:href="#DejaVuSans-69" x="141.601562"/>
      <use xlink:href="#DejaVuSans-6e" x="169.384766"/>
     </g>
    </g>
    <g id="line2d_19">
     <path d="M 353.768438 69.248562 
L 363.768438 69.248562 
L 373.768438 69.248562 
" style="fill: none; stroke: #ff7f0e; stroke-opacity: 0.5; stroke-width: 1.5; stroke-linecap: square"/>
    </g>
    <g id="text_17">
     <!-- valid -->
     <g transform="translate(381.768438 72.748562) scale(0.1 -0.1)">
      <defs>
       <path id="DejaVuSans-76" d="M 191 3500 
L 800 3500 
L 1894 563 
L 2988 3500 
L 3597 3500 
L 2284 0 
L 1503 0 
L 191 3500 
z
" transform="scale(0.015625)"/>
       <path id="DejaVuSans-6c" d="M 603 4863 
L 1178 4863 
L 1178 0 
L 603 0 
L 603 4863 
z
" transform="scale(0.015625)"/>
       <path id="DejaVuSans-64" d="M 2906 2969 
L 2906 4863 
L 3481 4863 
L 3481 0 
L 2906 0 
L 2906 525 
Q 2725 213 2448 61 
Q 2172 -91 1784 -91 
Q 1150 -91 751 415 
Q 353 922 353 1747 
Q 353 2572 751 3078 
Q 1150 3584 1784 3584 
Q 2172 3584 2448 3432 
Q 2725 3281 2906 2969 
z
M 947 1747 
Q 947 1113 1208 752 
Q 1469 391 1925 391 
Q 2381 391 2643 752 
Q 2906 1113 2906 1747 
Q 2906 2381 2643 2742 
Q 2381 3103 1925 3103 
Q 1469 3103 1208 2742 
Q 947 2381 947 1747 
z
" transform="scale(0.015625)"/>
      </defs>
      <use xlink:href="#DejaVuSans-76"/>
      <use xlink:href="#DejaVuSans-61" x="59.179688"/>
      <use xlink:href="#DejaVuSans-6c" x="120.458984"/>
      <use xlink:href="#DejaVuSans-69" x="148.242188"/>
      <use xlink:href="#DejaVuSans-64" x="176.025391"/>
     </g>
    </g>
   </g>
  </g>
 </g>
 <defs>
  <clipPath id="pebb41a7fba">
   <rect x="57.6" y="41.472" width="357.12" height="266.112"/>
  </clipPath>
 </defs>
</svg>
