<?xml version="1.0" encoding="utf-8" standalone="no"?>
<!DOCTYPE svg PUBLIC "-//W3C//DTD SVG 1.1//EN"
  "http://www.w3.org/Graphics/SVG/1.1/DTD/svg11.dtd">
<svg xmlns:xlink="http://www.w3.org/1999/xlink" width="460.8pt" height="345.6pt" viewBox="0 0 460.8 345.6" xmlns="http://www.w3.org/2000/svg" version="1.1">
 <metadata>
  <rdf:RDF xmlns:dc="http://purl.org/dc/elements/1.1/" xmlns:cc="http://creativecommons.org/ns#" xmlns:rdf="http://www.w3.org/1999/02/22-rdf-syntax-ns#">
   <cc:Work>
    <dc:type rdf:resource="http://purl.org/dc/dcmitype/StillImage"/>
    <dc:date>2023-12-08T02:37:26.279314</dc:date>
    <dc:format>image/svg+xml</dc:format>
    <dc:creator>
     <cc:Agent>
      <dc:title>Matplotlib v3.7.3, https://matplotlib.org/</dc:title>
     </cc:Agent>
    </dc:creator>
   </cc:Work>
  </rdf:RDF>
 </metadata>
 <defs>
  <style type="text/css">*{stroke-linejoin: round; stroke-linecap: butt}</style>
 </defs>
 <g id="figure_1">
  <g id="patch_1">
   <path d="M 0 345.6 
L 460.8 345.6 
L 460.8 0 
L 0 0 
z
" style="fill: #ffffff"/>
  </g>
  <g id="axes_1">
   <g id="patch_2">
    <path d="M 57.6 307.584 
L 414.72 307.584 
L 414.72 41.472 
L 57.6 41.472 
z
" style="fill: #ffffff"/>
   </g>
   <g id="matplotlib.axis_1">
    <g id="xtick_1">
     <g id="line2d_1">
      <defs>
       <path id="ma7cd3817b4" d="M 0 0 
L 0 3.5 
" style="stroke: #000000; stroke-width: 0.8"/>
      </defs>
      <g>
       <use xlink:href="#ma7cd3817b4" x="73.832727" y="307.584" style="stroke: #000000; stroke-width: 0.8"/>
      </g>
     </g>
     <g id="text_1">
      <!-- 0 -->
      <g transform="translate(70.651477 322.182437) scale(0.1 -0.1)">
       <defs>
        <path id="DejaVuSans-30" d="M 2034 4250 
Q 1547 4250 1301 3770 
Q 1056 3291 1056 2328 
Q 1056 1369 1301 889 
Q 1547 409 2034 409 
Q 2525 409 2770 889 
Q 3016 1369 3016 2328 
Q 3016 3291 2770 3770 
Q 2525 4250 2034 4250 
z
M 2034 4750 
Q 2819 4750 3233 4129 
Q 3647 3509 3647 2328 
Q 3647 1150 3233 529 
Q 2819 -91 2034 -91 
Q 1250 -91 836 529 
Q 422 1150 422 2328 
Q 422 3509 836 4129 
Q 1250 4750 2034 4750 
z
" transform="scale(0.015625)"/>
       </defs>
       <use xlink:href="#DejaVuSans-30"/>
      </g>
     </g>
    </g>
    <g id="xtick_2">
     <g id="line2d_2">
      <g>
       <use xlink:href="#ma7cd3817b4" x="128.122785" y="307.584" style="stroke: #000000; stroke-width: 0.8"/>
      </g>
     </g>
     <g id="text_2">
      <!-- 50 -->
      <g transform="translate(121.760285 322.182437) scale(0.1 -0.1)">
       <defs>
        <path id="DejaVuSans-35" d="M 691 4666 
L 3169 4666 
L 3169 4134 
L 1269 4134 
L 1269 2991 
Q 1406 3038 1543 3061 
Q 1681 3084 1819 3084 
Q 2600 3084 3056 2656 
Q 3513 2228 3513 1497 
Q 3513 744 3044 326 
Q 2575 -91 1722 -91 
Q 1428 -91 1123 -41 
Q 819 9 494 109 
L 494 744 
Q 775 591 1075 516 
Q 1375 441 1709 441 
Q 2250 441 2565 725 
Q 2881 1009 2881 1497 
Q 2881 1984 2565 2268 
Q 2250 2553 1709 2553 
Q 1456 2553 1204 2497 
Q 953 2441 691 2322 
L 691 4666 
z
" transform="scale(0.015625)"/>
       </defs>
       <use xlink:href="#DejaVuSans-35"/>
       <use xlink:href="#DejaVuSans-30" x="63.623047"/>
      </g>
     </g>
    </g>
    <g id="xtick_3">
     <g id="line2d_3">
      <g>
       <use xlink:href="#ma7cd3817b4" x="182.412843" y="307.584" style="stroke: #000000; stroke-width: 0.8"/>
      </g>
     </g>
     <g id="text_3">
      <!-- 100 -->
      <g transform="translate(172.869093 322.182437) scale(0.1 -0.1)">
       <defs>
        <path id="DejaVuSans-31" d="M 794 531 
L 1825 531 
L 1825 4091 
L 703 3866 
L 703 4441 
L 1819 4666 
L 2450 4666 
L 2450 531 
L 3481 531 
L 3481 0 
L 794 0 
L 794 531 
z
" transform="scale(0.015625)"/>
       </defs>
       <use xlink:href="#DejaVuSans-31"/>
       <use xlink:href="#DejaVuSans-30" x="63.623047"/>
       <use xlink:href="#DejaVuSans-30" x="127.246094"/>
      </g>
     </g>
    </g>
    <g id="xtick_4">
     <g id="line2d_4">
      <g>
       <use xlink:href="#ma7cd3817b4" x="236.702901" y="307.584" style="stroke: #000000; stroke-width: 0.8"/>
      </g>
     </g>
     <g id="text_4">
      <!-- 150 -->
      <g transform="translate(227.159151 322.182437) scale(0.1 -0.1)">
       <use xlink:href="#DejaVuSans-31"/>
       <use xlink:href="#DejaVuSans-35" x="63.623047"/>
       <use xlink:href="#DejaVuSans-30" x="127.246094"/>
      </g>
     </g>
    </g>
    <g id="xtick_5">
     <g id="line2d_5">
      <g>
       <use xlink:href="#ma7cd3817b4" x="290.992958" y="307.584" style="stroke: #000000; stroke-width: 0.8"/>
      </g>
     </g>
     <g id="text_5">
      <!-- 200 -->
      <g transform="translate(281.449208 322.182437) scale(0.1 -0.1)">
       <defs>
        <path id="DejaVuSans-32" d="M 1228 531 
L 3431 531 
L 3431 0 
L 469 0 
L 469 531 
Q 828 903 1448 1529 
Q 2069 2156 2228 2338 
Q 2531 2678 2651 2914 
Q 2772 3150 2772 3378 
Q 2772 3750 2511 3984 
Q 2250 4219 1831 4219 
Q 1534 4219 1204 4116 
Q 875 4013 500 3803 
L 500 4441 
Q 881 4594 1212 4672 
Q 1544 4750 1819 4750 
Q 2544 4750 2975 4387 
Q 3406 4025 3406 3419 
Q 3406 3131 3298 2873 
Q 3191 2616 2906 2266 
Q 2828 2175 2409 1742 
Q 1991 1309 1228 531 
z
" transform="scale(0.015625)"/>
       </defs>
       <use xlink:href="#DejaVuSans-32"/>
       <use xlink:href="#DejaVuSans-30" x="63.623047"/>
       <use xlink:href="#DejaVuSans-30" x="127.246094"/>
      </g>
     </g>
    </g>
    <g id="xtick_6">
     <g id="line2d_6">
      <g>
       <use xlink:href="#ma7cd3817b4" x="345.283016" y="307.584" style="stroke: #000000; stroke-width: 0.8"/>
      </g>
     </g>
     <g id="text_6">
      <!-- 250 -->
      <g transform="translate(335.739266 322.182437) scale(0.1 -0.1)">
       <use xlink:href="#DejaVuSans-32"/>
       <use xlink:href="#DejaVuSans-35" x="63.623047"/>
       <use xlink:href="#DejaVuSans-30" x="127.246094"/>
      </g>
     </g>
    </g>
    <g id="xtick_7">
     <g id="line2d_7">
      <g>
       <use xlink:href="#ma7cd3817b4" x="399.573074" y="307.584" style="stroke: #000000; stroke-width: 0.8"/>
      </g>
     </g>
     <g id="text_7">
      <!-- 300 -->
      <g transform="translate(390.029324 322.182437) scale(0.1 -0.1)">
       <defs>
        <path id="DejaVuSans-33" d="M 2597 2516 
Q 3050 2419 3304 2112 
Q 3559 1806 3559 1356 
Q 3559 666 3084 287 
Q 2609 -91 1734 -91 
Q 1441 -91 1130 -33 
Q 819 25 488 141 
L 488 750 
Q 750 597 1062 519 
Q 1375 441 1716 441 
Q 2309 441 2620 675 
Q 2931 909 2931 1356 
Q 2931 1769 2642 2001 
Q 2353 2234 1838 2234 
L 1294 2234 
L 1294 2753 
L 1863 2753 
Q 2328 2753 2575 2939 
Q 2822 3125 2822 3475 
Q 2822 3834 2567 4026 
Q 2313 4219 1838 4219 
Q 1578 4219 1281 4162 
Q 984 4106 628 3988 
L 628 4550 
Q 988 4650 1302 4700 
Q 1616 4750 1894 4750 
Q 2613 4750 3031 4423 
Q 3450 4097 3450 3541 
Q 3450 3153 3228 2886 
Q 3006 2619 2597 2516 
z
" transform="scale(0.015625)"/>
       </defs>
       <use xlink:href="#DejaVuSans-33"/>
       <use xlink:href="#DejaVuSans-30" x="63.623047"/>
       <use xlink:href="#DejaVuSans-30" x="127.246094"/>
      </g>
     </g>
    </g>
   </g>
   <g id="matplotlib.axis_2">
    <g id="ytick_1">
     <g id="line2d_8">
      <defs>
       <path id="m96239e8a3f" d="M 0 0 
L -3.5 0 
" style="stroke: #000000; stroke-width: 0.8"/>
      </defs>
      <g>
       <use xlink:href="#m96239e8a3f" x="57.6" y="296.221813" style="stroke: #000000; stroke-width: 0.8"/>
      </g>
     </g>
     <g id="text_8">
      <!-- 0 -->
      <g transform="translate(44.2375 300.021032) scale(0.1 -0.1)">
       <use xlink:href="#DejaVuSans-30"/>
      </g>
     </g>
    </g>
    <g id="ytick_2">
     <g id="line2d_9">
      <g>
       <use xlink:href="#m96239e8a3f" x="57.6" y="259.502493" style="stroke: #000000; stroke-width: 0.8"/>
      </g>
     </g>
     <g id="text_9">
      <!-- 200 -->
      <g transform="translate(31.5125 263.301712) scale(0.1 -0.1)">
       <use xlink:href="#DejaVuSans-32"/>
       <use xlink:href="#DejaVuSans-30" x="63.623047"/>
       <use xlink:href="#DejaVuSans-30" x="127.246094"/>
      </g>
     </g>
    </g>
    <g id="ytick_3">
     <g id="line2d_10">
      <g>
       <use xlink:href="#m96239e8a3f" x="57.6" y="222.783173" style="stroke: #000000; stroke-width: 0.8"/>
      </g>
     </g>
     <g id="text_10">
      <!-- 400 -->
      <g transform="translate(31.5125 226.582392) scale(0.1 -0.1)">
       <defs>
        <path id="DejaVuSans-34" d="M 2419 4116 
L 825 1625 
L 2419 1625 
L 2419 4116 
z
M 2253 4666 
L 3047 4666 
L 3047 1625 
L 3713 1625 
L 3713 1100 
L 3047 1100 
L 3047 0 
L 2419 0 
L 2419 1100 
L 313 1100 
L 313 1709 
L 2253 4666 
z
" transform="scale(0.015625)"/>
       </defs>
       <use xlink:href="#DejaVuSans-34"/>
       <use xlink:href="#DejaVuSans-30" x="63.623047"/>
       <use xlink:href="#DejaVuSans-30" x="127.246094"/>
      </g>
     </g>
    </g>
    <g id="ytick_4">
     <g id="line2d_11">
      <g>
       <use xlink:href="#m96239e8a3f" x="57.6" y="186.063853" style="stroke: #000000; stroke-width: 0.8"/>
      </g>
     </g>
     <g id="text_11">
      <!-- 600 -->
      <g transform="translate(31.5125 189.863072) scale(0.1 -0.1)">
       <defs>
        <path id="DejaVuSans-36" d="M 2113 2584 
Q 1688 2584 1439 2293 
Q 1191 2003 1191 1497 
Q 1191 994 1439 701 
Q 1688 409 2113 409 
Q 2538 409 2786 701 
Q 3034 994 3034 1497 
Q 3034 2003 2786 2293 
Q 2538 2584 2113 2584 
z
M 3366 4563 
L 3366 3988 
Q 3128 4100 2886 4159 
Q 2644 4219 2406 4219 
Q 1781 4219 1451 3797 
Q 1122 3375 1075 2522 
Q 1259 2794 1537 2939 
Q 1816 3084 2150 3084 
Q 2853 3084 3261 2657 
Q 3669 2231 3669 1497 
Q 3669 778 3244 343 
Q 2819 -91 2113 -91 
Q 1303 -91 875 529 
Q 447 1150 447 2328 
Q 447 3434 972 4092 
Q 1497 4750 2381 4750 
Q 2619 4750 2861 4703 
Q 3103 4656 3366 4563 
z
" transform="scale(0.015625)"/>
       </defs>
       <use xlink:href="#DejaVuSans-36"/>
       <use xlink:href="#DejaVuSans-30" x="63.623047"/>
       <use xlink:href="#DejaVuSans-30" x="127.246094"/>
      </g>
     </g>
    </g>
    <g id="ytick_5">
     <g id="line2d_12">
      <g>
       <use xlink:href="#m96239e8a3f" x="57.6" y="149.344533" style="stroke: #000000; stroke-width: 0.8"/>
      </g>
     </g>
     <g id="text_12">
      <!-- 800 -->
      <g transform="translate(31.5125 153.143752) scale(0.1 -0.1)">
       <defs>
        <path id="DejaVuSans-38" d="M 2034 2216 
Q 1584 2216 1326 1975 
Q 1069 1734 1069 1313 
Q 1069 891 1326 650 
Q 1584 409 2034 409 
Q 2484 409 2743 651 
Q 3003 894 3003 1313 
Q 3003 1734 2745 1975 
Q 2488 2216 2034 2216 
z
M 1403 2484 
Q 997 2584 770 2862 
Q 544 3141 544 3541 
Q 544 4100 942 4425 
Q 1341 4750 2034 4750 
Q 2731 4750 3128 4425 
Q 3525 4100 3525 3541 
Q 3525 3141 3298 2862 
Q 3072 2584 2669 2484 
Q 3125 2378 3379 2068 
Q 3634 1759 3634 1313 
Q 3634 634 3220 271 
Q 2806 -91 2034 -91 
Q 1263 -91 848 271 
Q 434 634 434 1313 
Q 434 1759 690 2068 
Q 947 2378 1403 2484 
z
M 1172 3481 
Q 1172 3119 1398 2916 
Q 1625 2713 2034 2713 
Q 2441 2713 2670 2916 
Q 2900 3119 2900 3481 
Q 2900 3844 2670 4047 
Q 2441 4250 2034 4250 
Q 1625 4250 1398 4047 
Q 1172 3844 1172 3481 
z
" transform="scale(0.015625)"/>
       </defs>
       <use xlink:href="#DejaVuSans-38"/>
       <use xlink:href="#DejaVuSans-30" x="63.623047"/>
       <use xlink:href="#DejaVuSans-30" x="127.246094"/>
      </g>
     </g>
    </g>
    <g id="ytick_6">
     <g id="line2d_13">
      <g>
       <use xlink:href="#m96239e8a3f" x="57.6" y="112.625213" style="stroke: #000000; stroke-width: 0.8"/>
      </g>
     </g>
     <g id="text_13">
      <!-- 1000 -->
      <g transform="translate(25.15 116.424432) scale(0.1 -0.1)">
       <use xlink:href="#DejaVuSans-31"/>
       <use xlink:href="#DejaVuSans-30" x="63.623047"/>
       <use xlink:href="#DejaVuSans-30" x="127.246094"/>
       <use xlink:href="#DejaVuSans-30" x="190.869141"/>
      </g>
     </g>
    </g>
    <g id="ytick_7">
     <g id="line2d_14">
      <g>
       <use xlink:href="#m96239e8a3f" x="57.6" y="75.905893" style="stroke: #000000; stroke-width: 0.8"/>
      </g>
     </g>
     <g id="text_14">
      <!-- 1200 -->
      <g transform="translate(25.15 79.705111) scale(0.1 -0.1)">
       <use xlink:href="#DejaVuSans-31"/>
       <use xlink:href="#DejaVuSans-32" x="63.623047"/>
       <use xlink:href="#DejaVuSans-30" x="127.246094"/>
       <use xlink:href="#DejaVuSans-30" x="190.869141"/>
      </g>
     </g>
    </g>
   </g>
   <g id="line2d_15">
    <path d="M 73.832727 88.761647 
L 74.918528 126.870199 
L 76.00433 122.685644 
L 77.090131 133.827003 
L 78.175932 104.662897 
L 79.261733 110.680521 
L 80.347534 138.982907 
L 81.433335 131.455539 
L 82.519137 139.864829 
L 83.604938 131.704529 
L 84.690739 135.477597 
L 85.77654 114.651716 
L 86.862341 110.721986 
L 87.948142 128.239153 
L 89.033943 112.908775 
L 90.119745 139.806121 
L 91.205546 142.662784 
L 92.291347 190.021291 
L 93.377148 181.55188 
L 94.462949 167.535165 
L 95.54875 183.157404 
L 97.720353 194.38341 
L 98.806154 212.045272 
L 99.891955 210.667478 
L 100.977756 153.623618 
L 102.063557 162.657333 
L 103.149358 225.153913 
L 104.23516 231.296313 
L 105.320961 229.739766 
L 106.406762 219.342161 
L 107.492563 94.554373 
L 108.578364 230.613332 
L 109.664165 172.515872 
L 110.749967 199.677817 
L 111.835768 151.096265 
L 112.921569 238.901219 
L 114.00737 208.193267 
L 115.093171 243.995495 
L 116.178972 243.863909 
L 117.264773 246.675308 
L 118.350575 243.26939 
L 119.436376 241.962584 
L 120.522177 172.753296 
L 121.607978 184.30614 
L 122.693779 173.767126 
L 123.77958 227.645787 
L 124.865382 249.955176 
L 125.951183 251.698016 
L 127.036984 254.074108 
L 128.122785 252.762183 
L 129.208586 251.7485 
L 130.294387 245.959961 
L 131.380189 221.242528 
L 132.46599 208.753264 
L 133.551791 190.818159 
L 134.637592 237.515781 
L 135.723393 245.263131 
L 136.809194 234.102437 
L 137.894995 243.789269 
L 138.980797 251.081132 
L 140.066598 250.563763 
L 141.152399 233.839394 
L 142.2382 246.710133 
L 143.324001 239.78477 
L 144.409802 238.193933 
L 146.581405 227.894182 
L 147.667206 252.846294 
L 148.753007 256.514338 
L 149.838808 245.597085 
L 150.924609 239.834988 
L 153.096212 257.822485 
L 154.182013 257.953291 
L 155.267814 253.972678 
L 158.525217 232.683154 
L 159.611019 235.934085 
L 161.782621 262.700467 
L 162.868422 259.533318 
L 163.954223 265.542782 
L 165.040024 258.564866 
L 166.125825 254.858317 
L 167.211627 237.486089 
L 168.297428 247.025916 
L 169.383229 237.580683 
L 170.46903 258.405706 
L 171.554831 263.162575 
L 172.640632 267.298217 
L 173.726434 251.303602 
L 174.812235 267.235089 
L 175.898036 224.643914 
L 176.983837 263.722587 
L 178.069638 258.824234 
L 179.155439 260.90059 
L 180.24124 268.711972 
L 181.327042 264.026786 
L 182.412843 271.878048 
L 183.498644 273.030888 
L 185.670246 266.560902 
L 186.756047 230.391063 
L 187.841849 153.193537 
L 188.92765 125.985135 
L 190.013451 224.303663 
L 191.099252 244.553195 
L 192.185053 251.230842 
L 193.270854 265.32044 
L 194.356656 272.723921 
L 195.442457 274.504351 
L 196.528258 271.988151 
L 197.614059 273.421849 
L 198.69986 272.302117 
L 199.785661 269.600938 
L 200.871462 237.111354 
L 201.957264 236.45654 
L 203.043065 270.764713 
L 204.128866 267.277075 
L 205.214667 271.423256 
L 206.300468 266.878955 
L 207.386269 258.166947 
L 208.472071 272.356162 
L 209.557872 272.706821 
L 211.729474 267.819276 
L 212.815275 255.732915 
L 213.901076 237.54385 
L 214.986877 272.16732 
L 216.072679 271.496149 
L 217.15848 265.148647 
L 218.244281 273.06227 
L 219.330082 271.532869 
L 220.415883 276.329795 
L 221.501684 267.553839 
L 222.587486 276.711798 
L 223.673287 264.252526 
L 224.759088 259.131826 
L 225.844889 272.790593 
L 226.93069 275.072572 
L 228.016491 274.190392 
L 229.102292 275.221211 
L 230.188094 269.47386 
L 231.273895 269.257614 
L 232.359696 246.652339 
L 233.445497 245.230472 
L 234.531298 155.443385 
L 235.617099 240.610515 
L 236.702901 235.298658 
L 237.788702 273.613445 
L 238.874503 272.858062 
L 239.960304 278.96675 
L 241.046105 275.810313 
L 242.131906 271.548182 
L 243.217708 258.118549 
L 244.303509 269.94169 
L 245.38931 269.868013 
L 246.475111 279.658159 
L 247.560912 277.04319 
L 248.646713 267.59025 
L 249.732514 267.521245 
L 250.818316 256.834985 
L 251.904117 272.37741 
L 252.989918 274.543781 
L 254.075719 278.150303 
L 255.16152 268.573924 
L 256.247321 276.792807 
L 257.333123 274.181665 
L 258.418924 275.156147 
L 259.504725 271.097118 
L 260.590526 278.166459 
L 261.676327 267.318479 
L 262.762128 278.549658 
L 263.847929 268.057105 
L 264.933731 269.329599 
L 266.019532 273.218193 
L 267.105333 279.79026 
L 268.191134 273.441166 
L 269.276935 279.433212 
L 270.362736 269.912547 
L 271.448538 266.026212 
L 272.534339 274.534998 
L 273.62014 281.562818 
L 274.705941 277.806899 
L 275.791742 268.205863 
L 276.877543 260.662593 
L 277.963344 248.039348 
L 279.049146 272.08924 
L 280.134947 279.959068 
L 281.220748 279.681001 
L 282.306549 268.333151 
L 283.39235 277.660636 
L 284.478151 267.434395 
L 285.563953 281.901194 
L 286.649754 282.145564 
L 287.735555 273.91261 
L 288.821356 263.466225 
L 289.907157 271.159979 
L 290.992958 266.491163 
L 292.07876 282.081637 
L 293.164561 280.517693 
L 294.250362 276.061587 
L 295.336163 274.201722 
L 296.421964 270.371995 
L 297.507765 279.04743 
L 298.593566 282.477001 
L 299.679368 283.222071 
L 300.765169 283.385472 
L 301.85097 283.426398 
L 302.936771 281.516768 
L 304.022572 282.120235 
L 305.108373 278.728486 
L 306.194175 276.052615 
L 307.279976 277.34366 
L 308.365777 279.127125 
L 309.451578 178.053822 
L 310.537379 105.435943 
L 311.62318 90.570421 
L 312.708981 216.967644 
L 313.794783 257.500086 
L 314.880584 279.914798 
L 315.966385 279.881928 
L 317.052186 281.783529 
L 318.137987 280.442978 
L 319.223788 281.453797 
L 320.30959 272.123788 
L 321.395391 265.127331 
L 322.481192 265.074032 
L 323.566993 268.376708 
L 324.652794 278.695249 
L 325.738595 281.283764 
L 326.824396 275.063117 
L 327.910198 273.645326 
L 328.995999 279.317217 
L 330.0818 282.700208 
L 331.167601 276.176141 
L 332.253402 277.482697 
L 333.339203 264.9065 
L 334.425005 226.371858 
L 335.510806 280.736036 
L 336.596607 282.663455 
L 337.682408 279.191913 
L 338.768209 278.662882 
L 339.85401 273.018395 
L 340.939811 263.70552 
L 342.025613 282.530433 
L 343.111414 281.182686 
L 344.197215 273.378138 
L 345.283016 271.488864 
L 346.368817 273.620357 
L 347.454618 269.551652 
L 348.54042 279.848163 
L 349.626221 277.976861 
L 350.712022 269.102067 
L 351.797823 266.172508 
L 352.883624 280.258983 
L 353.969425 280.69962 
L 355.055227 267.587191 
L 356.141028 280.390331 
L 357.226829 275.194622 
L 358.31263 284.024789 
L 359.398431 279.233276 
L 360.484232 282.362994 
L 361.570033 272.097917 
L 362.655835 281.228817 
L 363.741636 255.901649 
L 364.827437 269.739999 
L 366.999039 282.127646 
L 368.08484 276.514319 
L 369.170642 267.886305 
L 370.256443 251.100561 
L 371.342244 255.821788 
L 372.428045 251.755051 
L 373.513846 265.584472 
L 374.599647 272.184257 
L 375.685448 279.484986 
L 376.77125 282.282473 
L 377.857051 276.504192 
L 378.942852 282.963362 
L 380.028653 277.394084 
L 381.114454 283.0873 
L 382.200255 273.565641 
L 383.286057 276.328147 
L 384.371858 243.590545 
L 385.457659 271.668666 
L 386.54346 244.141355 
L 387.629261 265.017793 
L 388.715062 277.90704 
L 389.800863 282.632279 
L 390.886665 277.441514 
L 391.972466 277.587997 
L 393.058267 284.017373 
L 394.144068 286.055283 
L 395.229869 284.230489 
L 396.31567 277.745499 
L 397.401472 251.466309 
L 398.487273 282.659869 
L 398.487273 282.659869 
" clip-path="url(#p5a51475042)" style="fill: none; stroke: #1f77b4; stroke-width: 1.5; stroke-linecap: square"/>
   </g>
   <g id="line2d_16">
    <path d="M 73.832727 294.971468 
L 74.918528 244.572607 
L 76.00433 270.865032 
L 77.090131 250.11726 
L 78.175932 268.332712 
L 79.261733 256.279369 
L 80.347534 280.884325 
L 81.433335 240.625633 
L 82.519137 289.290851 
L 83.604938 205.215901 
L 84.690739 294.263723 
L 85.77654 152.275052 
L 86.862341 294.440651 
L 87.948142 171.058439 
L 89.033943 294.20993 
L 90.119745 136.301476 
L 91.205546 291.821494 
L 92.291347 223.773333 
L 93.377148 215.3147 
L 94.462949 53.568 
L 95.54875 282.48742 
L 96.634552 287.263372 
L 97.720353 257.047342 
L 98.806154 274.30623 
L 99.891955 284.915126 
L 100.977756 290.547717 
L 102.063557 149.126366 
L 103.149358 263.809525 
L 104.23516 211.35043 
L 105.320961 269.62557 
L 106.406762 126.747079 
L 107.492563 152.235249 
L 108.578364 165.242347 
L 109.664165 295.020289 
L 110.749967 221.540142 
L 111.835768 283.882929 
L 112.921569 232.807997 
L 114.00737 246.076207 
L 115.093171 213.482454 
L 116.178972 266.741538 
L 117.264773 206.950163 
L 118.350575 271.477151 
L 119.436376 231.368488 
L 120.522177 280.841595 
L 121.607978 255.502785 
L 122.693779 244.337284 
L 123.77958 275.415426 
L 124.865382 237.307262 
L 125.951183 253.385451 
L 127.036984 250.444025 
L 128.122785 268.725892 
L 129.208586 254.647061 
L 130.294387 284.933502 
L 131.380189 288.825525 
L 132.46599 289.456071 
L 133.551791 89.44027 
L 134.637592 285.025371 
L 135.723393 204.349891 
L 136.809194 294.066944 
L 137.894995 163.908391 
L 138.980797 264.973025 
L 140.066598 184.40773 
L 141.152399 294.930671 
L 142.2382 166.248755 
L 143.324001 291.686567 
L 144.409802 215.217545 
L 145.495604 295.275164 
L 146.581405 121.541179 
L 147.667206 245.850477 
L 148.753007 125.562856 
L 149.838808 266.715829 
L 150.924609 270.085609 
L 152.01041 291.253813 
L 153.096212 218.048484 
L 154.182013 274.327944 
L 155.267814 222.17646 
L 156.353615 294.699449 
L 157.439416 231.957764 
L 158.525217 295.11282 
L 159.611019 129.695259 
L 160.69682 272.515776 
L 161.782621 222.821228 
L 162.868422 279.235469 
L 163.954223 218.155819 
L 165.040024 284.294382 
L 166.125825 222.950958 
L 167.211627 294.737581 
L 168.297428 221.005321 
L 169.383229 290.673474 
L 170.46903 184.146107 
L 171.554831 275.588771 
L 172.640632 220.574377 
L 173.726434 282.611614 
L 174.812235 247.330265 
L 175.898036 295.168962 
L 176.983837 248.48542 
L 178.069638 279.449768 
L 179.155439 236.910861 
L 180.24124 258.280187 
L 181.327042 251.136729 
L 182.412843 262.411074 
L 183.498644 246.958315 
L 184.584445 280.243796 
L 185.670246 245.413656 
L 186.756047 294.836196 
L 188.92765 265.676427 
L 190.013451 291.622068 
L 191.099252 186.699718 
L 192.185053 286.037831 
L 193.270854 245.024841 
L 194.356656 256.077112 
L 195.442457 251.117382 
L 196.528258 254.213473 
L 197.614059 245.731549 
L 198.69986 261.461443 
L 199.785661 227.706199 
L 200.871462 232.342074 
L 201.957264 286.560098 
L 203.043065 266.102549 
L 204.128866 286.380083 
L 205.214667 256.51823 
L 206.300468 289.381845 
L 207.386269 231.015201 
L 208.472071 268.48238 
L 209.557872 239.035624 
L 210.643673 275.63571 
L 211.729474 219.149386 
L 212.815275 272.018153 
L 213.901076 269.367505 
L 214.986877 287.291576 
L 216.072679 261.869723 
L 217.15848 287.760709 
L 218.244281 237.800644 
L 219.330082 281.989971 
L 220.415883 249.53406 
L 221.501684 284.830825 
L 222.587486 257.014969 
L 223.673287 288.898542 
L 224.759088 235.574177 
L 225.844889 269.648928 
L 226.93069 240.369232 
L 228.016491 280.092702 
L 229.102292 227.927055 
L 230.188094 287.553678 
L 231.273895 192.141748 
L 232.359696 294.542618 
L 233.445497 206.554574 
L 234.531298 278.719985 
L 235.617099 223.160216 
L 236.702901 285.726159 
L 237.788702 227.974254 
L 238.874503 277.496998 
L 239.960304 262.696552 
L 241.046105 277.397815 
L 242.131906 268.027145 
L 243.217708 286.3523 
L 245.38931 252.451931 
L 246.475111 264.290777 
L 247.560912 250.111791 
L 248.646713 259.678884 
L 249.732514 233.912905 
L 250.818316 287.240852 
L 251.904117 257.38168 
L 252.989918 284.843617 
L 254.075719 256.921288 
L 255.16152 286.463831 
L 256.247321 254.154811 
L 257.333123 290.448207 
L 258.418924 251.624676 
L 259.504725 291.034469 
L 260.590526 239.031651 
L 261.676327 289.646418 
L 262.762128 249.405336 
L 263.847929 290.733024 
L 264.933731 246.707573 
L 266.019532 286.276866 
L 267.105333 244.376773 
L 268.191134 289.467192 
L 269.276935 252.042072 
L 270.362736 289.939885 
L 271.448538 254.426541 
L 272.534339 271.336168 
L 273.62014 249.534601 
L 274.705941 267.434507 
L 275.791742 235.760995 
L 276.877543 253.702179 
L 277.963344 283.605059 
L 279.049146 266.174443 
L 280.134947 283.559333 
L 281.220748 271.605699 
L 282.306549 288.292168 
L 283.39235 283.140382 
L 284.478151 263.311795 
L 285.563953 262.401104 
L 286.649754 251.351696 
L 287.735555 251.683753 
L 288.821356 256.885071 
L 289.907157 273.736943 
L 290.992958 279.432616 
L 293.164561 273.823148 
L 294.250362 281.483571 
L 295.336163 284.0519 
L 296.421964 266.604132 
L 297.507765 259.15872 
L 298.593566 269.685246 
L 299.679368 266.317985 
L 301.85097 264.405351 
L 302.936771 268.399969 
L 304.022572 255.786332 
L 305.108373 254.8133 
L 306.194175 246.502567 
L 307.279976 273.030461 
L 308.365777 261.072172 
L 309.451578 294.208556 
L 310.537379 295.20065 
L 311.62318 280.954058 
L 312.708981 262.651252 
L 313.794783 279.861387 
L 314.880584 262.346386 
L 315.966385 277.72605 
L 317.052186 258.821239 
L 318.137987 270.863737 
L 319.223788 250.436296 
L 320.30959 262.445342 
L 321.395391 231.896384 
L 322.481192 291.788443 
L 323.566993 271.135602 
L 324.652794 290.276818 
L 325.738595 271.380512 
L 326.824396 292.756896 
L 327.910198 253.716903 
L 328.995999 280.077107 
L 330.0818 247.917166 
L 331.167601 281.60636 
L 332.253402 239.975531 
L 333.339203 266.212616 
L 334.425005 288.175132 
L 335.510806 278.462245 
L 336.596607 272.994938 
L 337.682408 286.347609 
L 338.768209 281.348561 
L 339.85401 293.208252 
L 340.939811 258.312819 
L 342.025613 275.017821 
L 343.111414 254.896414 
L 344.197215 273.025501 
L 345.283016 246.994364 
L 346.368817 288.526881 
L 347.454618 267.560461 
L 348.54042 292.581118 
L 349.626221 274.528467 
L 350.712022 294.246224 
L 351.797823 247.087087 
L 352.883624 282.183002 
L 353.969425 239.983319 
L 355.055227 277.764798 
L 356.141028 258.239308 
L 357.226829 290.367759 
L 358.31263 251.698254 
L 359.398431 286.684333 
L 360.484232 227.074105 
L 361.570033 287.897722 
L 362.655835 233.862904 
L 363.741636 287.695369 
L 364.827437 256.338349 
L 365.913238 292.179782 
L 366.999039 263.472786 
L 368.08484 293.530639 
L 369.170642 274.593206 
L 370.256443 295.049428 
L 371.342244 286.708387 
L 372.428045 268.189941 
L 373.513846 295.250056 
L 374.599647 217.562638 
L 375.685448 287.389026 
L 376.77125 240.110259 
L 377.857051 288.885059 
L 378.942852 236.878655 
L 380.028653 290.263806 
L 381.114454 249.862288 
L 382.200255 291.023622 
L 383.286057 179.303029 
L 384.371858 284.734612 
L 385.457659 201.577295 
L 386.54346 287.2851 
L 387.629261 263.709149 
L 388.715062 291.193637 
L 389.800863 275.860823 
L 390.886665 292.860451 
L 391.972466 264.796962 
L 393.058267 281.772013 
L 394.144068 271.750042 
L 395.229869 287.536874 
L 396.31567 279.774411 
L 397.401472 295.488 
L 398.487273 278.391638 
L 398.487273 278.391638 
" clip-path="url(#p5a51475042)" style="fill: none; stroke: #ff7f0e; stroke-opacity: 0.5; stroke-width: 1.5; stroke-linecap: square"/>
   </g>
   <g id="patch_3">
    <path d="M 57.6 307.584 
L 57.6 41.472 
" style="fill: none; stroke: #000000; stroke-width: 0.8; stroke-linejoin: miter; stroke-linecap: square"/>
   </g>
   <g id="patch_4">
    <path d="M 414.72 307.584 
L 414.72 41.472 
" style="fill: none; stroke: #000000; stroke-width: 0.8; stroke-linejoin: miter; stroke-linecap: square"/>
   </g>
   <g id="patch_5">
    <path d="M 57.6 307.584 
L 414.72 307.584 
" style="fill: none; stroke: #000000; stroke-width: 0.8; stroke-linejoin: miter; stroke-linecap: square"/>
   </g>
   <g id="patch_6">
    <path d="M 57.6 41.472 
L 414.72 41.472 
" style="fill: none; stroke: #000000; stroke-width: 0.8; stroke-linejoin: miter; stroke-linecap: square"/>
   </g>
   <g id="legend_1">
    <g id="patch_7">
     <path d="M 351.768438 78.82825 
L 407.72 78.82825 
Q 409.72 78.82825 409.72 76.82825 
L 409.72 48.472 
Q 409.72 46.472 407.72 46.472 
L 351.768438 46.472 
Q 349.768438 46.472 349.768438 48.472 
L 349.768438 76.82825 
Q 349.768438 78.82825 351.768438 78.82825 
z
" style="fill: #ffffff; opacity: 0.8; stroke: #cccccc; stroke-linejoin: miter"/>
    </g>
    <g id="line2d_17">
     <path d="M 353.768438 54.570437 
L 363.768438 54.570437 
L 373.768438 54.570437 
" style="fill: none; stroke: #1f77b4; stroke-width: 1.5; stroke-linecap: square"/>
    </g>
    <g id="text_15">
     <!-- train -->
     <g transform="translate(381.768438 58.070437) scale(0.1 -0.1)">
      <defs>
       <path id="DejaVuSans-74" d="M 1172 4494 
L 1172 3500 
L 2356 3500 
L 2356 3053 
L 1172 3053 
L 1172 1153 
Q 1172 725 1289 603 
Q 1406 481 1766 481 
L 2356 481 
L 2356 0 
L 1766 0 
Q 1100 0 847 248 
Q 594 497 594 1153 
L 594 3053 
L 172 3053 
L 172 3500 
L 594 3500 
L 594 4494 
L 1172 4494 
z
" transform="scale(0.015625)"/>
       <path id="DejaVuSans-72" d="M 2631 2963 
Q 2534 3019 2420 3045 
Q 2306 3072 2169 3072 
Q 1681 3072 1420 2755 
Q 1159 2438 1159 1844 
L 1159 0 
L 581 0 
L 581 3500 
L 1159 3500 
L 1159 2956 
Q 1341 3275 1631 3429 
Q 1922 3584 2338 3584 
Q 2397 3584 2469 3576 
Q 2541 3569 2628 3553 
L 2631 2963 
z
" transform="scale(0.015625)"/>
       <path id="DejaVuSans-61" d="M 2194 1759 
Q 1497 1759 1228 1600 
Q 959 1441 959 1056 
Q 959 750 1161 570 
Q 1363 391 1709 391 
Q 2188 391 2477 730 
Q 2766 1069 2766 1631 
L 2766 1759 
L 2194 1759 
z
M 3341 1997 
L 3341 0 
L 2766 0 
L 2766 531 
Q 2569 213 2275 61 
Q 1981 -91 1556 -91 
Q 1019 -91 701 211 
Q 384 513 384 1019 
Q 384 1609 779 1909 
Q 1175 2209 1959 2209 
L 2766 2209 
L 2766 2266 
Q 2766 2663 2505 2880 
Q 2244 3097 1772 3097 
Q 1472 3097 1187 3025 
Q 903 2953 641 2809 
L 641 3341 
Q 956 3463 1253 3523 
Q 1550 3584 1831 3584 
Q 2591 3584 2966 3190 
Q 3341 2797 3341 1997 
z
" transform="scale(0.015625)"/>
       <path id="DejaVuSans-69" d="M 603 3500 
L 1178 3500 
L 1178 0 
L 603 0 
L 603 3500 
z
M 603 4863 
L 1178 4863 
L 1178 4134 
L 603 4134 
L 603 4863 
z
" transform="scale(0.015625)"/>
       <path id="DejaVuSans-6e" d="M 3513 2113 
L 3513 0 
L 2938 0 
L 2938 2094 
Q 2938 2591 2744 2837 
Q 2550 3084 2163 3084 
Q 1697 3084 1428 2787 
Q 1159 2491 1159 1978 
L 1159 0 
L 581 0 
L 581 3500 
L 1159 3500 
L 1159 2956 
Q 1366 3272 1645 3428 
Q 1925 3584 2291 3584 
Q 2894 3584 3203 3211 
Q 3513 2838 3513 2113 
z
" transform="scale(0.015625)"/>
      </defs>
      <use xlink:href="#DejaVuSans-74"/>
      <use xlink:href="#DejaVuSans-72" x="39.208984"/>
      <use xlink:href="#DejaVuSans-61" x="80.322266"/>
      <use xlink:href="#DejaVuSans-69" x="141.601562"/>
      <use xlink:href="#DejaVuSans-6e" x="169.384766"/>
     </g>
    </g>
    <g id="line2d_18">
     <path d="M 353.768438 69.248562 
L 363.768438 69.248562 
L 373.768438 69.248562 
" style="fill: none; stroke: #ff7f0e; stroke-opacity: 0.5; stroke-width: 1.5; stroke-linecap: square"/>
    </g>
    <g id="text_16">
     <!-- valid -->
     <g transform="translate(381.768438 72.748562) scale(0.1 -0.1)">
      <defs>
       <path id="DejaVuSans-76" d="M 191 3500 
L 800 3500 
L 1894 563 
L 2988 3500 
L 3597 3500 
L 2284 0 
L 1503 0 
L 191 3500 
z
" transform="scale(0.015625)"/>
       <path id="DejaVuSans-6c" d="M 603 4863 
L 1178 4863 
L 1178 0 
L 603 0 
L 603 4863 
z
" transform="scale(0.015625)"/>
       <path id="DejaVuSans-64" d="M 2906 2969 
L 2906 4863 
L 3481 4863 
L 3481 0 
L 2906 0 
L 2906 525 
Q 2725 213 2448 61 
Q 2172 -91 1784 -91 
Q 1150 -91 751 415 
Q 353 922 353 1747 
Q 353 2572 751 3078 
Q 1150 3584 1784 3584 
Q 2172 3584 2448 3432 
Q 2725 3281 2906 2969 
z
M 947 1747 
Q 947 1113 1208 752 
Q 1469 391 1925 391 
Q 2381 391 2643 752 
Q 2906 1113 2906 1747 
Q 2906 2381 2643 2742 
Q 2381 3103 1925 3103 
Q 1469 3103 1208 2742 
Q 947 2381 947 1747 
z
" transform="scale(0.015625)"/>
      </defs>
      <use xlink:href="#DejaVuSans-76"/>
      <use xlink:href="#DejaVuSans-61" x="59.179688"/>
      <use xlink:href="#DejaVuSans-6c" x="120.458984"/>
      <use xlink:href="#DejaVuSans-69" x="148.242188"/>
      <use xlink:href="#DejaVuSans-64" x="176.025391"/>
     </g>
    </g>
   </g>
  </g>
 </g>
 <defs>
  <clipPath id="p5a51475042">
   <rect x="57.6" y="41.472" width="357.12" height="266.112"/>
  </clipPath>
 </defs>
</svg>
