<?xml version="1.0" encoding="utf-8" standalone="no"?>
<!DOCTYPE svg PUBLIC "-//W3C//DTD SVG 1.1//EN"
  "http://www.w3.org/Graphics/SVG/1.1/DTD/svg11.dtd">
<svg xmlns:xlink="http://www.w3.org/1999/xlink" width="460.8pt" height="345.6pt" viewBox="0 0 460.8 345.6" xmlns="http://www.w3.org/2000/svg" version="1.1">
 <metadata>
  <rdf:RDF xmlns:dc="http://purl.org/dc/elements/1.1/" xmlns:cc="http://creativecommons.org/ns#" xmlns:rdf="http://www.w3.org/1999/02/22-rdf-syntax-ns#">
   <cc:Work>
    <dc:type rdf:resource="http://purl.org/dc/dcmitype/StillImage"/>
    <dc:date>2023-12-22T19:54:02.112014</dc:date>
    <dc:format>image/svg+xml</dc:format>
    <dc:creator>
     <cc:Agent>
      <dc:title>Matplotlib v3.7.3, https://matplotlib.org/</dc:title>
     </cc:Agent>
    </dc:creator>
   </cc:Work>
  </rdf:RDF>
 </metadata>
 <defs>
  <style type="text/css">*{stroke-linejoin: round; stroke-linecap: butt}</style>
 </defs>
 <g id="figure_1">
  <g id="patch_1">
   <path d="M 0 345.6 
L 460.8 345.6 
L 460.8 0 
L 0 0 
z
" style="fill: #ffffff"/>
  </g>
  <g id="axes_1">
   <g id="patch_2">
    <path d="M 57.6 307.584 
L 414.72 307.584 
L 414.72 41.472 
L 57.6 41.472 
z
" style="fill: #ffffff"/>
   </g>
   <g id="matplotlib.axis_1">
    <g id="xtick_1">
     <g id="line2d_1">
      <defs>
       <path id="m38aa606a56" d="M 0 0 
L 0 3.5 
" style="stroke: #000000; stroke-width: 0.8"/>
      </defs>
      <g>
       <use xlink:href="#m38aa606a56" x="73.832727" y="307.584" style="stroke: #000000; stroke-width: 0.8"/>
      </g>
     </g>
     <g id="text_1">
      <!-- 0 -->
      <g transform="translate(70.651477 322.182437) scale(0.1 -0.1)">
       <defs>
        <path id="DejaVuSans-30" d="M 2034 4250 
Q 1547 4250 1301 3770 
Q 1056 3291 1056 2328 
Q 1056 1369 1301 889 
Q 1547 409 2034 409 
Q 2525 409 2770 889 
Q 3016 1369 3016 2328 
Q 3016 3291 2770 3770 
Q 2525 4250 2034 4250 
z
M 2034 4750 
Q 2819 4750 3233 4129 
Q 3647 3509 3647 2328 
Q 3647 1150 3233 529 
Q 2819 -91 2034 -91 
Q 1250 -91 836 529 
Q 422 1150 422 2328 
Q 422 3509 836 4129 
Q 1250 4750 2034 4750 
z
" transform="scale(0.015625)"/>
       </defs>
       <use xlink:href="#DejaVuSans-30"/>
      </g>
     </g>
    </g>
    <g id="xtick_2">
     <g id="line2d_2">
      <g>
       <use xlink:href="#m38aa606a56" x="128.122785" y="307.584" style="stroke: #000000; stroke-width: 0.8"/>
      </g>
     </g>
     <g id="text_2">
      <!-- 50 -->
      <g transform="translate(121.760285 322.182437) scale(0.1 -0.1)">
       <defs>
        <path id="DejaVuSans-35" d="M 691 4666 
L 3169 4666 
L 3169 4134 
L 1269 4134 
L 1269 2991 
Q 1406 3038 1543 3061 
Q 1681 3084 1819 3084 
Q 2600 3084 3056 2656 
Q 3513 2228 3513 1497 
Q 3513 744 3044 326 
Q 2575 -91 1722 -91 
Q 1428 -91 1123 -41 
Q 819 9 494 109 
L 494 744 
Q 775 591 1075 516 
Q 1375 441 1709 441 
Q 2250 441 2565 725 
Q 2881 1009 2881 1497 
Q 2881 1984 2565 2268 
Q 2250 2553 1709 2553 
Q 1456 2553 1204 2497 
Q 953 2441 691 2322 
L 691 4666 
z
" transform="scale(0.015625)"/>
       </defs>
       <use xlink:href="#DejaVuSans-35"/>
       <use xlink:href="#DejaVuSans-30" x="63.623047"/>
      </g>
     </g>
    </g>
    <g id="xtick_3">
     <g id="line2d_3">
      <g>
       <use xlink:href="#m38aa606a56" x="182.412843" y="307.584" style="stroke: #000000; stroke-width: 0.8"/>
      </g>
     </g>
     <g id="text_3">
      <!-- 100 -->
      <g transform="translate(172.869093 322.182437) scale(0.1 -0.1)">
       <defs>
        <path id="DejaVuSans-31" d="M 794 531 
L 1825 531 
L 1825 4091 
L 703 3866 
L 703 4441 
L 1819 4666 
L 2450 4666 
L 2450 531 
L 3481 531 
L 3481 0 
L 794 0 
L 794 531 
z
" transform="scale(0.015625)"/>
       </defs>
       <use xlink:href="#DejaVuSans-31"/>
       <use xlink:href="#DejaVuSans-30" x="63.623047"/>
       <use xlink:href="#DejaVuSans-30" x="127.246094"/>
      </g>
     </g>
    </g>
    <g id="xtick_4">
     <g id="line2d_4">
      <g>
       <use xlink:href="#m38aa606a56" x="236.702901" y="307.584" style="stroke: #000000; stroke-width: 0.8"/>
      </g>
     </g>
     <g id="text_4">
      <!-- 150 -->
      <g transform="translate(227.159151 322.182437) scale(0.1 -0.1)">
       <use xlink:href="#DejaVuSans-31"/>
       <use xlink:href="#DejaVuSans-35" x="63.623047"/>
       <use xlink:href="#DejaVuSans-30" x="127.246094"/>
      </g>
     </g>
    </g>
    <g id="xtick_5">
     <g id="line2d_5">
      <g>
       <use xlink:href="#m38aa606a56" x="290.992958" y="307.584" style="stroke: #000000; stroke-width: 0.8"/>
      </g>
     </g>
     <g id="text_5">
      <!-- 200 -->
      <g transform="translate(281.449208 322.182437) scale(0.1 -0.1)">
       <defs>
        <path id="DejaVuSans-32" d="M 1228 531 
L 3431 531 
L 3431 0 
L 469 0 
L 469 531 
Q 828 903 1448 1529 
Q 2069 2156 2228 2338 
Q 2531 2678 2651 2914 
Q 2772 3150 2772 3378 
Q 2772 3750 2511 3984 
Q 2250 4219 1831 4219 
Q 1534 4219 1204 4116 
Q 875 4013 500 3803 
L 500 4441 
Q 881 4594 1212 4672 
Q 1544 4750 1819 4750 
Q 2544 4750 2975 4387 
Q 3406 4025 3406 3419 
Q 3406 3131 3298 2873 
Q 3191 2616 2906 2266 
Q 2828 2175 2409 1742 
Q 1991 1309 1228 531 
z
" transform="scale(0.015625)"/>
       </defs>
       <use xlink:href="#DejaVuSans-32"/>
       <use xlink:href="#DejaVuSans-30" x="63.623047"/>
       <use xlink:href="#DejaVuSans-30" x="127.246094"/>
      </g>
     </g>
    </g>
    <g id="xtick_6">
     <g id="line2d_6">
      <g>
       <use xlink:href="#m38aa606a56" x="345.283016" y="307.584" style="stroke: #000000; stroke-width: 0.8"/>
      </g>
     </g>
     <g id="text_6">
      <!-- 250 -->
      <g transform="translate(335.739266 322.182437) scale(0.1 -0.1)">
       <use xlink:href="#DejaVuSans-32"/>
       <use xlink:href="#DejaVuSans-35" x="63.623047"/>
       <use xlink:href="#DejaVuSans-30" x="127.246094"/>
      </g>
     </g>
    </g>
    <g id="xtick_7">
     <g id="line2d_7">
      <g>
       <use xlink:href="#m38aa606a56" x="399.573074" y="307.584" style="stroke: #000000; stroke-width: 0.8"/>
      </g>
     </g>
     <g id="text_7">
      <!-- 300 -->
      <g transform="translate(390.029324 322.182437) scale(0.1 -0.1)">
       <defs>
        <path id="DejaVuSans-33" d="M 2597 2516 
Q 3050 2419 3304 2112 
Q 3559 1806 3559 1356 
Q 3559 666 3084 287 
Q 2609 -91 1734 -91 
Q 1441 -91 1130 -33 
Q 819 25 488 141 
L 488 750 
Q 750 597 1062 519 
Q 1375 441 1716 441 
Q 2309 441 2620 675 
Q 2931 909 2931 1356 
Q 2931 1769 2642 2001 
Q 2353 2234 1838 2234 
L 1294 2234 
L 1294 2753 
L 1863 2753 
Q 2328 2753 2575 2939 
Q 2822 3125 2822 3475 
Q 2822 3834 2567 4026 
Q 2313 4219 1838 4219 
Q 1578 4219 1281 4162 
Q 984 4106 628 3988 
L 628 4550 
Q 988 4650 1302 4700 
Q 1616 4750 1894 4750 
Q 2613 4750 3031 4423 
Q 3450 4097 3450 3541 
Q 3450 3153 3228 2886 
Q 3006 2619 2597 2516 
z
" transform="scale(0.015625)"/>
       </defs>
       <use xlink:href="#DejaVuSans-33"/>
       <use xlink:href="#DejaVuSans-30" x="63.623047"/>
       <use xlink:href="#DejaVuSans-30" x="127.246094"/>
      </g>
     </g>
    </g>
   </g>
   <g id="matplotlib.axis_2">
    <g id="ytick_1">
     <g id="line2d_8">
      <defs>
       <path id="mdde371972a" d="M 0 0 
L -3.5 0 
" style="stroke: #000000; stroke-width: 0.8"/>
      </defs>
      <g>
       <use xlink:href="#mdde371972a" x="57.6" y="295.633163" style="stroke: #000000; stroke-width: 0.8"/>
      </g>
     </g>
     <g id="text_8">
      <!-- 0 -->
      <g transform="translate(44.2375 299.432382) scale(0.1 -0.1)">
       <use xlink:href="#DejaVuSans-30"/>
      </g>
     </g>
    </g>
    <g id="ytick_2">
     <g id="line2d_9">
      <g>
       <use xlink:href="#mdde371972a" x="57.6" y="254.951707" style="stroke: #000000; stroke-width: 0.8"/>
      </g>
     </g>
     <g id="text_9">
      <!-- 500 -->
      <g transform="translate(31.5125 258.750926) scale(0.1 -0.1)">
       <use xlink:href="#DejaVuSans-35"/>
       <use xlink:href="#DejaVuSans-30" x="63.623047"/>
       <use xlink:href="#DejaVuSans-30" x="127.246094"/>
      </g>
     </g>
    </g>
    <g id="ytick_3">
     <g id="line2d_10">
      <g>
       <use xlink:href="#mdde371972a" x="57.6" y="214.270252" style="stroke: #000000; stroke-width: 0.8"/>
      </g>
     </g>
     <g id="text_10">
      <!-- 1000 -->
      <g transform="translate(25.15 218.069471) scale(0.1 -0.1)">
       <use xlink:href="#DejaVuSans-31"/>
       <use xlink:href="#DejaVuSans-30" x="63.623047"/>
       <use xlink:href="#DejaVuSans-30" x="127.246094"/>
       <use xlink:href="#DejaVuSans-30" x="190.869141"/>
      </g>
     </g>
    </g>
    <g id="ytick_4">
     <g id="line2d_11">
      <g>
       <use xlink:href="#mdde371972a" x="57.6" y="173.588796" style="stroke: #000000; stroke-width: 0.8"/>
      </g>
     </g>
     <g id="text_11">
      <!-- 1500 -->
      <g transform="translate(25.15 177.388015) scale(0.1 -0.1)">
       <use xlink:href="#DejaVuSans-31"/>
       <use xlink:href="#DejaVuSans-35" x="63.623047"/>
       <use xlink:href="#DejaVuSans-30" x="127.246094"/>
       <use xlink:href="#DejaVuSans-30" x="190.869141"/>
      </g>
     </g>
    </g>
    <g id="ytick_5">
     <g id="line2d_12">
      <g>
       <use xlink:href="#mdde371972a" x="57.6" y="132.907341" style="stroke: #000000; stroke-width: 0.8"/>
      </g>
     </g>
     <g id="text_12">
      <!-- 2000 -->
      <g transform="translate(25.15 136.70656) scale(0.1 -0.1)">
       <use xlink:href="#DejaVuSans-32"/>
       <use xlink:href="#DejaVuSans-30" x="63.623047"/>
       <use xlink:href="#DejaVuSans-30" x="127.246094"/>
       <use xlink:href="#DejaVuSans-30" x="190.869141"/>
      </g>
     </g>
    </g>
    <g id="ytick_6">
     <g id="line2d_13">
      <g>
       <use xlink:href="#mdde371972a" x="57.6" y="92.225885" style="stroke: #000000; stroke-width: 0.8"/>
      </g>
     </g>
     <g id="text_13">
      <!-- 2500 -->
      <g transform="translate(25.15 96.025104) scale(0.1 -0.1)">
       <use xlink:href="#DejaVuSans-32"/>
       <use xlink:href="#DejaVuSans-35" x="63.623047"/>
       <use xlink:href="#DejaVuSans-30" x="127.246094"/>
       <use xlink:href="#DejaVuSans-30" x="190.869141"/>
      </g>
     </g>
    </g>
    <g id="ytick_7">
     <g id="line2d_14">
      <g>
       <use xlink:href="#mdde371972a" x="57.6" y="51.54443" style="stroke: #000000; stroke-width: 0.8"/>
      </g>
     </g>
     <g id="text_14">
      <!-- 3000 -->
      <g transform="translate(25.15 55.343649) scale(0.1 -0.1)">
       <use xlink:href="#DejaVuSans-33"/>
       <use xlink:href="#DejaVuSans-30" x="63.623047"/>
       <use xlink:href="#DejaVuSans-30" x="127.246094"/>
       <use xlink:href="#DejaVuSans-30" x="190.869141"/>
      </g>
     </g>
    </g>
   </g>
   <g id="line2d_15">
    <path d="M 73.832727 54.669826 
L 74.918528 56.155015 
L 76.00433 53.568 
L 77.090131 56.846988 
L 78.175932 60.553407 
L 79.261733 59.307752 
L 80.347534 68.268678 
L 81.433335 67.773877 
L 82.519137 71.4235 
L 83.604938 77.417567 
L 84.690739 76.947387 
L 85.77654 84.360746 
L 86.862341 88.272658 
L 87.948142 94.18689 
L 89.033943 80.490354 
L 90.119745 97.185491 
L 91.205546 92.833187 
L 92.291347 116.033255 
L 93.377148 104.942969 
L 94.462949 111.574296 
L 95.54875 141.249885 
L 96.634552 132.777133 
L 97.720353 142.331568 
L 98.806154 138.616573 
L 99.891955 138.073208 
L 100.977756 130.583523 
L 102.063557 153.614117 
L 103.149358 120.84481 
L 104.23516 131.860058 
L 105.320961 160.640727 
L 106.406762 132.492463 
L 107.492563 140.674482 
L 108.578364 130.36214 
L 109.664165 126.648372 
L 110.749967 137.812671 
L 111.835768 142.447766 
L 112.921569 137.43325 
L 114.00737 183.474627 
L 115.093171 179.665636 
L 116.178972 198.561544 
L 117.264773 204.625437 
L 118.350575 205.137007 
L 119.436376 190.028149 
L 120.522177 201.078118 
L 121.607978 202.797342 
L 122.693779 192.535723 
L 123.77958 209.684598 
L 124.865382 212.718264 
L 125.951183 216.568044 
L 127.036984 237.487692 
L 128.122785 213.263203 
L 129.208586 221.933232 
L 130.294387 226.189491 
L 131.380189 234.192005 
L 132.46599 236.542376 
L 133.551791 238.565557 
L 134.637592 222.108481 
L 135.723393 233.05163 
L 136.809194 228.519864 
L 137.894995 238.087619 
L 138.980797 239.903883 
L 140.066598 245.660903 
L 141.152399 215.245229 
L 142.2382 246.970348 
L 143.324001 232.373354 
L 144.409802 236.930444 
L 145.495604 234.345532 
L 146.581405 235.840363 
L 147.667206 240.579436 
L 148.753007 237.121505 
L 149.838808 235.970011 
L 150.924609 227.76073 
L 152.01041 245.63109 
L 153.096212 245.711245 
L 154.182013 235.513348 
L 155.267814 245.372132 
L 156.353615 237.15002 
L 157.439416 252.963609 
L 158.525217 237.043486 
L 159.611019 239.191778 
L 160.69682 237.201661 
L 161.782621 241.180562 
L 162.868422 229.319663 
L 163.954223 248.670215 
L 165.040024 240.724363 
L 166.125825 238.13123 
L 167.211627 267.512343 
L 168.297428 229.820736 
L 169.383229 243.53713 
L 170.46903 255.036712 
L 171.554831 255.588238 
L 172.640632 243.878544 
L 173.726434 256.208417 
L 174.812235 238.902937 
L 175.898036 246.452611 
L 178.069638 251.4018 
L 179.155439 251.744016 
L 180.24124 246.00378 
L 181.327042 253.884393 
L 182.412843 244.058334 
L 183.498644 261.064005 
L 184.584445 255.949854 
L 185.670246 266.515527 
L 186.756047 237.085282 
L 187.841849 259.82149 
L 188.92765 230.01744 
L 190.013451 260.985327 
L 191.099252 252.600667 
L 192.185053 260.971102 
L 193.270854 247.635813 
L 194.356656 267.281488 
L 195.442457 268.445254 
L 196.528258 247.90563 
L 197.614059 258.454746 
L 198.69986 250.738803 
L 199.785661 252.431124 
L 200.871462 252.574348 
L 201.957264 264.57477 
L 203.043065 246.056066 
L 204.128866 269.926945 
L 205.214667 266.78 
L 207.386269 248.988281 
L 208.472071 266.395055 
L 209.557872 239.920838 
L 210.643673 258.414648 
L 211.729474 257.487809 
L 212.815275 243.280732 
L 213.901076 256.709404 
L 214.986877 253.374525 
L 216.072679 248.835596 
L 217.15848 235.91632 
L 218.244281 216.651418 
L 219.330082 229.17596 
L 220.415883 219.142754 
L 221.501684 205.555752 
L 222.587486 269.530336 
L 223.673287 258.088687 
L 224.759088 257.989239 
L 225.844889 250.566189 
L 226.93069 257.86189 
L 228.016491 235.111461 
L 229.102292 260.039314 
L 230.188094 263.786439 
L 231.273895 270.489282 
L 232.359696 248.589711 
L 233.445497 260.463176 
L 234.531298 256.806332 
L 235.617099 236.494874 
L 236.702901 245.683188 
L 237.788702 258.680637 
L 238.874503 243.999866 
L 239.960304 243.341973 
L 241.046105 259.056056 
L 242.131906 277.83088 
L 243.217708 258.016757 
L 244.303509 258.402135 
L 245.38931 263.625377 
L 246.475111 245.686686 
L 247.560912 252.621084 
L 248.646713 249.304552 
L 249.732514 261.128789 
L 250.818316 247.79885 
L 251.904117 247.802646 
L 252.989918 267.657098 
L 254.075719 253.485032 
L 255.16152 256.509576 
L 256.247321 256.364033 
L 257.333123 250.528278 
L 258.418924 259.560932 
L 259.504725 261.030571 
L 261.676327 254.89366 
L 262.762128 263.406739 
L 263.847929 251.568264 
L 264.933731 253.451145 
L 266.019532 261.618907 
L 267.105333 242.549527 
L 268.191134 248.779146 
L 269.276935 263.083733 
L 270.362736 249.089253 
L 271.448538 250.54612 
L 272.534339 250.976344 
L 273.62014 260.688691 
L 274.705941 253.948661 
L 275.791742 255.276693 
L 276.877543 254.565133 
L 277.963344 260.123188 
L 279.049146 260.018437 
L 280.134947 245.712792 
L 281.220748 263.78835 
L 282.306549 255.405681 
L 283.39235 249.825463 
L 284.478151 250.302235 
L 285.563953 267.095776 
L 286.649754 259.460771 
L 287.735555 266.556518 
L 288.821356 265.550764 
L 289.907157 248.500363 
L 290.992958 268.933704 
L 292.07876 258.503867 
L 293.164561 256.85196 
L 294.250362 249.540356 
L 295.336163 245.080756 
L 296.421964 264.658964 
L 297.507765 246.054846 
L 298.593566 269.389173 
L 299.679368 263.895635 
L 300.765169 244.95912 
L 301.85097 256.563503 
L 302.936771 236.270852 
L 304.022572 268.651894 
L 305.108373 269.635637 
L 306.194175 260.972859 
L 307.279976 257.007954 
L 308.365777 266.537188 
L 309.451578 268.108436 
L 310.537379 238.201726 
L 311.62318 251.128454 
L 312.708981 260.614142 
L 313.794783 254.907635 
L 314.880584 257.300201 
L 315.966385 257.179371 
L 317.052186 246.286261 
L 318.137987 242.006728 
L 319.223788 265.764816 
L 320.30959 260.86799 
L 321.395391 250.724078 
L 322.481192 265.371444 
L 323.566993 263.84919 
L 324.652794 281.023701 
L 325.738595 242.028285 
L 326.824396 250.211984 
L 327.910198 241.357585 
L 328.995999 243.550532 
L 330.0818 240.719154 
L 331.167601 251.775193 
L 332.253402 250.313694 
L 333.339203 268.769244 
L 334.425005 229.713445 
L 335.510806 257.580428 
L 336.596607 253.799598 
L 337.682408 257.092566 
L 338.768209 254.615117 
L 339.85401 271.494562 
L 340.939811 249.899652 
L 342.025613 260.215867 
L 343.111414 255.115246 
L 344.197215 271.342576 
L 345.283016 261.725936 
L 346.368817 258.005598 
L 347.454618 250.565892 
L 348.54042 271.044072 
L 349.626221 256.438411 
L 350.712022 245.308823 
L 351.797823 257.18164 
L 352.883624 236.816466 
L 353.969425 270.273745 
L 355.055227 251.640022 
L 356.141028 263.866585 
L 357.226829 238.479725 
L 358.31263 265.200575 
L 359.398431 265.385141 
L 360.484232 268.360449 
L 361.570033 274.764103 
L 362.655835 280.354085 
L 363.741636 248.324301 
L 364.827437 268.689428 
L 365.913238 256.479177 
L 366.999039 251.522393 
L 368.08484 263.481618 
L 369.170642 256.759519 
L 370.256443 254.66724 
L 371.342244 279.751609 
L 372.428045 261.398348 
L 373.513846 267.843719 
L 374.599647 265.144748 
L 375.685448 253.222843 
L 376.77125 269.984846 
L 377.857051 249.903136 
L 380.028653 268.365931 
L 381.114454 256.856108 
L 382.200255 250.341762 
L 383.286057 260.694774 
L 384.371858 265.583853 
L 385.457659 260.987211 
L 386.54346 247.89836 
L 387.629261 251.974164 
L 388.715062 267.125008 
L 389.800863 250.69882 
L 390.886665 258.753458 
L 391.972466 262.956039 
L 393.058267 271.167173 
L 394.144068 240.112058 
L 395.229869 248.777969 
L 396.31567 250.871389 
L 397.401472 260.623978 
L 398.487273 272.126725 
L 398.487273 272.126725 
" clip-path="url(#p3a730167d0)" style="fill: none; stroke: #1f77b4; stroke-width: 1.5; stroke-linecap: square"/>
   </g>
   <g id="line2d_16">
    <path d="M 73.832727 224.80798 
L 74.918528 225.58937 
L 76.00433 245.954635 
L 77.090131 223.206342 
L 78.175932 243.028758 
L 79.261733 245.868445 
L 80.347534 225.8515 
L 81.433335 223.584582 
L 82.519137 223.57906 
L 83.604938 223.350386 
L 84.690739 223.638632 
L 85.77654 268.563577 
L 86.862341 273.513245 
L 87.948142 223.123141 
L 89.033943 241.582347 
L 90.119745 265.761781 
L 91.205546 223.918804 
L 93.377148 258.277886 
L 94.462949 222.07907 
L 95.54875 222.618293 
L 96.634552 223.767549 
L 97.720353 223.032393 
L 98.806154 223.643216 
L 99.891955 225.086826 
L 100.977756 223.87849 
L 103.149358 223.798438 
L 104.23516 279.25116 
L 105.320961 228.106173 
L 106.406762 287.490868 
L 107.492563 284.27545 
L 108.578364 294.789642 
L 109.664165 293.817564 
L 110.749967 294.918711 
L 112.921569 241.6169 
L 114.00737 293.888338 
L 115.093171 283.035947 
L 116.178972 292.003845 
L 117.264773 291.198291 
L 118.350575 288.120993 
L 119.436376 288.353596 
L 120.522177 288.314859 
L 121.607978 290.128205 
L 122.693779 286.960109 
L 123.77958 294.589084 
L 124.865382 291.311946 
L 127.036984 294.3574 
L 128.122785 294.274704 
L 129.208586 294.586784 
L 130.294387 290.077004 
L 131.380189 290.615034 
L 132.46599 292.484466 
L 133.551791 286.464831 
L 134.637592 274.668073 
L 135.723393 281.269447 
L 136.809194 282.858616 
L 137.894995 281.690618 
L 138.980797 290.101656 
L 140.066598 290.170364 
L 141.152399 291.088565 
L 143.324001 289.079957 
L 144.409802 285.722653 
L 145.495604 285.933148 
L 146.581405 285.47787 
L 148.753007 289.916896 
L 149.838808 284.341905 
L 150.924609 259.838468 
L 152.01041 282.145209 
L 153.096212 283.996481 
L 154.182013 291.42509 
L 155.267814 289.64513 
L 156.353615 286.592015 
L 157.439416 290.076984 
L 158.525217 289.379019 
L 159.611019 290.775543 
L 160.69682 289.733731 
L 161.782621 286.381302 
L 162.868422 289.35604 
L 163.954223 288.759091 
L 165.040024 277.75061 
L 166.125825 290.671006 
L 167.211627 290.272544 
L 168.297428 285.858311 
L 169.383229 291.293682 
L 170.46903 292.215382 
L 171.554831 290.217213 
L 172.640632 289.740332 
L 173.726434 284.985243 
L 174.812235 287.959239 
L 175.898036 291.929291 
L 176.983837 292.097496 
L 178.069638 291.206861 
L 179.155439 290.82978 
L 180.24124 292.340047 
L 181.327042 273.327278 
L 182.412843 281.691959 
L 183.498644 282.755308 
L 184.584445 284.843684 
L 185.670246 291.22509 
L 186.756047 274.573542 
L 187.841849 287.826974 
L 188.92765 285.253391 
L 190.013451 282.141153 
L 191.099252 295.30057 
L 192.185053 295.112145 
L 193.270854 295.164997 
L 194.356656 293.818145 
L 195.442457 288.524941 
L 196.528258 280.94299 
L 197.614059 283.882016 
L 198.69986 272.853864 
L 199.785661 286.245634 
L 200.871462 280.05937 
L 201.957264 287.524163 
L 203.043065 285.773784 
L 204.128866 281.369331 
L 205.214667 283.518726 
L 206.300468 286.093534 
L 207.386269 289.205427 
L 208.472071 294.806941 
L 209.557872 290.070005 
L 210.643673 292.079927 
L 211.729474 292.469121 
L 212.815275 289.384803 
L 213.901076 291.02518 
L 214.986877 287.725653 
L 216.072679 292.448266 
L 217.15848 286.761207 
L 218.244281 230.545312 
L 219.330082 250.346931 
L 220.415883 258.846324 
L 221.501684 250.240008 
L 222.587486 293.708197 
L 223.673287 293.805045 
L 224.759088 294.272945 
L 225.844889 292.169379 
L 226.93069 289.597265 
L 228.016491 287.486991 
L 229.102292 290.876709 
L 230.188094 291.747683 
L 231.273895 291.82278 
L 232.359696 285.616758 
L 233.445497 291.22967 
L 234.531298 293.195176 
L 235.617099 282.39992 
L 236.702901 285.94748 
L 237.788702 290.494448 
L 238.874503 280.21157 
L 239.960304 288.850834 
L 241.046105 290.886085 
L 242.131906 288.893504 
L 243.217708 288.916403 
L 244.303509 286.475359 
L 245.38931 291.351216 
L 246.475111 290.183217 
L 247.560912 287.306702 
L 248.646713 288.331303 
L 249.732514 283.31192 
L 250.818316 286.641064 
L 251.904117 283.865831 
L 252.989918 290.01328 
L 254.075719 291.643298 
L 255.16152 287.720524 
L 256.247321 292.215018 
L 257.333123 285.724495 
L 258.418924 292.275585 
L 259.504725 293.202081 
L 260.590526 294.338862 
L 261.676327 293.02522 
L 262.762128 289.979667 
L 263.847929 287.871482 
L 264.933731 290.515775 
L 266.019532 287.888066 
L 267.105333 282.483364 
L 268.191134 286.131667 
L 269.276935 286.270496 
L 270.362736 284.633501 
L 271.448538 286.373007 
L 272.534339 283.141653 
L 273.62014 265.757203 
L 274.705941 269.251589 
L 275.791742 259.149895 
L 276.877543 268.371232 
L 277.963344 266.816159 
L 279.049146 292.377754 
L 280.134947 282.762757 
L 281.220748 291.792148 
L 282.306549 291.581077 
L 283.39235 290.972186 
L 284.478151 292.41007 
L 285.563953 294.15546 
L 286.649754 287.535354 
L 287.735555 289.526266 
L 288.821356 287.793534 
L 289.907157 288.186234 
L 290.992958 289.319983 
L 292.07876 290.042342 
L 293.164561 289.893889 
L 294.250362 291.01644 
L 295.336163 288.24387 
L 296.421964 288.337358 
L 297.507765 285.257627 
L 298.593566 288.651823 
L 299.679368 289.078123 
L 300.765169 287.346238 
L 301.85097 286.860092 
L 302.936771 283.191512 
L 304.022572 290.436128 
L 305.108373 292.415842 
L 306.194175 289.307474 
L 307.279976 288.738394 
L 308.365777 290.527379 
L 309.451578 290.141628 
L 310.537379 285.753931 
L 311.62318 290.032883 
L 312.708981 291.636767 
L 313.794783 289.83328 
L 314.880584 289.7845 
L 315.966385 289.88803 
L 317.052186 291.444736 
L 318.137987 283.517388 
L 319.223788 287.878752 
L 320.30959 288.794217 
L 321.395391 288.969367 
L 322.481192 290.362916 
L 323.566993 288.468839 
L 324.652794 291.35083 
L 325.738595 276.588351 
L 326.824396 269.550368 
L 327.910198 277.977242 
L 328.995999 276.101648 
L 330.0818 272.372039 
L 331.167601 276.34203 
L 332.253402 274.303921 
L 333.339203 283.708775 
L 334.425005 283.086118 
L 335.510806 285.79609 
L 336.596607 294.826678 
L 337.682408 288.591169 
L 338.768209 286.698088 
L 339.85401 286.06096 
L 340.939811 285.678012 
L 342.025613 283.110838 
L 343.111414 282.693961 
L 344.197215 286.17004 
L 345.283016 286.467041 
L 346.368817 286.449684 
L 347.454618 285.81073 
L 348.54042 285.815548 
L 349.626221 285.029688 
L 350.712022 284.053584 
L 351.797823 283.84407 
L 352.883624 284.058291 
L 353.969425 284.510102 
L 355.055227 287.311114 
L 356.141028 287.268788 
L 357.226829 282.27508 
L 358.31263 286.279701 
L 359.398431 285.179886 
L 361.570033 286.766941 
L 362.655835 282.807255 
L 363.741636 286.225353 
L 364.827437 285.692556 
L 365.913238 288.221061 
L 366.999039 287.377608 
L 368.08484 283.8381 
L 369.170642 289.235234 
L 370.256443 281.88601 
L 371.342244 289.402397 
L 372.428045 287.325294 
L 373.513846 287.303095 
L 374.599647 286.839977 
L 375.685448 286.887921 
L 376.77125 286.242725 
L 377.857051 285.188449 
L 378.942852 286.003502 
L 380.028653 284.486078 
L 383.286057 287.954509 
L 384.371858 284.392053 
L 385.457659 286.515349 
L 386.54346 280.234293 
L 387.629261 281.269063 
L 388.715062 283.552047 
L 389.800863 284.593204 
L 390.886665 284.65185 
L 391.972466 283.837779 
L 393.058267 284.641193 
L 394.144068 284.962455 
L 395.229869 295.488 
L 396.31567 285.199383 
L 397.401472 286.449445 
L 398.487273 285.399048 
L 398.487273 285.399048 
" clip-path="url(#p3a730167d0)" style="fill: none; stroke: #ff7f0e; stroke-opacity: 0.5; stroke-width: 1.5; stroke-linecap: square"/>
   </g>
   <g id="patch_3">
    <path d="M 57.6 307.584 
L 57.6 41.472 
" style="fill: none; stroke: #000000; stroke-width: 0.8; stroke-linejoin: miter; stroke-linecap: square"/>
   </g>
   <g id="patch_4">
    <path d="M 414.72 307.584 
L 414.72 41.472 
" style="fill: none; stroke: #000000; stroke-width: 0.8; stroke-linejoin: miter; stroke-linecap: square"/>
   </g>
   <g id="patch_5">
    <path d="M 57.6 307.584 
L 414.72 307.584 
" style="fill: none; stroke: #000000; stroke-width: 0.8; stroke-linejoin: miter; stroke-linecap: square"/>
   </g>
   <g id="patch_6">
    <path d="M 57.6 41.472 
L 414.72 41.472 
" style="fill: none; stroke: #000000; stroke-width: 0.8; stroke-linejoin: miter; stroke-linecap: square"/>
   </g>
   <g id="legend_1">
    <g id="patch_7">
     <path d="M 351.768438 78.82825 
L 407.72 78.82825 
Q 409.72 78.82825 409.72 76.82825 
L 409.72 48.472 
Q 409.72 46.472 407.72 46.472 
L 351.768438 46.472 
Q 349.768438 46.472 349.768438 48.472 
L 349.768438 76.82825 
Q 349.768438 78.82825 351.768438 78.82825 
z
" style="fill: #ffffff; opacity: 0.8; stroke: #cccccc; stroke-linejoin: miter"/>
    </g>
    <g id="line2d_17">
     <path d="M 353.768438 54.570437 
L 363.768438 54.570437 
L 373.768438 54.570437 
" style="fill: none; stroke: #1f77b4; stroke-width: 1.5; stroke-linecap: square"/>
    </g>
    <g id="text_15">
     <!-- train -->
     <g transform="translate(381.768438 58.070437) scale(0.1 -0.1)">
      <defs>
       <path id="DejaVuSans-74" d="M 1172 4494 
L 1172 3500 
L 2356 3500 
L 2356 3053 
L 1172 3053 
L 1172 1153 
Q 1172 725 1289 603 
Q 1406 481 1766 481 
L 2356 481 
L 2356 0 
L 1766 0 
Q 1100 0 847 248 
Q 594 497 594 1153 
L 594 3053 
L 172 3053 
L 172 3500 
L 594 3500 
L 594 4494 
L 1172 4494 
z
" transform="scale(0.015625)"/>
       <path id="DejaVuSans-72" d="M 2631 2963 
Q 2534 3019 2420 3045 
Q 2306 3072 2169 3072 
Q 1681 3072 1420 2755 
Q 1159 2438 1159 1844 
L 1159 0 
L 581 0 
L 581 3500 
L 1159 3500 
L 1159 2956 
Q 1341 3275 1631 3429 
Q 1922 3584 2338 3584 
Q 2397 3584 2469 3576 
Q 2541 3569 2628 3553 
L 2631 2963 
z
" transform="scale(0.015625)"/>
       <path id="DejaVuSans-61" d="M 2194 1759 
Q 1497 1759 1228 1600 
Q 959 1441 959 1056 
Q 959 750 1161 570 
Q 1363 391 1709 391 
Q 2188 391 2477 730 
Q 2766 1069 2766 1631 
L 2766 1759 
L 2194 1759 
z
M 3341 1997 
L 3341 0 
L 2766 0 
L 2766 531 
Q 2569 213 2275 61 
Q 1981 -91 1556 -91 
Q 1019 -91 701 211 
Q 384 513 384 1019 
Q 384 1609 779 1909 
Q 1175 2209 1959 2209 
L 2766 2209 
L 2766 2266 
Q 2766 2663 2505 2880 
Q 2244 3097 1772 3097 
Q 1472 3097 1187 3025 
Q 903 2953 641 2809 
L 641 3341 
Q 956 3463 1253 3523 
Q 1550 3584 1831 3584 
Q 2591 3584 2966 3190 
Q 3341 2797 3341 1997 
z
" transform="scale(0.015625)"/>
       <path id="DejaVuSans-69" d="M 603 3500 
L 1178 3500 
L 1178 0 
L 603 0 
L 603 3500 
z
M 603 4863 
L 1178 4863 
L 1178 4134 
L 603 4134 
L 603 4863 
z
" transform="scale(0.015625)"/>
       <path id="DejaVuSans-6e" d="M 3513 2113 
L 3513 0 
L 2938 0 
L 2938 2094 
Q 2938 2591 2744 2837 
Q 2550 3084 2163 3084 
Q 1697 3084 1428 2787 
Q 1159 2491 1159 1978 
L 1159 0 
L 581 0 
L 581 3500 
L 1159 3500 
L 1159 2956 
Q 1366 3272 1645 3428 
Q 1925 3584 2291 3584 
Q 2894 3584 3203 3211 
Q 3513 2838 3513 2113 
z
" transform="scale(0.015625)"/>
      </defs>
      <use xlink:href="#DejaVuSans-74"/>
      <use xlink:href="#DejaVuSans-72" x="39.208984"/>
      <use xlink:href="#DejaVuSans-61" x="80.322266"/>
      <use xlink:href="#DejaVuSans-69" x="141.601562"/>
      <use xlink:href="#DejaVuSans-6e" x="169.384766"/>
     </g>
    </g>
    <g id="line2d_18">
     <path d="M 353.768438 69.248562 
L 363.768438 69.248562 
L 373.768438 69.248562 
" style="fill: none; stroke: #ff7f0e; stroke-opacity: 0.5; stroke-width: 1.5; stroke-linecap: square"/>
    </g>
    <g id="text_16">
     <!-- valid -->
     <g transform="translate(381.768438 72.748562) scale(0.1 -0.1)">
      <defs>
       <path id="DejaVuSans-76" d="M 191 3500 
L 800 3500 
L 1894 563 
L 2988 3500 
L 3597 3500 
L 2284 0 
L 1503 0 
L 191 3500 
z
" transform="scale(0.015625)"/>
       <path id="DejaVuSans-6c" d="M 603 4863 
L 1178 4863 
L 1178 0 
L 603 0 
L 603 4863 
z
" transform="scale(0.015625)"/>
       <path id="DejaVuSans-64" d="M 2906 2969 
L 2906 4863 
L 3481 4863 
L 3481 0 
L 2906 0 
L 2906 525 
Q 2725 213 2448 61 
Q 2172 -91 1784 -91 
Q 1150 -91 751 415 
Q 353 922 353 1747 
Q 353 2572 751 3078 
Q 1150 3584 1784 3584 
Q 2172 3584 2448 3432 
Q 2725 3281 2906 2969 
z
M 947 1747 
Q 947 1113 1208 752 
Q 1469 391 1925 391 
Q 2381 391 2643 752 
Q 2906 1113 2906 1747 
Q 2906 2381 2643 2742 
Q 2381 3103 1925 3103 
Q 1469 3103 1208 2742 
Q 947 2381 947 1747 
z
" transform="scale(0.015625)"/>
      </defs>
      <use xlink:href="#DejaVuSans-76"/>
      <use xlink:href="#DejaVuSans-61" x="59.179688"/>
      <use xlink:href="#DejaVuSans-6c" x="120.458984"/>
      <use xlink:href="#DejaVuSans-69" x="148.242188"/>
      <use xlink:href="#DejaVuSans-64" x="176.025391"/>
     </g>
    </g>
   </g>
  </g>
 </g>
 <defs>
  <clipPath id="p3a730167d0">
   <rect x="57.6" y="41.472" width="357.12" height="266.112"/>
  </clipPath>
 </defs>
</svg>
