<?xml version="1.0" encoding="utf-8" standalone="no"?>
<!DOCTYPE svg PUBLIC "-//W3C//DTD SVG 1.1//EN"
  "http://www.w3.org/Graphics/SVG/1.1/DTD/svg11.dtd">
<svg xmlns:xlink="http://www.w3.org/1999/xlink" width="460.8pt" height="345.6pt" viewBox="0 0 460.8 345.6" xmlns="http://www.w3.org/2000/svg" version="1.1">
 <metadata>
  <rdf:RDF xmlns:dc="http://purl.org/dc/elements/1.1/" xmlns:cc="http://creativecommons.org/ns#" xmlns:rdf="http://www.w3.org/1999/02/22-rdf-syntax-ns#">
   <cc:Work>
    <dc:type rdf:resource="http://purl.org/dc/dcmitype/StillImage"/>
    <dc:date>2023-12-08T02:29:13.606267</dc:date>
    <dc:format>image/svg+xml</dc:format>
    <dc:creator>
     <cc:Agent>
      <dc:title>Matplotlib v3.7.3, https://matplotlib.org/</dc:title>
     </cc:Agent>
    </dc:creator>
   </cc:Work>
  </rdf:RDF>
 </metadata>
 <defs>
  <style type="text/css">*{stroke-linejoin: round; stroke-linecap: butt}</style>
 </defs>
 <g id="figure_1">
  <g id="patch_1">
   <path d="M 0 345.6 
L 460.8 345.6 
L 460.8 0 
L 0 0 
z
" style="fill: #ffffff"/>
  </g>
  <g id="axes_1">
   <g id="patch_2">
    <path d="M 57.6 307.584 
L 414.72 307.584 
L 414.72 41.472 
L 57.6 41.472 
z
" style="fill: #ffffff"/>
   </g>
   <g id="matplotlib.axis_1">
    <g id="xtick_1">
     <g id="line2d_1">
      <defs>
       <path id="mb0bdf1b8b5" d="M 0 0 
L 0 3.5 
" style="stroke: #000000; stroke-width: 0.8"/>
      </defs>
      <g>
       <use xlink:href="#mb0bdf1b8b5" x="73.832727" y="307.584" style="stroke: #000000; stroke-width: 0.8"/>
      </g>
     </g>
     <g id="text_1">
      <!-- 0 -->
      <g transform="translate(70.651477 322.182437) scale(0.1 -0.1)">
       <defs>
        <path id="DejaVuSans-30" d="M 2034 4250 
Q 1547 4250 1301 3770 
Q 1056 3291 1056 2328 
Q 1056 1369 1301 889 
Q 1547 409 2034 409 
Q 2525 409 2770 889 
Q 3016 1369 3016 2328 
Q 3016 3291 2770 3770 
Q 2525 4250 2034 4250 
z
M 2034 4750 
Q 2819 4750 3233 4129 
Q 3647 3509 3647 2328 
Q 3647 1150 3233 529 
Q 2819 -91 2034 -91 
Q 1250 -91 836 529 
Q 422 1150 422 2328 
Q 422 3509 836 4129 
Q 1250 4750 2034 4750 
z
" transform="scale(0.015625)"/>
       </defs>
       <use xlink:href="#DejaVuSans-30"/>
      </g>
     </g>
    </g>
    <g id="xtick_2">
     <g id="line2d_2">
      <g>
       <use xlink:href="#mb0bdf1b8b5" x="128.122785" y="307.584" style="stroke: #000000; stroke-width: 0.8"/>
      </g>
     </g>
     <g id="text_2">
      <!-- 50 -->
      <g transform="translate(121.760285 322.182437) scale(0.1 -0.1)">
       <defs>
        <path id="DejaVuSans-35" d="M 691 4666 
L 3169 4666 
L 3169 4134 
L 1269 4134 
L 1269 2991 
Q 1406 3038 1543 3061 
Q 1681 3084 1819 3084 
Q 2600 3084 3056 2656 
Q 3513 2228 3513 1497 
Q 3513 744 3044 326 
Q 2575 -91 1722 -91 
Q 1428 -91 1123 -41 
Q 819 9 494 109 
L 494 744 
Q 775 591 1075 516 
Q 1375 441 1709 441 
Q 2250 441 2565 725 
Q 2881 1009 2881 1497 
Q 2881 1984 2565 2268 
Q 2250 2553 1709 2553 
Q 1456 2553 1204 2497 
Q 953 2441 691 2322 
L 691 4666 
z
" transform="scale(0.015625)"/>
       </defs>
       <use xlink:href="#DejaVuSans-35"/>
       <use xlink:href="#DejaVuSans-30" x="63.623047"/>
      </g>
     </g>
    </g>
    <g id="xtick_3">
     <g id="line2d_3">
      <g>
       <use xlink:href="#mb0bdf1b8b5" x="182.412843" y="307.584" style="stroke: #000000; stroke-width: 0.8"/>
      </g>
     </g>
     <g id="text_3">
      <!-- 100 -->
      <g transform="translate(172.869093 322.182437) scale(0.1 -0.1)">
       <defs>
        <path id="DejaVuSans-31" d="M 794 531 
L 1825 531 
L 1825 4091 
L 703 3866 
L 703 4441 
L 1819 4666 
L 2450 4666 
L 2450 531 
L 3481 531 
L 3481 0 
L 794 0 
L 794 531 
z
" transform="scale(0.015625)"/>
       </defs>
       <use xlink:href="#DejaVuSans-31"/>
       <use xlink:href="#DejaVuSans-30" x="63.623047"/>
       <use xlink:href="#DejaVuSans-30" x="127.246094"/>
      </g>
     </g>
    </g>
    <g id="xtick_4">
     <g id="line2d_4">
      <g>
       <use xlink:href="#mb0bdf1b8b5" x="236.702901" y="307.584" style="stroke: #000000; stroke-width: 0.8"/>
      </g>
     </g>
     <g id="text_4">
      <!-- 150 -->
      <g transform="translate(227.159151 322.182437) scale(0.1 -0.1)">
       <use xlink:href="#DejaVuSans-31"/>
       <use xlink:href="#DejaVuSans-35" x="63.623047"/>
       <use xlink:href="#DejaVuSans-30" x="127.246094"/>
      </g>
     </g>
    </g>
    <g id="xtick_5">
     <g id="line2d_5">
      <g>
       <use xlink:href="#mb0bdf1b8b5" x="290.992958" y="307.584" style="stroke: #000000; stroke-width: 0.8"/>
      </g>
     </g>
     <g id="text_5">
      <!-- 200 -->
      <g transform="translate(281.449208 322.182437) scale(0.1 -0.1)">
       <defs>
        <path id="DejaVuSans-32" d="M 1228 531 
L 3431 531 
L 3431 0 
L 469 0 
L 469 531 
Q 828 903 1448 1529 
Q 2069 2156 2228 2338 
Q 2531 2678 2651 2914 
Q 2772 3150 2772 3378 
Q 2772 3750 2511 3984 
Q 2250 4219 1831 4219 
Q 1534 4219 1204 4116 
Q 875 4013 500 3803 
L 500 4441 
Q 881 4594 1212 4672 
Q 1544 4750 1819 4750 
Q 2544 4750 2975 4387 
Q 3406 4025 3406 3419 
Q 3406 3131 3298 2873 
Q 3191 2616 2906 2266 
Q 2828 2175 2409 1742 
Q 1991 1309 1228 531 
z
" transform="scale(0.015625)"/>
       </defs>
       <use xlink:href="#DejaVuSans-32"/>
       <use xlink:href="#DejaVuSans-30" x="63.623047"/>
       <use xlink:href="#DejaVuSans-30" x="127.246094"/>
      </g>
     </g>
    </g>
    <g id="xtick_6">
     <g id="line2d_6">
      <g>
       <use xlink:href="#mb0bdf1b8b5" x="345.283016" y="307.584" style="stroke: #000000; stroke-width: 0.8"/>
      </g>
     </g>
     <g id="text_6">
      <!-- 250 -->
      <g transform="translate(335.739266 322.182437) scale(0.1 -0.1)">
       <use xlink:href="#DejaVuSans-32"/>
       <use xlink:href="#DejaVuSans-35" x="63.623047"/>
       <use xlink:href="#DejaVuSans-30" x="127.246094"/>
      </g>
     </g>
    </g>
    <g id="xtick_7">
     <g id="line2d_7">
      <g>
       <use xlink:href="#mb0bdf1b8b5" x="399.573074" y="307.584" style="stroke: #000000; stroke-width: 0.8"/>
      </g>
     </g>
     <g id="text_7">
      <!-- 300 -->
      <g transform="translate(390.029324 322.182437) scale(0.1 -0.1)">
       <defs>
        <path id="DejaVuSans-33" d="M 2597 2516 
Q 3050 2419 3304 2112 
Q 3559 1806 3559 1356 
Q 3559 666 3084 287 
Q 2609 -91 1734 -91 
Q 1441 -91 1130 -33 
Q 819 25 488 141 
L 488 750 
Q 750 597 1062 519 
Q 1375 441 1716 441 
Q 2309 441 2620 675 
Q 2931 909 2931 1356 
Q 2931 1769 2642 2001 
Q 2353 2234 1838 2234 
L 1294 2234 
L 1294 2753 
L 1863 2753 
Q 2328 2753 2575 2939 
Q 2822 3125 2822 3475 
Q 2822 3834 2567 4026 
Q 2313 4219 1838 4219 
Q 1578 4219 1281 4162 
Q 984 4106 628 3988 
L 628 4550 
Q 988 4650 1302 4700 
Q 1616 4750 1894 4750 
Q 2613 4750 3031 4423 
Q 3450 4097 3450 3541 
Q 3450 3153 3228 2886 
Q 3006 2619 2597 2516 
z
" transform="scale(0.015625)"/>
       </defs>
       <use xlink:href="#DejaVuSans-33"/>
       <use xlink:href="#DejaVuSans-30" x="63.623047"/>
       <use xlink:href="#DejaVuSans-30" x="127.246094"/>
      </g>
     </g>
    </g>
   </g>
   <g id="matplotlib.axis_2">
    <g id="ytick_1">
     <g id="line2d_8">
      <defs>
       <path id="m180c1ff744" d="M 0 0 
L -3.5 0 
" style="stroke: #000000; stroke-width: 0.8"/>
      </defs>
      <g>
       <use xlink:href="#m180c1ff744" x="57.6" y="295.510808" style="stroke: #000000; stroke-width: 0.8"/>
      </g>
     </g>
     <g id="text_8">
      <!-- 0 -->
      <g transform="translate(44.2375 299.310027) scale(0.1 -0.1)">
       <use xlink:href="#DejaVuSans-30"/>
      </g>
     </g>
    </g>
    <g id="ytick_2">
     <g id="line2d_9">
      <g>
       <use xlink:href="#m180c1ff744" x="57.6" y="251.29942" style="stroke: #000000; stroke-width: 0.8"/>
      </g>
     </g>
     <g id="text_9">
      <!-- 1000 -->
      <g transform="translate(25.15 255.098638) scale(0.1 -0.1)">
       <use xlink:href="#DejaVuSans-31"/>
       <use xlink:href="#DejaVuSans-30" x="63.623047"/>
       <use xlink:href="#DejaVuSans-30" x="127.246094"/>
       <use xlink:href="#DejaVuSans-30" x="190.869141"/>
      </g>
     </g>
    </g>
    <g id="ytick_3">
     <g id="line2d_10">
      <g>
       <use xlink:href="#m180c1ff744" x="57.6" y="207.088031" style="stroke: #000000; stroke-width: 0.8"/>
      </g>
     </g>
     <g id="text_10">
      <!-- 2000 -->
      <g transform="translate(25.15 210.88725) scale(0.1 -0.1)">
       <use xlink:href="#DejaVuSans-32"/>
       <use xlink:href="#DejaVuSans-30" x="63.623047"/>
       <use xlink:href="#DejaVuSans-30" x="127.246094"/>
       <use xlink:href="#DejaVuSans-30" x="190.869141"/>
      </g>
     </g>
    </g>
    <g id="ytick_4">
     <g id="line2d_11">
      <g>
       <use xlink:href="#m180c1ff744" x="57.6" y="162.876643" style="stroke: #000000; stroke-width: 0.8"/>
      </g>
     </g>
     <g id="text_11">
      <!-- 3000 -->
      <g transform="translate(25.15 166.675861) scale(0.1 -0.1)">
       <use xlink:href="#DejaVuSans-33"/>
       <use xlink:href="#DejaVuSans-30" x="63.623047"/>
       <use xlink:href="#DejaVuSans-30" x="127.246094"/>
       <use xlink:href="#DejaVuSans-30" x="190.869141"/>
      </g>
     </g>
    </g>
    <g id="ytick_5">
     <g id="line2d_12">
      <g>
       <use xlink:href="#m180c1ff744" x="57.6" y="118.665254" style="stroke: #000000; stroke-width: 0.8"/>
      </g>
     </g>
     <g id="text_12">
      <!-- 4000 -->
      <g transform="translate(25.15 122.464473) scale(0.1 -0.1)">
       <defs>
        <path id="DejaVuSans-34" d="M 2419 4116 
L 825 1625 
L 2419 1625 
L 2419 4116 
z
M 2253 4666 
L 3047 4666 
L 3047 1625 
L 3713 1625 
L 3713 1100 
L 3047 1100 
L 3047 0 
L 2419 0 
L 2419 1100 
L 313 1100 
L 313 1709 
L 2253 4666 
z
" transform="scale(0.015625)"/>
       </defs>
       <use xlink:href="#DejaVuSans-34"/>
       <use xlink:href="#DejaVuSans-30" x="63.623047"/>
       <use xlink:href="#DejaVuSans-30" x="127.246094"/>
       <use xlink:href="#DejaVuSans-30" x="190.869141"/>
      </g>
     </g>
    </g>
    <g id="ytick_6">
     <g id="line2d_13">
      <g>
       <use xlink:href="#m180c1ff744" x="57.6" y="74.453866" style="stroke: #000000; stroke-width: 0.8"/>
      </g>
     </g>
     <g id="text_13">
      <!-- 5000 -->
      <g transform="translate(25.15 78.253085) scale(0.1 -0.1)">
       <use xlink:href="#DejaVuSans-35"/>
       <use xlink:href="#DejaVuSans-30" x="63.623047"/>
       <use xlink:href="#DejaVuSans-30" x="127.246094"/>
       <use xlink:href="#DejaVuSans-30" x="190.869141"/>
      </g>
     </g>
    </g>
   </g>
   <g id="line2d_14">
    <path d="M 73.832727 238.690573 
L 74.918528 227.104183 
L 76.00433 238.935147 
L 77.090131 240.320521 
L 79.261733 249.571527 
L 80.347534 248.064565 
L 81.433335 250.049468 
L 82.519137 251.484489 
L 83.604938 249.206413 
L 84.690739 251.30035 
L 85.77654 245.113297 
L 86.862341 251.461679 
L 87.948142 253.51759 
L 89.033943 254.124002 
L 90.119745 259.809233 
L 91.205546 262.801762 
L 92.291347 263.224797 
L 93.377148 263.451913 
L 94.462949 265.911387 
L 95.54875 267.566216 
L 96.634552 268.624458 
L 97.720353 268.822173 
L 98.806154 263.177878 
L 99.891955 242.056685 
L 100.977756 261.654455 
L 102.063557 221.359332 
L 103.149358 260.351528 
L 104.23516 273.278008 
L 105.320961 273.53542 
L 106.406762 273.039717 
L 107.492563 276.83984 
L 108.578364 273.465513 
L 109.664165 277.911994 
L 110.749967 278.191635 
L 111.835768 277.324787 
L 112.921569 278.352611 
L 114.00737 248.337 
L 115.093171 140.951129 
L 116.178972 237.11646 
L 117.264773 143.52531 
L 118.350575 126.510668 
L 119.436376 184.169129 
L 120.522177 185.505173 
L 121.607978 245.789884 
L 122.693779 264.409577 
L 123.77958 269.919483 
L 124.865382 272.293129 
L 125.951183 273.722007 
L 127.036984 261.826779 
L 128.122785 272.652792 
L 129.208586 267.828463 
L 130.294387 264.137679 
L 131.380189 250.899174 
L 133.551791 239.257391 
L 134.637592 246.990649 
L 135.723393 243.326343 
L 137.894995 258.853085 
L 138.980797 273.852306 
L 140.066598 266.924378 
L 141.152399 261.956813 
L 142.2382 265.586931 
L 143.324001 265.389272 
L 144.409802 262.137496 
L 145.495604 246.190787 
L 146.581405 247.909077 
L 147.667206 242.574187 
L 148.753007 254.738213 
L 149.838808 268.658724 
L 150.924609 268.981814 
L 152.01041 273.721603 
L 153.096212 268.48073 
L 154.182013 270.25642 
L 155.267814 263.007242 
L 156.353615 251.320523 
L 157.439416 252.296987 
L 158.525217 259.329225 
L 159.611019 265.245308 
L 160.69682 274.385231 
L 161.782621 268.558674 
L 162.868422 274.737691 
L 163.954223 272.347088 
L 165.040024 271.567267 
L 166.125825 259.383942 
L 167.211627 263.767094 
L 168.297428 261.342114 
L 169.383229 264.26954 
L 170.46903 261.661976 
L 171.554831 269.635194 
L 172.640632 265.208056 
L 173.726434 273.959065 
L 174.812235 270.20734 
L 175.898036 272.535389 
L 176.983837 266.234714 
L 178.069638 272.436826 
L 179.155439 264.275827 
L 180.24124 267.103132 
L 181.327042 263.099893 
L 182.412843 271.338241 
L 183.498644 267.003526 
L 184.584445 272.304264 
L 185.670246 267.401764 
L 186.756047 277.541965 
L 187.841849 270.846904 
L 188.92765 275.834543 
L 190.013451 270.123762 
L 191.099252 271.528605 
L 192.185053 267.705159 
L 193.270854 269.883291 
L 194.356656 268.338036 
L 195.442457 273.630859 
L 196.528258 271.516344 
L 197.614059 273.939472 
L 198.69986 275.102174 
L 199.785661 276.635968 
L 200.871462 267.835923 
L 201.957264 272.012416 
L 203.043065 267.693961 
L 204.128866 271.04971 
L 205.214667 268.975335 
L 206.300468 276.790848 
L 207.386269 267.804401 
L 208.472071 274.856564 
L 209.557872 277.15779 
L 211.729474 273.876216 
L 212.815275 271.05154 
L 213.901076 271.665787 
L 214.986877 268.628904 
L 216.072679 268.946542 
L 217.15848 264.716432 
L 219.330082 276.122043 
L 220.415883 277.905858 
L 221.501684 282.09367 
L 222.587486 283.317906 
L 223.673287 283.119674 
L 224.759088 280.607454 
L 225.844889 278.537277 
L 226.93069 267.939898 
L 228.016491 253.439999 
L 229.102292 250.932163 
L 230.188094 263.04896 
L 231.273895 271.295632 
L 232.359696 281.23608 
L 233.445497 277.959739 
L 234.531298 278.993046 
L 235.617099 270.945571 
L 236.702901 272.864381 
L 237.788702 269.257609 
L 238.874503 270.297205 
L 239.960304 272.550888 
L 241.046105 278.663002 
L 242.131906 276.094652 
L 243.217708 276.888708 
L 244.303509 274.465276 
L 245.38931 275.454762 
L 246.475111 270.087978 
L 247.560912 276.375589 
L 248.646713 275.820905 
L 249.732514 267.098249 
L 250.818316 275.16546 
L 251.904117 275.508932 
L 252.989918 276.042065 
L 254.075719 276.806828 
L 255.16152 273.376092 
L 256.247321 277.422383 
L 257.333123 276.442919 
L 258.418924 276.759364 
L 259.504725 272.77922 
L 260.590526 274.418357 
L 261.676327 265.488729 
L 262.762128 266.567087 
L 263.847929 269.528263 
L 264.933731 278.253196 
L 266.019532 279.023313 
L 267.105333 280.249064 
L 268.191134 273.982598 
L 269.276935 276.301306 
L 270.362736 274.270331 
L 271.448538 274.810014 
L 272.534339 272.918305 
L 273.62014 278.146238 
L 274.705941 276.28297 
L 275.791742 278.811038 
L 276.877543 278.548785 
L 277.963344 278.607175 
L 279.049146 277.232182 
L 280.134947 265.099617 
L 281.220748 271.481049 
L 282.306549 279.520033 
L 283.39235 279.477996 
L 284.478151 278.124691 
L 285.563953 276.075713 
L 286.649754 273.681635 
L 287.735555 270.43717 
L 288.821356 268.784372 
L 289.907157 269.10119 
L 290.992958 274.970881 
L 293.164561 281.617902 
L 294.250362 281.897072 
L 295.336163 281.419054 
L 296.421964 277.987835 
L 297.507765 275.387729 
L 298.593566 274.160506 
L 299.679368 275.637669 
L 300.765169 279.406187 
L 301.85097 278.732519 
L 302.936771 273.629457 
L 304.022572 263.193311 
L 305.108373 269.931053 
L 306.194175 266.56197 
L 308.365777 279.34969 
L 309.451578 279.643098 
L 310.537379 279.110205 
L 311.62318 278.451617 
L 312.708981 275.61949 
L 313.794783 277.684734 
L 314.880584 276.458475 
L 315.966385 275.919344 
L 317.052186 278.948798 
L 318.137987 274.976714 
L 319.223788 275.287286 
L 320.30959 275.12932 
L 321.395391 279.513364 
L 322.481192 280.452662 
L 323.566993 280.789802 
L 324.652794 280.042546 
L 325.738595 278.067277 
L 326.824396 279.564512 
L 327.910198 280.108459 
L 328.995999 278.821502 
L 330.0818 279.544281 
L 331.167601 275.588557 
L 332.253402 275.937394 
L 333.339203 274.828842 
L 334.425005 276.875025 
L 336.596607 282.92199 
L 337.682408 280.11844 
L 338.768209 278.199888 
L 339.85401 277.30725 
L 340.939811 266.778006 
L 342.025613 276.026501 
L 343.111414 275.657056 
L 344.197215 279.555274 
L 345.283016 280.936205 
L 346.368817 278.498184 
L 347.454618 276.607838 
L 348.54042 272.528383 
L 349.626221 272.143189 
L 350.712022 275.743122 
L 351.797823 276.470722 
L 352.883624 280.198018 
L 353.969425 283.294396 
L 355.055227 279.443405 
L 356.141028 273.498874 
L 357.226829 279.120116 
L 358.31263 279.033687 
L 359.398431 277.520762 
L 360.484232 277.14278 
L 361.570033 276.44428 
L 362.655835 276.960787 
L 364.827437 280.956819 
L 365.913238 280.822935 
L 366.999039 280.171294 
L 368.08484 278.362455 
L 369.170642 278.699182 
L 370.256443 279.682486 
L 371.342244 281.506887 
L 372.428045 279.43564 
L 373.513846 276.994213 
L 374.599647 278.828203 
L 375.685448 281.187663 
L 376.77125 283.07428 
L 377.857051 284.546803 
L 378.942852 280.352555 
L 380.028653 278.154639 
L 382.200255 274.471521 
L 383.286057 269.152114 
L 384.371858 275.321662 
L 385.457659 275.466744 
L 386.54346 279.42069 
L 387.629261 280.272517 
L 388.715062 283.733049 
L 389.800863 283.811408 
L 390.886665 284.226578 
L 391.972466 282.778031 
L 393.058267 283.284154 
L 394.144068 280.935553 
L 395.229869 277.048286 
L 396.31567 277.181219 
L 397.401472 277.596348 
L 398.487273 276.463717 
L 398.487273 276.463717 
" clip-path="url(#pbcfb3c578d)" style="fill: none; stroke: #1f77b4; stroke-width: 1.5; stroke-linecap: square"/>
   </g>
   <g id="line2d_15">
    <path d="M 73.832727 290.519223 
L 74.918528 292.938564 
L 76.00433 289.887021 
L 77.090131 291.702838 
L 78.175932 288.861978 
L 79.261733 291.434964 
L 80.347534 285.850353 
L 81.433335 293.16512 
L 82.519137 276.917253 
L 83.604938 294.564213 
L 84.690739 269.653587 
L 85.77654 294.636092 
L 86.862341 269.724383 
L 87.948142 294.694532 
L 89.033943 273.155343 
L 90.119745 287.836499 
L 91.205546 287.164249 
L 92.291347 283.64802 
L 93.377148 281.97254 
L 95.54875 274.454375 
L 96.634552 281.495284 
L 97.720353 271.382605 
L 98.806154 251.68754 
L 99.891955 183.061991 
L 100.977756 265.484405 
L 102.063557 288.94046 
L 103.149358 261.854271 
L 104.23516 280.894802 
L 105.320961 283.719452 
L 106.406762 287.741867 
L 107.492563 284.358302 
L 108.578364 279.198141 
L 109.664165 279.005585 
L 110.749967 280.256566 
L 111.835768 285.292301 
L 112.921569 280.689196 
L 114.00737 291.364233 
L 115.093171 250.385606 
L 116.178972 276.777902 
L 117.264773 53.568 
L 118.350575 229.765111 
L 119.436376 104.07256 
L 120.522177 258.823365 
L 121.607978 224.973211 
L 122.693779 294.779522 
L 123.77958 272.094825 
L 124.865382 287.539043 
L 125.951183 270.821241 
L 127.036984 290.523964 
L 128.122785 264.200483 
L 129.208586 294.460138 
L 130.294387 244.139506 
L 131.380189 294.826784 
L 132.46599 214.200932 
L 133.551791 286.901171 
L 134.637592 202.372837 
L 135.723393 291.276108 
L 136.809194 218.761608 
L 137.894995 295.05418 
L 138.980797 255.59443 
L 140.066598 291.962325 
L 141.152399 252.614293 
L 142.2382 294.792398 
L 143.324001 243.380605 
L 144.409802 294.930612 
L 145.495604 222.479639 
L 146.581405 293.282726 
L 147.667206 216.120701 
L 148.753007 293.731025 
L 149.838808 259.164378 
L 150.924609 291.504077 
L 152.01041 255.492674 
L 153.096212 294.379832 
L 154.182013 250.143485 
L 155.267814 295.175921 
L 156.353615 229.26899 
L 157.439416 293.883005 
L 158.525217 236.78647 
L 159.611019 294.915063 
L 160.69682 252.506563 
L 161.782621 293.740446 
L 162.868422 259.604277 
L 163.954223 295.100141 
L 165.040024 246.442179 
L 166.125825 295.428592 
L 167.211627 242.417637 
L 168.297428 294.623433 
L 169.383229 240.267815 
L 170.46903 295.453306 
L 171.554831 257.143008 
L 172.640632 295.382751 
L 173.726434 261.193747 
L 174.812235 294.776861 
L 175.898036 257.781234 
L 176.983837 295.465278 
L 178.069638 255.455635 
L 179.155439 295.488 
L 180.24124 252.363504 
L 181.327042 295.346304 
L 182.412843 256.800165 
L 183.498644 295.383867 
L 184.584445 262.137516 
L 185.670246 295.232926 
L 186.756047 267.484074 
L 187.841849 294.48578 
L 188.92765 261.758111 
L 190.013451 295.443355 
L 191.099252 256.976519 
L 192.185053 295.464244 
L 193.270854 259.024426 
L 194.356656 295.446485 
L 195.442457 263.936683 
L 196.528258 294.887037 
L 197.614059 266.565377 
L 198.69986 294.920431 
L 199.785661 264.357848 
L 200.871462 295.465558 
L 201.957264 261.453033 
L 203.043065 295.311884 
L 204.128866 262.390736 
L 205.214667 295.476216 
L 206.300468 266.122232 
L 207.386269 295.08867 
L 208.472071 269.747879 
L 209.557872 294.732306 
L 210.643673 266.205425 
L 211.729474 294.802445 
L 212.815275 263.964544 
L 213.901076 295.461243 
L 214.986877 259.956012 
L 216.072679 295.343302 
L 217.15848 263.256328 
L 218.244281 295.303437 
L 219.330082 270.540904 
L 220.415883 294.259869 
L 221.501684 281.205172 
L 222.587486 292.603504 
L 223.673287 275.255456 
L 224.759088 293.608755 
L 225.844889 268.056394 
L 226.93069 295.359985 
L 228.016491 251.399527 
L 229.102292 294.438212 
L 230.188094 253.939118 
L 231.273895 295.020599 
L 232.359696 276.285742 
L 233.445497 292.912189 
L 234.531298 267.23813 
L 235.617099 294.816473 
L 236.702901 266.964245 
L 237.788702 295.476576 
L 238.874503 262.136825 
L 239.960304 295.337972 
L 241.046105 271.417598 
L 242.131906 294.48861 
L 243.217708 268.523339 
L 244.303509 295.3248 
L 245.38931 265.659 
L 246.475111 294.963419 
L 247.560912 269.313326 
L 248.646713 294.832343 
L 249.732514 270.023121 
L 250.818316 294.860476 
L 251.904117 267.850964 
L 252.989918 295.035868 
L 254.075719 269.179434 
L 255.16152 294.766303 
L 256.247321 270.540991 
L 257.333123 294.26304 
L 258.418924 270.196269 
L 259.504725 295.191532 
L 260.590526 264.408555 
L 261.676327 295.416127 
L 262.762128 262.580993 
L 263.847929 295.239874 
L 264.933731 273.862413 
L 266.019532 293.870502 
L 267.105333 273.090307 
L 268.191134 294.886069 
L 269.276935 267.365273 
L 270.362736 295.093633 
L 271.448538 267.721873 
L 272.534339 295.102797 
L 273.62014 269.494014 
L 274.705941 294.556146 
L 275.791742 271.805829 
L 276.877543 294.984977 
L 277.963344 269.93241 
L 279.049146 294.882776 
L 280.134947 269.609524 
L 281.220748 294.626589 
L 282.306549 271.01591 
L 283.39235 294.170162 
L 284.478151 270.395226 
L 285.563953 295.046602 
L 286.649754 264.590919 
L 287.735555 295.441643 
L 288.821356 265.874911 
L 289.907157 294.948831 
L 290.992958 272.100891 
L 292.07876 295.055004 
L 293.164561 274.192624 
L 294.250362 293.223478 
L 295.336163 274.699012 
L 296.421964 294.527676 
L 297.507765 270.020492 
L 298.593566 295.290141 
L 299.679368 272.481257 
L 300.765169 294.601105 
L 301.85097 270.204262 
L 302.936771 295.163603 
L 304.022572 265.865453 
L 305.108373 295.356894 
L 306.194175 266.841665 
L 307.279976 295.086483 
L 308.365777 273.150035 
L 309.451578 294.369255 
L 310.537379 275.406785 
L 311.62318 294.696865 
L 312.708981 270.574452 
L 313.794783 294.141784 
L 314.880584 271.113548 
L 315.966385 294.615825 
L 317.052186 272.221774 
L 318.137987 295.218745 
L 319.223788 268.481173 
L 320.30959 294.733549 
L 321.395391 274.80777 
L 322.481192 294.232795 
L 323.566993 274.430488 
L 324.652794 294.785984 
L 325.738595 272.472141 
L 326.824396 294.10238 
L 327.910198 272.308502 
L 328.995999 295.025241 
L 330.0818 270.453459 
L 331.167601 294.548219 
L 332.253402 271.598653 
L 333.339203 294.864245 
L 334.425005 269.39881 
L 335.510806 293.556446 
L 336.596607 276.094987 
L 337.682408 295.294703 
L 338.768209 269.120487 
L 339.85401 293.817032 
L 340.939811 271.301425 
L 342.025613 294.49214 
L 343.111414 266.996087 
L 344.197215 294.06675 
L 345.283016 274.237898 
L 346.368817 294.176185 
L 347.454618 271.978438 
L 348.54042 295.042907 
L 349.626221 269.477937 
L 350.712022 294.938395 
L 351.797823 271.560799 
L 352.883624 293.702653 
L 353.969425 277.195134 
L 355.055227 293.717861 
L 356.141028 275.050616 
L 357.226829 294.024853 
L 358.31263 272.40591 
L 359.398431 294.580132 
L 360.484232 272.02282 
L 361.570033 294.852493 
L 362.655835 273.744456 
L 363.741636 294.624182 
L 364.827437 275.294363 
L 365.913238 294.366571 
L 366.999039 274.493498 
L 368.08484 294.450164 
L 369.170642 275.475984 
L 370.256443 294.30215 
L 371.342244 275.007801 
L 372.428045 294.384514 
L 373.513846 274.413654 
L 374.599647 294.646142 
L 375.685448 277.667708 
L 376.77125 293.656676 
L 377.857051 277.992684 
L 378.942852 293.612886 
L 380.028653 274.00081 
L 381.114454 294.472219 
L 382.200255 269.906982 
L 383.286057 295.294402 
L 384.371858 271.654096 
L 385.457659 295.145742 
L 386.54346 275.069231 
L 387.629261 294.488962 
L 388.715062 278.452519 
L 389.800863 293.244125 
L 390.886665 278.585979 
L 391.972466 293.062769 
L 393.058267 276.856533 
L 394.144068 294.112091 
L 395.229869 273.515739 
L 396.31567 294.609366 
L 397.401472 273.162342 
L 398.487273 295.006348 
L 398.487273 295.006348 
" clip-path="url(#pbcfb3c578d)" style="fill: none; stroke: #ff7f0e; stroke-opacity: 0.5; stroke-width: 1.5; stroke-linecap: square"/>
   </g>
   <g id="patch_3">
    <path d="M 57.6 307.584 
L 57.6 41.472 
" style="fill: none; stroke: #000000; stroke-width: 0.8; stroke-linejoin: miter; stroke-linecap: square"/>
   </g>
   <g id="patch_4">
    <path d="M 414.72 307.584 
L 414.72 41.472 
" style="fill: none; stroke: #000000; stroke-width: 0.8; stroke-linejoin: miter; stroke-linecap: square"/>
   </g>
   <g id="patch_5">
    <path d="M 57.6 307.584 
L 414.72 307.584 
" style="fill: none; stroke: #000000; stroke-width: 0.8; stroke-linejoin: miter; stroke-linecap: square"/>
   </g>
   <g id="patch_6">
    <path d="M 57.6 41.472 
L 414.72 41.472 
" style="fill: none; stroke: #000000; stroke-width: 0.8; stroke-linejoin: miter; stroke-linecap: square"/>
   </g>
   <g id="legend_1">
    <g id="patch_7">
     <path d="M 351.768438 78.82825 
L 407.72 78.82825 
Q 409.72 78.82825 409.72 76.82825 
L 409.72 48.472 
Q 409.72 46.472 407.72 46.472 
L 351.768438 46.472 
Q 349.768438 46.472 349.768438 48.472 
L 349.768438 76.82825 
Q 349.768438 78.82825 351.768438 78.82825 
z
" style="fill: #ffffff; opacity: 0.8; stroke: #cccccc; stroke-linejoin: miter"/>
    </g>
    <g id="line2d_16">
     <path d="M 353.768438 54.570437 
L 363.768438 54.570437 
L 373.768438 54.570437 
" style="fill: none; stroke: #1f77b4; stroke-width: 1.5; stroke-linecap: square"/>
    </g>
    <g id="text_14">
     <!-- train -->
     <g transform="translate(381.768438 58.070437) scale(0.1 -0.1)">
      <defs>
       <path id="DejaVuSans-74" d="M 1172 4494 
L 1172 3500 
L 2356 3500 
L 2356 3053 
L 1172 3053 
L 1172 1153 
Q 1172 725 1289 603 
Q 1406 481 1766 481 
L 2356 481 
L 2356 0 
L 1766 0 
Q 1100 0 847 248 
Q 594 497 594 1153 
L 594 3053 
L 172 3053 
L 172 3500 
L 594 3500 
L 594 4494 
L 1172 4494 
z
" transform="scale(0.015625)"/>
       <path id="DejaVuSans-72" d="M 2631 2963 
Q 2534 3019 2420 3045 
Q 2306 3072 2169 3072 
Q 1681 3072 1420 2755 
Q 1159 2438 1159 1844 
L 1159 0 
L 581 0 
L 581 3500 
L 1159 3500 
L 1159 2956 
Q 1341 3275 1631 3429 
Q 1922 3584 2338 3584 
Q 2397 3584 2469 3576 
Q 2541 3569 2628 3553 
L 2631 2963 
z
" transform="scale(0.015625)"/>
       <path id="DejaVuSans-61" d="M 2194 1759 
Q 1497 1759 1228 1600 
Q 959 1441 959 1056 
Q 959 750 1161 570 
Q 1363 391 1709 391 
Q 2188 391 2477 730 
Q 2766 1069 2766 1631 
L 2766 1759 
L 2194 1759 
z
M 3341 1997 
L 3341 0 
L 2766 0 
L 2766 531 
Q 2569 213 2275 61 
Q 1981 -91 1556 -91 
Q 1019 -91 701 211 
Q 384 513 384 1019 
Q 384 1609 779 1909 
Q 1175 2209 1959 2209 
L 2766 2209 
L 2766 2266 
Q 2766 2663 2505 2880 
Q 2244 3097 1772 3097 
Q 1472 3097 1187 3025 
Q 903 2953 641 2809 
L 641 3341 
Q 956 3463 1253 3523 
Q 1550 3584 1831 3584 
Q 2591 3584 2966 3190 
Q 3341 2797 3341 1997 
z
" transform="scale(0.015625)"/>
       <path id="DejaVuSans-69" d="M 603 3500 
L 1178 3500 
L 1178 0 
L 603 0 
L 603 3500 
z
M 603 4863 
L 1178 4863 
L 1178 4134 
L 603 4134 
L 603 4863 
z
" transform="scale(0.015625)"/>
       <path id="DejaVuSans-6e" d="M 3513 2113 
L 3513 0 
L 2938 0 
L 2938 2094 
Q 2938 2591 2744 2837 
Q 2550 3084 2163 3084 
Q 1697 3084 1428 2787 
Q 1159 2491 1159 1978 
L 1159 0 
L 581 0 
L 581 3500 
L 1159 3500 
L 1159 2956 
Q 1366 3272 1645 3428 
Q 1925 3584 2291 3584 
Q 2894 3584 3203 3211 
Q 3513 2838 3513 2113 
z
" transform="scale(0.015625)"/>
      </defs>
      <use xlink:href="#DejaVuSans-74"/>
      <use xlink:href="#DejaVuSans-72" x="39.208984"/>
      <use xlink:href="#DejaVuSans-61" x="80.322266"/>
      <use xlink:href="#DejaVuSans-69" x="141.601562"/>
      <use xlink:href="#DejaVuSans-6e" x="169.384766"/>
     </g>
    </g>
    <g id="line2d_17">
     <path d="M 353.768438 69.248562 
L 363.768438 69.248562 
L 373.768438 69.248562 
" style="fill: none; stroke: #ff7f0e; stroke-opacity: 0.5; stroke-width: 1.5; stroke-linecap: square"/>
    </g>
    <g id="text_15">
     <!-- valid -->
     <g transform="translate(381.768438 72.748562) scale(0.1 -0.1)">
      <defs>
       <path id="DejaVuSans-76" d="M 191 3500 
L 800 3500 
L 1894 563 
L 2988 3500 
L 3597 3500 
L 2284 0 
L 1503 0 
L 191 3500 
z
" transform="scale(0.015625)"/>
       <path id="DejaVuSans-6c" d="M 603 4863 
L 1178 4863 
L 1178 0 
L 603 0 
L 603 4863 
z
" transform="scale(0.015625)"/>
       <path id="DejaVuSans-64" d="M 2906 2969 
L 2906 4863 
L 3481 4863 
L 3481 0 
L 2906 0 
L 2906 525 
Q 2725 213 2448 61 
Q 2172 -91 1784 -91 
Q 1150 -91 751 415 
Q 353 922 353 1747 
Q 353 2572 751 3078 
Q 1150 3584 1784 3584 
Q 2172 3584 2448 3432 
Q 2725 3281 2906 2969 
z
M 947 1747 
Q 947 1113 1208 752 
Q 1469 391 1925 391 
Q 2381 391 2643 752 
Q 2906 1113 2906 1747 
Q 2906 2381 2643 2742 
Q 2381 3103 1925 3103 
Q 1469 3103 1208 2742 
Q 947 2381 947 1747 
z
" transform="scale(0.015625)"/>
      </defs>
      <use xlink:href="#DejaVuSans-76"/>
      <use xlink:href="#DejaVuSans-61" x="59.179688"/>
      <use xlink:href="#DejaVuSans-6c" x="120.458984"/>
      <use xlink:href="#DejaVuSans-69" x="148.242188"/>
      <use xlink:href="#DejaVuSans-64" x="176.025391"/>
     </g>
    </g>
   </g>
  </g>
 </g>
 <defs>
  <clipPath id="pbcfb3c578d">
   <rect x="57.6" y="41.472" width="357.12" height="266.112"/>
  </clipPath>
 </defs>
</svg>
