<?xml version="1.0" encoding="utf-8" standalone="no"?>
<!DOCTYPE svg PUBLIC "-//W3C//DTD SVG 1.1//EN"
  "http://www.w3.org/Graphics/SVG/1.1/DTD/svg11.dtd">
<svg xmlns:xlink="http://www.w3.org/1999/xlink" width="460.8pt" height="345.6pt" viewBox="0 0 460.8 345.6" xmlns="http://www.w3.org/2000/svg" version="1.1">
 <metadata>
  <rdf:RDF xmlns:dc="http://purl.org/dc/elements/1.1/" xmlns:cc="http://creativecommons.org/ns#" xmlns:rdf="http://www.w3.org/1999/02/22-rdf-syntax-ns#">
   <cc:Work>
    <dc:type rdf:resource="http://purl.org/dc/dcmitype/StillImage"/>
    <dc:date>2023-12-08T02:33:45.621690</dc:date>
    <dc:format>image/svg+xml</dc:format>
    <dc:creator>
     <cc:Agent>
      <dc:title>Matplotlib v3.7.3, https://matplotlib.org/</dc:title>
     </cc:Agent>
    </dc:creator>
   </cc:Work>
  </rdf:RDF>
 </metadata>
 <defs>
  <style type="text/css">*{stroke-linejoin: round; stroke-linecap: butt}</style>
 </defs>
 <g id="figure_1">
  <g id="patch_1">
   <path d="M 0 345.6 
L 460.8 345.6 
L 460.8 0 
L 0 0 
z
" style="fill: #ffffff"/>
  </g>
  <g id="axes_1">
   <g id="patch_2">
    <path d="M 57.6 307.584 
L 414.72 307.584 
L 414.72 41.472 
L 57.6 41.472 
z
" style="fill: #ffffff"/>
   </g>
   <g id="matplotlib.axis_1">
    <g id="xtick_1">
     <g id="line2d_1">
      <defs>
       <path id="md29b21bd6d" d="M 0 0 
L 0 3.5 
" style="stroke: #000000; stroke-width: 0.8"/>
      </defs>
      <g>
       <use xlink:href="#md29b21bd6d" x="73.832727" y="307.584" style="stroke: #000000; stroke-width: 0.8"/>
      </g>
     </g>
     <g id="text_1">
      <!-- 0 -->
      <g transform="translate(70.651477 322.182437) scale(0.1 -0.1)">
       <defs>
        <path id="DejaVuSans-30" d="M 2034 4250 
Q 1547 4250 1301 3770 
Q 1056 3291 1056 2328 
Q 1056 1369 1301 889 
Q 1547 409 2034 409 
Q 2525 409 2770 889 
Q 3016 1369 3016 2328 
Q 3016 3291 2770 3770 
Q 2525 4250 2034 4250 
z
M 2034 4750 
Q 2819 4750 3233 4129 
Q 3647 3509 3647 2328 
Q 3647 1150 3233 529 
Q 2819 -91 2034 -91 
Q 1250 -91 836 529 
Q 422 1150 422 2328 
Q 422 3509 836 4129 
Q 1250 4750 2034 4750 
z
" transform="scale(0.015625)"/>
       </defs>
       <use xlink:href="#DejaVuSans-30"/>
      </g>
     </g>
    </g>
    <g id="xtick_2">
     <g id="line2d_2">
      <g>
       <use xlink:href="#md29b21bd6d" x="128.122785" y="307.584" style="stroke: #000000; stroke-width: 0.8"/>
      </g>
     </g>
     <g id="text_2">
      <!-- 50 -->
      <g transform="translate(121.760285 322.182437) scale(0.1 -0.1)">
       <defs>
        <path id="DejaVuSans-35" d="M 691 4666 
L 3169 4666 
L 3169 4134 
L 1269 4134 
L 1269 2991 
Q 1406 3038 1543 3061 
Q 1681 3084 1819 3084 
Q 2600 3084 3056 2656 
Q 3513 2228 3513 1497 
Q 3513 744 3044 326 
Q 2575 -91 1722 -91 
Q 1428 -91 1123 -41 
Q 819 9 494 109 
L 494 744 
Q 775 591 1075 516 
Q 1375 441 1709 441 
Q 2250 441 2565 725 
Q 2881 1009 2881 1497 
Q 2881 1984 2565 2268 
Q 2250 2553 1709 2553 
Q 1456 2553 1204 2497 
Q 953 2441 691 2322 
L 691 4666 
z
" transform="scale(0.015625)"/>
       </defs>
       <use xlink:href="#DejaVuSans-35"/>
       <use xlink:href="#DejaVuSans-30" x="63.623047"/>
      </g>
     </g>
    </g>
    <g id="xtick_3">
     <g id="line2d_3">
      <g>
       <use xlink:href="#md29b21bd6d" x="182.412843" y="307.584" style="stroke: #000000; stroke-width: 0.8"/>
      </g>
     </g>
     <g id="text_3">
      <!-- 100 -->
      <g transform="translate(172.869093 322.182437) scale(0.1 -0.1)">
       <defs>
        <path id="DejaVuSans-31" d="M 794 531 
L 1825 531 
L 1825 4091 
L 703 3866 
L 703 4441 
L 1819 4666 
L 2450 4666 
L 2450 531 
L 3481 531 
L 3481 0 
L 794 0 
L 794 531 
z
" transform="scale(0.015625)"/>
       </defs>
       <use xlink:href="#DejaVuSans-31"/>
       <use xlink:href="#DejaVuSans-30" x="63.623047"/>
       <use xlink:href="#DejaVuSans-30" x="127.246094"/>
      </g>
     </g>
    </g>
    <g id="xtick_4">
     <g id="line2d_4">
      <g>
       <use xlink:href="#md29b21bd6d" x="236.702901" y="307.584" style="stroke: #000000; stroke-width: 0.8"/>
      </g>
     </g>
     <g id="text_4">
      <!-- 150 -->
      <g transform="translate(227.159151 322.182437) scale(0.1 -0.1)">
       <use xlink:href="#DejaVuSans-31"/>
       <use xlink:href="#DejaVuSans-35" x="63.623047"/>
       <use xlink:href="#DejaVuSans-30" x="127.246094"/>
      </g>
     </g>
    </g>
    <g id="xtick_5">
     <g id="line2d_5">
      <g>
       <use xlink:href="#md29b21bd6d" x="290.992958" y="307.584" style="stroke: #000000; stroke-width: 0.8"/>
      </g>
     </g>
     <g id="text_5">
      <!-- 200 -->
      <g transform="translate(281.449208 322.182437) scale(0.1 -0.1)">
       <defs>
        <path id="DejaVuSans-32" d="M 1228 531 
L 3431 531 
L 3431 0 
L 469 0 
L 469 531 
Q 828 903 1448 1529 
Q 2069 2156 2228 2338 
Q 2531 2678 2651 2914 
Q 2772 3150 2772 3378 
Q 2772 3750 2511 3984 
Q 2250 4219 1831 4219 
Q 1534 4219 1204 4116 
Q 875 4013 500 3803 
L 500 4441 
Q 881 4594 1212 4672 
Q 1544 4750 1819 4750 
Q 2544 4750 2975 4387 
Q 3406 4025 3406 3419 
Q 3406 3131 3298 2873 
Q 3191 2616 2906 2266 
Q 2828 2175 2409 1742 
Q 1991 1309 1228 531 
z
" transform="scale(0.015625)"/>
       </defs>
       <use xlink:href="#DejaVuSans-32"/>
       <use xlink:href="#DejaVuSans-30" x="63.623047"/>
       <use xlink:href="#DejaVuSans-30" x="127.246094"/>
      </g>
     </g>
    </g>
    <g id="xtick_6">
     <g id="line2d_6">
      <g>
       <use xlink:href="#md29b21bd6d" x="345.283016" y="307.584" style="stroke: #000000; stroke-width: 0.8"/>
      </g>
     </g>
     <g id="text_6">
      <!-- 250 -->
      <g transform="translate(335.739266 322.182437) scale(0.1 -0.1)">
       <use xlink:href="#DejaVuSans-32"/>
       <use xlink:href="#DejaVuSans-35" x="63.623047"/>
       <use xlink:href="#DejaVuSans-30" x="127.246094"/>
      </g>
     </g>
    </g>
    <g id="xtick_7">
     <g id="line2d_7">
      <g>
       <use xlink:href="#md29b21bd6d" x="399.573074" y="307.584" style="stroke: #000000; stroke-width: 0.8"/>
      </g>
     </g>
     <g id="text_7">
      <!-- 300 -->
      <g transform="translate(390.029324 322.182437) scale(0.1 -0.1)">
       <defs>
        <path id="DejaVuSans-33" d="M 2597 2516 
Q 3050 2419 3304 2112 
Q 3559 1806 3559 1356 
Q 3559 666 3084 287 
Q 2609 -91 1734 -91 
Q 1441 -91 1130 -33 
Q 819 25 488 141 
L 488 750 
Q 750 597 1062 519 
Q 1375 441 1716 441 
Q 2309 441 2620 675 
Q 2931 909 2931 1356 
Q 2931 1769 2642 2001 
Q 2353 2234 1838 2234 
L 1294 2234 
L 1294 2753 
L 1863 2753 
Q 2328 2753 2575 2939 
Q 2822 3125 2822 3475 
Q 2822 3834 2567 4026 
Q 2313 4219 1838 4219 
Q 1578 4219 1281 4162 
Q 984 4106 628 3988 
L 628 4550 
Q 988 4650 1302 4700 
Q 1616 4750 1894 4750 
Q 2613 4750 3031 4423 
Q 3450 4097 3450 3541 
Q 3450 3153 3228 2886 
Q 3006 2619 2597 2516 
z
" transform="scale(0.015625)"/>
       </defs>
       <use xlink:href="#DejaVuSans-33"/>
       <use xlink:href="#DejaVuSans-30" x="63.623047"/>
       <use xlink:href="#DejaVuSans-30" x="127.246094"/>
      </g>
     </g>
    </g>
   </g>
   <g id="matplotlib.axis_2">
    <g id="ytick_1">
     <g id="line2d_8">
      <defs>
       <path id="m48d2331a30" d="M 0 0 
L -3.5 0 
" style="stroke: #000000; stroke-width: 0.8"/>
      </defs>
      <g>
       <use xlink:href="#m48d2331a30" x="57.6" y="295.501083" style="stroke: #000000; stroke-width: 0.8"/>
      </g>
     </g>
     <g id="text_8">
      <!-- 0 -->
      <g transform="translate(44.2375 299.300302) scale(0.1 -0.1)">
       <use xlink:href="#DejaVuSans-30"/>
      </g>
     </g>
    </g>
    <g id="ytick_2">
     <g id="line2d_9">
      <g>
       <use xlink:href="#m48d2331a30" x="57.6" y="257.89204" style="stroke: #000000; stroke-width: 0.8"/>
      </g>
     </g>
     <g id="text_9">
      <!-- 2000 -->
      <g transform="translate(25.15 261.691258) scale(0.1 -0.1)">
       <use xlink:href="#DejaVuSans-32"/>
       <use xlink:href="#DejaVuSans-30" x="63.623047"/>
       <use xlink:href="#DejaVuSans-30" x="127.246094"/>
       <use xlink:href="#DejaVuSans-30" x="190.869141"/>
      </g>
     </g>
    </g>
    <g id="ytick_3">
     <g id="line2d_10">
      <g>
       <use xlink:href="#m48d2331a30" x="57.6" y="220.282996" style="stroke: #000000; stroke-width: 0.8"/>
      </g>
     </g>
     <g id="text_10">
      <!-- 4000 -->
      <g transform="translate(25.15 224.082215) scale(0.1 -0.1)">
       <defs>
        <path id="DejaVuSans-34" d="M 2419 4116 
L 825 1625 
L 2419 1625 
L 2419 4116 
z
M 2253 4666 
L 3047 4666 
L 3047 1625 
L 3713 1625 
L 3713 1100 
L 3047 1100 
L 3047 0 
L 2419 0 
L 2419 1100 
L 313 1100 
L 313 1709 
L 2253 4666 
z
" transform="scale(0.015625)"/>
       </defs>
       <use xlink:href="#DejaVuSans-34"/>
       <use xlink:href="#DejaVuSans-30" x="63.623047"/>
       <use xlink:href="#DejaVuSans-30" x="127.246094"/>
       <use xlink:href="#DejaVuSans-30" x="190.869141"/>
      </g>
     </g>
    </g>
    <g id="ytick_4">
     <g id="line2d_11">
      <g>
       <use xlink:href="#m48d2331a30" x="57.6" y="182.673952" style="stroke: #000000; stroke-width: 0.8"/>
      </g>
     </g>
     <g id="text_11">
      <!-- 6000 -->
      <g transform="translate(25.15 186.473171) scale(0.1 -0.1)">
       <defs>
        <path id="DejaVuSans-36" d="M 2113 2584 
Q 1688 2584 1439 2293 
Q 1191 2003 1191 1497 
Q 1191 994 1439 701 
Q 1688 409 2113 409 
Q 2538 409 2786 701 
Q 3034 994 3034 1497 
Q 3034 2003 2786 2293 
Q 2538 2584 2113 2584 
z
M 3366 4563 
L 3366 3988 
Q 3128 4100 2886 4159 
Q 2644 4219 2406 4219 
Q 1781 4219 1451 3797 
Q 1122 3375 1075 2522 
Q 1259 2794 1537 2939 
Q 1816 3084 2150 3084 
Q 2853 3084 3261 2657 
Q 3669 2231 3669 1497 
Q 3669 778 3244 343 
Q 2819 -91 2113 -91 
Q 1303 -91 875 529 
Q 447 1150 447 2328 
Q 447 3434 972 4092 
Q 1497 4750 2381 4750 
Q 2619 4750 2861 4703 
Q 3103 4656 3366 4563 
z
" transform="scale(0.015625)"/>
       </defs>
       <use xlink:href="#DejaVuSans-36"/>
       <use xlink:href="#DejaVuSans-30" x="63.623047"/>
       <use xlink:href="#DejaVuSans-30" x="127.246094"/>
       <use xlink:href="#DejaVuSans-30" x="190.869141"/>
      </g>
     </g>
    </g>
    <g id="ytick_5">
     <g id="line2d_12">
      <g>
       <use xlink:href="#m48d2331a30" x="57.6" y="145.064908" style="stroke: #000000; stroke-width: 0.8"/>
      </g>
     </g>
     <g id="text_12">
      <!-- 8000 -->
      <g transform="translate(25.15 148.864127) scale(0.1 -0.1)">
       <defs>
        <path id="DejaVuSans-38" d="M 2034 2216 
Q 1584 2216 1326 1975 
Q 1069 1734 1069 1313 
Q 1069 891 1326 650 
Q 1584 409 2034 409 
Q 2484 409 2743 651 
Q 3003 894 3003 1313 
Q 3003 1734 2745 1975 
Q 2488 2216 2034 2216 
z
M 1403 2484 
Q 997 2584 770 2862 
Q 544 3141 544 3541 
Q 544 4100 942 4425 
Q 1341 4750 2034 4750 
Q 2731 4750 3128 4425 
Q 3525 4100 3525 3541 
Q 3525 3141 3298 2862 
Q 3072 2584 2669 2484 
Q 3125 2378 3379 2068 
Q 3634 1759 3634 1313 
Q 3634 634 3220 271 
Q 2806 -91 2034 -91 
Q 1263 -91 848 271 
Q 434 634 434 1313 
Q 434 1759 690 2068 
Q 947 2378 1403 2484 
z
M 1172 3481 
Q 1172 3119 1398 2916 
Q 1625 2713 2034 2713 
Q 2441 2713 2670 2916 
Q 2900 3119 2900 3481 
Q 2900 3844 2670 4047 
Q 2441 4250 2034 4250 
Q 1625 4250 1398 4047 
Q 1172 3844 1172 3481 
z
" transform="scale(0.015625)"/>
       </defs>
       <use xlink:href="#DejaVuSans-38"/>
       <use xlink:href="#DejaVuSans-30" x="63.623047"/>
       <use xlink:href="#DejaVuSans-30" x="127.246094"/>
       <use xlink:href="#DejaVuSans-30" x="190.869141"/>
      </g>
     </g>
    </g>
    <g id="ytick_6">
     <g id="line2d_13">
      <g>
       <use xlink:href="#m48d2331a30" x="57.6" y="107.455865" style="stroke: #000000; stroke-width: 0.8"/>
      </g>
     </g>
     <g id="text_13">
      <!-- 10000 -->
      <g transform="translate(18.7875 111.255084) scale(0.1 -0.1)">
       <use xlink:href="#DejaVuSans-31"/>
       <use xlink:href="#DejaVuSans-30" x="63.623047"/>
       <use xlink:href="#DejaVuSans-30" x="127.246094"/>
       <use xlink:href="#DejaVuSans-30" x="190.869141"/>
       <use xlink:href="#DejaVuSans-30" x="254.492188"/>
      </g>
     </g>
    </g>
    <g id="ytick_7">
     <g id="line2d_14">
      <g>
       <use xlink:href="#m48d2331a30" x="57.6" y="69.846821" style="stroke: #000000; stroke-width: 0.8"/>
      </g>
     </g>
     <g id="text_14">
      <!-- 12000 -->
      <g transform="translate(18.7875 73.64604) scale(0.1 -0.1)">
       <use xlink:href="#DejaVuSans-31"/>
       <use xlink:href="#DejaVuSans-32" x="63.623047"/>
       <use xlink:href="#DejaVuSans-30" x="127.246094"/>
       <use xlink:href="#DejaVuSans-30" x="190.869141"/>
       <use xlink:href="#DejaVuSans-30" x="254.492188"/>
      </g>
     </g>
    </g>
   </g>
   <g id="line2d_15">
    <path d="M 73.832727 113.77488 
L 74.918528 250.301502 
L 76.00433 257.931303 
L 77.090131 258.58578 
L 78.175932 261.347063 
L 79.261733 261.558285 
L 80.347534 266.078467 
L 81.433335 268.159095 
L 82.519137 269.803321 
L 83.604938 271.748475 
L 84.690739 273.211591 
L 85.77654 272.124347 
L 86.862341 273.31397 
L 87.948142 266.226937 
L 89.033943 253.261028 
L 90.119745 237.46445 
L 91.205546 213.825223 
L 92.291347 176.606288 
L 93.377148 186.178619 
L 94.462949 205.162176 
L 95.54875 254.832539 
L 96.634552 270.457637 
L 97.720353 274.600668 
L 98.806154 276.951812 
L 99.891955 278.65667 
L 100.977756 279.297403 
L 102.063557 278.351382 
L 103.149358 278.936868 
L 104.23516 279.803808 
L 105.320961 273.37935 
L 106.406762 276.724178 
L 107.492563 273.79164 
L 108.578364 268.877903 
L 110.749967 246.703754 
L 111.835768 226.620767 
L 112.921569 222.860752 
L 114.00737 236.529999 
L 115.093171 261.292716 
L 116.178972 252.664818 
L 117.264773 269.184358 
L 118.350575 276.712942 
L 119.436376 277.806991 
L 120.522177 279.309059 
L 121.607978 280.407798 
L 122.693779 281.053054 
L 123.77958 281.864631 
L 124.865382 278.124727 
L 125.951183 279.661747 
L 127.036984 278.073151 
L 128.122785 278.295709 
L 129.208586 274.4874 
L 130.294387 269.654595 
L 131.380189 252.395658 
L 132.46599 255.614581 
L 133.551791 249.183483 
L 134.637592 264.727095 
L 135.723393 270.654422 
L 136.809194 277.254659 
L 137.894995 280.270387 
L 138.980797 281.984654 
L 140.066598 281.677395 
L 141.152399 282.538179 
L 142.2382 281.981653 
L 143.324001 282.802342 
L 145.495604 279.796006 
L 146.581405 277.650409 
L 147.667206 276.236601 
L 148.753007 268.854111 
L 149.838808 266.567884 
L 150.924609 265.633596 
L 152.01041 271.254343 
L 154.182013 280.830337 
L 155.267814 281.617948 
L 156.353615 282.615869 
L 157.439416 280.180421 
L 158.525217 281.879471 
L 159.611019 277.507332 
L 160.69682 276.118551 
L 161.782621 270.934179 
L 162.868422 269.437076 
L 163.954223 266.58264 
L 165.040024 274.353556 
L 166.125825 281.070924 
L 167.211627 275.76557 
L 168.297428 274.802775 
L 169.383229 274.997328 
L 170.46903 279.192388 
L 171.554831 282.928353 
L 172.640632 281.395707 
L 173.726434 279.156704 
L 174.812235 280.656089 
L 175.898036 279.271492 
L 176.983837 274.578144 
L 178.069638 273.892936 
L 179.155439 269.702919 
L 180.24124 276.891147 
L 181.327042 278.707393 
L 182.412843 282.958158 
L 183.498644 282.492778 
L 184.584445 282.936658 
L 185.670246 281.892349 
L 186.756047 283.365435 
L 187.841849 283.689905 
L 188.92765 282.607855 
L 190.013451 282.557025 
L 191.099252 280.279806 
L 192.185053 276.396171 
L 193.270854 273.425377 
L 194.356656 271.17562 
L 195.442457 267.662846 
L 196.528258 270.432529 
L 197.614059 279.010897 
L 198.69986 281.03069 
L 199.785661 282.808656 
L 200.871462 283.139603 
L 201.957264 282.518005 
L 204.128866 280.503069 
L 205.214667 277.317525 
L 206.300468 277.878055 
L 207.386269 283.472995 
L 208.472071 285.836416 
L 209.557872 286.756319 
L 210.643673 286.855058 
L 211.729474 287.128434 
L 212.815275 287.783878 
L 213.901076 288.940852 
L 214.986877 288.537741 
L 216.072679 289.771353 
L 217.15848 288.610773 
L 218.244281 289.613835 
L 219.330082 289.087368 
L 220.415883 288.887354 
L 221.501684 287.247795 
L 222.587486 288.777971 
L 223.673287 288.559752 
L 224.759088 286.926512 
L 225.844889 287.51828 
L 226.93069 286.50966 
L 228.016491 288.976458 
L 229.102292 290.847602 
L 230.188094 290.742117 
L 231.273895 290.847118 
L 232.359696 289.990449 
L 233.445497 286.742838 
L 235.617099 288.018014 
L 236.702901 289.354809 
L 237.788702 289.509263 
L 238.874503 289.83028 
L 239.960304 290.536189 
L 242.131906 291.116527 
L 243.217708 290.644203 
L 244.303509 290.902413 
L 245.38931 289.738596 
L 246.475111 285.55952 
L 248.646713 291.231128 
L 249.732514 290.992983 
L 250.818316 291.401811 
L 251.904117 291.525541 
L 252.989918 290.912266 
L 255.16152 290.449945 
L 256.247321 289.835652 
L 257.333123 290.106519 
L 258.418924 288.824096 
L 259.504725 287.846781 
L 260.590526 284.774617 
L 261.676327 290.647142 
L 263.847929 292.181461 
L 264.933731 291.959627 
L 266.019532 292.099023 
L 267.105333 291.520735 
L 268.191134 290.200825 
L 269.276935 290.336922 
L 270.362736 289.869755 
L 271.448538 288.642598 
L 272.534339 291.764158 
L 273.62014 291.344784 
L 274.705941 291.253017 
L 275.791742 291.674875 
L 276.877543 290.909327 
L 277.963344 290.904787 
L 279.049146 290.728835 
L 280.134947 291.132034 
L 281.220748 288.094088 
L 282.306549 286.42748 
L 283.39235 288.955062 
L 284.478151 289.086987 
L 285.563953 292.183151 
L 286.649754 291.727435 
L 287.735555 292.563025 
L 288.821356 292.46583 
L 289.907157 292.637855 
L 290.992958 290.841948 
L 292.07876 291.486116 
L 293.164561 291.232453 
L 294.250362 291.108166 
L 295.336163 289.157623 
L 296.421964 290.738804 
L 297.507765 290.79685 
L 298.593566 291.393137 
L 300.765169 291.31932 
L 301.85097 292.017039 
L 304.022572 290.922412 
L 305.108373 284.967647 
L 306.194175 289.808232 
L 308.365777 292.367019 
L 309.451578 292.282323 
L 310.537379 292.350932 
L 311.62318 292.617581 
L 312.708981 291.671641 
L 313.794783 291.083083 
L 314.880584 291.334554 
L 315.966385 291.313805 
L 317.052186 289.000286 
L 318.137987 292.271831 
L 320.30959 292.397093 
L 321.395391 292.163894 
L 322.481192 292.81244 
L 323.566993 292.365743 
L 324.652794 290.587843 
L 325.738595 290.714011 
L 326.824396 286.488571 
L 327.910198 290.265887 
L 328.995999 291.729807 
L 330.0818 292.638503 
L 332.253402 292.860619 
L 333.339203 291.848274 
L 334.425005 292.447197 
L 335.510806 291.854919 
L 336.596607 289.391973 
L 337.682408 290.662192 
L 338.768209 290.637222 
L 339.85401 289.71697 
L 340.939811 290.975097 
L 342.025613 293.000242 
L 343.111414 292.969244 
L 344.197215 292.420591 
L 345.283016 293.126025 
L 346.368817 292.90936 
L 347.454618 293.066652 
L 348.54042 292.681808 
L 350.712022 292.612169 
L 351.797823 292.665236 
L 352.883624 292.00691 
L 353.969425 292.014083 
L 355.055227 291.120728 
L 356.141028 288.909694 
L 357.226829 290.758961 
L 358.31263 290.037982 
L 359.398431 292.309498 
L 360.484232 292.133477 
L 361.570033 293.042667 
L 362.655835 292.391854 
L 363.741636 292.929612 
L 364.827437 292.014685 
L 365.913238 293.183481 
L 366.999039 292.868321 
L 368.08484 292.870354 
L 369.170642 292.593355 
L 370.256443 291.783809 
L 371.342244 290.251078 
L 372.428045 290.940231 
L 373.513846 290.232305 
L 374.599647 289.674726 
L 375.685448 288.466849 
L 376.77125 293.162328 
L 377.857051 292.045617 
L 378.942852 292.481614 
L 380.028653 293.061688 
L 381.114454 293.169631 
L 382.200255 292.701259 
L 383.286057 291.603418 
L 384.371858 291.920781 
L 385.457659 291.543116 
L 386.54346 291.883961 
L 387.629261 292.405109 
L 388.715062 292.09001 
L 389.800863 292.545819 
L 390.886665 292.548169 
L 391.972466 291.948858 
L 393.058267 292.108986 
L 394.144068 291.76298 
L 395.229869 292.011026 
L 396.31567 293.325547 
L 397.401472 292.927168 
L 398.487273 292.856305 
L 398.487273 292.856305 
" clip-path="url(#peaed9073fa)" style="fill: none; stroke: #1f77b4; stroke-width: 1.5; stroke-linecap: square"/>
   </g>
   <g id="line2d_16">
    <path d="M 73.832727 53.568 
L 74.918528 292.572645 
L 76.00433 266.004685 
L 77.090131 285.928553 
L 78.175932 274.698142 
L 79.261733 286.840048 
L 80.347534 276.589076 
L 81.433335 288.394321 
L 82.519137 280.182688 
L 83.604938 288.968221 
L 84.690739 277.863371 
L 85.77654 293.292417 
L 86.862341 268.052427 
L 87.948142 295.164233 
L 89.033943 237.80533 
L 90.119745 278.620675 
L 91.205546 159.807801 
L 92.291347 229.199007 
L 93.377148 109.441358 
L 94.462949 256.933385 
L 95.54875 219.322487 
L 96.634552 294.172179 
L 97.720353 269.456742 
L 98.806154 295.194407 
L 99.891955 277.670056 
L 100.977756 294.448663 
L 102.063557 279.70963 
L 103.149358 294.713203 
L 104.23516 278.607526 
L 105.320961 295.189229 
L 106.406762 274.247029 
L 107.492563 295.140458 
L 108.578364 253.926627 
L 109.664165 286.911314 
L 110.749967 213.352832 
L 111.835768 263.088685 
L 112.921569 175.90437 
L 114.00737 266.759306 
L 115.093171 235.214521 
L 116.178972 283.733336 
L 117.264773 252.512766 
L 118.350575 295.395568 
L 119.436376 276.616071 
L 120.522177 295.314725 
L 121.607978 281.862367 
L 122.693779 294.573568 
L 123.77958 282.470544 
L 124.865382 295.066847 
L 125.951183 279.018029 
L 127.036984 295.4495 
L 128.122785 272.388659 
L 129.208586 294.448385 
L 130.294387 254.95084 
L 131.380189 285.350665 
L 132.46599 225.206925 
L 133.551791 280.981996 
L 134.637592 244.036142 
L 135.723393 293.992863 
L 136.809194 273.903971 
L 137.894995 295.380828 
L 138.980797 282.000934 
L 140.066598 294.569499 
L 141.152399 284.410844 
L 142.2382 294.338824 
L 143.324001 284.618568 
L 144.409802 295.052834 
L 145.495604 279.513765 
L 146.581405 295.280287 
L 147.667206 266.38095 
L 148.753007 291.919534 
L 149.838808 245.500525 
L 150.924609 288.58755 
L 152.01041 257.949805 
L 153.096212 295.452619 
L 154.182013 283.301942 
L 155.267814 294.363983 
L 156.353615 286.125377 
L 157.439416 294.818 
L 158.525217 281.685025 
L 159.611019 295.395243 
L 160.69682 272.779432 
L 161.782621 292.978723 
L 162.868422 252.692167 
L 163.954223 291.266569 
L 165.040024 263.679177 
L 166.125825 295.329512 
L 167.211627 295.023941 
L 168.297428 265.625399 
L 169.383229 294.379057 
L 170.46903 274.111752 
L 171.554831 294.4639 
L 172.640632 295.387592 
L 173.726434 279.668235 
L 174.812235 295.414524 
L 175.898036 274.707432 
L 176.983837 294.009214 
L 178.069638 262.578961 
L 179.155439 293.219918 
L 180.24124 268.075434 
L 181.327042 295.472404 
L 182.412843 284.902277 
L 183.498644 294.583833 
L 184.584445 288.129662 
L 185.670246 295.081215 
L 186.756047 285.370016 
L 187.841849 294.931268 
L 188.92765 284.957198 
L 190.013451 295.312056 
L 191.099252 280.031215 
L 192.185053 294.914723 
L 193.270854 270.668757 
L 194.356656 290.73954 
L 195.442457 254.897144 
L 196.528258 294.889402 
L 197.614059 280.001481 
L 198.69986 293.754756 
L 199.785661 284.022515 
L 200.871462 295.137717 
L 201.957264 281.782403 
L 203.043065 295.451384 
L 204.128866 275.846217 
L 205.214667 294.065564 
L 206.300468 258.627362 
L 207.386269 293.436016 
L 208.472071 289.225015 
L 209.557872 294.775199 
L 210.643673 286.906618 
L 211.729474 294.367864 
L 212.815275 291.686637 
L 213.901076 290.484673 
L 214.986877 293.442838 
L 216.072679 290.014502 
L 217.15848 294.914283 
L 218.244281 288.68462 
L 219.330082 295.013708 
L 220.415883 290.365055 
L 221.501684 295.242958 
L 222.587486 286.477655 
L 223.673287 291.83998 
L 224.759088 294.591919 
L 225.844889 295.33873 
L 226.93069 279.98691 
L 228.016491 293.525251 
L 229.102292 291.247308 
L 230.188094 292.48957 
L 231.273895 291.278317 
L 232.359696 294.635624 
L 233.445497 293.446915 
L 234.531298 295.441497 
L 235.617099 285.055278 
L 236.702901 289.714769 
L 237.788702 282.228268 
L 238.874503 292.971547 
L 239.960304 289.791941 
L 241.046105 292.332443 
L 242.131906 289.900051 
L 243.217708 294.214727 
L 244.303509 292.521322 
L 245.38931 295.475556 
L 246.475111 295.385928 
L 247.560912 292.237306 
L 248.646713 287.241624 
L 249.732514 292.732947 
L 250.818316 290.744914 
L 251.904117 293.054197 
L 252.989918 292.29468 
L 254.075719 294.577652 
L 255.16152 293.21611 
L 256.247321 295.33463 
L 257.333123 290.35668 
L 258.418924 295.406667 
L 259.504725 294.603922 
L 260.590526 286.737805 
L 261.676327 293.105498 
L 263.847929 290.732541 
L 264.933731 293.815542 
L 266.019532 291.111957 
L 267.105333 293.859364 
L 268.191134 293.223196 
L 269.276935 295.430569 
L 270.362736 290.835401 
L 271.448538 293.854627 
L 272.534339 290.147601 
L 273.62014 293.312318 
L 274.705941 290.023566 
L 275.791742 292.766881 
L 276.877543 289.384467 
L 277.963344 292.515794 
L 279.049146 290.681558 
L 280.134947 294.606347 
L 281.220748 295.212901 
L 282.306549 292.838012 
L 283.39235 291.817472 
L 284.478151 291.209653 
L 285.563953 291.499986 
L 286.649754 294.051333 
L 287.735555 290.566624 
L 288.821356 292.908225 
L 289.907157 292.334484 
L 290.992958 294.583946 
L 292.07876 293.178994 
L 293.164561 295.238309 
L 294.250362 291.963235 
L 295.336163 294.231064 
L 296.421964 288.368542 
L 297.507765 294.189381 
L 298.593566 290.404622 
L 299.679368 292.963261 
L 300.765169 290.178413 
L 301.85097 293.85369 
L 302.936771 292.028314 
L 304.022572 295.312515 
L 305.108373 295.239052 
L 306.194175 293.431763 
L 307.279976 288.604529 
L 308.365777 294.206371 
L 309.451578 292.166174 
L 310.537379 294.047574 
L 311.62318 292.063879 
L 312.708981 295.269995 
L 313.794783 291.260882 
L 314.880584 295.104571 
L 315.966385 293.366637 
L 317.052186 295.139866 
L 318.137987 293.299299 
L 319.223788 294.814046 
L 320.30959 290.522645 
L 321.395391 293.775369 
L 322.481192 291.474185 
L 323.566993 294.812183 
L 324.652794 292.170982 
L 325.738595 295.328484 
L 326.824396 295.411007 
L 327.910198 294.378037 
L 328.995999 288.35789 
L 330.0818 293.887517 
L 331.167601 292.726566 
L 332.253402 294.683291 
L 333.339203 292.68858 
L 334.425005 295.232469 
L 335.510806 292.179706 
L 336.596607 295.449987 
L 337.682408 291.260901 
L 338.768209 295.446429 
L 339.85401 293.490687 
L 340.939811 294.246922 
L 342.025613 291.891341 
L 343.111414 293.883754 
L 344.197215 292.968873 
L 345.283016 294.480943 
L 346.368817 293.77468 
L 347.454618 295.12237 
L 348.54042 294.54109 
L 349.626221 295.140223 
L 350.712022 290.192508 
L 351.797823 294.949183 
L 352.883624 291.650776 
L 353.969425 295.421469 
L 355.055227 290.66901 
L 356.141028 295.47167 
L 357.226829 290.886866 
L 358.31263 295.391229 
L 359.398431 292.140034 
L 360.484232 294.673556 
L 361.570033 292.480357 
L 362.655835 294.272003 
L 363.741636 293.800159 
L 364.827437 295.290589 
L 365.913238 294.05948 
L 366.999039 294.810703 
L 368.08484 292.033725 
L 369.170642 295.004265 
L 370.256443 290.575587 
L 371.342244 295.139684 
L 372.428045 292.54209 
L 373.513846 295.362072 
L 374.599647 294.615247 
L 375.685448 290.663261 
L 376.77125 291.906051 
L 377.857051 294.748139 
L 378.942852 292.839887 
L 380.028653 294.501493 
L 381.114454 293.755324 
L 382.200255 295.376136 
L 383.286057 294.197585 
L 384.371858 295.322352 
L 385.457659 288.325445 
L 386.54346 294.536171 
L 387.629261 290.12615 
L 388.715062 294.717822 
L 389.800863 291.746534 
L 390.886665 295.23322 
L 391.972466 294.249423 
L 393.058267 295.488 
L 394.144068 289.638912 
L 395.229869 292.841007 
L 396.31567 290.646004 
L 397.401472 294.96532 
L 398.487273 293.497944 
L 398.487273 293.497944 
" clip-path="url(#peaed9073fa)" style="fill: none; stroke: #ff7f0e; stroke-opacity: 0.5; stroke-width: 1.5; stroke-linecap: square"/>
   </g>
   <g id="patch_3">
    <path d="M 57.6 307.584 
L 57.6 41.472 
" style="fill: none; stroke: #000000; stroke-width: 0.8; stroke-linejoin: miter; stroke-linecap: square"/>
   </g>
   <g id="patch_4">
    <path d="M 414.72 307.584 
L 414.72 41.472 
" style="fill: none; stroke: #000000; stroke-width: 0.8; stroke-linejoin: miter; stroke-linecap: square"/>
   </g>
   <g id="patch_5">
    <path d="M 57.6 307.584 
L 414.72 307.584 
" style="fill: none; stroke: #000000; stroke-width: 0.8; stroke-linejoin: miter; stroke-linecap: square"/>
   </g>
   <g id="patch_6">
    <path d="M 57.6 41.472 
L 414.72 41.472 
" style="fill: none; stroke: #000000; stroke-width: 0.8; stroke-linejoin: miter; stroke-linecap: square"/>
   </g>
   <g id="legend_1">
    <g id="patch_7">
     <path d="M 351.768438 78.82825 
L 407.72 78.82825 
Q 409.72 78.82825 409.72 76.82825 
L 409.72 48.472 
Q 409.72 46.472 407.72 46.472 
L 351.768438 46.472 
Q 349.768438 46.472 349.768438 48.472 
L 349.768438 76.82825 
Q 349.768438 78.82825 351.768438 78.82825 
z
" style="fill: #ffffff; opacity: 0.8; stroke: #cccccc; stroke-linejoin: miter"/>
    </g>
    <g id="line2d_17">
     <path d="M 353.768438 54.570437 
L 363.768438 54.570437 
L 373.768438 54.570437 
" style="fill: none; stroke: #1f77b4; stroke-width: 1.5; stroke-linecap: square"/>
    </g>
    <g id="text_15">
     <!-- train -->
     <g transform="translate(381.768438 58.070437) scale(0.1 -0.1)">
      <defs>
       <path id="DejaVuSans-74" d="M 1172 4494 
L 1172 3500 
L 2356 3500 
L 2356 3053 
L 1172 3053 
L 1172 1153 
Q 1172 725 1289 603 
Q 1406 481 1766 481 
L 2356 481 
L 2356 0 
L 1766 0 
Q 1100 0 847 248 
Q 594 497 594 1153 
L 594 3053 
L 172 3053 
L 172 3500 
L 594 3500 
L 594 4494 
L 1172 4494 
z
" transform="scale(0.015625)"/>
       <path id="DejaVuSans-72" d="M 2631 2963 
Q 2534 3019 2420 3045 
Q 2306 3072 2169 3072 
Q 1681 3072 1420 2755 
Q 1159 2438 1159 1844 
L 1159 0 
L 581 0 
L 581 3500 
L 1159 3500 
L 1159 2956 
Q 1341 3275 1631 3429 
Q 1922 3584 2338 3584 
Q 2397 3584 2469 3576 
Q 2541 3569 2628 3553 
L 2631 2963 
z
" transform="scale(0.015625)"/>
       <path id="DejaVuSans-61" d="M 2194 1759 
Q 1497 1759 1228 1600 
Q 959 1441 959 1056 
Q 959 750 1161 570 
Q 1363 391 1709 391 
Q 2188 391 2477 730 
Q 2766 1069 2766 1631 
L 2766 1759 
L 2194 1759 
z
M 3341 1997 
L 3341 0 
L 2766 0 
L 2766 531 
Q 2569 213 2275 61 
Q 1981 -91 1556 -91 
Q 1019 -91 701 211 
Q 384 513 384 1019 
Q 384 1609 779 1909 
Q 1175 2209 1959 2209 
L 2766 2209 
L 2766 2266 
Q 2766 2663 2505 2880 
Q 2244 3097 1772 3097 
Q 1472 3097 1187 3025 
Q 903 2953 641 2809 
L 641 3341 
Q 956 3463 1253 3523 
Q 1550 3584 1831 3584 
Q 2591 3584 2966 3190 
Q 3341 2797 3341 1997 
z
" transform="scale(0.015625)"/>
       <path id="DejaVuSans-69" d="M 603 3500 
L 1178 3500 
L 1178 0 
L 603 0 
L 603 3500 
z
M 603 4863 
L 1178 4863 
L 1178 4134 
L 603 4134 
L 603 4863 
z
" transform="scale(0.015625)"/>
       <path id="DejaVuSans-6e" d="M 3513 2113 
L 3513 0 
L 2938 0 
L 2938 2094 
Q 2938 2591 2744 2837 
Q 2550 3084 2163 3084 
Q 1697 3084 1428 2787 
Q 1159 2491 1159 1978 
L 1159 0 
L 581 0 
L 581 3500 
L 1159 3500 
L 1159 2956 
Q 1366 3272 1645 3428 
Q 1925 3584 2291 3584 
Q 2894 3584 3203 3211 
Q 3513 2838 3513 2113 
z
" transform="scale(0.015625)"/>
      </defs>
      <use xlink:href="#DejaVuSans-74"/>
      <use xlink:href="#DejaVuSans-72" x="39.208984"/>
      <use xlink:href="#DejaVuSans-61" x="80.322266"/>
      <use xlink:href="#DejaVuSans-69" x="141.601562"/>
      <use xlink:href="#DejaVuSans-6e" x="169.384766"/>
     </g>
    </g>
    <g id="line2d_18">
     <path d="M 353.768438 69.248562 
L 363.768438 69.248562 
L 373.768438 69.248562 
" style="fill: none; stroke: #ff7f0e; stroke-opacity: 0.5; stroke-width: 1.5; stroke-linecap: square"/>
    </g>
    <g id="text_16">
     <!-- valid -->
     <g transform="translate(381.768438 72.748562) scale(0.1 -0.1)">
      <defs>
       <path id="DejaVuSans-76" d="M 191 3500 
L 800 3500 
L 1894 563 
L 2988 3500 
L 3597 3500 
L 2284 0 
L 1503 0 
L 191 3500 
z
" transform="scale(0.015625)"/>
       <path id="DejaVuSans-6c" d="M 603 4863 
L 1178 4863 
L 1178 0 
L 603 0 
L 603 4863 
z
" transform="scale(0.015625)"/>
       <path id="DejaVuSans-64" d="M 2906 2969 
L 2906 4863 
L 3481 4863 
L 3481 0 
L 2906 0 
L 2906 525 
Q 2725 213 2448 61 
Q 2172 -91 1784 -91 
Q 1150 -91 751 415 
Q 353 922 353 1747 
Q 353 2572 751 3078 
Q 1150 3584 1784 3584 
Q 2172 3584 2448 3432 
Q 2725 3281 2906 2969 
z
M 947 1747 
Q 947 1113 1208 752 
Q 1469 391 1925 391 
Q 2381 391 2643 752 
Q 2906 1113 2906 1747 
Q 2906 2381 2643 2742 
Q 2381 3103 1925 3103 
Q 1469 3103 1208 2742 
Q 947 2381 947 1747 
z
" transform="scale(0.015625)"/>
      </defs>
      <use xlink:href="#DejaVuSans-76"/>
      <use xlink:href="#DejaVuSans-61" x="59.179688"/>
      <use xlink:href="#DejaVuSans-6c" x="120.458984"/>
      <use xlink:href="#DejaVuSans-69" x="148.242188"/>
      <use xlink:href="#DejaVuSans-64" x="176.025391"/>
     </g>
    </g>
   </g>
  </g>
 </g>
 <defs>
  <clipPath id="peaed9073fa">
   <rect x="57.6" y="41.472" width="357.12" height="266.112"/>
  </clipPath>
 </defs>
</svg>
