<?xml version="1.0" encoding="utf-8" standalone="no"?>
<!DOCTYPE svg PUBLIC "-//W3C//DTD SVG 1.1//EN"
  "http://www.w3.org/Graphics/SVG/1.1/DTD/svg11.dtd">
<svg xmlns:xlink="http://www.w3.org/1999/xlink" width="460.8pt" height="345.6pt" viewBox="0 0 460.8 345.6" xmlns="http://www.w3.org/2000/svg" version="1.1">
 <metadata>
  <rdf:RDF xmlns:dc="http://purl.org/dc/elements/1.1/" xmlns:cc="http://creativecommons.org/ns#" xmlns:rdf="http://www.w3.org/1999/02/22-rdf-syntax-ns#">
   <cc:Work>
    <dc:type rdf:resource="http://purl.org/dc/dcmitype/StillImage"/>
    <dc:date>2023-12-07T02:38:53.308548</dc:date>
    <dc:format>image/svg+xml</dc:format>
    <dc:creator>
     <cc:Agent>
      <dc:title>Matplotlib v3.7.3, https://matplotlib.org/</dc:title>
     </cc:Agent>
    </dc:creator>
   </cc:Work>
  </rdf:RDF>
 </metadata>
 <defs>
  <style type="text/css">*{stroke-linejoin: round; stroke-linecap: butt}</style>
 </defs>
 <g id="figure_1">
  <g id="patch_1">
   <path d="M 0 345.6 
L 460.8 345.6 
L 460.8 0 
L 0 0 
z
" style="fill: #ffffff"/>
  </g>
  <g id="axes_1">
   <g id="patch_2">
    <path d="M 57.6 307.584 
L 414.72 307.584 
L 414.72 41.472 
L 57.6 41.472 
z
" style="fill: #ffffff"/>
   </g>
   <g id="matplotlib.axis_1">
    <g id="xtick_1">
     <g id="line2d_1">
      <defs>
       <path id="mb10460d2f2" d="M 0 0 
L 0 3.5 
" style="stroke: #000000; stroke-width: 0.8"/>
      </defs>
      <g>
       <use xlink:href="#mb10460d2f2" x="73.832727" y="307.584" style="stroke: #000000; stroke-width: 0.8"/>
      </g>
     </g>
     <g id="text_1">
      <!-- 0 -->
      <g transform="translate(70.651477 322.182437) scale(0.1 -0.1)">
       <defs>
        <path id="DejaVuSans-30" d="M 2034 4250 
Q 1547 4250 1301 3770 
Q 1056 3291 1056 2328 
Q 1056 1369 1301 889 
Q 1547 409 2034 409 
Q 2525 409 2770 889 
Q 3016 1369 3016 2328 
Q 3016 3291 2770 3770 
Q 2525 4250 2034 4250 
z
M 2034 4750 
Q 2819 4750 3233 4129 
Q 3647 3509 3647 2328 
Q 3647 1150 3233 529 
Q 2819 -91 2034 -91 
Q 1250 -91 836 529 
Q 422 1150 422 2328 
Q 422 3509 836 4129 
Q 1250 4750 2034 4750 
z
" transform="scale(0.015625)"/>
       </defs>
       <use xlink:href="#DejaVuSans-30"/>
      </g>
     </g>
    </g>
    <g id="xtick_2">
     <g id="line2d_2">
      <g>
       <use xlink:href="#mb10460d2f2" x="128.122785" y="307.584" style="stroke: #000000; stroke-width: 0.8"/>
      </g>
     </g>
     <g id="text_2">
      <!-- 50 -->
      <g transform="translate(121.760285 322.182437) scale(0.1 -0.1)">
       <defs>
        <path id="DejaVuSans-35" d="M 691 4666 
L 3169 4666 
L 3169 4134 
L 1269 4134 
L 1269 2991 
Q 1406 3038 1543 3061 
Q 1681 3084 1819 3084 
Q 2600 3084 3056 2656 
Q 3513 2228 3513 1497 
Q 3513 744 3044 326 
Q 2575 -91 1722 -91 
Q 1428 -91 1123 -41 
Q 819 9 494 109 
L 494 744 
Q 775 591 1075 516 
Q 1375 441 1709 441 
Q 2250 441 2565 725 
Q 2881 1009 2881 1497 
Q 2881 1984 2565 2268 
Q 2250 2553 1709 2553 
Q 1456 2553 1204 2497 
Q 953 2441 691 2322 
L 691 4666 
z
" transform="scale(0.015625)"/>
       </defs>
       <use xlink:href="#DejaVuSans-35"/>
       <use xlink:href="#DejaVuSans-30" x="63.623047"/>
      </g>
     </g>
    </g>
    <g id="xtick_3">
     <g id="line2d_3">
      <g>
       <use xlink:href="#mb10460d2f2" x="182.412843" y="307.584" style="stroke: #000000; stroke-width: 0.8"/>
      </g>
     </g>
     <g id="text_3">
      <!-- 100 -->
      <g transform="translate(172.869093 322.182437) scale(0.1 -0.1)">
       <defs>
        <path id="DejaVuSans-31" d="M 794 531 
L 1825 531 
L 1825 4091 
L 703 3866 
L 703 4441 
L 1819 4666 
L 2450 4666 
L 2450 531 
L 3481 531 
L 3481 0 
L 794 0 
L 794 531 
z
" transform="scale(0.015625)"/>
       </defs>
       <use xlink:href="#DejaVuSans-31"/>
       <use xlink:href="#DejaVuSans-30" x="63.623047"/>
       <use xlink:href="#DejaVuSans-30" x="127.246094"/>
      </g>
     </g>
    </g>
    <g id="xtick_4">
     <g id="line2d_4">
      <g>
       <use xlink:href="#mb10460d2f2" x="236.702901" y="307.584" style="stroke: #000000; stroke-width: 0.8"/>
      </g>
     </g>
     <g id="text_4">
      <!-- 150 -->
      <g transform="translate(227.159151 322.182437) scale(0.1 -0.1)">
       <use xlink:href="#DejaVuSans-31"/>
       <use xlink:href="#DejaVuSans-35" x="63.623047"/>
       <use xlink:href="#DejaVuSans-30" x="127.246094"/>
      </g>
     </g>
    </g>
    <g id="xtick_5">
     <g id="line2d_5">
      <g>
       <use xlink:href="#mb10460d2f2" x="290.992958" y="307.584" style="stroke: #000000; stroke-width: 0.8"/>
      </g>
     </g>
     <g id="text_5">
      <!-- 200 -->
      <g transform="translate(281.449208 322.182437) scale(0.1 -0.1)">
       <defs>
        <path id="DejaVuSans-32" d="M 1228 531 
L 3431 531 
L 3431 0 
L 469 0 
L 469 531 
Q 828 903 1448 1529 
Q 2069 2156 2228 2338 
Q 2531 2678 2651 2914 
Q 2772 3150 2772 3378 
Q 2772 3750 2511 3984 
Q 2250 4219 1831 4219 
Q 1534 4219 1204 4116 
Q 875 4013 500 3803 
L 500 4441 
Q 881 4594 1212 4672 
Q 1544 4750 1819 4750 
Q 2544 4750 2975 4387 
Q 3406 4025 3406 3419 
Q 3406 3131 3298 2873 
Q 3191 2616 2906 2266 
Q 2828 2175 2409 1742 
Q 1991 1309 1228 531 
z
" transform="scale(0.015625)"/>
       </defs>
       <use xlink:href="#DejaVuSans-32"/>
       <use xlink:href="#DejaVuSans-30" x="63.623047"/>
       <use xlink:href="#DejaVuSans-30" x="127.246094"/>
      </g>
     </g>
    </g>
    <g id="xtick_6">
     <g id="line2d_6">
      <g>
       <use xlink:href="#mb10460d2f2" x="345.283016" y="307.584" style="stroke: #000000; stroke-width: 0.8"/>
      </g>
     </g>
     <g id="text_6">
      <!-- 250 -->
      <g transform="translate(335.739266 322.182437) scale(0.1 -0.1)">
       <use xlink:href="#DejaVuSans-32"/>
       <use xlink:href="#DejaVuSans-35" x="63.623047"/>
       <use xlink:href="#DejaVuSans-30" x="127.246094"/>
      </g>
     </g>
    </g>
    <g id="xtick_7">
     <g id="line2d_7">
      <g>
       <use xlink:href="#mb10460d2f2" x="399.573074" y="307.584" style="stroke: #000000; stroke-width: 0.8"/>
      </g>
     </g>
     <g id="text_7">
      <!-- 300 -->
      <g transform="translate(390.029324 322.182437) scale(0.1 -0.1)">
       <defs>
        <path id="DejaVuSans-33" d="M 2597 2516 
Q 3050 2419 3304 2112 
Q 3559 1806 3559 1356 
Q 3559 666 3084 287 
Q 2609 -91 1734 -91 
Q 1441 -91 1130 -33 
Q 819 25 488 141 
L 488 750 
Q 750 597 1062 519 
Q 1375 441 1716 441 
Q 2309 441 2620 675 
Q 2931 909 2931 1356 
Q 2931 1769 2642 2001 
Q 2353 2234 1838 2234 
L 1294 2234 
L 1294 2753 
L 1863 2753 
Q 2328 2753 2575 2939 
Q 2822 3125 2822 3475 
Q 2822 3834 2567 4026 
Q 2313 4219 1838 4219 
Q 1578 4219 1281 4162 
Q 984 4106 628 3988 
L 628 4550 
Q 988 4650 1302 4700 
Q 1616 4750 1894 4750 
Q 2613 4750 3031 4423 
Q 3450 4097 3450 3541 
Q 3450 3153 3228 2886 
Q 3006 2619 2597 2516 
z
" transform="scale(0.015625)"/>
       </defs>
       <use xlink:href="#DejaVuSans-33"/>
       <use xlink:href="#DejaVuSans-30" x="63.623047"/>
       <use xlink:href="#DejaVuSans-30" x="127.246094"/>
      </g>
     </g>
    </g>
   </g>
   <g id="matplotlib.axis_2">
    <g id="ytick_1">
     <g id="line2d_8">
      <defs>
       <path id="mf3f4469a20" d="M 0 0 
L -3.5 0 
" style="stroke: #000000; stroke-width: 0.8"/>
      </defs>
      <g>
       <use xlink:href="#mf3f4469a20" x="57.6" y="300.924748" style="stroke: #000000; stroke-width: 0.8"/>
      </g>
     </g>
     <g id="text_8">
      <!-- 0 -->
      <g transform="translate(44.2375 304.723967) scale(0.1 -0.1)">
       <use xlink:href="#DejaVuSans-30"/>
      </g>
     </g>
    </g>
    <g id="ytick_2">
     <g id="line2d_9">
      <g>
       <use xlink:href="#mf3f4469a20" x="57.6" y="250.102261" style="stroke: #000000; stroke-width: 0.8"/>
      </g>
     </g>
     <g id="text_9">
      <!-- 1000 -->
      <g transform="translate(25.15 253.90148) scale(0.1 -0.1)">
       <use xlink:href="#DejaVuSans-31"/>
       <use xlink:href="#DejaVuSans-30" x="63.623047"/>
       <use xlink:href="#DejaVuSans-30" x="127.246094"/>
       <use xlink:href="#DejaVuSans-30" x="190.869141"/>
      </g>
     </g>
    </g>
    <g id="ytick_3">
     <g id="line2d_10">
      <g>
       <use xlink:href="#mf3f4469a20" x="57.6" y="199.279774" style="stroke: #000000; stroke-width: 0.8"/>
      </g>
     </g>
     <g id="text_10">
      <!-- 2000 -->
      <g transform="translate(25.15 203.078993) scale(0.1 -0.1)">
       <use xlink:href="#DejaVuSans-32"/>
       <use xlink:href="#DejaVuSans-30" x="63.623047"/>
       <use xlink:href="#DejaVuSans-30" x="127.246094"/>
       <use xlink:href="#DejaVuSans-30" x="190.869141"/>
      </g>
     </g>
    </g>
    <g id="ytick_4">
     <g id="line2d_11">
      <g>
       <use xlink:href="#mf3f4469a20" x="57.6" y="148.457287" style="stroke: #000000; stroke-width: 0.8"/>
      </g>
     </g>
     <g id="text_11">
      <!-- 3000 -->
      <g transform="translate(25.15 152.256506) scale(0.1 -0.1)">
       <use xlink:href="#DejaVuSans-33"/>
       <use xlink:href="#DejaVuSans-30" x="63.623047"/>
       <use xlink:href="#DejaVuSans-30" x="127.246094"/>
       <use xlink:href="#DejaVuSans-30" x="190.869141"/>
      </g>
     </g>
    </g>
    <g id="ytick_5">
     <g id="line2d_12">
      <g>
       <use xlink:href="#mf3f4469a20" x="57.6" y="97.6348" style="stroke: #000000; stroke-width: 0.8"/>
      </g>
     </g>
     <g id="text_12">
      <!-- 4000 -->
      <g transform="translate(25.15 101.434019) scale(0.1 -0.1)">
       <defs>
        <path id="DejaVuSans-34" d="M 2419 4116 
L 825 1625 
L 2419 1625 
L 2419 4116 
z
M 2253 4666 
L 3047 4666 
L 3047 1625 
L 3713 1625 
L 3713 1100 
L 3047 1100 
L 3047 0 
L 2419 0 
L 2419 1100 
L 313 1100 
L 313 1709 
L 2253 4666 
z
" transform="scale(0.015625)"/>
       </defs>
       <use xlink:href="#DejaVuSans-34"/>
       <use xlink:href="#DejaVuSans-30" x="63.623047"/>
       <use xlink:href="#DejaVuSans-30" x="127.246094"/>
       <use xlink:href="#DejaVuSans-30" x="190.869141"/>
      </g>
     </g>
    </g>
    <g id="ytick_6">
     <g id="line2d_13">
      <g>
       <use xlink:href="#mf3f4469a20" x="57.6" y="46.812313" style="stroke: #000000; stroke-width: 0.8"/>
      </g>
     </g>
     <g id="text_13">
      <!-- 5000 -->
      <g transform="translate(25.15 50.611532) scale(0.1 -0.1)">
       <use xlink:href="#DejaVuSans-35"/>
       <use xlink:href="#DejaVuSans-30" x="63.623047"/>
       <use xlink:href="#DejaVuSans-30" x="127.246094"/>
       <use xlink:href="#DejaVuSans-30" x="190.869141"/>
      </g>
     </g>
    </g>
   </g>
   <g id="line2d_14">
    <path d="M 73.832727 108.526508 
L 74.918528 208.480091 
L 76.00433 232.21723 
L 77.090131 232.083431 
L 78.175932 227.39029 
L 79.261733 214.053656 
L 80.347534 216.765989 
L 81.433335 237.105178 
L 82.519137 238.301922 
L 83.604938 221.321542 
L 84.690739 236.175957 
L 85.77654 241.532013 
L 86.862341 241.901129 
L 87.948142 242.904439 
L 89.033943 237.310571 
L 90.119745 244.288615 
L 91.205546 232.285322 
L 92.291347 244.804205 
L 93.377148 235.526236 
L 94.462949 245.913016 
L 95.54875 235.268358 
L 96.634552 246.371761 
L 97.720353 243.725197 
L 98.806154 231.182092 
L 99.891955 235.664498 
L 100.977756 246.560307 
L 102.063557 230.323917 
L 103.149358 223.79712 
L 104.23516 241.844854 
L 105.320961 245.773251 
L 106.406762 245.849494 
L 107.492563 250.91368 
L 108.578364 249.494511 
L 109.664165 239.264382 
L 110.749967 246.244193 
L 111.835768 249.950631 
L 112.921569 244.099058 
L 114.00737 245.565117 
L 115.093171 252.086527 
L 116.178972 247.246184 
L 117.264773 244.52215 
L 118.350575 244.205633 
L 119.436376 255.824114 
L 120.522177 248.990756 
L 121.607978 256.220911 
L 122.693779 256.560274 
L 125.951183 246.910449 
L 127.036984 219.102708 
L 128.122785 237.466983 
L 129.208586 244.047553 
L 130.294387 239.461852 
L 131.380189 240.964113 
L 132.46599 218.844663 
L 133.551791 258.064414 
L 134.637592 255.907868 
L 135.723393 250.068278 
L 136.809194 260.926615 
L 137.894995 254.222875 
L 138.980797 255.935091 
L 140.066598 262.923268 
L 141.152399 256.853655 
L 142.2382 264.1563 
L 143.324001 264.256998 
L 144.409802 265.947023 
L 145.495604 266.177905 
L 146.581405 267.192922 
L 147.667206 268.862894 
L 148.753007 264.648648 
L 149.838808 266.090732 
L 150.924609 271.233251 
L 152.01041 260.136172 
L 153.096212 263.324316 
L 154.182013 272.532925 
L 155.267814 267.260809 
L 156.353615 272.022286 
L 157.439416 271.032092 
L 158.525217 261.684718 
L 159.611019 258.473584 
L 160.69682 225.752821 
L 161.782621 246.989006 
L 163.954223 272.257387 
L 165.040024 271.338414 
L 166.125825 273.383384 
L 167.211627 272.210667 
L 168.297428 270.351478 
L 169.383229 275.953695 
L 170.46903 275.912766 
L 172.640632 275.49218 
L 173.726434 275.870108 
L 174.812235 266.811454 
L 175.898036 275.033282 
L 176.983837 276.96687 
L 178.069638 259.877955 
L 179.155439 274.970871 
L 180.24124 266.611127 
L 181.327042 266.982749 
L 182.412843 264.150313 
L 183.498644 275.025482 
L 184.584445 266.097327 
L 185.670246 274.256419 
L 186.756047 273.631842 
L 187.841849 274.841284 
L 188.92765 275.752108 
L 190.013451 275.244099 
L 191.099252 277.332334 
L 192.185053 278.173859 
L 193.270854 279.185075 
L 194.356656 280.693862 
L 195.442457 275.444844 
L 196.528258 280.792216 
L 197.614059 271.32556 
L 198.69986 279.905951 
L 199.785661 262.858842 
L 200.871462 277.836039 
L 201.957264 271.982179 
L 203.043065 267.151402 
L 205.214667 277.570341 
L 206.300468 271.585535 
L 207.386269 272.900033 
L 208.472071 279.456898 
L 209.557872 281.730577 
L 210.643673 281.183385 
L 211.729474 282.93776 
L 212.815275 280.436294 
L 213.901076 282.656924 
L 214.986877 277.902187 
L 216.072679 282.675335 
L 217.15848 282.581135 
L 218.244281 281.659054 
L 219.330082 279.678908 
L 220.415883 283.187827 
L 221.501684 278.715781 
L 222.587486 272.381901 
L 223.673287 278.885904 
L 224.759088 276.81775 
L 225.844889 258.39614 
L 228.016491 277.033421 
L 229.102292 273.006455 
L 230.188094 269.798834 
L 231.273895 280.945474 
L 232.359696 282.265264 
L 233.445497 282.242251 
L 234.531298 283.05889 
L 235.617099 282.962917 
L 237.788702 283.648013 
L 238.874503 283.079303 
L 239.960304 285.005202 
L 241.046105 282.524653 
L 242.131906 281.597886 
L 243.217708 282.902124 
L 244.303509 280.327346 
L 245.38931 275.04669 
L 246.475111 281.381222 
L 247.560912 275.328032 
L 248.646713 275.880113 
L 249.732514 279.853043 
L 250.818316 272.464614 
L 251.904117 277.577202 
L 252.989918 280.547486 
L 254.075719 282.94948 
L 255.16152 286.003886 
L 256.247321 283.842993 
L 257.333123 284.780628 
L 258.418924 283.829049 
L 259.504725 286.462964 
L 260.590526 286.262337 
L 261.676327 282.576902 
L 262.762128 283.659923 
L 263.847929 285.230961 
L 264.933731 276.257227 
L 266.019532 277.771055 
L 267.105333 268.417236 
L 268.191134 282.526012 
L 269.276935 273.22892 
L 270.362736 281.027058 
L 271.448538 282.996024 
L 272.534339 282.885502 
L 273.62014 281.086739 
L 274.705941 278.657468 
L 275.791742 279.367359 
L 276.877543 280.63241 
L 277.963344 282.180808 
L 279.049146 284.348545 
L 280.134947 285.20272 
L 281.220748 282.772662 
L 282.306549 284.998222 
L 283.39235 282.666544 
L 284.478151 279.063384 
L 285.563953 288.049473 
L 286.649754 286.422399 
L 287.735555 285.332813 
L 288.821356 284.935312 
L 289.907157 286.874984 
L 290.992958 271.511036 
L 292.07876 284.824828 
L 293.164561 280.534357 
L 294.250362 280.026134 
L 295.336163 269.381463 
L 296.421964 278.042422 
L 297.507765 278.550007 
L 298.593566 283.441249 
L 299.679368 278.399974 
L 300.765169 287.771013 
L 301.85097 276.869759 
L 302.936771 286.431335 
L 304.022572 286.81913 
L 305.108373 284.559133 
L 306.194175 285.125664 
L 307.279976 287.974559 
L 308.365777 281.655211 
L 309.451578 287.773794 
L 310.537379 284.744273 
L 311.62318 285.673739 
L 312.708981 285.461423 
L 313.794783 286.69017 
L 314.880584 282.545516 
L 315.966385 284.020231 
L 317.052186 276.072849 
L 318.137987 287.981802 
L 319.223788 285.243261 
L 320.30959 285.697626 
L 321.395391 285.833329 
L 322.481192 281.785321 
L 323.566993 285.999151 
L 324.652794 287.046424 
L 325.738595 285.578274 
L 326.824396 285.992733 
L 327.910198 284.740336 
L 328.995999 285.057218 
L 330.0818 286.269433 
L 331.167601 282.453877 
L 332.253402 286.344718 
L 333.339203 287.231393 
L 334.425005 288.283471 
L 335.510806 288.033547 
L 336.596607 288.646163 
L 337.682408 283.371982 
L 338.768209 286.120303 
L 339.85401 284.675158 
L 340.939811 276.055566 
L 342.025613 286.61757 
L 343.111414 287.260015 
L 344.197215 279.409502 
L 345.283016 282.416578 
L 346.368817 284.216935 
L 347.454618 278.286911 
L 349.626221 284.522318 
L 350.712022 286.857575 
L 352.883624 289.021249 
L 353.969425 287.494179 
L 355.055227 289.857917 
L 356.141028 288.997829 
L 357.226829 290.002877 
L 358.31263 288.121104 
L 359.398431 289.619273 
L 360.484232 289.255178 
L 361.570033 286.812435 
L 362.655835 287.63102 
L 363.741636 280.15009 
L 364.827437 284.717166 
L 365.913238 284.34295 
L 366.999039 282.905258 
L 368.08484 289.3439 
L 369.170642 288.088654 
L 370.256443 285.935147 
L 371.342244 287.345513 
L 372.428045 289.178421 
L 373.513846 288.790593 
L 374.599647 286.392047 
L 375.685448 283.284432 
L 376.77125 288.077041 
L 377.857051 285.589521 
L 378.942852 283.45048 
L 380.028653 285.449908 
L 381.114454 280.683423 
L 382.200255 285.41445 
L 383.286057 286.88703 
L 384.371858 287.280435 
L 385.457659 288.934314 
L 386.54346 284.403961 
L 387.629261 288.115503 
L 389.800863 289.677886 
L 390.886665 281.70762 
L 391.972466 284.555032 
L 393.058267 289.664563 
L 394.144068 286.628036 
L 395.229869 288.476289 
L 396.31567 287.662435 
L 397.401472 270.73546 
L 398.487273 282.623416 
L 398.487273 282.623416 
" clip-path="url(#p27b5b35ffb)" style="fill: none; stroke: #1f77b4; stroke-width: 1.5; stroke-linecap: square"/>
   </g>
   <g id="line2d_15">
    <path d="M 73.832727 53.568 
L 74.918528 248.306683 
L 76.00433 271.00718 
L 77.090131 271.482245 
L 78.175932 271.331554 
L 79.261733 273.407127 
L 80.347534 275.928179 
L 81.433335 275.254128 
L 82.519137 278.533284 
L 83.604938 279.138822 
L 84.690739 280.522772 
L 86.862341 281.977109 
L 87.948142 282.102045 
L 89.033943 282.52031 
L 90.119745 284.957933 
L 91.205546 280.462614 
L 92.291347 285.193915 
L 93.377148 277.965106 
L 94.462949 285.289759 
L 95.54875 276.339197 
L 96.634552 284.483678 
L 97.720353 270.566917 
L 98.806154 277.915834 
L 99.891955 262.961395 
L 100.977756 264.056198 
L 102.063557 233.676951 
L 103.149358 236.991831 
L 104.23516 221.22234 
L 105.320961 248.908603 
L 106.406762 244.00747 
L 107.492563 275.613057 
L 108.578364 281.151785 
L 109.664165 288.64929 
L 110.749967 287.896809 
L 111.835768 291.29306 
L 112.921569 290.508619 
L 114.00737 291.016085 
L 115.093171 289.845151 
L 116.178972 291.384721 
L 117.264773 289.023931 
L 118.350575 290.668021 
L 119.436376 287.359706 
L 120.522177 290.288332 
L 121.607978 286.710379 
L 122.693779 288.355387 
L 123.77958 274.812417 
L 124.865382 272.104524 
L 125.951183 230.952228 
L 127.036984 202.670742 
L 128.122785 163.032487 
L 129.208586 193.815063 
L 130.294387 228.786599 
L 131.380189 196.564252 
L 132.46599 214.675399 
L 133.551791 276.391833 
L 134.637592 284.514733 
L 135.723393 290.879827 
L 136.809194 291.241637 
L 137.894995 292.520108 
L 138.980797 292.17598 
L 140.066598 291.698705 
L 141.152399 292.596121 
L 142.2382 291.735346 
L 143.324001 292.734765 
L 144.409802 292.396589 
L 145.495604 292.772985 
L 146.581405 292.451391 
L 147.667206 292.337898 
L 148.753007 292.796998 
L 149.838808 292.136333 
L 150.924609 293.001597 
L 152.01041 291.527155 
L 153.096212 293.396155 
L 154.182013 290.033895 
L 155.267814 291.558831 
L 156.353615 281.98592 
L 157.439416 277.536543 
L 158.525217 246.786747 
L 159.611019 227.141182 
L 160.69682 144.072259 
L 161.782621 163.010085 
L 162.868422 209.463203 
L 163.954223 269.668616 
L 165.040024 289.647174 
L 166.125825 293.91454 
L 167.211627 293.492135 
L 168.297428 294.135271 
L 169.383229 293.61457 
L 170.46903 294.917269 
L 171.554831 293.012945 
L 172.640632 294.621663 
L 173.726434 291.890028 
L 174.812235 291.523111 
L 175.898036 288.477197 
L 176.983837 290.987215 
L 178.069638 280.022878 
L 179.155439 280.822228 
L 180.24124 272.545512 
L 181.327042 267.756945 
L 182.412843 242.742114 
L 183.498644 263.792356 
L 184.584445 263.779524 
L 185.670246 271.422154 
L 186.756047 275.97769 
L 187.841849 287.098125 
L 188.92765 285.678099 
L 190.013451 289.490727 
L 191.099252 285.071871 
L 192.185053 291.721392 
L 193.270854 290.229136 
L 194.356656 293.227871 
L 195.442457 291.099655 
L 196.528258 293.584784 
L 197.614059 285.615191 
L 198.69986 289.710406 
L 199.785661 276.285332 
L 200.871462 278.030514 
L 201.957264 254.608943 
L 203.043065 262.103613 
L 204.128866 254.686883 
L 205.214667 264.005856 
L 206.300468 262.261779 
L 208.472071 277.821149 
L 209.557872 287.283604 
L 210.643673 287.049676 
L 211.729474 292.012389 
L 212.815275 292.995988 
L 213.901076 294.611077 
L 214.986877 291.943978 
L 216.072679 294.584096 
L 217.15848 290.18246 
L 218.244281 293.023058 
L 219.330082 288.825699 
L 220.415883 290.434239 
L 221.501684 281.696294 
L 222.587486 284.150222 
L 223.673287 267.850577 
L 224.759088 256.464632 
L 225.844889 242.730786 
L 226.93069 244.659612 
L 228.016491 251.654191 
L 229.102292 271.756763 
L 230.188094 278.18105 
L 231.273895 289.004417 
L 232.359696 289.780993 
L 233.445497 293.497915 
L 234.531298 290.113534 
L 235.617099 293.761327 
L 236.702901 290.515281 
L 237.788702 294.387012 
L 238.874503 291.254273 
L 239.960304 295.154379 
L 241.046105 290.823768 
L 242.131906 292.872641 
L 243.217708 286.01081 
L 244.303509 287.485151 
L 245.38931 277.202824 
L 246.475111 275.983141 
L 247.560912 252.774184 
L 248.646713 252.587181 
L 249.732514 248.948842 
L 250.818316 273.646092 
L 251.904117 268.693688 
L 252.989918 278.773523 
L 254.075719 283.745988 
L 255.16152 292.598273 
L 256.247321 286.756082 
L 257.333123 291.851638 
L 258.418924 290.062989 
L 259.504725 295.488 
L 260.590526 291.069882 
L 261.676327 292.470434 
L 262.762128 286.062599 
L 263.847929 288.276072 
L 264.933731 280.272458 
L 266.019532 284.974124 
L 267.105333 266.40217 
L 268.191134 276.541159 
L 269.276935 268.091976 
L 270.362736 277.219494 
L 271.448538 273.460568 
L 272.534339 281.040965 
L 273.62014 272.193422 
L 274.705941 279.068101 
L 275.791742 278.155616 
L 276.877543 282.752721 
L 277.963344 273.506715 
L 279.049146 284.999688 
L 280.134947 284.906499 
L 281.220748 292.734977 
L 282.306549 288.867849 
L 283.39235 294.282483 
L 284.478151 290.232525 
L 285.563953 294.254736 
L 286.649754 289.478264 
L 287.735555 293.188771 
L 288.821356 281.197095 
L 289.907157 288.898042 
L 290.992958 279.977925 
L 292.07876 284.893678 
L 293.164561 268.2819 
L 294.250362 271.578613 
L 295.336163 261.458547 
L 296.421964 263.374872 
L 297.507765 271.211682 
L 298.593566 284.791569 
L 299.679368 280.29836 
L 300.765169 289.360302 
L 301.85097 287.562946 
L 302.936771 290.728455 
L 304.022572 287.028498 
L 305.108373 291.852924 
L 306.194175 288.959035 
L 307.279976 291.828817 
L 308.365777 284.198028 
L 309.451578 287.246877 
L 310.537379 280.840562 
L 311.62318 282.689897 
L 312.708981 276.134222 
L 313.794783 279.632134 
L 314.880584 269.407588 
L 315.966385 281.837461 
L 317.052186 279.521981 
L 318.137987 288.802348 
L 319.223788 281.209589 
L 320.30959 284.921327 
L 321.395391 276.492589 
L 322.481192 285.354674 
L 323.566993 281.372116 
L 324.652794 286.361873 
L 325.738595 278.186712 
L 326.824396 284.015368 
L 327.910198 277.414152 
L 328.995999 284.733659 
L 330.0818 281.093447 
L 331.167601 287.988952 
L 332.253402 284.9151 
L 333.339203 288.591152 
L 334.425005 286.601232 
L 335.510806 292.4317 
L 336.596607 288.835518 
L 337.682408 290.948421 
L 338.768209 285.353826 
L 339.85401 289.426116 
L 340.939811 284.060395 
L 342.025613 286.021154 
L 343.111414 276.617513 
L 344.197215 271.019053 
L 345.283016 258.978878 
L 346.368817 270.336663 
L 347.454618 267.215658 
L 348.54042 285.078644 
L 349.626221 278.137975 
L 350.712022 287.854278 
L 351.797823 282.17543 
L 352.883624 294.038794 
L 353.969425 287.458319 
L 355.055227 294.352197 
L 356.141028 290.640485 
L 357.226829 293.458154 
L 358.31263 288.485908 
L 359.398431 294.323896 
L 360.484232 288.227502 
L 361.570033 286.754151 
L 362.655835 278.817917 
L 363.741636 278.146881 
L 364.827437 265.676605 
L 365.913238 272.876526 
L 366.999039 271.082346 
L 368.08484 289.055494 
L 369.170642 284.659243 
L 370.256443 292.588493 
L 371.342244 286.598153 
L 372.428045 292.049146 
L 373.513846 286.634392 
L 374.599647 290.564074 
L 375.685448 285.523878 
L 376.77125 289.040386 
L 377.857051 276.854214 
L 378.942852 284.590435 
L 380.028653 274.921985 
L 381.114454 279.208613 
L 382.200255 278.529761 
L 383.286057 283.682349 
L 384.371858 276.092745 
L 385.457659 283.608359 
L 386.54346 279.793515 
L 387.629261 291.87267 
L 388.715062 286.539078 
L 389.800863 290.782662 
L 390.886665 289.794819 
L 391.972466 292.752304 
L 393.058267 288.027429 
L 394.144068 289.747261 
L 395.229869 280.891758 
L 396.31567 281.568199 
L 397.401472 270.190675 
L 398.487273 279.784955 
L 398.487273 279.784955 
" clip-path="url(#p27b5b35ffb)" style="fill: none; stroke: #ff7f0e; stroke-opacity: 0.5; stroke-width: 1.5; stroke-linecap: square"/>
   </g>
   <g id="patch_3">
    <path d="M 57.6 307.584 
L 57.6 41.472 
" style="fill: none; stroke: #000000; stroke-width: 0.8; stroke-linejoin: miter; stroke-linecap: square"/>
   </g>
   <g id="patch_4">
    <path d="M 414.72 307.584 
L 414.72 41.472 
" style="fill: none; stroke: #000000; stroke-width: 0.8; stroke-linejoin: miter; stroke-linecap: square"/>
   </g>
   <g id="patch_5">
    <path d="M 57.6 307.584 
L 414.72 307.584 
" style="fill: none; stroke: #000000; stroke-width: 0.8; stroke-linejoin: miter; stroke-linecap: square"/>
   </g>
   <g id="patch_6">
    <path d="M 57.6 41.472 
L 414.72 41.472 
" style="fill: none; stroke: #000000; stroke-width: 0.8; stroke-linejoin: miter; stroke-linecap: square"/>
   </g>
   <g id="legend_1">
    <g id="patch_7">
     <path d="M 351.768438 78.82825 
L 407.72 78.82825 
Q 409.72 78.82825 409.72 76.82825 
L 409.72 48.472 
Q 409.72 46.472 407.72 46.472 
L 351.768438 46.472 
Q 349.768438 46.472 349.768438 48.472 
L 349.768438 76.82825 
Q 349.768438 78.82825 351.768438 78.82825 
z
" style="fill: #ffffff; opacity: 0.8; stroke: #cccccc; stroke-linejoin: miter"/>
    </g>
    <g id="line2d_16">
     <path d="M 353.768438 54.570437 
L 363.768438 54.570437 
L 373.768438 54.570437 
" style="fill: none; stroke: #1f77b4; stroke-width: 1.5; stroke-linecap: square"/>
    </g>
    <g id="text_14">
     <!-- train -->
     <g transform="translate(381.768438 58.070437) scale(0.1 -0.1)">
      <defs>
       <path id="DejaVuSans-74" d="M 1172 4494 
L 1172 3500 
L 2356 3500 
L 2356 3053 
L 1172 3053 
L 1172 1153 
Q 1172 725 1289 603 
Q 1406 481 1766 481 
L 2356 481 
L 2356 0 
L 1766 0 
Q 1100 0 847 248 
Q 594 497 594 1153 
L 594 3053 
L 172 3053 
L 172 3500 
L 594 3500 
L 594 4494 
L 1172 4494 
z
" transform="scale(0.015625)"/>
       <path id="DejaVuSans-72" d="M 2631 2963 
Q 2534 3019 2420 3045 
Q 2306 3072 2169 3072 
Q 1681 3072 1420 2755 
Q 1159 2438 1159 1844 
L 1159 0 
L 581 0 
L 581 3500 
L 1159 3500 
L 1159 2956 
Q 1341 3275 1631 3429 
Q 1922 3584 2338 3584 
Q 2397 3584 2469 3576 
Q 2541 3569 2628 3553 
L 2631 2963 
z
" transform="scale(0.015625)"/>
       <path id="DejaVuSans-61" d="M 2194 1759 
Q 1497 1759 1228 1600 
Q 959 1441 959 1056 
Q 959 750 1161 570 
Q 1363 391 1709 391 
Q 2188 391 2477 730 
Q 2766 1069 2766 1631 
L 2766 1759 
L 2194 1759 
z
M 3341 1997 
L 3341 0 
L 2766 0 
L 2766 531 
Q 2569 213 2275 61 
Q 1981 -91 1556 -91 
Q 1019 -91 701 211 
Q 384 513 384 1019 
Q 384 1609 779 1909 
Q 1175 2209 1959 2209 
L 2766 2209 
L 2766 2266 
Q 2766 2663 2505 2880 
Q 2244 3097 1772 3097 
Q 1472 3097 1187 3025 
Q 903 2953 641 2809 
L 641 3341 
Q 956 3463 1253 3523 
Q 1550 3584 1831 3584 
Q 2591 3584 2966 3190 
Q 3341 2797 3341 1997 
z
" transform="scale(0.015625)"/>
       <path id="DejaVuSans-69" d="M 603 3500 
L 1178 3500 
L 1178 0 
L 603 0 
L 603 3500 
z
M 603 4863 
L 1178 4863 
L 1178 4134 
L 603 4134 
L 603 4863 
z
" transform="scale(0.015625)"/>
       <path id="DejaVuSans-6e" d="M 3513 2113 
L 3513 0 
L 2938 0 
L 2938 2094 
Q 2938 2591 2744 2837 
Q 2550 3084 2163 3084 
Q 1697 3084 1428 2787 
Q 1159 2491 1159 1978 
L 1159 0 
L 581 0 
L 581 3500 
L 1159 3500 
L 1159 2956 
Q 1366 3272 1645 3428 
Q 1925 3584 2291 3584 
Q 2894 3584 3203 3211 
Q 3513 2838 3513 2113 
z
" transform="scale(0.015625)"/>
      </defs>
      <use xlink:href="#DejaVuSans-74"/>
      <use xlink:href="#DejaVuSans-72" x="39.208984"/>
      <use xlink:href="#DejaVuSans-61" x="80.322266"/>
      <use xlink:href="#DejaVuSans-69" x="141.601562"/>
      <use xlink:href="#DejaVuSans-6e" x="169.384766"/>
     </g>
    </g>
    <g id="line2d_17">
     <path d="M 353.768438 69.248562 
L 363.768438 69.248562 
L 373.768438 69.248562 
" style="fill: none; stroke: #ff7f0e; stroke-opacity: 0.5; stroke-width: 1.5; stroke-linecap: square"/>
    </g>
    <g id="text_15">
     <!-- valid -->
     <g transform="translate(381.768438 72.748562) scale(0.1 -0.1)">
      <defs>
       <path id="DejaVuSans-76" d="M 191 3500 
L 800 3500 
L 1894 563 
L 2988 3500 
L 3597 3500 
L 2284 0 
L 1503 0 
L 191 3500 
z
" transform="scale(0.015625)"/>
       <path id="DejaVuSans-6c" d="M 603 4863 
L 1178 4863 
L 1178 0 
L 603 0 
L 603 4863 
z
" transform="scale(0.015625)"/>
       <path id="DejaVuSans-64" d="M 2906 2969 
L 2906 4863 
L 3481 4863 
L 3481 0 
L 2906 0 
L 2906 525 
Q 2725 213 2448 61 
Q 2172 -91 1784 -91 
Q 1150 -91 751 415 
Q 353 922 353 1747 
Q 353 2572 751 3078 
Q 1150 3584 1784 3584 
Q 2172 3584 2448 3432 
Q 2725 3281 2906 2969 
z
M 947 1747 
Q 947 1113 1208 752 
Q 1469 391 1925 391 
Q 2381 391 2643 752 
Q 2906 1113 2906 1747 
Q 2906 2381 2643 2742 
Q 2381 3103 1925 3103 
Q 1469 3103 1208 2742 
Q 947 2381 947 1747 
z
" transform="scale(0.015625)"/>
      </defs>
      <use xlink:href="#DejaVuSans-76"/>
      <use xlink:href="#DejaVuSans-61" x="59.179688"/>
      <use xlink:href="#DejaVuSans-6c" x="120.458984"/>
      <use xlink:href="#DejaVuSans-69" x="148.242188"/>
      <use xlink:href="#DejaVuSans-64" x="176.025391"/>
     </g>
    </g>
   </g>
  </g>
 </g>
 <defs>
  <clipPath id="p27b5b35ffb">
   <rect x="57.6" y="41.472" width="357.12" height="266.112"/>
  </clipPath>
 </defs>
</svg>
